<svg width="48" height="49" viewBox="0 0 48 49" fill="none" xmlns="http://www.w3.org/2000/svg">
<path d="M15.6353 32.8315C12.917 34.9665 11.167 38.2798 11.167 42.0015V45.5015H4.16699C2.23033 45.5015 0.666992 43.9381 0.666992 42.0015V39.6681C0.666992 35.1531 4.31866 31.5015 8.83366 31.5015H11.167C12.8237 31.5015 14.352 31.9915 15.6353 32.8315Z" fill="white"/>
<path d="M38 31.5015C40.8995 31.5015 43.25 29.151 43.25 26.2515C43.25 23.352 40.8995 21.0015 38 21.0015C35.1005 21.0015 32.75 23.352 32.75 26.2515C32.75 29.151 35.1005 31.5015 38 31.5015Z" fill="white"/>
<path d="M10 31.5015C12.8995 31.5015 15.25 29.151 15.25 26.2515C15.25 23.352 12.8995 21.0015 10 21.0015C7.1005 21.0015 4.75 23.352 4.75 26.2515C4.75 29.151 7.1005 31.5015 10 31.5015Z" fill="white"/>
<path d="M47.3336 39.6681V42.0015C47.3336 43.9381 45.7702 45.5015 43.8336 45.5015H36.8336V42.0015C36.8336 38.2798 35.0836 34.9665 32.3652 32.8315C33.6486 31.9915 35.1769 31.5015 36.8336 31.5015H39.1669C43.6819 31.5015 47.3336 35.1531 47.3336 39.6681Z" fill="white"/>
<path d="M23.9997 32.6682C27.5435 32.6682 30.4163 29.7953 30.4163 26.2515C30.4163 22.7077 27.5435 19.8348 23.9997 19.8348C20.4558 19.8348 17.583 22.7077 17.583 26.2515C17.583 29.7953 20.4558 32.6682 23.9997 32.6682Z" fill="white"/>
<path d="M25.1667 32.6681H22.8333C17.6872 32.6681 13.5 36.8553 13.5 42.0014V45.5014C13.5 47.4311 15.0703 49.0014 17 49.0014H31C32.9297 49.0014 34.5 47.4311 34.5 45.5014V42.0014C34.5 36.8553 30.3128 32.6681 25.1667 32.6681Z" fill="white"/>
<path d="M40.9168 15.9661L38.1017 16.9671C37.3025 17.2506 36.4683 16.6451 36.4917 15.7969L36.5733 12.8103L34.751 10.4419C34.2342 9.76994 34.5527 8.78877 35.3658 8.54844L38.2323 7.70377L39.9217 5.2386C40.4012 4.53977 41.4325 4.53977 41.912 5.2386L43.6013 7.70377L46.4678 8.54844C47.281 8.7876 47.5995 9.76994 47.0827 10.4419L45.2603 12.8103L45.342 15.7969C45.3653 16.6439 44.53 17.2506 43.732 16.9671L40.9168 15.9661Z" fill="white"/>
<path d="M7.08286 15.9661L4.26769 16.9671C3.46853 17.2506 2.63436 16.6451 2.65769 15.7969L2.73936 12.8103L0.917027 10.4419C0.400194 9.76994 0.718693 8.78877 1.53186 8.54844L4.39836 7.70377L6.08769 5.2386C6.56719 4.53977 7.59853 4.53977 8.07803 5.2386L9.76736 7.70377L12.6339 8.54844C13.447 8.7876 13.7655 9.76994 13.2487 10.4419L11.4264 12.8103L11.508 15.7969C11.5314 16.6439 10.696 17.2506 9.89803 16.9671L7.08286 15.9661Z" fill="white"/>
<path d="M24.0002 13.3411L20.6624 14.5276C19.7151 14.8648 18.7257 14.145 18.7537 13.1405L18.8506 9.59963L16.6899 6.79146C16.0774 5.99462 16.4554 4.83146 17.4191 4.54679L20.8176 3.54463L22.8207 0.622125C23.3889 -0.207375 24.6127 -0.207375 25.1809 0.622125L27.1841 3.54463L30.5826 4.54679C31.5462 4.83146 31.9242 5.99462 31.3117 6.79146L29.1511 9.59963L29.2479 13.1405C29.2759 14.145 28.2854 14.8648 27.3392 14.5276L24.0002 13.3411Z" fill="white"/>
</svg>
