<svg width="20" height="20" viewBox="0 0 20 20" fill="none" xmlns="http://www.w3.org/2000/svg">
<g clip-path="url(#clip0_1791_6794)">
<path d="M19.2082 4.41295L10.1274 0.0291211C10.0469 -0.00970703 9.95313 -0.00970703 9.87266 0.0291211L0.791837 4.41295C0.690587 4.46182 0.626251 4.56436 0.626251 4.67678V15.3232C0.626251 15.4356 0.690587 15.5382 0.791837 15.5871L9.87262 19.9709C9.91285 19.9903 9.95645 20 10 20C10.0436 20 10.0871 19.9903 10.1274 19.9709L19.2082 15.5871C19.3094 15.5382 19.3738 15.4356 19.3738 15.3232V4.67682C19.3738 4.56432 19.3094 4.46186 19.2082 4.41295ZM10 0.618301L18.4069 4.67678L15.9699 5.85326C15.9545 5.8415 15.9382 5.83064 15.9203 5.82201L7.57051 1.79115L10 0.618301ZM6.90887 2.1224L15.3036 6.17498L13.5842 7.00502L5.19301 2.95408L6.90887 2.1224ZM15.5 6.73076V9.79896L13.894 10.5743V7.50607L15.5 6.73076ZM18.7878 15.1394L10.293 19.2403V9.24447L12.3193 8.26627C12.465 8.19592 12.5261 8.0208 12.4557 7.87506C12.3854 7.72939 12.2102 7.66822 12.0645 7.73861L10 8.73529L9.18766 8.34311C9.04192 8.27268 8.8668 8.33385 8.79645 8.47955C8.7261 8.62525 8.78719 8.80041 8.93289 8.87076L9.70703 9.24447V19.2403L1.21219 15.1393V5.14354L7.68094 8.26639C7.72199 8.28623 7.76539 8.29561 7.80809 8.29561C7.91699 8.29561 8.0216 8.23459 8.07211 8.12994C8.14246 7.98424 8.08137 7.80908 7.93567 7.73873L1.59309 4.67678L4.50344 3.27178L13.304 7.52033C13.3053 7.52213 13.3067 7.52373 13.308 7.52549V11.0411C13.308 11.1419 13.3599 11.2356 13.4453 11.2892C13.4927 11.319 13.5468 11.334 13.6011 11.334C13.6445 11.334 13.688 11.3244 13.7284 11.3049L15.9203 10.2467C16.0216 10.1979 16.0859 10.0954 16.0859 9.98291V6.44795L18.7878 5.14357V15.1394Z" fill="#1C2359"/>
<path d="M3.62993 14.0031L2.29731 13.3598C2.15153 13.2894 1.97645 13.3506 1.9061 13.4963C1.83575 13.642 1.89684 13.8171 2.04255 13.8875L3.37516 14.5308C3.41622 14.5506 3.45962 14.56 3.50231 14.56C3.61122 14.56 3.71583 14.499 3.76634 14.3943C3.83673 14.2486 3.77563 14.0735 3.62993 14.0031Z" fill="#1C2359"/>
<path d="M4.85637 13.2047L2.29915 11.9701C2.15341 11.8998 1.97829 11.9609 1.90794 12.1066C1.83763 12.2523 1.89872 12.4275 2.04442 12.4978L4.60165 13.7324C4.6427 13.7522 4.6861 13.7616 4.7288 13.7616C4.8377 13.7616 4.94231 13.7006 4.99282 13.5959C5.06317 13.4501 5.00208 13.275 4.85637 13.2047Z" fill="#1C2359"/>
</g>
<defs>
<clipPath id="clip0_1791_6794">
<rect width="20" height="20" fill="white"/>
</clipPath>
</defs>
</svg>
