<svg width="41" height="40" viewBox="0 0 41 40" fill="none" xmlns="http://www.w3.org/2000/svg">
<path fill-rule="evenodd" clip-rule="evenodd" d="M15.727 10.9237C15.0279 11.4044 14.8395 12.3773 15.3298 13.0712L17.577 16.2528C18.0219 16.8628 18.2988 16.8628 19.0206 16.8651H21.4198L22.7227 14.8401L21.413 13.6653L19.6039 13.6744C19.5086 13.6744 19.4973 13.6744 19.4405 13.5927L17.8766 11.3205C17.3954 10.6221 16.4284 10.443 15.727 10.9237Z" fill="#FED1A3"/>
<path fill-rule="evenodd" clip-rule="evenodd" d="M33.2343 26.5913L31.5342 27.9315L31.9314 29.9724L31.9042 30.0404C31.659 30.6799 31.7793 33.2787 33.1095 33.2787L33.5044 33.8502L33.8812 33.2787L35.5586 28.766C35.7879 28.147 36.0602 27.6277 35.4111 27.3895L33.2343 26.5913Z" fill="#FD8087"/>
<path fill-rule="evenodd" clip-rule="evenodd" d="M28.2293 20.0488C25.7552 20.5999 23.3309 22.1669 23.9574 24.5661L25.2172 27.174C25.392 27.5322 25.5918 27.793 26.132 27.979L31.9315 29.9723L33.2344 26.5911L29.6843 25.4074C29.2417 25.26 29.2099 25.1103 29.1214 24.65L28.8853 23.4322L28.2293 20.0488Z" fill="#D6DCEA"/>
<path fill-rule="evenodd" clip-rule="evenodd" d="M28.2293 20.049C26.1637 18.7066 23.9529 18.3369 21.4266 20.049L18.6937 22.7182C18.251 23.1513 17.9355 23.7228 17.9355 24.4711V25.5211V30.0837L19.6607 31.3604L21.4152 30.0837L21.4016 26.9565C21.4016 26.0585 21.2586 26.0743 22.0213 25.6481L23.9574 24.5664C25.0606 23.9337 27.8344 22.725 28.2293 20.049Z" fill="#F8F2F0"/>
<path fill-rule="evenodd" clip-rule="evenodd" d="M21.4126 13.6652L21.4171 15.5315L21.4194 16.865L21.4262 20.0489H28.229L29.0348 15.9896C27.2257 15.6064 30.0494 13.4566 28.4923 12.545L27.0283 10.4383L25.108 9.38379L23.4556 10.4655L21.4126 13.6652Z" fill="#FD8087"/>
<path fill-rule="evenodd" clip-rule="evenodd" d="M17.9355 30.0835C17.1206 30.0835 15.0255 31.0472 15.1141 33.2787L17.9582 34.6802L21.422 33.2787L21.4151 30.1379V30.0835H17.9355Z" fill="#FD8087"/>
<path fill-rule="evenodd" clip-rule="evenodd" d="M21.8894 3.61023C21.1902 4.37898 20.7612 5.39947 20.7612 6.51743C20.7612 8.27715 21.9778 9.79203 23.4556 10.4655C23.9799 10.7036 24.5383 10.8351 25.0853 10.8351C25.8389 10.8351 26.4835 10.6945 27.0283 10.4383C27.9907 9.98933 28.6466 9.18884 29.0666 8.20009C29.0666 8.20009 28.2903 3.79619 25.8434 3.61023C24.7358 3.52626 22.879 4.27008 21.8894 3.61023Z" fill="#FED1A3"/>
<path fill-rule="evenodd" clip-rule="evenodd" d="M21.1674 0.601074C20.4116 1.99571 20.9178 2.96628 21.8893 3.61034C22.8789 4.27028 24.3543 4.58997 25.4621 4.67394C27.9089 4.85989 29.0666 8.2002 29.0666 8.2002C30.1221 5.0095 29.398 2.47651 26.8444 1.57395C25.3667 1.05005 23.7937 1.90729 21.1674 0.601074Z" fill="#609ECF"/>
<path fill-rule="evenodd" clip-rule="evenodd" d="M22.2165 23.7747L20.2825 24.8542C19.5176 25.2827 19.6606 25.2647 19.6628 26.1626L19.6765 30.0835H21.4152L21.4015 26.9563C21.4015 26.0582 21.2585 26.0741 22.0212 25.6478L23.9574 24.5661C25.0605 23.9334 27.8343 22.7248 28.2292 20.0488H25.6257C24.8654 22.1782 23.2061 23.2078 22.2165 23.7747Z" fill="#D6DCEA"/>
<path fill-rule="evenodd" clip-rule="evenodd" d="M4.36182 14.0623V28.7639L6.01201 30.4964L7.6599 28.7639V15.9332L6.01201 13.9829L4.36182 14.0623Z" fill="#609ECF"/>
<path d="M6.01228 31.3599L3.7666 29.0022V13.4953L6.27697 13.3745L8.25511 15.7156V29.002L6.01228 31.3599ZM4.95702 28.526L6.01165 29.6333L7.06461 28.5263V16.1512L5.74696 14.5918L4.95702 14.6298V28.526Z" fill="#609ECF"/>
<path fill-rule="evenodd" clip-rule="evenodd" d="M3.07261 10.1504C2.31672 9.72183 1.31344 9.96898 0.84137 10.6992C0.369217 11.4317 0.603032 12.3796 1.35892 12.8082L3.56976 14.0622L6.86562 15.9331L9.65298 17.5137C10.4089 17.9422 11.4121 17.6951 11.882 16.9626C12.3542 16.2324 12.1203 15.2823 11.3644 14.8537L3.07261 10.1504Z" fill="#F8F2F0"/>
<path fill-rule="evenodd" clip-rule="evenodd" d="M4.36182 14.5137V16.6725L5.40819 17.2939C6.18447 17.7338 5.96883 17.6341 6.01193 18.3756V28.764H7.65982V16.3846L6.86536 15.9333L4.36182 14.5137Z" fill="#1C74BB"/>
<path fill-rule="evenodd" clip-rule="evenodd" d="M10.0205 14.0918C10.7764 14.5204 11.0102 15.4683 10.5381 16.2007C10.0682 16.9309 9.06497 17.1781 8.30908 16.7518L9.65284 17.5137C10.4087 17.9423 11.412 17.6951 11.8819 16.9627C12.354 16.2325 12.1202 15.2823 11.3643 14.8537L10.0205 14.0918Z" fill="#D6DCEA"/>
<path fill-rule="evenodd" clip-rule="evenodd" d="M27.5802 24.5457L28.2317 26.1059C28.3225 26.5662 28.6788 26.7159 29.1214 26.8633L32.6737 28.047L33.2344 26.5911L29.6843 25.4074C29.2417 25.26 29.2099 25.1103 29.1214 24.65L28.8853 23.4322L28.2294 20.0488C28.134 20.6974 27.8979 21.262 27.5802 21.7496C26.5883 23.278 24.7929 24.0876 23.9575 24.5661L24.4909 25.6705C25.3263 25.294 25.6962 25.1534 26.6541 24.498C27.2466 24.0899 27.4258 23.7475 27.5802 24.5457Z" fill="#92BCDE"/>
<path fill-rule="evenodd" clip-rule="evenodd" d="M25.9026 16.7767C25.9026 17.5364 25.8595 18.2779 25.7777 18.9968C25.7368 19.3529 25.6846 19.7044 25.6256 20.0491H26.293H28.2291L29.0349 15.9899C28.9032 15.9626 28.7943 15.9241 28.7081 15.8787L27.5936 15.4978C26.7878 15.2234 26.3543 14.3413 26.6289 13.5385C26.8923 12.7652 27.7139 12.3366 28.4924 12.5452L27.0284 10.4385C26.4836 10.6948 25.839 10.8353 25.0854 10.8353C25.0355 10.8353 24.9855 10.8353 24.9355 10.833C25.5484 12.561 25.9026 14.5952 25.9026 16.7767Z" fill="#FE636E"/>
<path fill-rule="evenodd" clip-rule="evenodd" d="M11.4369 33.2788L9.05811 36.3447L11.4369 39.4107H36.9727C38.6592 39.4107 40.0416 38.0319 40.0416 36.3447C40.0416 34.6599 38.6593 33.2788 36.9727 33.2788C30.6263 33.2788 24.282 33.2788 17.9377 33.2788C15.77 33.2788 13.6046 33.2788 11.4369 33.2788Z" fill="#609ECF"/>
<path fill-rule="evenodd" clip-rule="evenodd" d="M11.437 38.1251V39.4109H36.9729C38.6593 39.4109 40.0417 38.0321 40.0417 36.345C40.0417 35.6419 39.8011 34.9911 39.3971 34.4741C39.7013 36.1862 39.177 38.1251 36.3805 38.1251H11.437V38.1251Z" fill="#1C74BB"/>
<path fill-rule="evenodd" clip-rule="evenodd" d="M4.36156 28.7637H1.71269C1.29276 28.7637 0.947754 29.1084 0.947754 29.5279V38.6463C0.947754 39.0682 1.29276 39.4106 1.71269 39.4106H11.4367V36.3446V33.2787V32.4351C11.4367 30.4168 9.78199 28.7637 7.76179 28.7637H7.65964H4.36156Z" fill="#F8F2F0"/>
<path fill-rule="evenodd" clip-rule="evenodd" d="M7.65993 28.7637H5.30615C5.98712 28.7637 6.62491 28.9519 7.17198 29.2761C7.34453 29.3782 7.50794 29.4938 7.66001 29.6208C8.46582 30.2966 8.98107 31.308 8.98107 32.4351V39.4106H11.4371C11.4371 37.0861 11.4371 34.7617 11.4371 32.4351C11.4371 30.4168 9.78236 28.7637 7.76216 28.7637H7.65993Z" fill="#D6DCEA"/>
<path fill-rule="evenodd" clip-rule="evenodd" d="M19.6763 30.1379L19.6786 31.3465L19.6831 33.2786H21.4218L21.415 30.1379V30.0835H19.6763V30.1379Z" fill="#FE636E"/>
<path fill-rule="evenodd" clip-rule="evenodd" d="M33.2342 26.5913L32.6736 28.0472L32.6646 28.0676L35.4587 29.0291L35.5586 28.7661C35.7879 28.1471 36.0602 27.6278 35.411 27.3896L33.2342 26.5913Z" fill="#FE636E"/>
<path fill-rule="evenodd" clip-rule="evenodd" d="M26.7898 5.12061C26.9283 7.55843 26.2609 9.17982 24.6289 10.8057C24.7311 10.8193 24.8332 10.8284 24.9353 10.8329C24.9853 10.8352 25.0352 10.8352 25.0852 10.8352C25.8388 10.8352 26.4834 10.6946 27.0282 10.4384C27.9906 9.98944 28.6465 9.18894 29.0665 8.20019C29.0665 8.20019 28.331 6.07301 26.7898 5.12061Z" fill="#FFBC85"/>
<path fill-rule="evenodd" clip-rule="evenodd" d="M24.1093 1.45813C25.3372 1.89124 26.143 2.70538 26.5312 3.78477C26.6764 4.19295 26.7627 4.63971 26.7899 5.12043C28.3312 6.07283 29.0666 8.20002 29.0666 8.20002C30.1221 5.00932 29.398 2.47633 26.8444 1.57377C25.9024 1.24043 24.9241 1.46718 23.6553 1.33789C23.8096 1.36519 23.9595 1.40599 24.1093 1.45813Z" fill="#1C74BB"/>
<path fill-rule="evenodd" clip-rule="evenodd" d="M27.5936 15.4978C26.7878 15.2235 26.3543 14.3413 26.6289 13.5385C26.8922 12.7652 27.7139 12.3367 28.4924 12.5452C28.5242 12.5521 28.5582 12.5634 28.59 12.5747L32.6531 13.958C33.2546 14.1643 33.6745 14.7267 33.6994 15.3594V16.7631V19.3936C33.6994 20.2463 32.9799 20.9357 32.1332 20.9311C31.282 20.9288 30.6033 20.2304 30.6033 19.38V16.7948C30.6033 16.6406 30.6419 16.5363 30.508 16.4909L29.0349 15.9897L27.5936 15.4978Z" fill="#FED1A3"/>
<path fill-rule="evenodd" clip-rule="evenodd" d="M15.3298 13.0713L17.577 16.2529C18.0219 16.8629 18.2988 16.8629 19.0206 16.8652H21.4198L21.4175 15.5953H19.8127C19.0909 15.5953 18.814 15.593 18.3714 14.983L16.1242 11.8014C15.9199 11.5134 15.8336 11.1778 15.8518 10.8467C15.8087 10.8716 15.7678 10.8966 15.7269 10.9237C15.0279 11.4045 14.8395 12.3774 15.3298 13.0713Z" fill="#FFBC85"/>
<path fill-rule="evenodd" clip-rule="evenodd" d="M26.6289 13.5385C26.3542 14.3413 26.7878 15.2234 27.5936 15.4978L28.7081 15.8788L29.0349 15.9899L30.5081 16.4911C30.6419 16.5364 30.6034 16.6408 30.6034 16.795V19.3802C30.6034 20.2306 31.282 20.9291 32.1332 20.9314C32.7529 20.9337 33.3045 20.564 33.5564 20.0311C33.477 20.0447 33.3976 20.0493 33.3158 20.0493C32.4646 20.047 31.7859 19.3485 31.7859 18.5004V15.913C31.7859 15.7611 31.8268 15.6567 31.6928 15.6114L30.2197 15.108L28.7761 14.6159C28.7262 14.6 28.6785 14.5796 28.6309 14.5592C27.9204 14.2349 27.555 13.4118 27.8115 12.6567C27.8297 12.6045 27.8478 12.5569 27.8705 12.5093C27.3144 12.5906 26.8219 12.9716 26.6289 13.5385Z" fill="#FFBC85"/>
<path d="M36.9726 32.6836H34.7415C34.7395 32.6836 34.7381 32.6816 34.7388 32.6798L36.1166 28.9728C36.1367 28.9185 36.1571 28.8651 36.1772 28.8125C36.3413 28.3832 36.5273 27.8966 36.3162 27.4326C36.1911 27.1577 35.9555 26.9553 35.6159 26.8307L33.4391 26.0326C33.4365 26.0316 33.4338 26.031 33.4312 26.0301C33.4282 26.0291 33.4254 26.0276 33.4224 26.0267L29.8722 24.8428C29.8178 24.8247 29.7838 24.8106 29.7635 24.801C29.7628 24.8007 29.7625 24.8002 29.7622 24.7995C29.7446 24.7404 29.7226 24.6255 29.7055 24.5368L28.8357 20.0508C28.8357 20.0504 28.8357 20.05 28.8357 20.0497L29.4858 16.775C29.4861 16.7733 29.4879 16.7723 29.4895 16.7728L30.0061 16.9489C30.0073 16.9493 30.008 16.9505 30.008 16.9516V19.38C30.008 20.5604 30.9607 21.5232 32.13 21.5263H32.1411C32.706 21.5263 33.2611 21.2963 33.6653 20.8942C34.0711 20.4905 34.2947 19.9575 34.2947 19.3935V15.3593C34.2947 15.3515 34.2946 15.3437 34.2942 15.3357C34.2596 14.4601 33.6777 13.6801 32.8449 13.3944L28.8671 12.0401C28.8665 12.04 28.866 12.0396 28.8656 12.0391L27.889 10.6337C27.8881 10.6324 27.8884 10.6306 27.8897 10.6298C28.6295 10.1245 29.2086 9.38887 29.6145 8.4329C29.6203 8.4194 29.6251 8.40567 29.6298 8.39194C29.6303 8.39028 29.6312 8.38885 29.6318 8.38718C29.6322 8.38575 29.6326 8.3844 29.6331 8.38298C29.6335 8.38171 29.6339 8.38044 29.6343 8.37925C30.1973 6.6735 30.2808 5.10632 29.8756 3.84685C29.4405 2.49404 28.4609 1.5141 27.0433 1.01306C26.3703 0.774404 25.7134 0.780039 25.0177 0.785833C24.0309 0.794166 22.9109 0.803611 21.4326 0.0683572C21.1454 -0.0746616 20.797 0.0358168 20.6443 0.317728C19.9481 1.60228 20.1028 2.80707 21.0518 3.70462C21.0529 3.70558 21.053 3.70708 21.0522 3.7082C20.4778 4.53044 20.166 5.50728 20.166 6.5177C20.166 8.16035 21.1243 9.76189 22.6068 10.6839C22.6081 10.6847 22.6085 10.6864 22.6077 10.6878L21.0863 13.0706C21.0858 13.0714 21.0849 13.0719 21.084 13.072L19.8101 13.0784C19.8092 13.0784 19.8083 13.0779 19.8078 13.0771L18.3665 10.9831C17.698 10.0129 16.3628 9.76626 15.3894 10.4334C14.9138 10.7606 14.5956 11.2553 14.4936 11.8268C14.3931 12.3895 14.5174 12.9535 14.8433 13.4147L17.0905 16.5964C17.0921 16.5988 17.094 16.6013 17.0957 16.6038C17.7176 17.4563 18.2618 17.4581 19.0203 17.4605H20.8227C20.8243 17.4605 20.8256 17.4618 20.8256 17.4634L20.8306 19.7978C20.8306 19.7986 20.8302 19.7993 20.8297 19.7999L18.2775 22.2925C18.2773 22.2926 18.2772 22.2927 18.2771 22.2929C17.6552 22.9013 17.34 23.6342 17.34 24.4712V29.573C17.34 29.5743 17.3392 29.5754 17.3379 29.5757C16.7617 29.7271 16.0701 30.0803 15.5082 30.665C14.965 31.23 14.6385 31.9186 14.5449 32.6813C14.5447 32.6827 14.5435 32.6837 14.5421 32.6837H12.0347C12.0331 32.6837 12.0319 32.6825 12.0319 32.6809V32.4354C12.0319 30.2503 10.3791 28.4446 8.25727 28.1984C8.25584 28.1982 8.25481 28.197 8.25481 28.1956V17.4101C8.25481 17.4079 8.25719 17.4065 8.2591 17.4076L9.35896 18.0316C9.70175 18.226 10.0809 18.3183 10.4576 18.3183C11.2116 18.3182 11.9563 17.9483 12.3813 17.2859C12.6995 16.7939 12.799 16.2143 12.6615 15.6538C12.5239 15.0931 12.1674 14.625 11.6577 14.336L3.36598 9.63261C2.33929 9.05053 0.982516 9.38403 0.340916 10.3767C0.0229725 10.8699 -0.0763153 11.45 0.0615447 12.0102C0.199246 12.5698 0.555603 13.0371 1.06498 13.3259L3.76503 14.8578C3.76591 14.8583 3.76646 14.8592 3.76646 14.8603V20.7086C3.76646 21.036 4.01877 21.3228 4.34608 21.3312C4.68196 21.3398 4.95696 21.0701 4.95696 20.7362V15.5389C4.95696 15.5368 4.95935 15.5353 4.96125 15.5365L7.06312 16.7289C7.06399 16.7294 7.06455 16.7304 7.06455 16.7314V28.1658C7.06455 28.1674 7.06328 28.1686 7.06169 28.1686H4.95974C4.95816 28.1686 4.95689 28.1674 4.95689 28.1658V23.689C4.95689 23.3615 4.70458 23.0748 4.37727 23.0664C4.04139 23.0578 3.76638 23.3274 3.76638 23.6614V28.1657C3.76638 28.1673 3.76511 28.1685 3.76353 28.1685H1.71563C0.962834 28.1685 0.352583 28.7788 0.352583 29.5316V38.6436C0.352583 39.396 0.962516 40.0059 1.71483 40.0059H11.4368H36.9726C38.9931 40.0059 40.6367 38.3634 40.6367 36.3447C40.6367 34.3259 38.993 32.6836 36.9726 32.6836ZM19.0191 16.27C18.3395 16.2678 18.3243 16.2677 18.0603 15.9058L15.8156 12.7278C15.6748 12.5284 15.6215 12.2827 15.6655 12.0358C15.7111 11.7803 15.8526 11.5595 16.0632 11.4147C16.4958 11.1181 17.0893 11.2276 17.386 11.658L18.9515 13.9326C19.1574 14.2288 19.3866 14.2697 19.6066 14.2697L20.8159 14.2637C20.8175 14.2637 20.8188 14.2649 20.8188 14.2665L20.8231 16.2671C20.8231 16.2687 20.8218 16.27 20.8202 16.27H19.0191ZM1.21752 11.7257C1.15879 11.4869 1.20276 11.2369 1.3411 11.0224C1.54205 10.7115 1.90412 10.5361 2.2654 10.5361C2.4431 10.5361 2.62065 10.5786 2.77874 10.6682L11.0706 15.3715C11.0706 15.3715 11.0706 15.3715 11.0707 15.3715C11.2924 15.4973 11.4469 15.6982 11.5055 15.9374C11.564 16.1763 11.5202 16.4256 11.3808 16.6413C11.0829 17.1056 10.4259 17.2678 9.94651 16.9961L1.65229 12.2904C1.43046 12.1646 1.27609 11.9642 1.21752 11.7257ZM35.2109 27.9601C35.1854 28.0734 35.1153 28.2566 35.0654 28.3875C35.0439 28.4439 35.0219 28.5013 35.0006 28.5587L33.4681 32.6817C33.4677 32.6828 33.4666 32.6836 33.4654 32.6836H33.1094C33.0486 32.6836 32.9222 32.6836 32.7693 32.4613C32.3577 31.8626 32.338 30.58 32.4587 30.2566L32.4839 30.1937C32.4848 30.1913 32.4857 30.1888 32.4867 30.1865L33.5781 27.3544C33.5787 27.353 33.5803 27.3523 33.5818 27.3527L35.2038 27.9474C35.2064 27.9522 35.2082 27.9554 35.2109 27.9601ZM29.4959 25.9723L32.4518 26.958C32.4533 26.9584 32.4541 26.9602 32.4536 26.9617L32.2098 27.5943L31.5832 29.2206C31.5826 29.222 31.581 29.2227 31.5796 29.2222L26.3256 27.4163C25.9687 27.2935 25.8768 27.1687 25.753 26.9152L24.7402 24.8184C24.7395 24.817 24.74 24.8155 24.7413 24.8147C25.681 24.3047 27.1181 23.4969 28.0262 22.1544C28.0276 22.1523 28.0308 22.1529 28.0313 22.1554L28.5367 24.7626C28.6307 25.2517 28.7196 25.7138 29.4959 25.9723ZM28.0929 13.0877C28.1741 13.0877 28.2565 13.0982 28.3384 13.1201C28.3443 13.1216 28.3483 13.1227 28.3526 13.1237C28.3532 13.1239 28.3536 13.1239 28.3542 13.1241C28.3565 13.1247 28.3586 13.1251 28.3617 13.1258C28.3709 13.1282 28.3802 13.1317 28.3891 13.1349C28.3921 13.136 28.3952 13.137 28.3982 13.1381L32.4599 14.5209C32.8269 14.6468 33.0847 14.9883 33.1042 15.3726V19.3935C33.1042 19.6384 33.0053 19.8716 32.8258 20.0501C32.643 20.2319 32.3939 20.3358 32.1398 20.3358C32.1382 20.3358 32.1365 20.3358 32.1348 20.3358C31.6186 20.3344 31.1985 19.9056 31.1985 19.38V16.7947C31.1985 16.7756 31.1997 16.7577 31.2005 16.741C31.2293 16.1904 30.8985 15.9946 30.6996 15.9273L27.7859 14.9342C27.7857 14.9341 27.7855 14.9341 27.7853 14.9341C27.5459 14.8526 27.3522 14.6815 27.2397 14.4525C27.1277 14.2245 27.1108 13.9683 27.1922 13.7302C27.3256 13.339 27.6954 13.0877 28.0929 13.0877ZM21.4713 1.39616C21.4718 1.3945 21.4737 1.39362 21.4752 1.39426C22.9326 1.99372 24.0824 1.98427 25.0278 1.9761C25.6411 1.9711 26.1704 1.96657 26.6461 2.13515C28.7325 2.87262 29.0547 4.67234 28.9012 6.1915C28.901 6.19396 28.8979 6.19491 28.8964 6.19309C28.7446 6.02197 28.5597 5.86078 28.3346 5.72062C28.3344 5.72046 28.3342 5.72022 28.334 5.72006C27.6688 4.90981 26.7358 4.17376 25.5071 4.08035C24.5036 4.00431 23.113 3.71081 22.2196 3.11501C22.2192 3.11469 22.2187 3.11445 22.2182 3.11414C21.501 2.63873 21.2591 2.09578 21.4713 1.39616ZM21.3566 6.51754C21.3566 5.75117 21.5932 5.00941 22.0303 4.38535C22.032 4.38496 22.0331 4.38464 22.0348 4.38424C23.3387 5.05997 24.9198 5.22974 25.4172 5.26743C27.1196 5.39672 28.1348 7.50026 28.4206 8.18289C28.4209 8.18361 28.4209 8.1844 28.4206 8.18511C28.0305 8.99569 27.4782 9.57181 26.7751 9.89975C26.2951 10.1256 25.7266 10.24 25.0854 10.24C24.636 10.24 24.1576 10.1306 23.7026 9.92404C22.5348 9.39181 21.3566 8.1321 21.3566 6.51754ZM23.6936 11.1991C23.6943 11.198 23.6957 11.1975 23.6969 11.198C24.1577 11.3506 24.6298 11.4306 25.0854 11.4306C25.7084 11.4306 26.2853 11.3414 26.807 11.1665C26.8082 11.1661 26.8095 11.1665 26.8102 11.1676L27.3967 12.0116C27.3978 12.0131 27.3971 12.0152 27.3954 12.0158C26.79 12.2253 26.2853 12.701 26.0657 13.3458C25.8815 13.8843 25.9189 14.4638 26.1713 14.9775C26.4241 15.4922 26.861 15.8771 27.4018 16.0612L28.3475 16.3835C28.3488 16.384 28.3496 16.3854 28.3494 16.3868L27.741 19.4515C27.7408 19.4529 27.7396 19.4538 27.7382 19.4538H22.0234C22.0218 19.4538 22.0205 19.4526 22.0205 19.451L22.0085 13.8395C22.0085 13.839 22.0087 13.8384 22.009 13.838L23.6936 11.1991ZM18.5306 24.4711C18.5306 23.9594 18.72 23.5252 19.1094 23.144L21.668 20.6451C21.6686 20.6445 21.6693 20.6443 21.67 20.6443H27.4656C27.4676 20.6443 27.469 20.6463 27.4683 20.6482C26.8725 22.3064 25.155 23.2367 24.079 23.8197C23.9278 23.9016 23.7851 23.9789 23.667 24.0466L21.7307 25.1284C20.9242 25.5793 20.7763 25.8154 20.8 26.615C20.8029 26.7134 20.8062 26.8249 20.8062 26.959L20.8172 29.4855C20.8172 29.4871 20.8159 29.4883 20.8144 29.4883H18.5335C18.5319 29.4883 18.5307 29.4871 18.5307 29.4855V24.4711H18.5306ZM16.3666 31.4898C16.8983 30.9365 17.6171 30.6788 17.9353 30.6788H20.8181C20.8197 30.6788 20.8209 30.6801 20.8209 30.6817L20.8253 32.6808C20.8253 32.6824 20.824 32.6836 20.8225 32.6836H15.7504C15.7486 32.6836 15.7473 32.682 15.7476 32.6802C15.8302 32.2312 16.0374 31.8324 16.3666 31.4898ZM1.543 38.6429V29.5317C1.543 29.4368 1.6207 29.3591 1.71555 29.3591H7.76179C9.45992 29.3591 10.8415 30.7391 10.8415 32.4353V33.2789V38.8127C10.8415 38.8143 10.8402 38.8156 10.8386 38.8156H1.71563C1.6207 38.8155 1.543 38.7378 1.543 38.6429ZM36.9726 38.8155H12.0349C12.0333 38.8155 12.032 38.8142 12.032 38.8127V36.9429C12.032 36.9413 12.0333 36.94 12.0349 36.94H37.0154C37.3429 36.94 37.6296 36.6877 37.638 36.3604C37.6466 36.0245 37.377 35.7495 37.043 35.7495H12.0349C12.0333 35.7495 12.032 35.7482 12.032 35.7466V33.8768C12.032 33.8753 12.0333 33.874 12.0349 33.874H15.1139H21.4218H25.6116C25.9391 33.874 26.2258 33.6217 26.2342 33.2944C26.2428 32.9585 25.9732 32.6835 25.6392 32.6835H22.0187C22.0171 32.6835 22.0158 32.6822 22.0158 32.6806L22.0103 30.138V30.0834C22.0103 30.083 22.0102 30.0826 22.0102 30.0822C22.0102 30.0822 22.0103 30.0814 22.0103 30.0809L21.9966 26.9563C21.9966 26.8073 21.9929 26.6811 21.9899 26.5798C21.9889 26.5459 21.9878 26.5107 21.9871 26.477C21.9854 26.4037 22.0231 26.3357 22.0857 26.2976C22.1676 26.2479 22.2626 26.1948 22.3115 26.1676L23.6935 25.3954C23.6949 25.3946 23.6967 25.3952 23.6974 25.3967L24.6821 27.435C24.8875 27.8561 25.1818 28.2816 25.9384 28.542L31.2313 30.3612C31.2326 30.3616 31.2334 30.3628 31.2332 30.3641C31.1616 31.006 31.2238 31.9384 31.5413 32.6796C31.542 32.6814 31.5407 32.6835 31.5387 32.6835H28.4904C28.1629 32.6835 27.8762 32.9358 27.8678 33.2631C27.8592 33.599 28.1288 33.874 28.4628 33.874H33.1095H33.8812H36.9727C38.3366 33.874 39.4463 34.9823 39.4463 36.3447C39.4462 37.7072 38.3366 38.8155 36.9726 38.8155Z" fill="black"/>
<path d="M6.09915 34.9946H4.91238C4.58491 34.9946 4.29816 35.2469 4.28975 35.5742C4.28118 35.9101 4.55079 36.1851 4.88476 36.1851H6.07161C6.39908 36.1851 6.68583 35.9328 6.69424 35.6055C6.70282 35.2696 6.43313 34.9946 6.09915 34.9946Z" fill="black"/>
<path d="M6.1004 32.1826H4.9114C4.58394 32.1826 4.29719 32.4349 4.28877 32.7622C4.2802 33.0981 4.54981 33.3731 4.88379 33.3731H6.07278C6.40025 33.3731 6.687 33.1208 6.69541 32.7935C6.70406 32.4575 6.43437 32.1826 6.1004 32.1826Z" fill="black"/>
</svg>
