<svg width="40" height="40" viewBox="0 0 40 40" fill="none" xmlns="http://www.w3.org/2000/svg">
<path d="M28.8252 14.9624C28.7064 14.5749 28.0377 12.2124 28.8439 10.5937C29.1814 9.91868 29.6377 9.44367 30.1502 9.16867C30.7689 8.83117 31.4689 8.78118 32.1189 8.99367C32.5314 9.12493 32.9189 9.36867 33.2627 9.71242C33.2627 9.71242 35.4752 4.84992 38.1252 7.49992C40.7752 10.1499 35.9127 12.3624 35.9127 12.3624C37.2439 13.6874 37.0502 15.7749 35.0314 16.7812C34.9314 16.8312 34.8314 16.8749 34.7252 16.9124C32.9752 17.5687 30.6127 16.7812 30.6127 16.7812L30.5064 16.8249C30.3939 16.6124 30.2502 16.4187 30.0752 16.2437L29.3814 15.5499C29.1502 15.3187 28.8752 15.1374 28.5814 15.0187L28.8252 14.9624Z" fill="#C8EA61"/>
<path d="M38.1248 7.50008C37.8736 7.24883 37.6267 7.0657 37.3848 6.93945C36.8192 9.01195 35.2661 10.5901 33.1248 11.8751C32.5804 12.4195 31.5629 13.9113 32.9586 14.7001C33.2723 14.8776 33.2686 15.3445 32.9573 15.5263C32.1436 16.0032 31.2404 16.3507 30.3154 16.5232C30.3867 16.6195 30.4498 16.7201 30.5061 16.8251L30.6123 16.7813C30.6123 16.7813 32.9748 17.5688 34.7248 16.9126C34.8311 16.8751 34.9311 16.8313 35.0311 16.7813C37.0498 15.7751 37.2436 13.6876 35.9123 12.3626C35.9123 12.3626 40.7748 10.1501 38.1248 7.50008Z" fill="#95CC2D"/>
<path d="M25.625 6.875C28.2937 5.5375 30.3312 7.05625 30.15 9.16875C29.6375 9.44375 29.1812 9.91875 28.8437 10.5938C28.0375 12.2125 28.7062 14.575 28.825 14.9625L28.5812 15.0188C28.1062 14.825 27.575 14.7812 27.0625 14.9062L26.3562 15.0812C25.3875 15.325 24.525 15.875 23.9 16.65L21.45 19.6687C20.9437 18.575 20.1062 18.0813 19.2562 17.8875C18.7 15.8125 17.775 13.4 16.25 11.875C13.125 8.75 15.625 5 19.375 6.875C19.375 6.875 19.375 3.75 22.5 3.75C23.475 3.75 24.15 4.05625 24.6125 4.475C25.625 5.4 25.625 6.875 25.625 6.875Z" fill="#C8EA61"/>
<path d="M25 10C24.375 10.625 24.375 12.5 24.375 13.125C23.125 15.625 21.25 12.5 19.375 13.125C18.8031 13.4106 18.4925 14.0887 18.145 14.7406C18.6213 15.775 18.9844 16.8713 19.2563 17.8875C20.1063 18.0813 20.9438 18.575 21.45 19.6687L23.9 16.65C24.525 15.875 25.3875 15.325 26.3563 15.0812L27.0625 14.9062C27.575 14.7812 28.1063 14.825 28.5813 15.0188L28.825 14.9625C28.77 14.7831 28.5988 14.1794 28.5088 13.4238C27.9663 13.3781 27.4206 13.2812 26.875 13.125C25.625 12.5 26.875 10 25 10Z" fill="#DEEDA6"/>
<path d="M30.5063 16.8251C30.7812 17.3501 30.8688 17.9689 30.7188 18.5626L30.5437 19.2689C30.3 20.2376 29.75 21.1001 28.975 21.7251L25.7125 24.3751H17.625L21.45 19.6689L23.9 16.6501C24.525 15.8751 25.3875 15.3251 26.3562 15.0814L27.0625 14.9064C27.575 14.7814 28.1062 14.8251 28.5812 15.0189C28.875 15.1376 29.15 15.3189 29.3812 15.5501L30.075 16.2439C30.25 16.4189 30.3938 16.6126 30.5063 16.8251Z" fill="#FFB03E"/>
<path d="M30.7188 18.5627L30.5437 19.2689C30.3 20.2377 29.75 21.1002 28.975 21.7252L25.7125 24.3752H17.625L19.6562 21.8752H22.7825C23.8694 21.8752 24.9231 21.5014 25.7669 20.8158L27.725 19.2252C28.5 18.6002 29.05 17.7377 29.2937 16.7689L29.4688 16.0627C29.5 15.9439 29.5187 15.8189 29.5312 15.7002L30.075 16.2439C30.25 16.4189 30.3938 16.6127 30.5063 16.8252C30.7812 17.3502 30.8688 17.9689 30.7188 18.5627Z" fill="#F7931E"/>
<path d="M35.6624 24.375C36.3874 24.375 36.9624 24.9875 36.9124 25.7125C36.6936 28.7375 35.6936 36.0938 31.0311 39.175C30.8311 39.3125 30.5936 39.375 30.3499 39.375H9.74365C9.50615 39.375 9.2624 39.3125 9.0624 39.175C4.40615 36.0938 3.3999 28.7375 3.1874 25.7125C3.13115 24.9875 3.70615 24.375 4.43115 24.375H5.6499H35.6249H35.6624Z" fill="#F2F2F2"/>
<path d="M36.9125 25.7125C36.6938 28.7375 35.6938 36.0938 31.0312 39.175C30.8312 39.3125 30.5938 39.375 30.35 39.375H9.74375C9.50625 39.375 9.2625 39.3125 9.0625 39.175C8.04375 38.5 7.2 37.625 6.5 36.6313C6.51875 36.6438 6.54375 36.6625 6.5625 36.675C6.7625 36.8125 7.00625 36.875 7.24375 36.875H27.85C28.0938 36.875 28.3312 36.8125 28.5312 36.675C32.675 33.9375 33.925 27.825 34.3062 24.375H35.6625C36.3875 24.375 36.9625 24.9875 36.9125 25.7125Z" fill="#A2B1C2"/>
<path d="M34.9999 18.75C34.9999 18.75 37.4999 18.75 36.2499 21.25C36.2499 21.25 39.3749 22.5 35.6249 24.375H25.7124L28.9749 21.725C29.7499 21.1 30.2999 20.2375 30.5437 19.2687L30.7187 18.5625C30.8687 17.9688 30.7812 17.35 30.5062 16.825L30.6124 16.7812C30.6124 16.7812 32.9749 17.5687 34.7249 16.9125C35.0499 17.2812 35.2249 17.8562 34.9999 18.75Z" fill="#6E9617"/>
<path d="M30.6248 0.625C36.2498 0.625 32.4998 5.625 32.4998 5.625C32.4998 5.625 33.2561 7.14375 32.1186 8.99375C31.4686 8.78125 30.7686 8.83125 30.1498 9.16875C30.3311 7.05625 28.2936 5.5375 25.6248 6.875C25.6248 6.875 25.6248 5.4 24.6123 4.475C25.0436 3.93125 25.7561 3.44375 26.8748 3.125C26.8748 3.125 25.6248 0.625 30.6248 0.625Z" fill="#6E9617"/>
<path d="M21.4502 19.6689L17.6252 24.3751H5.65019C5.50019 23.4751 5.47519 22.4439 5.62519 21.2501C6.25019 16.2501 11.2502 18.1251 11.2502 18.1251L12.2127 18.6064C12.4689 18.7376 12.7377 18.8314 13.0127 18.8876C13.4314 18.9814 13.8627 18.9939 14.2814 18.9189C14.6252 18.8751 14.9627 18.7689 15.2877 18.6064L16.2502 18.1251C16.2502 18.1251 17.7814 17.5501 19.2564 17.8876C20.1064 18.0814 20.9439 18.5751 21.4502 19.6689Z" fill="#E45081"/>
<path d="M19.475 17.9473C18.6337 19.4773 17.3263 20.7116 16.25 21.2498C13.2806 23.371 9.44687 23.1885 5.53125 23.0479C5.5425 23.5185 5.58125 23.9623 5.65 24.3748H17.625L21.45 19.6685C20.9875 18.6691 20.2475 18.1735 19.475 17.9473Z" fill="#AB3C61"/>
<path d="M12.5 14.375H15C15 14.375 13.9 16.5813 14.2813 18.9188C13.8625 18.9938 13.4312 18.9812 13.0125 18.8875C12.8375 18.0437 12.5 16.2063 12.5 14.375Z" fill="#C8EA61"/>
<path d="M8.75 21.25C9.44036 21.25 10 20.8303 10 20.3125C10 19.7947 9.44036 19.375 8.75 19.375C8.05964 19.375 7.5 19.7947 7.5 20.3125C7.5 20.8303 8.05964 21.25 8.75 21.25Z" fill="#F4B9CD"/>
<path d="M7.20433 32.785C6.47058 31.475 5.7187 29.6557 5.5612 27.5232C5.5287 27.0869 5.8737 26.7119 6.3112 26.7119H7.57995C7.97745 26.7119 8.30558 27.0225 8.32745 27.4194L8.6037 32.3713C8.64745 33.1619 7.5912 33.4757 7.20433 32.785Z" fill="white"/>
<path d="M35.9151 8.82586L30.612 14.129C30.3676 14.3734 30.3676 14.7684 30.612 15.0127C30.7339 15.1346 30.8939 15.1959 31.0539 15.1959C31.2139 15.1959 31.3739 15.1346 31.4957 15.0127L36.7989 9.70961C37.0432 9.46523 37.0432 9.07023 36.7989 8.82586C36.5545 8.58148 36.1595 8.58148 35.9151 8.82586Z" fill="#31293A"/>
<path d="M39.5027 9.55813C39.6121 8.95375 39.539 8.02938 38.5671 7.05813C37.5952 6.08625 36.6715 6.0125 36.0671 6.12313C34.6452 6.38062 33.5902 7.84375 33.0615 8.75125C33.0334 8.73375 33.0027 8.72313 32.974 8.70625C33.5596 7.38938 33.369 6.27063 33.1996 5.71688C33.704 4.96313 34.8496 2.98187 34.1046 1.49125C33.6102 0.501875 32.439 0 30.6252 0C28.414 0 26.9934 0.485 26.4021 1.4425C26.1352 1.87313 26.0846 2.33125 26.1252 2.71438C25.4902 2.95375 24.9627 3.26688 24.5421 3.64625C24.0177 3.32812 23.3496 3.125 22.5002 3.125C20.1284 3.125 19.1515 4.69375 18.8559 5.98562C17.2059 5.44437 15.6702 5.82 14.799 7.03C13.9071 8.26688 13.8734 10.3819 15.8084 12.3169C16.8546 13.3638 17.7221 14.9906 18.3946 17.1575C17.4915 17.1306 16.6284 17.3156 16.0309 17.54C16.0102 17.5481 15.9909 17.5562 15.9709 17.5662L15.009 18.0469C14.9515 18.0756 14.8915 18.0975 14.8321 18.1219C14.7665 16.2881 15.5502 14.6712 15.5596 14.6531C15.6552 14.4594 15.6446 14.2294 15.5309 14.0456C15.4171 13.8625 15.2165 13.75 15.0002 13.75H12.5002C12.1552 13.75 11.8752 14.0294 11.8752 14.375C11.8752 15.6419 12.0327 16.9156 12.1952 17.8988L11.5296 17.5662C11.5102 17.5562 11.4902 17.5481 11.4696 17.54C11.364 17.5006 8.85524 16.5825 6.94274 17.7381C5.86024 18.3925 5.20837 19.5481 5.00524 21.1719C4.89087 22.0794 4.87149 22.9425 4.94337 23.75H4.43212C3.91212 23.75 3.41149 23.9681 3.05774 24.3475C2.70524 24.7256 2.52399 25.2394 2.56149 25.7556C2.78337 28.8687 3.82837 36.46 8.71587 39.6981C9.01399 39.8956 9.37024 40 9.74587 40H30.3496C30.7252 40 31.0809 39.8956 31.3796 39.6981C36.2665 36.4606 37.3115 28.8694 37.5346 25.7556C37.5715 25.2394 37.3902 24.7263 37.0377 24.3475C37.019 24.3269 36.9952 24.3125 36.9752 24.2931C37.749 23.7294 38.1209 23.1381 38.0946 22.5019C38.064 21.7681 37.504 21.2606 37.049 20.9675C37.3096 20.2231 37.2827 19.59 36.9684 19.0813C36.6559 18.5756 36.1434 18.3375 35.7177 18.225C35.7465 17.8081 35.6896 17.465 35.5902 17.1831C36.5627 16.6112 37.1846 15.7706 37.3446 14.7825C37.469 14.0156 37.299 13.2387 36.874 12.5637C37.7815 12.0356 39.2446 10.98 39.5027 9.55813ZM27.0465 3.72625C27.2252 3.675 27.3721 3.5475 27.4471 3.37687C27.5221 3.20687 27.5171 3.01187 27.434 2.845C27.4321 2.84125 27.2515 2.44438 27.4646 2.09875C27.6227 1.84375 28.2465 1.25 30.6252 1.25C31.5196 1.25 32.6552 1.38875 32.9865 2.04938C33.4465 2.9675 32.4021 4.71187 31.9996 5.25063C31.8615 5.43563 31.839 5.68875 31.9377 5.89813C31.9596 5.94438 32.4096 6.95937 31.7815 8.28563C31.4715 8.24063 31.1571 8.23 30.8421 8.28C30.804 8.28625 30.7677 8.29812 30.7296 8.30562C30.5815 7.48187 30.1352 6.76562 29.449 6.30063C28.5446 5.6875 27.3709 5.58188 26.1434 5.985C26.0309 5.49375 25.819 4.96313 25.4709 4.49375C25.8627 4.17188 26.3884 3.91375 27.0465 3.72625ZM16.6921 11.4331C15.2765 10.0175 15.2309 8.56875 15.8127 7.76062C16.4459 6.88125 17.7346 6.75375 19.0952 7.43438C19.289 7.53063 19.519 7.52187 19.7034 7.40687C19.8877 7.2925 20.0002 7.09188 20.0002 6.875C20.0002 6.77313 20.0284 4.375 22.5002 4.375C24.9084 4.375 24.9984 6.62187 25.0002 6.875C25.0002 7.09188 25.1127 7.29312 25.2971 7.40687C25.4815 7.52187 25.7115 7.53062 25.9052 7.43375C26.9971 6.88625 28.0334 6.85 28.749 7.33563C29.2359 7.66563 29.4984 8.20563 29.5196 8.83438C29.0234 9.1875 28.6009 9.685 28.2859 10.315C27.6459 11.595 27.804 13.2175 28.0059 14.2362C27.644 14.1938 27.274 14.21 26.9121 14.3L26.204 14.4756C25.1102 14.75 24.1196 15.3831 23.4152 16.2563L21.5159 18.5944C21.029 17.9788 20.4159 17.6 19.7615 17.3869C19.0096 14.7275 17.9796 12.7206 16.6921 11.4331ZM22.2152 21.6425L21.3521 20.7787L22.1446 19.8031L22.6577 20.3162C22.7796 20.4381 22.9396 20.4994 23.0996 20.4994C23.2596 20.4994 23.4196 20.4381 23.5415 20.3162C23.7859 20.0719 23.7859 19.6769 23.5415 19.4325L22.9371 18.8281L24.1252 17.365L25.3096 18.5487C25.4315 18.6706 25.5915 18.7319 25.7515 18.7319C25.9115 18.7319 26.0715 18.6706 26.1934 18.5487C26.4377 18.3044 26.4377 17.9094 26.1934 17.665L24.9871 16.4594C25.4327 16.1 25.9496 15.8287 26.5071 15.6881L27.2134 15.5131C27.8302 15.3587 28.4909 15.5431 28.9396 15.9925L29.6334 16.6863C30.0815 17.135 30.2652 17.7956 30.1121 18.4131L29.9377 19.1163C29.7284 19.9494 29.2471 20.7025 28.5809 21.2394L25.4909 23.75H18.9384L20.5596 21.7544L21.3315 22.5262C21.4534 22.6481 21.6134 22.7094 21.7734 22.7094C21.9334 22.7094 22.0934 22.6481 22.2152 22.5262C22.4596 22.2819 22.4596 21.8869 22.2152 21.6425ZM14.0777 15C13.8115 15.7863 13.5127 17.0044 13.5921 18.3312C13.5746 18.33 13.5571 18.3294 13.5396 18.3281C13.3821 17.4975 13.1896 16.2688 13.1384 14.9994L14.0777 15ZM6.24524 21.3275C6.39837 20.1044 6.84899 19.2575 7.58524 18.8106C8.89024 18.0175 10.764 18.6181 11.0052 18.7013L11.9346 19.1656C13.0715 19.7306 14.429 19.7312 15.5671 19.165L16.4977 18.7C16.824 18.5837 19.499 17.7056 20.6977 19.6012L17.3277 23.75H6.20212C6.12587 23 6.13712 22.19 6.24524 21.3275ZM30.6896 38.6556C30.5977 38.7162 30.4771 38.75 30.3496 38.75H9.74587C9.61837 38.75 9.49774 38.7162 9.40587 38.6556C4.98087 35.725 4.01712 28.5956 3.80774 25.6669C3.79524 25.4931 3.85337 25.3269 3.97212 25.1994C4.09212 25.0706 4.25524 25 4.43212 25H35.6634C35.8402 25 36.0034 25.0706 36.1227 25.1987C36.2415 25.3263 36.3002 25.4925 36.2877 25.6663C36.0784 28.5956 35.1134 35.725 30.6896 38.6556ZM35.9065 19.7406C36.0484 19.9725 35.9715 20.4094 35.6915 20.9706C35.6134 21.1263 35.6052 21.3075 35.6665 21.4706C35.7277 21.6338 35.8552 21.7644 36.0165 21.8294C36.3496 21.9656 36.8365 22.3025 36.8465 22.5544C36.8484 22.6038 36.8121 23.0513 35.4684 23.75H27.4734L29.3671 22.2112C30.2415 21.5062 30.8746 20.5156 31.1509 19.4188L31.3259 18.7131C31.4159 18.3512 31.4327 17.9806 31.3896 17.6187C31.8615 17.7119 32.4571 17.7969 33.0952 17.7969C33.5309 17.7969 33.9815 17.7494 34.4202 17.6469C34.4952 17.8969 34.4921 18.21 34.3946 18.5969C34.3477 18.7825 34.3909 18.9788 34.5077 19.1306C34.6246 19.2819 34.8065 19.3719 34.9971 19.3744C35.2221 19.3775 35.7415 19.47 35.9065 19.7406ZM38.2727 9.33375C38.069 10.4631 36.3146 11.4919 35.6559 11.7931C35.4696 11.8787 35.3365 12.0494 35.3002 12.2506C35.264 12.4519 35.3284 12.6587 35.4734 12.8038C35.9796 13.3106 36.2121 13.9588 36.1109 14.5825C36.0015 15.2563 35.519 15.8387 34.7521 16.2225C33.3409 16.93 31.1471 16.2931 30.8446 16.1994C30.7459 16.06 30.6396 15.925 30.5171 15.8025L29.8234 15.1087C29.7009 14.9862 29.5665 14.88 29.4271 14.7819C29.3346 14.4831 28.6971 12.2869 29.404 10.8744C29.7871 10.1069 30.3696 9.62438 31.0434 9.515C31.6684 9.41375 32.3159 9.64563 32.8221 10.1525C32.9665 10.2975 33.1715 10.3612 33.3752 10.325C33.5765 10.2888 33.7477 10.1556 33.8327 9.97C34.134 9.31125 35.1627 7.5575 36.2921 7.35313C36.7477 7.27063 37.2046 7.46375 37.684 7.9425C38.1634 8.42125 38.3552 8.87625 38.2727 9.33375Z" fill="#31293A"/>
<path d="M20.2794 12.4345C20.5882 12.2801 20.7132 11.9045 20.5588 11.5957L19.3088 9.09574C19.1544 8.78699 18.7794 8.66262 18.47 8.81637C18.1613 8.97074 18.0363 9.34637 18.1907 9.65512L19.4407 12.1551C19.5507 12.3739 19.7713 12.5001 20.0007 12.5001C20.0944 12.5001 20.19 12.4789 20.2794 12.4345Z" fill="#31293A"/>
<path d="M24.0958 11.1841C24.1852 11.2285 24.2808 11.2498 24.3746 11.2498C24.6039 11.2498 24.8246 11.1235 24.9346 10.9041L25.5596 9.65414C25.7139 9.34539 25.5889 8.96976 25.2802 8.81539C24.9702 8.66164 24.5964 8.78602 24.4414 9.09477L23.8164 10.3448C23.6614 10.6541 23.7871 11.0291 24.0958 11.1841Z" fill="#31293A"/>
<path d="M29.2236 5.60639C29.2748 5.61889 29.3254 5.62514 29.3761 5.62514C29.6561 5.62514 29.9104 5.43576 29.9817 5.15139L30.6067 2.65139C30.6904 2.31701 30.4867 1.97764 30.1517 1.89389C29.8173 1.81014 29.4779 2.01264 29.3936 2.34889L28.7686 4.84889C28.6854 5.18326 28.8892 5.52264 29.2236 5.60639Z" fill="#31293A"/>
<path d="M33.471 20.0659L32.221 20.6909C31.9123 20.8452 31.7873 21.2209 31.9416 21.5296C32.051 21.749 32.2716 21.8752 32.501 21.8752C32.5948 21.8752 32.6904 21.854 32.7798 21.8096L34.0298 21.1846C34.3385 21.0302 34.4635 20.6546 34.3091 20.3459C34.1548 20.0377 33.7798 19.9127 33.471 20.0659Z" fill="#31293A"/>
</svg>
