<svg width="32" height="32" viewBox="0 0 32 32" fill="none" xmlns="http://www.w3.org/2000/svg">
<g clip-path="url(#clip0_441_2747)">
<mask id="mask0_441_2747" style="mask-type:luminance" maskUnits="userSpaceOnUse" x="0" y="0" width="32" height="32">
<path d="M32 0H0V32H32V0Z" fill="white"/>
</mask>
<g mask="url(#mask0_441_2747)">
<path d="M14.8562 0.0937844C11.9438 0.587535 9.63752 2.80003 9.03128 5.70003C8.97504 5.94378 8.91872 6.43754 8.89376 6.79378L8.85624 7.44378L8.46872 7.83128C7.88125 8.41875 7.625 9.01251 7.625 9.78755C7.625 11.1563 8.78752 12.4063 10.1875 12.5438C10.375 12.5625 10.5687 12.6 10.6125 12.6251C10.6562 12.6438 10.7875 12.8751 10.9 13.1313C11.2625 13.9751 11.975 14.8688 12.7438 15.4438L12.9625 15.6063L12.8813 16.6938C12.8375 17.2876 12.8 17.7813 12.7938 17.7938C12.7875 17.8 11.375 18.4688 9.66248 19.2813C7.94375 20.0938 6.35625 20.8751 6.125 21.0251C4.6875 21.9563 3.73125 23.4563 3.46875 25.1875C3.4 25.6438 3.375 26.4625 3.375 28.6751C3.375 31.6375 3.38125 31.7375 3.61875 31.9187C3.7625 32.0313 28.2375 32.0313 28.3813 31.9187C28.6187 31.7375 28.625 31.6375 28.625 28.6751C28.625 26.4625 28.6 25.6438 28.5313 25.1875C28.2687 23.4438 27.3125 21.9563 25.8562 21.0125C25.5 20.7876 22.3813 19.2751 19.7438 18.05L19.2062 17.8L19.1687 17.3563C19.1438 17.1063 19.1125 16.6125 19.0875 16.25L19.05 15.5876L19.2875 15.4063C19.425 15.3063 19.7125 15.05 19.9375 14.8376L20.3438 14.45L20.9813 14.4251C21.7438 14.3876 22.15 14.2188 22.5625 13.7751C22.9062 13.4 23.0625 13.0313 23.1062 12.4938C23.1438 12.0813 23.1562 12.0438 23.3625 11.8876C23.7062 11.6251 24.1125 11.0313 24.25 10.5813C24.5687 9.55003 24.2313 8.39379 23.4062 7.71253C23.1313 7.47503 23.125 7.46878 23.125 7.09378C23.1062 4.08129 21.125 1.33129 18.2813 0.381284C17.2 0.0187846 15.9313 -0.0874652 14.8562 0.0937844ZM17.0062 1.09378C19.7625 1.57503 21.8375 3.81254 22.0875 6.56878L22.1313 7.04378L21.8625 7.00629C21.6062 6.96878 21.5938 6.95628 21.5438 6.71878C21.225 5.17503 20.7938 4.30629 19.9 3.41254C19.2625 2.77503 18.35 2.24378 17.4562 1.98754C16.8062 1.80003 15.2625 1.78754 14.625 1.96253C13.7313 2.20628 12.7625 2.76253 12.1125 3.40003C11.225 4.26878 10.775 5.17503 10.4562 6.71878C10.4062 6.95628 10.3938 6.96878 10.1313 7.00629L9.86248 7.04378L9.90624 6.56878C10.1 4.48129 11.4062 2.58129 13.2813 1.64378C14.4125 1.07503 15.775 0.875032 17.0062 1.09378ZM17.25 2.96878C18.1813 3.25629 19.0813 3.87503 19.6062 4.58129C19.8813 4.95629 20.1875 5.51254 20.275 5.79378L20.3187 5.92503L19.9875 5.80003C19.3813 5.57503 18.8062 5.23129 18.4 4.86253C18.1313 4.62503 17.9438 4.50003 17.8375 4.50003C17.7313 4.50003 17.5438 4.63129 17.225 4.93129C16.1938 5.90629 15.3 6.26253 13.1562 6.56253C12.6438 6.63753 12.0562 6.71254 11.8625 6.74378C11.5313 6.78754 11.5 6.78128 11.5 6.67503C11.5 6.23129 11.9438 5.18754 12.3875 4.59378C12.9938 3.77503 13.9938 3.13754 15.025 2.90003C15.5313 2.78754 16.7813 2.82503 17.25 2.96878ZM18.1687 5.97503C18.55 6.26254 19.125 6.55003 19.925 6.84378L20.5687 7.08753L20.55 9.40003C20.5187 11.9813 20.5062 12.0751 20.075 12.9376L19.8438 13.4063L18.0562 13.4376C16.4062 13.4688 16.25 13.4813 16.1313 13.5876C15.9625 13.7376 15.9562 14.0625 16.1187 14.2563C16.2375 14.4063 16.2625 14.4063 17.5687 14.4376L18.9 14.4688L18.5 14.7313C17.6813 15.2563 17.0125 15.4563 16.0313 15.4625C15.1875 15.4688 14.6375 15.3438 13.9375 14.9751C12.8313 14.4063 12.05 13.4875 11.6438 12.2813C11.475 11.7875 11.475 11.7563 11.45 9.80003L11.425 7.82503L11.6062 7.78753C11.7 7.76878 12.3438 7.68129 13.0313 7.58753C13.7187 7.50003 14.6 7.34378 14.9875 7.25003C15.8625 7.02503 16.8187 6.57503 17.4062 6.10629C17.65 5.91254 17.85 5.75629 17.8562 5.75003C17.8687 5.75003 18.0062 5.85003 18.1687 5.97503ZM10.45 10.3688L10.4687 11.5751L10.2062 11.5375C9.83128 11.4876 9.37504 11.2438 9.10624 10.9438C8.73128 10.5251 8.65624 10.3376 8.65624 9.78131C8.65624 9.18755 8.77504 8.91251 9.20624 8.51875C9.54376 8.20627 9.65 8.15003 10.075 8.03755L10.4062 7.95628L10.4187 8.55627C10.4313 8.88755 10.4438 9.70003 10.45 10.3688ZM22.2875 8.15627C22.6187 8.29379 23.0938 8.78131 23.25 9.13755C23.3625 9.40003 23.3813 9.54379 23.3625 9.87507C23.3438 10.1 23.2813 10.3751 23.225 10.4876C22.95 11.0188 22.35 11.4625 21.7938 11.5375L21.5313 11.5751L21.55 9.76251L21.5687 7.95003L21.8187 8.00627C21.9625 8.03755 22.1687 8.10627 22.2875 8.15627ZM22.0938 12.6376C21.9687 13.05 21.5 13.4376 21.1313 13.4376C20.975 13.4376 20.9813 13.3876 21.1938 12.9063C21.3187 12.6188 21.3062 12.6313 21.875 12.5438C21.9625 12.5251 22.0562 12.5125 22.0813 12.5063C22.1125 12.5063 22.1125 12.5625 22.0938 12.6376ZM14.6875 16.3251C15.0562 16.4251 15.3313 16.4563 16 16.4563C16.8062 16.45 17.1375 16.4 17.9125 16.1563C18.075 16.1063 18.1 16.2063 18.1625 17.2625L18.2 17.9251L17.0938 18.7563C16.0687 19.5313 15.9813 19.5813 15.8562 19.5C15.7813 19.4563 15.2875 19.0938 14.7562 18.6938L13.8 17.9751L13.8375 17.3813C13.8562 17.05 13.8938 16.6313 13.9125 16.45C13.95 16.1438 13.9625 16.1187 14.0875 16.1563C14.1562 16.1751 14.4313 16.25 14.6875 16.3251ZM14.1438 19.4938L15.125 20.2313L13.9 21.15C13.2313 21.6563 12.6438 22.0813 12.6062 22.0938C12.5625 22.1125 12.325 21.6376 11.9813 20.8376C11.675 20.1313 11.4375 19.5438 11.45 19.5375C11.5062 19.5 13.1 18.7563 13.125 18.7563C13.1438 18.7563 13.6 19.0876 14.1438 19.4938ZM19.6938 19.1376C20.1438 19.35 20.4938 19.55 20.475 19.5876C20.2938 20.05 19.4125 22.0438 19.3813 22.0813C19.3562 22.1063 18.7687 21.7 18.0687 21.1813C17.375 20.6625 16.8187 20.2251 16.8313 20.2125C16.95 20.0938 18.7875 18.75 18.8313 18.75C18.8625 18.75 19.25 18.9251 19.6938 19.1376ZM11.2125 21.5751C11.6313 22.5625 11.9438 23.2063 12.0375 23.2938C12.3 23.5313 12.4625 23.4876 13.075 23.0187C13.2687 22.8751 13.45 22.75 13.4813 22.75C13.5062 22.75 13.6687 23.1875 13.8375 23.7251L14.15 24.7L13.9813 27.55C13.8875 29.125 13.7938 30.5375 13.775 30.7L13.7375 31H9.05H5.97926C5.09151 31 4.37349 30.2773 4.3793 29.3895L4.3875 28.1376C4.4125 25.4625 4.425 25.25 4.54375 24.8063C4.88125 23.6063 5.64375 22.55 6.6375 21.8938C6.98125 21.6751 10.3813 20.0063 10.5 20C10.525 20 10.8438 20.7125 11.2125 21.5751ZM23.2875 20.8313C25.1875 21.7376 25.5938 21.9813 26.1375 22.5375C26.6125 23.0251 26.775 23.25 27.075 23.8376C27.5687 24.8188 27.5813 24.9125 27.6125 28.1376L27.6207 29.3895C27.6265 30.2773 26.9085 31 26.0207 31H22.95H18.2625L18.225 30.7063C18.2062 30.5375 18.1125 29.1187 18.0187 27.55L17.85 24.6938L18.1562 23.7376C18.3187 23.2125 18.4625 22.7688 18.475 22.7625C18.4813 22.75 18.7 22.8938 18.9562 23.0876C19.4375 23.45 19.625 23.5063 19.85 23.35C19.9313 23.2938 20.2562 22.6188 20.6875 21.6313C21.075 20.7313 21.425 20 21.4625 20C21.5 20 22.3187 20.3751 23.2875 20.8313ZM16.7875 21.4751C17.2 21.7751 17.5562 22.0438 17.5875 22.0688C17.6125 22.0938 17.4875 22.5688 17.3062 23.1187L16.9687 24.1251H16H15.025L14.6875 23.0938C14.3562 22.0876 14.35 22.0625 14.4687 21.9751C14.5375 21.9251 14.8875 21.6625 15.25 21.3876C15.6125 21.1063 15.9375 20.8938 15.975 20.9063C16.0187 20.9188 16.3813 21.1751 16.7875 21.4751ZM16.875 25.1563C16.875 25.2938 17.1875 30.3063 17.2187 30.6063L17.2562 31H16H14.7438L14.7813 30.6125C14.8125 30.3063 15.125 25.2938 15.125 25.1563C15.125 25.1376 15.5187 25.1251 16 25.1251C16.4813 25.1251 16.875 25.1376 16.875 25.1563Z" fill="#1C2359"/>
<path d="M20.7748 25.4627C20.4748 25.594 20.3935 26.0189 20.6248 26.2502C20.7435 26.3689 20.831 26.3752 22.7185 26.3752C24.606 26.3752 24.6935 26.3689 24.8123 26.2502C24.9435 26.1189 24.9748 25.8189 24.8748 25.6252C24.756 25.4064 24.4748 25.3752 22.6935 25.3752C21.3872 25.3815 20.9185 25.4002 20.7748 25.4627Z" fill="#1C2359"/>
</g>
</g>
<defs>
<clipPath id="clip0_441_2747">
<rect width="32" height="32" fill="white"/>
</clipPath>
</defs>
</svg>
