<svg width="32" height="32" viewBox="0 0 32 32" fill="none" xmlns="http://www.w3.org/2000/svg">
<path d="M14.6938 0.568719C12.85 0.762468 10.7813 1.51247 9.26872 2.53747C5.79376 4.89372 3.8125 8.58123 3.8125 12.7062C3.8125 15.8562 4.93751 18.6999 7.125 21.0812C7.46876 21.4499 7.50625 21.525 7.45625 21.6437C7.41876 21.7187 6.73751 23.1812 5.94376 24.8875C5.15 26.5999 4.5 28.0625 4.5 28.1499C4.5 28.3875 4.56251 28.4937 4.75 28.5937C4.93125 28.6875 5.04376 28.675 7.90625 28.1562C8.35624 28.075 8.73752 28.025 8.76248 28.0499C8.78128 28.075 9.22504 28.8187 9.74376 29.7125C10.2562 30.5999 10.7313 31.3625 10.7938 31.4125C10.95 31.5312 11.2125 31.5187 11.3625 31.3875C11.4375 31.3312 12.1562 29.8437 12.975 28.0937C13.7875 26.3375 14.4687 24.8875 14.4938 24.8687C14.5125 24.8437 14.8562 24.8499 15.25 24.8875C15.9125 24.9375 17.0938 24.8875 17.9062 24.775L18.1562 24.7375L19.2813 27.3499C19.9 28.7937 20.4687 30.0312 20.5438 30.1062C20.7187 30.2875 20.95 30.2875 21.15 30.1125C21.2375 30.0312 21.7313 29.2812 22.25 28.4375C22.775 27.5937 23.2187 26.8875 23.2375 26.8625C23.2625 26.8375 24.0813 26.9875 25.0625 27.1875C26.0438 27.3937 26.9313 27.5625 27.0375 27.5625C27.275 27.5625 27.5 27.3375 27.5 27.0937C27.5 26.9375 26.6813 24.975 25.3125 21.8375L24.95 21.0125L25.3625 20.525C26.8562 18.7312 27.8313 16.475 28.125 14.125C28.2187 13.3625 28.2 11.9312 28.0938 11.0999C27.6875 8.00619 26.0687 5.14997 23.6187 3.18747C21.1062 1.17497 17.9 0.237468 14.6938 0.568719ZM17.175 1.56872C21 1.98747 24.3 4.28747 26.025 7.72497C26.8938 9.46251 27.2313 11.0375 27.1687 13.0625C27.1125 14.875 26.8 16.1125 26 17.7187C24.225 21.2625 20.8062 23.5499 16.8125 23.875C15.6187 23.9687 13.9625 23.8062 12.9375 23.4937C10.8687 22.8562 9.21248 21.825 7.78751 20.2999C6.38751 18.7999 5.40625 16.875 5 14.8375C4.71251 13.4125 4.76876 11.4125 5.13125 9.98747C6.5 4.58747 11.6813 0.962466 17.175 1.56872ZM25.2 24.0937C25.7375 25.3499 26.1562 26.375 26.1375 26.375C26.1125 26.375 25.3813 26.2312 24.5125 26.0499L22.9313 25.7312L22.7625 25.8562C22.675 25.925 22.2313 26.575 21.7813 27.2999C21.3375 28.025 20.9562 28.6187 20.9375 28.6187C20.9187 28.6187 20.5125 27.6937 20.025 26.5687L19.1438 24.5125L19.8438 24.2875C21.125 23.875 22.9438 22.8562 23.8375 22.0499C23.975 21.925 24.125 21.8187 24.1562 21.8125C24.1938 21.8125 24.6562 22.8375 25.2 24.0937ZM9.55 23.0562C10.5687 23.6875 11.7562 24.2062 12.875 24.5062C13.1687 24.5812 13.4187 24.6562 13.4313 24.6687C13.475 24.6999 11.0438 29.8687 11 29.8437C10.975 29.825 10.5938 29.1999 10.1562 28.4437C9.61872 27.5125 9.31248 27.0562 9.21248 27.0062C9.08752 26.9499 8.74376 26.9937 7.48751 27.2187C6.61876 27.3687 5.9 27.4812 5.88751 27.4687C5.86876 27.4562 6.275 26.5499 6.78125 25.4562C7.29376 24.3625 7.84376 23.1812 8.01248 22.825L8.31248 22.1812L8.68128 22.4625C8.88752 22.625 9.27504 22.8875 9.55 23.0562Z" fill="#1C2359"/>
<path d="M15.3687 3.64374C15.0125 3.74374 14.8 3.86874 14.0625 4.42499C13.2687 5.03124 13.15 5.07499 12.3438 5.13749C10.775 5.25624 10.45 5.34374 9.91872 5.81249C9.52496 6.15624 9.29376 6.64999 9.06872 7.61874C8.95624 8.07496 8.82496 8.53752 8.77504 8.65C8.71872 8.75624 8.33128 9.1812 7.9125 9.59376C6.93125 10.5562 6.78751 10.8187 6.78125 11.6875V12.2812L7.24375 13.2375C7.55625 13.875 7.7125 14.2875 7.73751 14.4875C7.75 14.65 7.71875 15.1687 7.65625 15.6438C7.54375 16.5875 7.58125 16.9812 7.825 17.4687C8.15 18.1 8.49376 18.375 9.53752 18.8125C10.5813 19.2562 10.6687 19.325 11.2313 20.1687C11.9938 21.3312 12.2875 21.5875 13.075 21.7875C13.5687 21.9187 13.8313 21.8875 14.9062 21.5687C15.3813 21.425 15.875 21.3125 16 21.3125C16.125 21.3125 16.625 21.4312 17.1 21.575C18.1438 21.8875 18.6813 21.9187 19.2562 21.6938C19.775 21.4938 20.1313 21.1438 20.725 20.2375C21.3313 19.3187 21.4 19.2625 22.4687 18.8062C23.4875 18.3812 23.8313 18.1125 24.15 17.5C24.4187 16.9875 24.4562 16.6062 24.3438 15.6438C24.2813 15.1687 24.25 14.65 24.2625 14.4875C24.2875 14.2875 24.4438 13.875 24.7562 13.2375L25.2187 12.2812V11.6875C25.2125 10.8187 25.0687 10.5562 24.0875 9.59376C23.6687 9.1812 23.2813 8.75624 23.225 8.65C23.175 8.53752 23.0438 8.07496 22.9313 7.61874C22.7062 6.64999 22.475 6.15624 22.0813 5.81249C21.55 5.34374 21.225 5.25624 19.6562 5.13749C18.8375 5.07499 18.7313 5.03124 17.9062 4.39999C17.0813 3.77499 16.75 3.61874 16.1375 3.58749C15.85 3.57499 15.5375 3.59374 15.3687 3.64374ZM16.4813 4.65624C16.6062 4.71249 17.0062 4.97499 17.375 5.24999C18.3375 5.96874 18.5687 6.06249 19.6125 6.13749C20.925 6.22499 21.1062 6.27499 21.4438 6.61874C21.725 6.89999 21.7375 6.93124 21.9625 7.84374C22.2813 9.15624 22.375 9.31872 23.2875 10.2125C24.4313 11.3187 24.475 11.525 23.875 12.75C23.2062 14.1 23.1687 14.3187 23.3438 15.7375C23.4438 16.5375 23.4313 16.6938 23.2438 17.075C23.0813 17.4 22.825 17.5687 21.9938 17.925C20.8125 18.4312 20.6187 18.5938 19.8875 19.6875C19.4 20.4312 19.1125 20.7125 18.7687 20.8062C18.4125 20.9062 18.3438 20.8938 17.4313 20.6125C16.7 20.3875 16.5187 20.3562 16 20.3562C15.4813 20.3562 15.3 20.3875 14.5687 20.6125C13.6562 20.8938 13.5875 20.9062 13.2313 20.8062C12.8875 20.7125 12.6 20.4312 12.1125 19.6875C11.3813 18.5938 11.1875 18.4312 10.0062 17.925C9.17504 17.5687 8.91872 17.4 8.75624 17.075C8.56872 16.6938 8.55624 16.5375 8.65624 15.7375C8.83128 14.3187 8.79376 14.1 8.12496 12.75C7.525 11.525 7.56875 11.3312 8.70624 10.2187C9.62496 9.32496 9.71248 9.16248 10.0375 7.84374C10.2625 6.93124 10.275 6.89999 10.5562 6.61874C10.8938 6.27499 11.075 6.22499 12.3875 6.13749C13.4313 6.06249 13.6438 5.97499 14.6313 5.24374C15.0062 4.96874 15.4062 4.69999 15.5187 4.65624C15.7813 4.53749 16.2 4.53749 16.4813 4.65624Z" fill="#1C2359"/>
<path d="M15.6189 8.08129C15.4252 8.20625 15.3565 8.35625 14.8939 9.56249L14.3877 10.9063L13.0065 10.975C12.2002 11.0187 11.5502 11.0813 11.4377 11.125C11.3314 11.1687 11.2065 11.2813 11.1565 11.3813C11.0314 11.6187 11.0439 12 11.1752 12.1625C11.2314 12.2375 11.7314 12.6563 12.2814 13.0938C12.8314 13.5375 13.3065 13.9187 13.3314 13.9438C13.3627 13.9687 13.2314 14.5625 13.0377 15.2687C12.6252 16.7813 12.6065 16.975 12.8814 17.2438C13.0314 17.4 13.1252 17.4375 13.3377 17.4375C13.6127 17.4375 14.0502 17.1875 15.5127 16.2L15.9939 15.875L17.0752 16.5813C18.4002 17.45 18.3752 17.4375 18.6814 17.4375C19.0314 17.4375 19.3127 17.1563 19.3127 16.8C19.3127 16.6625 19.1565 15.975 18.9627 15.2687C18.7689 14.5625 18.6377 13.9687 18.6689 13.9375C18.6939 13.9125 19.1565 13.55 19.6877 13.125C20.2189 12.7063 20.7189 12.2875 20.7939 12.1938C21.0689 11.8813 20.9377 11.2813 20.5627 11.125C20.4502 11.0813 19.8065 11.0187 18.9939 10.975L17.6127 10.9063L17.1065 9.56249C16.6439 8.35625 16.5752 8.20625 16.3814 8.08129C16.2627 8 16.0939 7.9375 16.0002 7.9375C15.9065 7.9375 15.7377 8 15.6189 8.08129ZM16.4065 10.5438C16.6065 11.0813 16.8314 11.5938 16.9065 11.675C17.0627 11.8563 17.4002 11.9313 18.1565 11.9438C18.4689 11.9438 18.8814 11.9687 19.0814 11.9938L19.4439 12.0313L18.5689 12.7375C17.4252 13.6625 17.4565 13.5625 17.8439 14.9563C18.0002 15.5375 18.1252 16.0187 18.1127 16.0313C18.1002 16.0438 17.7252 15.8125 17.2814 15.5187C16.3439 14.9063 16.1127 14.7938 15.8814 14.8438C15.7939 14.8625 15.3127 15.1438 14.8127 15.4687C14.3127 15.7875 13.9002 16.0438 13.8877 16.0313C13.8752 16.0187 14.0002 15.5375 14.1565 14.9563C14.5439 13.5625 14.5752 13.6563 13.4314 12.7375L12.5565 12.0313L12.9189 11.9938C13.1189 11.9687 13.5377 11.9438 13.8439 11.9438C14.6002 11.9313 14.9377 11.8563 15.0939 11.675C15.1689 11.5938 15.3939 11.0813 15.5939 10.5438C15.8002 10.0063 15.9814 9.56249 16.0002 9.56249C16.0189 9.56249 16.2002 10.0063 16.4065 10.5438Z" fill="#1C2359"/>
</svg>
