<svg width="32" height="32" viewBox="0 0 32 32" fill="none" xmlns="http://www.w3.org/2000/svg">
<g clip-path="url(#clip0_441_2604)">
<mask id="mask0_441_2604" style="mask-type:luminance" maskUnits="userSpaceOnUse" x="0" y="0" width="32" height="32">
<path d="M32 0H0V32H32V0Z" fill="white"/>
</mask>
<g mask="url(#mask0_441_2604)">
<path d="M7.40039 0.749615C7.08789 0.843365 6.61915 1.19336 6.39414 1.48711C6.13164 1.83087 6.00039 2.28711 6.00039 2.84961V3.29961L4.70664 3.32462C3.61289 3.35586 3.34414 3.38086 2.99414 3.49336C1.91914 3.83711 1.06914 4.74336 0.78164 5.84961C0.637891 6.39336 0.637891 25.5996 0.78164 26.1433C1.06914 27.2497 1.90664 28.1433 2.99414 28.5184L3.40664 28.6559L10.8691 28.6746L18.3379 28.6934L18.9004 29.2371C20.3316 30.6184 22.0379 31.3121 23.9941 31.3121C25.9442 31.3121 27.6504 30.6246 29.0566 29.2871C30.5191 27.8871 31.3129 26.0309 31.3129 23.9934C31.3129 22.0371 30.6191 20.3309 29.2379 18.8996L28.6941 18.3371L28.6754 12.2121C28.6566 6.48087 28.6504 6.07462 28.5379 5.74961C28.1629 4.61212 27.3629 3.81837 26.2504 3.46837C25.9879 3.38086 25.6004 3.34961 24.6191 3.33086L23.3254 3.29961L23.3004 2.69336C23.2817 2.19961 23.2442 2.03711 23.1067 1.77462C22.3629 0.318365 20.2754 0.324613 19.5566 1.78087C19.3941 2.11211 19.3566 2.28086 19.3254 2.74961L19.2941 3.31212H14.6566H10.0129L9.9879 2.73086C9.96914 2.25586 9.93163 2.08711 9.79412 1.79961C9.60043 1.41212 9.26915 1.07462 8.86289 0.868365C8.56289 0.712116 7.73789 0.643363 7.40039 0.749615ZM8.31915 2.09961C8.65039 2.26837 8.68789 2.46837 8.68789 3.99961C8.68789 5.04961 8.66915 5.43087 8.60039 5.59336C8.50664 5.81211 8.23164 5.99961 8.00039 5.99961C7.76915 5.99961 7.49414 5.81211 7.40039 5.59336C7.28789 5.31837 7.27539 2.75586 7.38164 2.44336C7.46289 2.21837 7.76289 1.99961 7.98789 1.99961C8.06915 1.99961 8.21915 2.04336 8.31915 2.09961ZM21.8067 2.21212L21.9691 2.37462V3.99336V5.61212L21.8191 5.77462C21.5191 6.09336 20.9316 6.02462 20.7566 5.64961C20.6629 5.44336 20.6629 2.56212 20.7566 2.35586C20.9254 1.98087 21.4941 1.89961 21.8067 2.21212ZM6.01289 5.26837C6.04414 5.95586 6.22539 6.41212 6.62539 6.77462C7.08164 7.18711 7.33789 7.28087 8.00039 7.28087C8.6629 7.28087 8.9191 7.18711 9.37537 6.77462C9.77537 6.41212 9.95661 5.95586 9.9879 5.26837L10.0129 4.68711H14.6566H19.2941L19.3254 5.24336C19.3691 5.92462 19.5504 6.37462 19.9691 6.77462C20.3754 7.16837 20.8316 7.33086 21.4379 7.29961C22.1879 7.25586 22.7691 6.88087 23.1129 6.21837C23.2442 5.96212 23.2817 5.79961 23.3004 5.29336L23.3254 4.68711H24.5004C25.4316 4.68711 25.7442 4.71212 26.0004 4.79336C26.4067 4.92462 26.8879 5.34961 27.1129 5.77462C27.2754 6.08711 27.2817 6.11837 27.3004 7.38711L27.3191 8.68711H14.6629H2.00039V7.54336C2.00039 6.24961 2.06289 5.92462 2.39414 5.48711C2.61915 5.18711 3.09414 4.84336 3.40039 4.75586C3.50664 4.72462 4.13164 4.69336 4.78789 4.69336L5.98789 4.68711L6.01289 5.26837ZM27.3129 13.7246C27.3129 16.6809 27.2941 17.4433 27.2379 17.4184C26.0067 16.8809 25.4566 16.7433 24.2817 16.7058C23.2254 16.6683 22.5629 16.7559 21.7191 17.0371C21.0629 17.2559 20.1316 17.7371 19.6254 18.1184C19.1004 18.5121 18.2879 19.3621 17.9442 19.8683C17.5379 20.4621 17.0879 21.4497 16.9067 22.1559C16.7004 22.9246 16.6316 24.2559 16.7504 25.0683C16.8254 25.6246 17.1254 26.6246 17.3191 27.0121C17.3879 27.1433 17.4379 27.2621 17.4379 27.2809C17.4379 27.2996 14.2817 27.3058 10.4254 27.2996L3.40664 27.2809L3.13789 27.1371C2.72539 26.9184 2.39414 26.5871 2.20664 26.1996L2.03164 25.8433L2.01289 17.9184L2.00039 9.99961H14.6566H27.3129V13.7246ZM25.4442 18.1809C27.3191 18.6683 28.8629 20.0121 29.5566 21.7559C29.8879 22.5809 29.9629 22.9996 29.9629 23.9996C29.9629 24.9996 29.8879 25.4184 29.5566 26.2433C29.2629 26.9746 28.8442 27.5996 28.2254 28.2246C27.3879 29.0559 26.4754 29.5683 25.3379 29.8559C24.6817 30.0184 23.2504 30.0058 22.5817 29.8309C20.3817 29.2497 18.7754 27.6559 18.1754 25.4433C18.0004 24.8058 17.9817 23.3058 18.1442 22.6621C18.7442 20.2809 20.5754 18.5433 22.9566 18.0871C23.5817 17.9683 24.8254 18.0121 25.4442 18.1809Z" fill="#1C2359"/>
<path d="M5.7 11.4061C5.3125 11.5248 5.0375 11.7623 4.85 12.1374C4.7 12.4436 4.6875 12.5186 4.6875 13.3374C4.6875 14.3311 4.75625 14.5623 5.13125 14.9186C5.4875 15.2561 5.70625 15.3124 6.67499 15.3124C7.48125 15.3124 7.5625 15.2998 7.8625 15.1498C8.47499 14.8436 8.6875 14.3749 8.6875 13.3436C8.6875 12.5124 8.56874 12.1186 8.22499 11.7749C7.875 11.4248 7.4875 11.3124 6.63125 11.3186C6.26874 11.3186 5.85 11.3561 5.7 11.4061ZM7.3 13.3248L7.28125 13.9686H6.65625H6.03125L6.0125 13.4124C6 13.1061 6.00625 12.8186 6.02499 12.7686C6.05 12.7061 6.22499 12.6873 6.6875 12.6873H7.31874L7.3 13.3248Z" fill="#1C2359"/>
<path d="M11.1563 11.368C10.6625 11.4931 10.2062 11.9181 10.075 12.368C10.0313 12.4993 10 12.9556 10 13.3806C10 14.0618 10.0188 14.1931 10.15 14.468C10.3062 14.8055 10.5938 15.0931 10.9188 15.2306C11.0563 15.2868 11.4062 15.3119 12 15.3119C12.5938 15.3119 12.9437 15.2868 13.0812 15.2306C13.4062 15.0931 13.6938 14.8055 13.85 14.468C13.9812 14.1931 14 14.0618 14 13.3806C14 12.4868 13.9375 12.2181 13.6375 11.8743C13.2687 11.4431 13.025 11.3556 12.125 11.3368C11.6938 11.3243 11.2625 11.3368 11.1563 11.368ZM12.6563 13.3431V13.968H12H11.3437L11.325 13.4119C11.3125 13.1055 11.325 12.8119 11.3375 12.768C11.3625 12.6993 11.5188 12.6868 12.0125 12.6993L12.6563 12.7181V13.3431Z" fill="#1C2359"/>
<path d="M16.3125 11.4375C15.6 11.6812 15.3125 12.2313 15.3125 13.3437C15.3125 14.375 15.5249 14.8437 16.1375 15.15C16.4375 15.3 16.5187 15.3125 17.3249 15.3125C18.2937 15.3125 18.5125 15.2562 18.8687 14.9187C19.2437 14.5625 19.3125 14.3313 19.3125 13.3375C19.3125 12.5187 19.3 12.4437 19.1499 12.1375C18.8437 11.5187 18.3812 11.3125 17.3187 11.3125C16.8375 11.3187 16.5625 11.35 16.3125 11.4375ZM17.9687 13.3437V13.9687H17.3437H16.7187L16.7 13.3249L16.6812 12.6812L17.3249 12.7L17.9687 12.7187V13.3437Z" fill="#1C2359"/>
<path d="M21.7 11.4061C21.3126 11.5248 21.0375 11.7623 20.85 12.1374C20.7 12.4436 20.6875 12.5186 20.6875 13.3374C20.6875 14.3311 20.7563 14.5623 21.1313 14.9186C21.4875 15.2561 21.7063 15.3124 22.6751 15.3124C23.4813 15.3124 23.5625 15.2998 23.8625 15.1498C24.4751 14.8436 24.6875 14.3749 24.6875 13.3436C24.6875 12.5124 24.5687 12.1186 24.225 11.7749C23.8751 11.4248 23.4875 11.3124 22.6313 11.3186C22.2687 11.3186 21.85 11.3561 21.7 11.4061ZM23.3 13.3248L23.2813 13.9686H22.6563H22.0313L22.0126 13.4124C22 13.1061 22.0063 12.8186 22.025 12.7686C22.05 12.7061 22.225 12.6873 22.6875 12.6873H23.3188L23.3 13.3248Z" fill="#1C2359"/>
<path d="M5.53125 16.8063C5.39375 16.8687 5.19375 17.0188 5.08125 17.1313C4.74375 17.4875 4.6875 17.7063 4.6875 18.6751C4.6875 19.4813 4.7 19.5563 4.85 19.8687C5.15625 20.4813 5.63125 20.6875 6.7125 20.6875C7.48125 20.6875 7.89375 20.5625 8.22499 20.225C8.56874 19.8813 8.6875 19.4875 8.6875 18.6563C8.6875 17.6188 8.45625 17.1188 7.85 16.8375C7.5625 16.7 7.45 16.6875 6.65625 16.6875C5.9375 16.6875 5.7375 16.7126 5.53125 16.8063ZM7.3 18.6751L7.31874 19.3188L6.67499 19.3L6.03125 19.2813L6.0125 18.725C6 18.4188 6.0125 18.125 6.02499 18.0813C6.05 18.0126 6.2 18 6.66874 18.0126L7.28125 18.0313L7.3 18.6751Z" fill="#1C2359"/>
<path d="M10.9062 16.7744C10.5875 16.912 10.3 17.1994 10.15 17.5307C10.0188 17.8056 10 17.9369 10 18.6182C10 19.512 10.0625 19.7807 10.3625 20.1244C10.7563 20.5869 10.9625 20.6557 12 20.6557C13.0375 20.6557 13.2437 20.5869 13.6375 20.1244C13.9375 19.7807 14 19.512 14 18.6182C14 17.9369 13.9812 17.8056 13.85 17.5307C13.6938 17.1932 13.4062 16.9056 13.0812 16.7681C12.8062 16.6557 11.1687 16.6557 10.9062 16.7744ZM12.6563 18.6557V19.2807H12H11.3437L11.325 18.7244C11.3125 18.4182 11.325 18.1244 11.3375 18.0807C11.3625 18.012 11.5188 17.9994 12.0125 18.012L12.6563 18.0307V18.6557Z" fill="#1C2359"/>
<path d="M5.53144 22.15C5.19394 22.3062 4.90645 22.5938 4.76894 22.9188C4.65645 23.2 4.65645 24.8 4.76894 25.0812C4.90645 25.4062 5.19394 25.6938 5.53144 25.85C5.80645 25.9812 5.93769 26 6.61894 26C7.51269 26 7.78144 25.9375 8.12519 25.6375C8.58769 25.2437 8.65645 25.0375 8.65645 24C8.65645 22.9625 8.58769 22.7563 8.12519 22.3625C7.78144 22.0625 7.51269 22 6.61894 22C5.93769 22 5.80645 22.0188 5.53144 22.15ZM7.28144 24V24.6563H6.65645H6.03144L6.01269 24.0687C6.00645 23.7437 6.01269 23.4375 6.02519 23.3938C6.0502 23.325 6.2002 23.3125 6.66894 23.325L7.28144 23.3437V24Z" fill="#1C2359"/>
<path d="M10.9937 22.0806C10.6375 22.2119 10.3874 22.4181 10.2062 22.7369C10.0375 23.0244 10.0312 23.0556 10.0312 24.0056V24.9806L10.2187 25.2868C10.3375 25.4744 10.5249 25.6619 10.7125 25.7806L11.0187 25.9681H12H12.9812L13.2874 25.7806C13.475 25.6619 13.6624 25.4744 13.7812 25.2868L13.9687 24.9806V23.9994V23.0181L13.7812 22.7119C13.6624 22.5244 13.475 22.3369 13.2874 22.2181C12.9874 22.0369 12.9562 22.0307 12.1 22.0119C11.4812 22.0056 11.1499 22.0244 10.9937 22.0806ZM12.6125 23.3868C12.6562 23.4307 12.6874 23.6619 12.6874 23.9994C12.6874 24.3369 12.6562 24.5681 12.6125 24.6119C12.5125 24.7119 11.4874 24.7119 11.3874 24.6119C11.3437 24.5681 11.3125 24.3369 11.3125 23.9994C11.3125 23.6619 11.3437 23.4307 11.3874 23.3868C11.4312 23.3431 11.6624 23.3119 12 23.3119C12.3375 23.3119 12.5687 23.3431 12.6125 23.3868Z" fill="#1C2359"/>
<path d="M26.5313 21.5305C26.425 21.5867 25.5938 22.3679 24.6875 23.2804L23.0313 24.9367L22.2812 24.1866C21.8188 23.7242 21.4563 23.4179 21.3437 23.3867C20.9 23.2617 20.5 23.5617 20.5 24.0179C20.5 24.2679 20.5375 24.3117 21.625 25.3992L22.75 26.5305H23.0313H23.3125L25.3812 24.4617C27.3062 22.5367 27.45 22.3804 27.4563 22.1679C27.4625 21.8679 27.3375 21.6492 27.0938 21.5305C26.8437 21.4117 26.7687 21.4117 26.5313 21.5305Z" fill="#1C2359"/>
</g>
</g>
<defs>
<clipPath id="clip0_441_2604">
<rect width="32" height="32" fill="white"/>
</clipPath>
</defs>
</svg>
