<svg width="40" height="40" viewBox="0 0 40 40" fill="none" xmlns="http://www.w3.org/2000/svg">
<g clip-path="url(#clip0_358_2024)">
<path d="M28.711 8.21173V36.2891C28.711 36.9524 28.504 37.5672 28.1517 38.0727C28.1517 38.0727 2.61666 32.8992 6.35166 5.08673H25.586C27.3118 5.08673 28.711 6.48517 28.711 8.21173Z" fill="#99B2E9"/>
<path d="M28.2766 34.0149L28.1516 38.0727C27.5875 38.8836 26.6484 39.4141 25.5859 39.4141H3.71094C1.98516 39.4141 0.585938 38.0149 0.585938 36.2891V8.21173C0.585938 6.48517 1.98516 5.08673 3.71094 5.08673H6.35156C6.40625 19.243 15.7156 31.1695 28.2766 34.0149Z" fill="#85A4E4"/>
<path d="M25.9765 8.60236V33.3813C12.8952 31.7813 5.34664 21.5341 6.47883 7.82111H25.1952C25.6265 7.82111 25.9765 8.17032 25.9765 8.60236Z" fill="#FFF8E6"/>
<path d="M25.9766 33.3813V35.8985C25.9766 36.3297 25.6266 36.6797 25.1953 36.6797H4.10156C3.67031 36.6797 3.32031 36.3297 3.32031 35.8985V8.60236C3.32031 8.17032 3.67031 7.82111 4.10156 7.82111H6.47891C7.55547 19.8984 15.3852 29.9375 25.9766 33.3813Z" fill="#FFF1CF"/>
<path d="M18.4114 3.71094C18.0721 3.71094 17.7827 3.46828 17.7205 3.13469C17.45 1.68406 16.1775 0.585938 14.6484 0.585938C13.1194 0.585938 11.8469 1.68406 11.5765 3.13469C11.5143 3.46828 11.2248 3.71094 10.8855 3.71094H9.57031C8.70734 3.71094 8.00781 4.41047 8.00781 5.27344V7.4775C8.00781 8.34047 8.70734 9.04 9.57031 9.04H19.7266C20.5895 9.04 21.2891 8.34047 21.2891 7.4775V5.27344C21.2891 4.41047 20.5895 3.71094 19.7266 3.71094H18.4114Z" fill="#FF6E80"/>
<path d="M36.0695 23.9649C36.6219 25.0008 36.6437 26.2891 36.0133 27.3805C35.5312 28.2156 34.7578 28.7781 33.8961 29.0141C33.7359 30.5524 33.4953 32.132 33.1703 33.9039C32.293 35.3195 23.1 35.3188 22.2203 33.9055C22.0445 32.9438 21.893 32.0391 21.7656 31.1664C21.7656 31.1664 21.7656 21.25 25.3242 11.5969C27.1055 10.407 29.5133 10.6852 31.0016 12.432C31.1687 12.6281 31.4148 12.743 31.6734 12.7344C32.7172 12.6984 33.7664 13.1258 34.4898 13.9883C35.1992 14.8336 35.443 15.9149 35.2477 16.9203C35.1844 17.2445 35.3125 17.5789 35.582 17.7695C36.482 18.4063 37.0703 19.4555 37.0703 20.6422C37.0703 21.5367 36.7367 22.3524 36.1867 22.9727C35.943 23.2484 35.8961 23.6406 36.0695 23.9649Z" fill="#8CE09F"/>
<path d="M34.1039 26.9672L21.7656 31.1664C21.6578 30.4305 21.568 29.718 21.4945 29.0141C20.4328 28.7227 19.5234 27.9383 19.118 26.825C18.7602 25.8414 18.8687 24.8016 19.3305 23.9477C19.5 23.636 19.4578 23.2555 19.2203 22.9914C18.6609 22.3688 18.3203 21.5453 18.3203 20.6422C18.3203 19.4555 18.9086 18.4063 19.8086 17.7695C20.0781 17.5789 20.2062 17.2445 20.143 16.9203C19.9477 15.9149 20.1914 14.8336 20.9008 13.9883C21.6242 13.1258 22.6734 12.6985 23.7172 12.7344C23.9758 12.743 24.2219 12.6281 24.3891 12.432C24.6711 12.1008 24.9867 11.8219 25.3242 11.5969C24.2453 18.7375 27.2297 23.9383 34.1039 26.9672Z" fill="#73DA8C"/>
<path d="M38.6327 29.4641C38.6327 33.4609 36.0093 35.9891 32.7733 35.9891C31.103 35.9891 29.596 35.3156 28.5288 34.1133C28.5288 34.1133 30.4929 26.2953 30.6218 22.1156C31.2882 21.7312 32.014 21.5133 32.7733 21.5133C36.0093 21.5133 38.6327 25.4664 38.6327 29.4641Z" fill="#FFF8E6"/>
<path d="M36.078 30.1297C36.078 30.375 36.0515 30.614 36.0007 30.8445C33.5075 30.2687 32.1349 28.9406 31.7476 26.9875C32.0702 26.882 32.4155 26.825 32.7733 26.825C34.5983 26.825 36.078 28.3047 36.078 30.1297Z" fill="#FCE3A0"/>
<path d="M36.8867 31.2688L28.5289 34.1133C27.5289 32.9875 26.9141 31.3977 26.9141 29.4641C26.9141 26.4047 28.45 23.3719 30.6219 22.1156C30.493 26.2953 32.6102 29.3844 36.8867 31.2688Z" fill="#FFF1CF"/>
<path d="M36.0008 30.8445C35.9359 31.1375 35.832 31.4164 35.6953 31.6742L31.3984 33.1367C30.2602 32.6148 29.4688 31.4648 29.4688 30.1297C29.4688 28.6625 30.425 27.4187 31.7477 26.9875C32.6414 28.55 34.0625 29.8406 36.0008 30.8445Z" fill="#FFCE71"/>
<path d="M30.8202 29.8789C30.8202 33.7617 27.6726 36.9102 23.789 36.9102C21.196 36.9102 18.9312 35.5062 17.7124 33.418C18.2132 33.6242 21.3507 26.7961 21.7999 23.1336C22.4304 22.9469 23.0983 22.8477 23.789 22.8477C27.6726 22.8477 30.8202 25.9953 30.8202 29.8789Z" fill="#FF6E80"/>
<path d="M26.5375 31.05L18.6117 33.7469C18.5414 33.7469 18.2133 33.6242 17.7125 33.418C17.1055 32.3781 16.7578 31.1695 16.7578 29.8789C16.7578 26.686 18.8852 23.9906 21.8 23.1336C21.3508 26.7961 22.9586 29.4735 26.5375 31.05Z" fill="#FD5C6F"/>
<path d="M28.4765 29.8789C28.4765 32.4672 26.378 34.5664 23.789 34.5664C22.464 34.5664 21.2679 34.0164 20.4155 33.1328C20.4155 33.1328 22.2444 28.0281 21.8335 25.618C22.4288 25.3437 23.0913 25.1914 23.789 25.1914C26.378 25.1914 28.4765 27.2898 28.4765 29.8789Z" fill="#FFA1AC"/>
<path d="M26.5375 31.05L20.4156 33.1328C19.6023 32.2906 19.1016 31.143 19.1016 29.8789C19.1016 27.9875 20.2211 26.3586 21.8336 25.618C22.2445 28.0281 23.8242 29.8547 26.5375 31.05Z" fill="#FF8A98"/>
<path d="M39.4138 31.6016V33.9453C39.4138 36.9656 36.9654 39.4141 33.9451 39.4141H32.9177C25.7526 38.4295 22.6546 35.2275 26.3998 30.8203H38.6326C39.0638 30.8203 39.4138 31.1703 39.4138 31.6016Z" fill="#B5E9F1"/>
<path d="M32.918 39.4141H21.4453C18.425 39.4141 15.9766 36.9656 15.9766 33.9453V31.6016C15.9766 31.1701 16.3263 30.8203 16.7578 30.8203H26.4C26.4367 34.3625 27.8469 38.0219 32.918 39.4141Z" fill="#9BE1EC"/>
<path d="M18.7202 7.2822H10.5171C10.1935 7.2822 9.93115 7.01985 9.93115 6.69626C9.93115 6.37266 10.1935 6.11032 10.5171 6.11032H18.7202C19.0438 6.11032 19.3062 6.37266 19.3062 6.69626C19.3062 7.01985 19.0438 7.2822 18.7202 7.2822Z" fill="black"/>
<path d="M9.98451 13.8602C9.75568 13.6314 9.38467 13.6314 9.15592 13.8602L7.33811 15.678L6.85959 15.1995C6.63076 14.9707 6.25975 14.9707 6.031 15.1995C5.80217 15.4283 5.80217 15.7994 6.031 16.0281L6.92389 16.921C7.03826 17.0354 7.18826 17.0926 7.33818 17.0926C7.48811 17.0926 7.63811 17.0355 7.75248 16.921L9.98459 14.6889C10.2133 14.4601 10.2133 14.089 9.98451 13.8602Z" fill="black"/>
<path d="M9.98451 19.7196C9.75568 19.4908 9.38467 19.4908 9.15592 19.7196L7.33811 21.5374L6.85959 21.0589C6.63076 20.8301 6.25975 20.8301 6.031 21.0589C5.80217 21.2877 5.80217 21.6587 6.031 21.8875L6.92389 22.7804C7.03826 22.8948 7.18826 22.952 7.33818 22.952C7.48811 22.952 7.63811 22.8948 7.75248 22.7804L9.98459 20.5483C10.2133 20.3194 10.2133 19.9484 9.98451 19.7196Z" fill="black"/>
<path d="M9.98451 25.579C9.75568 25.3501 9.38467 25.3501 9.15592 25.579L7.33811 27.3968L6.85959 26.9183C6.63076 26.6894 6.25975 26.6894 6.031 26.9183C5.80217 27.1471 5.80217 27.5181 6.031 27.7469L6.92389 28.6397C7.03826 28.7541 7.18826 28.8114 7.33818 28.8114C7.48811 28.8114 7.63811 28.7542 7.75248 28.6397L9.98459 26.4076C10.2133 26.1788 10.2133 25.8078 9.98451 25.579Z" fill="black"/>
<path d="M23.9643 35.3525C23.6407 35.3525 23.3783 35.0901 23.3783 34.7666C23.3783 34.4966 23.1587 34.2771 22.8889 34.2771C22.619 34.2771 22.3994 34.4967 22.3994 34.7666C22.3994 35.0901 22.1371 35.3525 21.8135 35.3525C21.4899 35.3525 21.2275 35.0901 21.2275 34.7666C21.2275 33.8505 21.9729 33.1052 22.8889 33.1052C23.8049 33.1052 24.5502 33.8505 24.5502 34.7666C24.5502 35.0901 24.2879 35.3525 23.9643 35.3525Z" fill="black"/>
<path d="M33.5771 35.3525C33.2535 35.3525 32.9911 35.0901 32.9911 34.7666C32.9911 34.4966 32.7715 34.2771 32.5017 34.2771C32.2318 34.2771 32.0122 34.4967 32.0122 34.7666C32.0122 35.0901 31.7499 35.3525 31.4263 35.3525C31.1027 35.3525 30.8403 35.0901 30.8403 34.7666C30.8403 33.8505 31.5856 33.1052 32.5017 33.1052C33.4177 33.1052 34.163 33.8505 34.163 34.7666C34.163 35.0901 33.9006 35.3525 33.5771 35.3525Z" fill="black"/>
<path d="M27.6954 37.1291C27.0888 37.1291 26.5121 36.8665 26.1129 36.4084C25.9004 36.1644 25.9258 35.7944 26.1697 35.5817C26.4137 35.3691 26.7838 35.3945 26.9965 35.6385C27.1729 35.8411 27.4278 35.9572 27.6954 35.9572C27.9631 35.9572 28.2179 35.8411 28.3944 35.6385C28.607 35.3945 28.9772 35.3691 29.2212 35.5817C29.4651 35.7943 29.4905 36.1644 29.2779 36.4084C28.8787 36.8665 28.3019 37.1291 27.6954 37.1291Z" fill="black"/>
<path d="M39.1771 30.3474C39.2048 30.058 39.2188 29.7626 39.2188 29.4641C39.2188 27.3964 38.5536 25.277 37.3938 23.6495C37.2346 23.4262 37.0691 23.2157 36.898 23.0182C37.3895 22.3275 37.6562 21.4987 37.6562 20.6422C37.6562 19.3128 37.0073 18.0602 35.9204 17.2912C35.8413 17.2352 35.803 17.1337 35.8228 17.032C36.0601 15.8106 35.7378 14.5639 34.9388 13.6117C34.1222 12.6382 32.9237 12.1055 31.654 12.1488C31.5779 12.1524 31.5012 12.1151 31.4476 12.052C30.8596 11.3619 30.1155 10.8528 29.2969 10.5634V8.21172C29.2969 6.16555 27.6321 4.50078 25.5859 4.50078H21.7313C21.4203 3.69672 20.639 3.125 19.7266 3.125H18.4117C18.3546 3.125 18.3071 3.08445 18.2963 3.02703C17.9693 1.27305 16.4352 0 14.6484 0C12.8616 0 11.3276 1.27305 11.0007 3.02641C10.9898 3.08445 10.9423 3.125 10.8852 3.125H9.57031C8.65789 3.125 7.87656 3.69672 7.56555 4.50078H3.71094C1.66477 4.50078 0 6.16547 0 8.21172V36.2891C0 38.3352 1.66477 40 3.71094 40H21.4453H33.9453C37.2839 40 40 37.2839 40 33.9453V31.6016C40 31.041 39.6609 30.5582 39.1771 30.3474ZM38.0469 29.4641C38.0469 29.7249 38.0348 29.9826 38.0107 30.2344H36.6627C36.6636 30.1995 36.6641 30.1646 36.6641 30.1297C36.6641 27.9844 34.9188 26.2391 32.7734 26.2391C32.0531 26.2391 31.3595 26.4352 30.7568 26.8016C30.3526 25.89 29.7746 25.072 29.065 24.3897C30.0819 22.9278 31.4139 22.0992 32.7734 22.0992C35.5334 22.0992 38.0469 25.6096 38.0469 29.4641ZM31.1571 27.9435C31.6226 27.598 32.1852 27.4109 32.7734 27.4109C34.2725 27.4109 35.4922 28.6305 35.4922 30.1297C35.4922 30.1646 35.4915 30.1995 35.4902 30.2344H31.398C31.4035 30.1161 31.4062 29.9974 31.4062 29.8789C31.4062 29.2104 31.3197 28.5617 31.1571 27.9435ZM23.7891 24.6055C20.8813 24.6055 18.5156 26.9711 18.5156 29.8789C18.5156 29.9974 18.5196 30.116 18.5276 30.2344H17.3534C17.347 30.1162 17.3438 29.9976 17.3438 29.8789C17.3438 26.3249 20.2351 23.4336 23.7891 23.4336C27.343 23.4336 30.2344 26.3249 30.2344 29.8789C30.2344 29.9976 30.2311 30.1162 30.2247 30.2344H29.0505C29.0585 30.116 29.0625 29.9974 29.0625 29.8789C29.0625 26.9711 26.6969 24.6055 23.7891 24.6055ZM30.5556 12.8122C30.8431 13.1494 31.2571 13.335 31.6936 13.32C32.602 13.2893 33.4577 13.6696 34.041 14.3649C34.6119 15.0452 34.842 15.9359 34.6726 16.808C34.5646 17.361 34.7888 17.9262 35.2437 18.2479C36.0205 18.7975 36.4844 19.6926 36.4844 20.6422C36.4844 21.1898 36.3318 21.7216 36.0468 22.1823C35.0563 21.3637 33.9347 20.9273 32.7734 20.9273C31.1041 20.9273 29.5014 21.8452 28.2812 23.4737V22.944C29.1905 21.3222 30.467 20.0548 32.0774 19.1757C32.3615 19.0206 32.466 18.6647 32.3109 18.3806C32.1559 18.0966 31.7998 17.992 31.5159 18.1471C30.2486 18.8389 29.1661 19.7442 28.2812 20.8498V19.1737C28.9733 17.9398 29.8776 16.9086 30.9711 16.1073C31.2321 15.9161 31.2887 15.5494 31.0974 15.2884C30.9061 15.0273 30.5395 14.9709 30.2784 15.162C29.5316 15.7093 28.8639 16.3507 28.2812 17.0794V14.4836C28.2812 14.16 28.0189 13.8977 27.6953 13.8977C27.3717 13.8977 27.1094 14.16 27.1094 14.4836V17.0799C26.5266 16.351 25.8588 15.7095 25.1117 15.162C24.8506 14.9708 24.4841 15.0273 24.2927 15.2884C24.1015 15.5494 24.158 15.916 24.4191 16.1073C25.5128 16.9088 26.4173 17.9402 27.1094 19.1745V20.8505C26.2244 19.7445 25.1417 18.8391 23.8743 18.1471C23.5902 17.992 23.2343 18.0966 23.0792 18.3806C22.9241 18.6647 23.0288 19.0206 23.3127 19.1757C24.9234 20.0549 26.2 21.3226 27.1094 22.9448V23.0242C26.1053 22.5359 24.9786 22.2618 23.7891 22.2618C22.4075 22.2618 21.1107 22.6315 19.9923 23.2772C19.9448 23.0301 19.8316 22.7949 19.6562 22.5999C19.1726 22.0616 18.9062 21.3663 18.9062 20.6423C18.9062 19.6927 19.3701 18.7976 20.147 18.248C20.6018 17.9263 20.826 17.361 20.7182 16.8087C20.5487 15.9359 20.7788 15.0452 21.3497 14.3649C21.9329 13.6696 22.7877 13.2884 23.6978 13.3201C24.1331 13.3341 24.5475 13.1494 24.8352 12.812C25.5782 11.9398 26.594 11.4595 27.6953 11.4595C28.7966 11.4595 29.8125 11.9398 30.5556 12.8122ZM21.875 5.67266H25.5859C26.9859 5.67266 28.125 6.81172 28.125 8.21172V10.3069C27.9827 10.294 27.8393 10.2874 27.6953 10.2874C27.3109 10.2874 26.9311 10.334 26.5625 10.4237V8.60234C26.5625 7.84852 25.9491 7.23516 25.1953 7.23516H21.875V5.67266ZM3.71094 38.8281C2.31094 38.8281 1.17188 37.6891 1.17188 36.2891V8.21172C1.17188 6.81172 2.31094 5.67266 3.71094 5.67266H7.42188V7.23516H4.10156C3.34773 7.23516 2.73438 7.84852 2.73438 8.60234V25.9727C2.73438 26.2963 2.99672 26.5586 3.32031 26.5586C3.64391 26.5586 3.90625 26.2963 3.90625 25.9727V8.60234C3.90625 8.49469 3.99391 8.40703 4.10156 8.40703H7.63359C7.98086 9.1275 8.71844 9.62578 9.57031 9.62578H13.2812C13.6048 9.62578 13.8672 9.36344 13.8672 9.03984C13.8672 8.71625 13.6048 8.45391 13.2812 8.45391H9.57031C9.0318 8.45391 8.59375 8.01586 8.59375 7.47734V5.27344C8.59375 4.73492 9.0318 4.29688 9.57031 4.29688H10.8852C11.505 4.29688 12.038 3.85336 12.1526 3.2418C12.3762 2.04242 13.4259 1.17188 14.6484 1.17188C15.871 1.17188 16.9207 2.04242 17.1444 3.24234C17.2589 3.85336 17.7919 4.29688 18.4117 4.29688H19.7266C20.2651 4.29688 20.7031 4.73492 20.7031 5.27344V7.47734C20.7031 8.01586 20.2651 8.45391 19.7266 8.45391H16.0156C15.692 8.45391 15.4297 8.71625 15.4297 9.03984C15.4297 9.36344 15.692 9.62578 16.0156 9.62578H19.7266C20.5784 9.62578 21.316 9.12742 21.6633 8.40703H25.1953C25.303 8.40703 25.3906 8.49469 25.3906 8.60234V10.876C24.8496 11.169 24.3576 11.5655 23.9432 12.0519C23.8894 12.115 23.812 12.1502 23.7374 12.1488C22.5436 12.1073 21.4156 12.5749 20.6065 13.4375H12.7008C12.3772 13.4375 12.1148 13.6998 12.1148 14.0234C12.1148 14.347 12.3772 14.6094 12.7008 14.6094H19.8324C19.6173 15.1016 19.5015 15.6318 19.4922 16.1719H12.7008C12.3772 16.1719 12.1148 16.4342 12.1148 16.7578C12.1148 17.0814 12.3772 17.3438 12.7008 17.3438H19.3977C18.7266 17.8409 18.2306 18.5256 17.9621 19.2969H12.7008C12.3772 19.2969 12.1148 19.5592 12.1148 19.8828C12.1148 20.2064 12.3772 20.4688 12.7008 20.4688H17.7381C17.7357 20.5264 17.7345 20.5842 17.7345 20.6422C17.7345 21.1205 17.8175 21.5897 17.9763 22.0312H12.7008C12.3772 22.0312 12.1148 22.2936 12.1148 22.6172C12.1148 22.9408 12.3772 23.2031 12.7008 23.2031H18.632C18.681 23.2645 18.7319 23.3245 18.7847 23.3833C18.855 23.4615 18.8672 23.5731 18.8155 23.6682C18.6901 23.8993 18.5873 24.1427 18.5091 24.3935C18.2616 24.6318 18.0302 24.8866 17.8166 25.1562H12.7008C12.3772 25.1562 12.1148 25.4185 12.1148 25.7421C12.1148 26.0657 12.3772 26.328 12.7008 26.328H17.0513C16.7912 26.8197 16.5833 27.343 16.4351 27.8905H12.7008C12.3772 27.8905 12.1148 28.1529 12.1148 28.4765C12.1148 28.8001 12.3772 29.0624 12.7008 29.0624H16.2154C16.1866 29.3307 16.1719 29.603 16.1719 29.8788C16.1719 30.0391 16.177 30.1997 16.1869 30.3593C15.7173 30.576 15.3906 31.0512 15.3906 31.6015V33.9452C15.3906 34.7014 15.53 35.4257 15.7844 36.0937H4.10156C3.99391 36.0937 3.90625 36.006 3.90625 35.8984V28.707C3.90625 28.3834 3.64391 28.121 3.32031 28.121C2.99672 28.121 2.73438 28.3834 2.73438 28.707V35.8984C2.73438 36.6522 3.34773 37.2655 4.10156 37.2655H16.3844C16.7826 37.8705 17.2862 38.4001 17.8689 38.828H3.71094V38.8281ZM38.8281 33.9453C38.8281 36.6377 36.6377 38.8281 33.9453 38.8281H21.4453C18.753 38.8281 16.5625 36.6377 16.5625 33.9453V31.6016C16.5625 31.4939 16.6502 31.4062 16.7578 31.4062H22.5969C22.9205 31.4062 23.1828 31.1439 23.1828 30.8203C23.1828 30.4967 22.9205 30.2344 22.5969 30.2344H19.7028C19.6927 30.1162 19.6875 29.9975 19.6875 29.8789C19.6875 27.6173 21.5274 25.7773 23.7891 25.7773C26.0507 25.7773 27.8906 27.6173 27.8906 29.8789C27.8906 29.9974 27.8855 30.1162 27.8753 30.2344H25.3312C25.0077 30.2344 24.7453 30.4967 24.7453 30.8203C24.7453 31.1439 25.0077 31.4062 25.3312 31.4062H38.6328C38.7405 31.4062 38.8281 31.4939 38.8281 31.6016V33.9453Z" fill="black"/>
<path d="M23.75 28.3538C23.4264 28.3538 23.1641 28.0915 23.1641 27.7679V27.5348C23.1641 27.2112 23.4264 26.9488 23.75 26.9488C24.0736 26.9488 24.3359 27.2112 24.3359 27.5348V27.7679C24.3359 28.0915 24.0736 28.3538 23.75 28.3538Z" fill="black"/>
<path d="M25.5247 29.1554C25.3575 29.1554 25.1915 29.0842 25.0756 28.9461C24.8676 28.6982 24.8999 28.3287 25.1478 28.1206L25.3264 27.9708C25.5743 27.7627 25.9439 27.7951 26.1519 28.043C26.3599 28.2909 26.3276 28.6604 26.0797 28.8684L25.9011 29.0183C25.7913 29.1105 25.6576 29.1554 25.5247 29.1554Z" fill="black"/>
<path d="M22.0533 29.1554C21.9204 29.1554 21.7867 29.1104 21.677 29.0183L21.4984 28.8684C21.2505 28.6604 21.2181 28.2908 21.4262 28.043C21.6342 27.795 22.0038 27.7627 22.2517 27.9708L22.4302 28.1206C22.6781 28.3287 22.7105 28.6982 22.5024 28.9461C22.3865 29.0842 22.2205 29.1554 22.0533 29.1554Z" fill="black"/>
<path d="M14.6484 4.29688C14.972 4.29688 15.2344 4.03454 15.2344 3.71094C15.2344 3.38733 14.972 3.125 14.6484 3.125C14.3248 3.125 14.0625 3.38733 14.0625 3.71094C14.0625 4.03454 14.3248 4.29688 14.6484 4.29688Z" fill="black"/>
</g>
<defs>
<clipPath id="clip0_358_2024">
<rect width="40" height="40" fill="white"/>
</clipPath>
</defs>
</svg>
