<svg width="40" height="41" viewBox="0 0 40 41" fill="none" xmlns="http://www.w3.org/2000/svg">
<g clip-path="url(#clip0_360_2097)">
<path d="M28.8252 15.4625C28.7064 15.075 28.0377 12.7125 28.8439 11.0937C29.1814 10.4187 29.6377 9.94374 30.1502 9.66874C30.7689 9.33124 31.4689 9.28124 32.1189 9.49374C32.5314 9.62499 32.9189 9.86874 33.2627 10.2125C33.2627 10.2125 35.4752 5.34999 38.1252 7.99999C40.7752 10.65 35.9127 12.8625 35.9127 12.8625C37.2439 14.1875 37.0502 16.275 35.0314 17.2812C34.9314 17.3312 34.8314 17.375 34.7252 17.4125C32.9752 18.0687 30.6127 17.2812 30.6127 17.2812L30.5064 17.325C30.3939 17.1125 30.2502 16.9187 30.0752 16.7437L29.3814 16.05C29.1502 15.8187 28.8752 15.6375 28.5814 15.5187L28.8252 15.4625Z" fill="#C8EA61"/>
<path d="M38.1248 8.00002C37.8736 7.74877 37.6267 7.56564 37.3848 7.43939C36.8192 9.51189 35.2661 11.09 33.1248 12.375C32.5804 12.9194 31.5629 14.4113 32.9586 15.2C33.2723 15.3775 33.2686 15.8444 32.9573 16.0263C32.1436 16.5031 31.2404 16.8506 30.3154 17.0231C30.3867 17.1194 30.4498 17.22 30.5061 17.325L30.6123 17.2813C30.6123 17.2813 32.9748 18.0688 34.7248 17.4125C34.8311 17.375 34.9311 17.3313 35.0311 17.2813C37.0498 16.275 37.2436 14.1875 35.9123 12.8625C35.9123 12.8625 40.7748 10.65 38.1248 8.00002Z" fill="#95CC2D"/>
<path d="M25.625 7.375C28.2937 6.0375 30.3312 7.55625 30.15 9.66875C29.6375 9.94375 29.1812 10.4188 28.8437 11.0938C28.0375 12.7125 28.7062 15.075 28.825 15.4625L28.5812 15.5188C28.1062 15.325 27.575 15.2812 27.0625 15.4062L26.3562 15.5812C25.3875 15.825 24.525 16.375 23.9 17.15L21.45 20.1687C20.9437 19.075 20.1062 18.5813 19.2562 18.3875C18.7 16.3125 17.775 13.9 16.25 12.375C13.125 9.25 15.625 5.5 19.375 7.375C19.375 7.375 19.375 4.25 22.5 4.25C23.475 4.25 24.15 4.55625 24.6125 4.975C25.625 5.9 25.625 7.375 25.625 7.375Z" fill="#C8EA61"/>
<path d="M25 10.5C24.375 11.125 24.375 13 24.375 13.625C23.125 16.125 21.25 13 19.375 13.625C18.8031 13.9106 18.4925 14.5887 18.145 15.2406C18.6213 16.275 18.9844 17.3713 19.2563 18.3875C20.1063 18.5813 20.9438 19.075 21.45 20.1687L23.9 17.15C24.525 16.375 25.3875 15.825 26.3563 15.5812L27.0625 15.4062C27.575 15.2812 28.1063 15.325 28.5813 15.5188L28.825 15.4625C28.77 15.2831 28.5988 14.6794 28.5088 13.9238C27.9663 13.8781 27.4206 13.7812 26.875 13.625C25.625 13 26.875 10.5 25 10.5Z" fill="#DEEDA6"/>
<path d="M30.5063 17.325C30.7812 17.85 30.8688 18.4687 30.7188 19.0625L30.5437 19.7687C30.3 20.7375 29.75 21.6 28.975 22.225L25.7125 24.875H17.625L21.45 20.1687L23.9 17.15C24.525 16.375 25.3875 15.825 26.3562 15.5812L27.0625 15.4062C27.575 15.2812 28.1062 15.325 28.5812 15.5187C28.875 15.6375 29.15 15.8187 29.3812 16.05L30.075 16.7437C30.25 16.9187 30.3938 17.1125 30.5063 17.325Z" fill="#FFB03E"/>
<path d="M30.7188 19.0625L30.5437 19.7688C30.3 20.7375 29.75 21.6 28.975 22.225L25.7125 24.875H17.625L19.6562 22.375H22.7825C23.8694 22.375 24.9231 22.0013 25.7669 21.3156L27.725 19.725C28.5 19.1 29.05 18.2375 29.2937 17.2688L29.4688 16.5625C29.5 16.4438 29.5187 16.3188 29.5312 16.2L30.075 16.7438C30.25 16.9188 30.3938 17.1125 30.5063 17.325C30.7812 17.85 30.8688 18.4688 30.7188 19.0625Z" fill="#F7931E"/>
<path d="M35.6624 24.875C36.3874 24.875 36.9624 25.4875 36.9124 26.2125C36.6936 29.2375 35.6936 36.5938 31.0311 39.675C30.8311 39.8125 30.5936 39.875 30.3499 39.875H9.74365C9.50615 39.875 9.2624 39.8125 9.0624 39.675C4.40615 36.5938 3.3999 29.2375 3.1874 26.2125C3.13115 25.4875 3.70615 24.875 4.43115 24.875H5.6499H35.6249H35.6624Z" fill="#F2F2F2"/>
<path d="M36.9125 26.2125C36.6938 29.2375 35.6938 36.5938 31.0312 39.675C30.8312 39.8125 30.5938 39.875 30.35 39.875H9.74375C9.50625 39.875 9.2625 39.8125 9.0625 39.675C8.04375 39 7.2 38.125 6.5 37.1313C6.51875 37.1438 6.54375 37.1625 6.5625 37.175C6.7625 37.3125 7.00625 37.375 7.24375 37.375H27.85C28.0938 37.375 28.3312 37.3125 28.5312 37.175C32.675 34.4375 33.925 28.325 34.3062 24.875H35.6625C36.3875 24.875 36.9625 25.4875 36.9125 26.2125Z" fill="#A2B1C2"/>
<path d="M34.9999 19.25C34.9999 19.25 37.4999 19.25 36.2499 21.75C36.2499 21.75 39.3749 23 35.6249 24.875H25.7124L28.9749 22.225C29.7499 21.6 30.2999 20.7375 30.5437 19.7687L30.7187 19.0625C30.8687 18.4688 30.7812 17.85 30.5062 17.325L30.6124 17.2812C30.6124 17.2812 32.9749 18.0687 34.7249 17.4125C35.0499 17.7812 35.2249 18.3562 34.9999 19.25Z" fill="#6E9617"/>
<path d="M30.6248 1.125C36.2498 1.125 32.4998 6.125 32.4998 6.125C32.4998 6.125 33.2561 7.64375 32.1186 9.49375C31.4686 9.28125 30.7686 9.33125 30.1498 9.66875C30.3311 7.55625 28.2936 6.0375 25.6248 7.375C25.6248 7.375 25.6248 5.9 24.6123 4.975C25.0436 4.43125 25.7561 3.94375 26.8748 3.625C26.8748 3.625 25.6248 1.125 30.6248 1.125Z" fill="#6E9617"/>
<path d="M21.4502 20.1688L17.6252 24.875H5.65019C5.50019 23.975 5.47519 22.9438 5.62519 21.75C6.25019 16.75 11.2502 18.625 11.2502 18.625L12.2127 19.1063C12.4689 19.2375 12.7377 19.3313 13.0127 19.3875C13.4314 19.4813 13.8627 19.4938 14.2814 19.4188C14.6252 19.375 14.9627 19.2688 15.2877 19.1063L16.2502 18.625C16.2502 18.625 17.7814 18.05 19.2564 18.3875C20.1064 18.5813 20.9439 19.075 21.4502 20.1688Z" fill="#E45081"/>
<path d="M19.475 18.4475C18.6337 19.9775 17.3263 21.2119 16.25 21.75C13.2806 23.8713 9.44687 23.6888 5.53125 23.5481C5.5425 24.0188 5.58125 24.4625 5.65 24.875H17.625L21.45 20.1688C20.9875 19.1694 20.2475 18.6738 19.475 18.4475Z" fill="#AB3C61"/>
<path d="M12.5 14.875H15C15 14.875 13.9 17.0813 14.2813 19.4188C13.8625 19.4938 13.4312 19.4812 13.0125 19.3875C12.8375 18.5437 12.5 16.7063 12.5 14.875Z" fill="#C8EA61"/>
<path d="M8.75 21.75C9.44036 21.75 10 21.3303 10 20.8125C10 20.2947 9.44036 19.875 8.75 19.875C8.05964 19.875 7.5 20.2947 7.5 20.8125C7.5 21.3303 8.05964 21.75 8.75 21.75Z" fill="#F4B9CD"/>
<path d="M7.20433 33.285C6.47058 31.975 5.7187 30.1556 5.5612 28.0231C5.5287 27.5869 5.8737 27.2119 6.3112 27.2119H7.57995C7.97745 27.2119 8.30558 27.5225 8.32745 27.9194L8.6037 32.8712C8.64745 33.6619 7.5912 33.9756 7.20433 33.285Z" fill="white"/>
<path d="M35.9151 9.32562L30.612 14.6287C30.3676 14.8731 30.3676 15.2681 30.612 15.5125C30.7339 15.6344 30.8939 15.6956 31.0539 15.6956C31.2139 15.6956 31.3739 15.6344 31.4957 15.5125L36.7989 10.2094C37.0432 9.96499 37.0432 9.56999 36.7989 9.32562C36.5545 9.08124 36.1595 9.08124 35.9151 9.32562Z" fill="#31293A"/>
<path d="M39.5027 10.0581C39.6121 9.45375 39.539 8.52938 38.5671 7.55813C37.5952 6.58625 36.6715 6.5125 36.0671 6.62313C34.6452 6.88062 33.5902 8.34375 33.0615 9.25125C33.0334 9.23375 33.0027 9.22313 32.974 9.20625C33.5596 7.88938 33.369 6.77063 33.1996 6.21688C33.704 5.46313 34.8496 3.48187 34.1046 1.99125C33.6102 1.00187 32.439 0.5 30.6252 0.5C28.414 0.5 26.9934 0.985 26.4021 1.9425C26.1352 2.37313 26.0846 2.83125 26.1252 3.21438C25.4902 3.45375 24.9627 3.76688 24.5421 4.14625C24.0177 3.82812 23.3496 3.625 22.5002 3.625C20.1284 3.625 19.1515 5.19375 18.8559 6.48562C17.2059 5.94437 15.6702 6.32 14.799 7.53C13.9071 8.76688 13.8734 10.8819 15.8084 12.8169C16.8546 13.8638 17.7221 15.4906 18.3946 17.6575C17.4915 17.6306 16.6284 17.8156 16.0309 18.04C16.0102 18.0481 15.9909 18.0562 15.9709 18.0662L15.009 18.5469C14.9515 18.5756 14.8915 18.5975 14.8321 18.6219C14.7665 16.7881 15.5502 15.1712 15.5596 15.1531C15.6552 14.9594 15.6446 14.7294 15.5309 14.5456C15.4171 14.3625 15.2165 14.25 15.0002 14.25H12.5002C12.1552 14.25 11.8752 14.5294 11.8752 14.875C11.8752 16.1419 12.0327 17.4156 12.1952 18.3988L11.5296 18.0662C11.5102 18.0562 11.4902 18.0481 11.4696 18.04C11.364 18.0006 8.85524 17.0825 6.94274 18.2381C5.86024 18.8925 5.20837 20.0481 5.00524 21.6719C4.89087 22.5794 4.87149 23.4425 4.94337 24.25H4.43212C3.91212 24.25 3.41149 24.4681 3.05774 24.8475C2.70524 25.2256 2.52399 25.7394 2.56149 26.2556C2.78337 29.3687 3.82837 36.96 8.71587 40.1981C9.01399 40.3956 9.37024 40.5 9.74587 40.5H30.3496C30.7252 40.5 31.0809 40.3956 31.3796 40.1981C36.2665 36.9606 37.3115 29.3694 37.5346 26.2556C37.5715 25.7394 37.3902 25.2263 37.0377 24.8475C37.019 24.8269 36.9952 24.8125 36.9752 24.7931C37.749 24.2294 38.1209 23.6381 38.0946 23.0019C38.064 22.2681 37.504 21.7606 37.049 21.4675C37.3096 20.7231 37.2827 20.09 36.9684 19.5813C36.6559 19.0756 36.1434 18.8375 35.7177 18.725C35.7465 18.3081 35.6896 17.965 35.5902 17.6831C36.5627 17.1112 37.1846 16.2706 37.3446 15.2825C37.469 14.5156 37.299 13.7387 36.874 13.0637C37.7815 12.5356 39.2446 11.48 39.5027 10.0581ZM27.0465 4.22625C27.2252 4.175 27.3721 4.0475 27.4471 3.87687C27.5221 3.70687 27.5171 3.51187 27.434 3.345C27.4321 3.34125 27.2515 2.94438 27.4646 2.59875C27.6227 2.34375 28.2465 1.75 30.6252 1.75C31.5196 1.75 32.6552 1.88875 32.9865 2.54938C33.4465 3.4675 32.4021 5.21187 31.9996 5.75063C31.8615 5.93563 31.839 6.18875 31.9377 6.39813C31.9596 6.44438 32.4096 7.45937 31.7815 8.78563C31.4715 8.74063 31.1571 8.73 30.8421 8.78C30.804 8.78625 30.7677 8.79812 30.7296 8.80562C30.5815 7.98187 30.1352 7.26562 29.449 6.80063C28.5446 6.1875 27.3709 6.08188 26.1434 6.485C26.0309 5.99375 25.819 5.46313 25.4709 4.99375C25.8627 4.67188 26.3884 4.41375 27.0465 4.22625ZM16.6921 11.9331C15.2765 10.5175 15.2309 9.06875 15.8127 8.26062C16.4459 7.38125 17.7346 7.25375 19.0952 7.93438C19.289 8.03063 19.519 8.02187 19.7034 7.90687C19.8877 7.7925 20.0002 7.59188 20.0002 7.375C20.0002 7.27313 20.0284 4.875 22.5002 4.875C24.9084 4.875 24.9984 7.12187 25.0002 7.375C25.0002 7.59188 25.1127 7.79312 25.2971 7.90687C25.4815 8.02187 25.7115 8.03062 25.9052 7.93375C26.9971 7.38625 28.0334 7.35 28.749 7.83563C29.2359 8.16563 29.4984 8.70563 29.5196 9.33438C29.0234 9.6875 28.6009 10.185 28.2859 10.815C27.6459 12.095 27.804 13.7175 28.0059 14.7362C27.644 14.6938 27.274 14.71 26.9121 14.8L26.204 14.9756C25.1102 15.25 24.1196 15.8831 23.4152 16.7563L21.5159 19.0944C21.029 18.4788 20.4159 18.1 19.7615 17.8869C19.0096 15.2275 17.9796 13.2206 16.6921 11.9331ZM22.2152 22.1425L21.3521 21.2787L22.1446 20.3031L22.6577 20.8162C22.7796 20.9381 22.9396 20.9994 23.0996 20.9994C23.2596 20.9994 23.4196 20.9381 23.5415 20.8162C23.7859 20.5719 23.7859 20.1769 23.5415 19.9325L22.9371 19.3281L24.1252 17.865L25.3096 19.0487C25.4315 19.1706 25.5915 19.2319 25.7515 19.2319C25.9115 19.2319 26.0715 19.1706 26.1934 19.0487C26.4377 18.8044 26.4377 18.4094 26.1934 18.165L24.9871 16.9594C25.4327 16.6 25.9496 16.3287 26.5071 16.1881L27.2134 16.0131C27.8302 15.8587 28.4909 16.0431 28.9396 16.4925L29.6334 17.1863C30.0815 17.635 30.2652 18.2956 30.1121 18.9131L29.9377 19.6163C29.7284 20.4494 29.2471 21.2025 28.5809 21.7394L25.4909 24.25H18.9384L20.5596 22.2544L21.3315 23.0262C21.4534 23.1481 21.6134 23.2094 21.7734 23.2094C21.9334 23.2094 22.0934 23.1481 22.2152 23.0262C22.4596 22.7819 22.4596 22.3869 22.2152 22.1425ZM14.0777 15.5C13.8115 16.2863 13.5127 17.5044 13.5921 18.8312C13.5746 18.83 13.5571 18.8294 13.5396 18.8281C13.3821 17.9975 13.1896 16.7688 13.1384 15.4994L14.0777 15.5ZM6.24524 21.8275C6.39837 20.6044 6.84899 19.7575 7.58524 19.3106C8.89024 18.5175 10.764 19.1181 11.0052 19.2013L11.9346 19.6656C13.0715 20.2306 14.429 20.2312 15.5671 19.665L16.4977 19.2C16.824 19.0837 19.499 18.2056 20.6977 20.1012L17.3277 24.25H6.20212C6.12587 23.5 6.13712 22.69 6.24524 21.8275ZM30.6896 39.1556C30.5977 39.2162 30.4771 39.25 30.3496 39.25H9.74587C9.61837 39.25 9.49774 39.2162 9.40587 39.1556C4.98087 36.225 4.01712 29.0956 3.80774 26.1669C3.79524 25.9931 3.85337 25.8269 3.97212 25.6994C4.09212 25.5706 4.25524 25.5 4.43212 25.5H35.6634C35.8402 25.5 36.0034 25.5706 36.1227 25.6987C36.2415 25.8263 36.3002 25.9925 36.2877 26.1663C36.0784 29.0956 35.1134 36.225 30.6896 39.1556ZM35.9065 20.2406C36.0484 20.4725 35.9715 20.9094 35.6915 21.4706C35.6134 21.6263 35.6052 21.8075 35.6665 21.9706C35.7277 22.1338 35.8552 22.2644 36.0165 22.3294C36.3496 22.4656 36.8365 22.8025 36.8465 23.0544C36.8484 23.1038 36.8121 23.5513 35.4684 24.25H27.4734L29.3671 22.7112C30.2415 22.0062 30.8746 21.0156 31.1509 19.9188L31.3259 19.2131C31.4159 18.8512 31.4327 18.4806 31.3896 18.1187C31.8615 18.2119 32.4571 18.2969 33.0952 18.2969C33.5309 18.2969 33.9815 18.2494 34.4202 18.1469C34.4952 18.3969 34.4921 18.71 34.3946 19.0969C34.3477 19.2825 34.3909 19.4788 34.5077 19.6306C34.6246 19.7819 34.8065 19.8719 34.9971 19.8744C35.2221 19.8775 35.7415 19.97 35.9065 20.2406ZM38.2727 9.83375C38.069 10.9631 36.3146 11.9919 35.6559 12.2931C35.4696 12.3787 35.3365 12.5494 35.3002 12.7506C35.264 12.9519 35.3284 13.1587 35.4734 13.3038C35.9796 13.8106 36.2121 14.4588 36.1109 15.0825C36.0015 15.7563 35.519 16.3387 34.7521 16.7225C33.3409 17.43 31.1471 16.7931 30.8446 16.6994C30.7459 16.56 30.6396 16.425 30.5171 16.3025L29.8234 15.6087C29.7009 15.4862 29.5665 15.38 29.4271 15.2819C29.3346 14.9831 28.6971 12.7869 29.404 11.3744C29.7871 10.6069 30.3696 10.1244 31.0434 10.015C31.6684 9.91375 32.3159 10.1456 32.8221 10.6525C32.9665 10.7975 33.1715 10.8612 33.3752 10.825C33.5765 10.7888 33.7477 10.6556 33.8327 10.47C34.134 9.81125 35.1627 8.0575 36.2921 7.85313C36.7477 7.77063 37.2046 7.96375 37.684 8.4425C38.1634 8.92125 38.3552 9.37625 38.2727 9.83375Z" fill="#31293A"/>
<path d="M20.2794 12.9344C20.5882 12.78 20.7132 12.4044 20.5588 12.0956L19.3088 9.59562C19.1544 9.28687 18.7794 9.16249 18.47 9.31624C18.1613 9.47062 18.0363 9.84624 18.1907 10.155L19.4407 12.655C19.5507 12.8737 19.7713 13 20.0007 13C20.0944 13 20.19 12.9787 20.2794 12.9344Z" fill="#31293A"/>
<path d="M24.0958 11.6844C24.1852 11.7288 24.2808 11.75 24.3746 11.75C24.6039 11.75 24.8246 11.6238 24.9346 11.4044L25.5596 10.1544C25.7139 9.84563 25.5889 9.47001 25.2802 9.31563C24.9702 9.16188 24.5964 9.28626 24.4414 9.59501L23.8164 10.845C23.6614 11.1544 23.7871 11.5294 24.0958 11.6844Z" fill="#31293A"/>
<path d="M29.2236 6.10626C29.2748 6.11876 29.3254 6.12501 29.3761 6.12501C29.6561 6.12501 29.9104 5.93564 29.9817 5.65126L30.6067 3.15126C30.6904 2.81689 30.4867 2.47751 30.1517 2.39376C29.8173 2.31001 29.4779 2.51251 29.3936 2.84876L28.7686 5.34876C28.6854 5.68314 28.8892 6.02251 29.2236 6.10626Z" fill="#31293A"/>
<path d="M33.471 20.5656L32.221 21.1906C31.9123 21.345 31.7873 21.7206 31.9416 22.0294C32.051 22.2487 32.2716 22.375 32.501 22.375C32.5948 22.375 32.6904 22.3537 32.7798 22.3094L34.0298 21.6844C34.3385 21.53 34.4635 21.1544 34.3091 20.8456C34.1548 20.5375 33.7798 20.4125 33.471 20.5656Z" fill="#31293A"/>
</g>
<defs>
<clipPath id="clip0_360_2097">
<rect width="40" height="40" fill="white" transform="translate(0 0.5)"/>
</clipPath>
</defs>
</svg>
