<svg width="45" height="45" viewBox="0 0 45 45" fill="none" xmlns="http://www.w3.org/2000/svg">
<g clip-path="url(#clip0_352_2642)">
<path d="M32.2997 9.23828V40.8253C32.2997 41.5715 32.0668 42.2632 31.6704 42.8318C31.6704 42.8318 2.94349 37.0116 7.14537 5.72266H28.784C30.7255 5.72266 32.2997 7.2959 32.2997 9.23828Z" fill="#99B2E9"/>
<path d="M31.8111 38.2668L31.6705 42.8318C31.0359 43.7441 29.9795 44.3409 28.7842 44.3409H4.1748C2.2333 44.3409 0.65918 42.7668 0.65918 40.8253V9.23828C0.65918 7.2959 2.2333 5.72266 4.1748 5.72266H7.14551C7.20703 21.6484 17.6801 35.0658 31.8111 38.2668Z" fill="#85A4E4"/>
<path d="M29.2235 9.67773V37.554C14.5071 35.754 6.01497 24.2259 7.28868 8.79883H28.3446C28.8298 8.79883 29.2235 9.1917 29.2235 9.67773Z" fill="#FFF8E6"/>
<path d="M29.2236 37.554V40.3858C29.2236 40.871 28.8299 41.2647 28.3447 41.2647H4.61426C4.1291 41.2647 3.73535 40.871 3.73535 40.3858V9.67773C3.73535 9.1917 4.1291 8.79883 4.61426 8.79883H7.28877C8.4999 22.3858 17.3083 33.6798 29.2236 37.554Z" fill="#FFF1CF"/>
<path d="M20.7128 4.1748C20.3311 4.1748 20.0055 3.90182 19.9355 3.52652C19.6313 1.89457 18.1997 0.65918 16.4795 0.65918C14.7593 0.65918 13.3277 1.89457 13.0235 3.52652C12.9536 3.90182 12.6279 4.1748 12.2462 4.1748H10.7666C9.79576 4.1748 9.00879 4.96178 9.00879 5.93262V8.41219C9.00879 9.38303 9.79576 10.17 10.7666 10.17H22.1924C23.1632 10.17 23.9502 9.38303 23.9502 8.41219V5.93262C23.9502 4.96178 23.1632 4.1748 22.1924 4.1748H20.7128Z" fill="#FF6E80"/>
<path d="M40.5782 26.9601C41.1996 28.1255 41.2242 29.5748 40.5149 30.8026C39.9727 31.7422 39.1025 32.375 38.1331 32.6404C37.9529 34.371 37.6822 36.1481 37.3166 38.1415C36.3296 39.7341 25.9875 39.7332 24.9979 38.1433C24.8001 37.0613 24.6296 36.0435 24.4863 35.0618C24.4863 35.0618 24.4863 23.9059 28.4897 13.0461C30.4937 11.7075 33.2024 12.0204 34.8768 13.9856C35.0648 14.2062 35.3417 14.3354 35.6326 14.3258C36.8068 14.2853 37.9872 14.7661 38.8011 15.7364C39.5991 16.6874 39.8733 17.9038 39.6536 19.035C39.5824 19.3997 39.7266 19.7759 40.0298 19.9903C41.0423 20.7066 41.7041 21.887 41.7041 23.2221C41.7041 24.2284 41.3288 25.146 40.7101 25.8438C40.4358 26.1541 40.3831 26.5953 40.5782 26.9601Z" fill="#8CE09F"/>
<path d="M38.3669 30.3375L24.4863 35.0616C24.365 34.2337 24.264 33.4321 24.1813 32.6402C22.9869 32.3124 21.9639 31.43 21.5077 30.1775C21.1052 29.071 21.2273 27.9012 21.7468 26.9405C21.9375 26.5898 21.89 26.1618 21.6229 25.8647C20.9936 25.1643 20.6104 24.2379 20.6104 23.2219C20.6104 21.8868 21.2722 20.7064 22.2847 19.9901C22.5879 19.7757 22.732 19.3995 22.6608 19.0348C22.4411 17.9036 22.7153 16.6872 23.5134 15.7362C24.3272 14.7659 25.5076 14.2852 26.6818 14.3256C26.9728 14.3353 27.2496 14.2061 27.4377 13.9854C27.755 13.6128 28.1101 13.299 28.4897 13.0459C27.276 21.0791 30.6334 26.93 38.3669 30.3375Z" fill="#73DA8C"/>
<path d="M43.4621 33.1468C43.4621 37.6433 40.5107 40.4874 36.8703 40.4874C34.9912 40.4874 33.2958 39.7298 32.0952 38.3771C32.0952 38.3771 34.3048 29.5819 34.4498 24.8798C35.1995 24.4474 36.016 24.2021 36.8703 24.2021C40.5107 24.2021 43.4621 28.6494 43.4621 33.1468Z" fill="#FFF8E6"/>
<path d="M40.5881 33.8955C40.5881 34.1715 40.5582 34.4404 40.5011 34.6997C37.6962 34.0519 36.1521 32.5578 35.7163 30.3605C36.0793 30.2419 36.4678 30.1777 36.8703 30.1777C38.9234 30.1777 40.5881 31.8424 40.5881 33.8955Z" fill="#FCE3A0"/>
<path d="M41.4976 35.1771L32.095 38.3772C30.97 37.1107 30.2783 35.3222 30.2783 33.1469C30.2783 29.7051 32.0062 26.2932 34.4496 24.8799C34.3046 29.582 36.6864 33.0572 41.4976 35.1771Z" fill="#FFF1CF"/>
<path d="M40.5009 34.6995C40.4279 35.0291 40.311 35.3429 40.1572 35.6329L35.3232 37.2782C34.0427 36.6911 33.1523 35.3974 33.1523 33.8953C33.1523 32.2447 34.2281 30.8455 35.7161 30.3604C36.7216 32.1182 38.3203 33.5701 40.5009 34.6995Z" fill="#FFCE71"/>
<path d="M34.673 33.6143C34.673 37.9824 31.1319 41.5244 26.7629 41.5244C23.8458 41.5244 21.2979 39.945 19.9268 37.5957C20.4901 37.8277 24.0198 30.1461 24.5252 26.0258C25.2345 25.8157 25.9859 25.7041 26.7629 25.7041C31.1319 25.7041 34.673 29.2452 34.673 33.6143Z" fill="#FF6E80"/>
<path d="M29.8547 34.9313L20.9382 37.9653C20.8591 37.9653 20.4899 37.8273 19.9266 37.5953C19.2437 36.4255 18.8525 35.0658 18.8525 33.6139C18.8525 30.0218 21.2458 26.9896 24.525 26.0254C24.0196 30.1457 25.8284 33.1577 29.8547 34.9313Z" fill="#FD5C6F"/>
<path d="M32.0363 33.6143C32.0363 36.5261 29.6756 38.8877 26.7629 38.8877C25.2723 38.8877 23.9267 38.2689 22.9678 37.2749C22.9678 37.2749 25.0253 31.5321 24.563 28.8207C25.2327 28.5122 25.978 28.3408 26.7629 28.3408C29.6756 28.3408 32.0363 30.7016 32.0363 33.6143Z" fill="#FFA1AC"/>
<path d="M29.8547 34.9313L22.9676 37.2745C22.0526 36.3271 21.4893 35.0359 21.4893 33.6139C21.4893 31.486 22.7487 29.6535 24.5628 28.8203C25.0251 31.5317 26.8022 33.5866 29.8547 34.9313Z" fill="#FF8A98"/>
<path d="M44.3406 35.5518V38.1885C44.3406 41.5863 41.5861 44.3408 38.1883 44.3408H37.0325C28.9717 43.2331 25.4865 39.6309 29.6998 34.6729H43.4617C43.9469 34.6729 44.3406 35.0666 44.3406 35.5518Z" fill="#B5E9F1"/>
<path d="M37.0327 44.3408H24.126C20.7281 44.3408 17.9736 41.5863 17.9736 38.1885V35.5518C17.9736 35.0663 18.3671 34.6729 18.8525 34.6729H29.7C29.7413 38.6578 31.3277 42.7746 37.0327 44.3408Z" fill="#9BE1EC"/>
<path d="M21.0601 8.19238H11.8315C11.4675 8.19238 11.1724 7.89725 11.1724 7.5332C11.1724 7.16916 11.4675 6.87402 11.8315 6.87402H21.0601C21.4241 6.87402 21.7192 7.16916 21.7192 7.5332C21.7192 7.89725 21.4241 8.19238 21.0601 8.19238Z" fill="black"/>
<path d="M11.2326 15.5925C10.9751 15.3351 10.5578 15.3351 10.3004 15.5925L8.25537 17.6375L7.71704 17.0992C7.45961 16.8418 7.04221 16.8418 6.78487 17.0992C6.52744 17.3566 6.52744 17.774 6.78487 18.0314L7.78937 19.0359C7.91804 19.1645 8.08679 19.229 8.25546 19.229C8.42412 19.229 8.59287 19.1646 8.72154 19.0359L11.2327 16.5247C11.49 16.2673 11.49 15.8499 11.2326 15.5925Z" fill="black"/>
<path d="M11.2326 22.1843C10.9751 21.9269 10.5578 21.9269 10.3004 22.1843L8.25537 24.2293L7.71704 23.691C7.45961 23.4336 7.04221 23.4336 6.78487 23.691C6.52744 23.9484 6.52744 24.3658 6.78487 24.6232L7.78937 25.6277C7.91804 25.7563 8.08679 25.8208 8.25546 25.8208C8.42412 25.8208 8.59287 25.7564 8.72154 25.6277L11.2327 23.1165C11.49 22.8591 11.49 22.4417 11.2326 22.1843Z" fill="black"/>
<path d="M11.2326 28.7761C10.9751 28.5186 10.5578 28.5186 10.3004 28.7761L8.25537 30.8211L7.71704 30.2828C7.45961 30.0254 7.04221 30.0254 6.78487 30.2828C6.52744 30.5402 6.52744 30.9576 6.78487 31.215L7.78937 32.2195C7.91804 32.3481 8.08679 32.4126 8.25546 32.4126C8.42412 32.4126 8.59287 32.3482 8.72154 32.2195L11.2327 29.7083C11.49 29.4509 11.49 29.0335 11.2326 28.7761Z" fill="black"/>
<path d="M26.9597 39.7713C26.5956 39.7713 26.3005 39.4762 26.3005 39.1122C26.3005 38.8085 26.0534 38.5615 25.7499 38.5615C25.4463 38.5615 25.1992 38.8086 25.1992 39.1122C25.1992 39.4762 24.9041 39.7713 24.54 39.7713C24.176 39.7713 23.8809 39.4762 23.8809 39.1122C23.8809 38.0816 24.7193 37.2432 25.7499 37.2432C26.7804 37.2432 27.6188 38.0816 27.6188 39.1122C27.6188 39.4762 27.3237 39.7713 26.9597 39.7713Z" fill="black"/>
<path d="M37.7741 39.7713C37.4101 39.7713 37.1149 39.4762 37.1149 39.1122C37.1149 38.8085 36.8679 38.5615 36.5643 38.5615C36.2607 38.5615 36.0137 38.8086 36.0137 39.1122C36.0137 39.4762 35.7185 39.7713 35.3545 39.7713C34.9904 39.7713 34.6953 39.4762 34.6953 39.1122C34.6953 38.0816 35.5338 37.2432 36.5643 37.2432C37.5948 37.2432 38.4333 38.0816 38.4333 39.1122C38.4333 39.4762 38.1382 39.7713 37.7741 39.7713Z" fill="black"/>
<path d="M31.1573 41.7703C30.4749 41.7703 29.8261 41.4748 29.3771 40.9595C29.1379 40.685 29.1665 40.2686 29.441 40.0294C29.7154 39.7903 30.1318 39.8188 30.371 40.0933C30.5696 40.3212 30.8563 40.4519 31.1574 40.4519C31.4585 40.4519 31.7452 40.3212 31.9437 40.0933C32.1829 39.8188 32.5993 39.7903 32.8738 40.0294C33.1483 40.2686 33.1768 40.6849 32.9377 40.9595C32.4885 41.4748 31.8397 41.7703 31.1573 41.7703Z" fill="black"/>
<path d="M44.0742 34.1409C44.1054 33.8152 44.1211 33.4829 44.1211 33.1471C44.1211 30.821 43.3728 28.4367 42.068 26.6057C41.8889 26.3544 41.7028 26.1177 41.5102 25.8955C42.0631 25.1184 42.3633 24.186 42.3633 23.2225C42.3633 21.7269 41.6333 20.3177 40.4104 19.4526C40.3215 19.3896 40.2783 19.2755 40.3007 19.161C40.5676 17.787 40.205 16.3844 39.3061 15.3132C38.3875 14.218 37.0391 13.6187 35.6107 13.6673C35.5251 13.6715 35.4389 13.6295 35.3785 13.5585C34.7171 12.7821 33.8799 12.2094 32.959 11.8839V9.23818C32.959 6.93624 31.0861 5.06338 28.7842 5.06338H24.4477C24.0979 4.15881 23.2189 3.51562 22.1924 3.51562H20.7132C20.6489 3.51562 20.5955 3.47001 20.5834 3.40541C20.2155 1.43218 18.4896 0 16.4795 0C14.4693 0 12.7435 1.43218 12.3758 3.40471C12.3635 3.47001 12.3101 3.51562 12.2458 3.51562H10.7666C9.74013 3.51562 8.86113 4.15881 8.51124 5.06338H4.1748C1.87286 5.06338 0 6.93615 0 9.23818V40.8252C0 43.1271 1.87286 45 4.1748 45H24.126H38.1885C41.9444 45 45 41.9444 45 38.1885V35.5518C45 34.9211 44.6186 34.378 44.0742 34.1409ZM42.8027 33.1471C42.8027 33.4405 42.7891 33.7304 42.762 34.0137H41.2455C41.2465 33.9745 41.2471 33.9352 41.2471 33.8959C41.2471 31.4824 39.2836 29.5189 36.8701 29.5189C36.0598 29.5189 35.2794 29.7396 34.6014 30.1518C34.1467 29.1263 33.4964 28.2059 32.6981 27.4384C33.8421 25.7938 35.3406 24.8616 36.8701 24.8616C39.975 24.8616 42.8027 28.8108 42.8027 33.1471ZM35.0518 31.4365C35.5754 31.0478 36.2084 30.8373 36.8701 30.8373C38.5566 30.8373 39.9287 32.2094 39.9287 33.8959C39.9287 33.9352 39.9279 33.9745 39.9264 34.0137H35.3228C35.329 33.8806 35.332 33.7471 35.332 33.6138C35.332 32.8617 35.2346 32.1319 35.0518 31.4365ZM26.7627 27.6812C23.4914 27.6812 20.8301 30.3425 20.8301 33.6138C20.8301 33.7471 20.8346 33.8805 20.8435 34.0137H19.5226C19.5154 33.8808 19.5117 33.7473 19.5117 33.6138C19.5117 29.6155 22.7645 26.3628 26.7627 26.3628C30.7609 26.3628 34.0137 29.6155 34.0137 33.6138C34.0137 33.7473 34.01 33.8808 34.0028 34.0137H32.6819C32.6908 33.8805 32.6953 33.7471 32.6953 33.6138C32.6953 30.3425 30.034 27.6812 26.7627 27.6812ZM34.3751 14.4137C34.6985 14.793 35.1642 15.0019 35.6553 14.985C36.6772 14.9505 37.6399 15.3783 38.2961 16.1605C38.9384 16.9259 39.1972 17.9278 39.0066 18.9091C38.8852 19.5311 39.1374 20.1669 39.6491 20.5289C40.5231 21.1472 41.0449 22.1542 41.0449 23.2225C41.0449 23.8386 40.8733 24.4368 40.5526 24.955C39.4384 24.0341 38.1765 23.5433 36.8701 23.5433C34.9922 23.5433 33.1891 24.5758 31.8164 26.4079V25.812C32.8394 23.9875 34.2753 22.5616 36.0871 21.5727C36.4067 21.3982 36.5243 20.9978 36.3498 20.6782C36.1753 20.3587 35.7748 20.241 35.4553 20.4155C34.0297 21.1938 32.8119 22.2122 31.8164 23.4561V21.5704C32.5949 20.1822 33.6123 19.0222 34.8425 18.1208C35.1361 17.9056 35.1998 17.493 34.9846 17.1994C34.7694 16.9058 34.3569 16.8422 34.0632 17.0573C33.223 17.673 32.4719 18.3945 31.8164 19.2143V16.294C31.8164 15.93 31.5213 15.6349 31.1572 15.6349C30.7932 15.6349 30.498 15.93 30.498 16.294V19.2149C29.8424 18.3949 29.0912 17.6731 28.2507 17.0573C27.957 16.8421 27.5446 16.9057 27.3293 17.1994C27.1142 17.493 27.1777 17.9055 27.4714 18.1208C28.7019 19.0224 29.7195 20.1828 30.498 21.5713V23.4568C29.5024 22.2126 28.2844 21.1939 26.8586 20.4155C26.539 20.241 26.1386 20.3587 25.9641 20.6782C25.7897 20.9978 25.9073 21.3982 26.2268 21.5727C28.0388 22.5618 29.475 23.9879 30.498 25.813V25.9022C29.3685 25.3528 28.1009 25.0445 26.7627 25.0445C25.2084 25.0445 23.7495 25.4604 22.4914 26.1868C22.4379 25.9088 22.3105 25.6443 22.1132 25.4249C21.5692 24.8193 21.2695 24.0371 21.2695 23.2225C21.2695 22.1542 21.7913 21.1473 22.6653 20.529C23.177 20.167 23.4293 19.5311 23.308 18.9098C23.1173 17.9279 23.3762 16.9259 24.0184 16.1605C24.6745 15.3783 25.6362 14.9495 26.66 14.9851C27.1498 15.0009 27.6159 14.793 27.9396 14.4135C28.7755 13.4322 29.9182 12.8919 31.1572 12.8919C32.3962 12.8919 33.5391 13.4322 34.3751 14.4137ZM24.6094 6.38174H28.7842C30.3592 6.38174 31.6406 7.66318 31.6406 9.23818V11.5952C31.4805 11.5807 31.3192 11.5733 31.1572 11.5733C30.7248 11.5733 30.2975 11.6257 29.8828 11.7267V9.67764C29.8828 8.82958 29.1928 8.13955 28.3447 8.13955H24.6094V6.38174ZM4.1748 43.6816C2.5998 43.6816 1.31836 42.4002 1.31836 40.8252V9.23818C1.31836 7.66318 2.5998 6.38174 4.1748 6.38174H8.34961V8.13955H4.61426C3.7662 8.13955 3.07617 8.82958 3.07617 9.67764V29.2192C3.07617 29.5833 3.37131 29.8784 3.73535 29.8784C4.09939 29.8784 4.39453 29.5833 4.39453 29.2192V9.67764C4.39453 9.55652 4.49314 9.45791 4.61426 9.45791H8.58779C8.97847 10.2684 9.80824 10.829 10.7666 10.829H14.9414C15.3054 10.829 15.6006 10.5339 15.6006 10.1698C15.6006 9.80578 15.3054 9.51064 14.9414 9.51064H10.7666C10.1608 9.51064 9.66797 9.01784 9.66797 8.41201V5.93262C9.66797 5.32679 10.1608 4.83398 10.7666 4.83398H12.2458C12.9431 4.83398 13.5427 4.33503 13.6716 3.64702C13.9232 2.29772 15.1041 1.31836 16.4795 1.31836C17.8549 1.31836 19.0358 2.29772 19.2874 3.64764C19.4163 4.33503 20.0159 4.83398 20.7132 4.83398H22.1924C22.7982 4.83398 23.291 5.32679 23.291 5.93262V8.41201C23.291 9.01784 22.7982 9.51064 22.1924 9.51064H18.0176C17.6535 9.51064 17.3584 9.80578 17.3584 10.1698C17.3584 10.5339 17.6535 10.829 18.0176 10.829H22.1924C23.1507 10.829 23.9805 10.2683 24.3712 9.45791H28.3447C28.4658 9.45791 28.5645 9.55652 28.5645 9.67764V12.2355C27.9558 12.5651 27.4023 13.0112 26.9361 13.5584C26.8755 13.6294 26.7884 13.669 26.7046 13.6673C25.3615 13.6208 24.0926 14.1468 23.1823 15.1172H14.2884C13.9243 15.1172 13.6292 15.4123 13.6292 15.7764C13.6292 16.1404 13.9243 16.4355 14.2884 16.4355H22.3115C22.0694 16.9893 21.9392 17.5858 21.9287 18.1934H14.2884C13.9243 18.1934 13.6292 18.4885 13.6292 18.8525C13.6292 19.2166 13.9243 19.5117 14.2884 19.5117H21.8224C21.0674 20.071 20.5095 20.8413 20.2074 21.709H14.2884C13.9243 21.709 13.6292 22.0041 13.6292 22.3682C13.6292 22.7322 13.9243 23.0273 14.2884 23.0273H19.9554C19.9527 23.0922 19.9513 23.1572 19.9513 23.2225C19.9513 23.7605 20.0447 24.2884 20.2234 24.7852H14.2884C13.9243 24.7852 13.6292 25.0803 13.6292 25.4443C13.6292 25.8084 13.9243 26.1035 14.2884 26.1035H20.9609C21.0161 26.1725 21.0734 26.2401 21.1328 26.3062C21.2119 26.3942 21.2256 26.5198 21.1674 26.6267C21.0263 26.8867 20.9108 27.1605 20.8228 27.4427C20.5443 27.7108 20.284 27.9975 20.0437 28.3007H14.2884C13.9243 28.3007 13.6292 28.5958 13.6292 28.9599C13.6292 29.3239 13.9243 29.6191 14.2884 29.6191H19.1827C18.8901 30.1721 18.6562 30.7608 18.4895 31.3769H14.2884C13.9243 31.3769 13.6292 31.672 13.6292 32.036C13.6292 32.4001 13.9243 32.6952 14.2884 32.6952H18.2423C18.21 32.997 18.1934 33.3034 18.1934 33.6137C18.1934 33.794 18.1991 33.9746 18.2102 34.1542C17.682 34.398 17.3145 34.9327 17.3145 35.5517V38.1884C17.3145 39.0391 17.4712 39.8539 17.7574 40.6054H4.61426C4.49314 40.6054 4.39453 40.5068 4.39453 40.3857V32.2953C4.39453 31.9313 4.09939 31.6361 3.73535 31.6361C3.37131 31.6361 3.07617 31.9313 3.07617 32.2953V40.3857C3.07617 41.2337 3.7662 41.9237 4.61426 41.9237H18.4324C18.8804 42.6043 19.4469 43.2001 20.1025 43.6816H4.1748V43.6816ZM43.6816 38.1885C43.6816 41.2174 41.2174 43.6816 38.1885 43.6816H24.126C21.0971 43.6816 18.6328 41.2174 18.6328 38.1885V35.5518C18.6328 35.4306 18.7314 35.332 18.8525 35.332H25.4215C25.7855 35.332 26.0807 35.0369 26.0807 34.6729C26.0807 34.3088 25.7855 34.0137 25.4215 34.0137H22.1657C22.1542 33.8807 22.1484 33.7472 22.1484 33.6138C22.1484 31.0694 24.2183 28.9995 26.7627 28.9995C29.307 28.9995 31.377 31.0694 31.377 33.6138C31.377 33.7471 31.3712 33.8807 31.3597 34.0137H28.4977C28.1336 34.0137 27.8385 34.3088 27.8385 34.6729C27.8385 35.0369 28.1336 35.332 28.4977 35.332H43.4619C43.583 35.332 43.6816 35.4306 43.6816 35.5518V38.1885Z" fill="black"/>
<path d="M26.7188 31.898C26.3547 31.898 26.0596 31.6029 26.0596 31.2388V30.9766C26.0596 30.6125 26.3547 30.3174 26.7188 30.3174C27.0828 30.3174 27.3779 30.6125 27.3779 30.9766V31.2388C27.3779 31.6029 27.0828 31.898 26.7188 31.898Z" fill="black"/>
<path d="M28.7157 32.7995C28.5275 32.7995 28.3408 32.7194 28.2104 32.564C27.9764 32.2851 28.0128 31.8694 28.2916 31.6353L28.4925 31.4668C28.7714 31.2327 29.1872 31.2691 29.4212 31.548C29.6553 31.8269 29.6189 32.2426 29.34 32.4766L29.1391 32.6452C29.0156 32.7489 28.8652 32.7995 28.7157 32.7995Z" fill="black"/>
<path d="M24.81 32.7995C24.6605 32.7995 24.5101 32.7489 24.3866 32.6452L24.1857 32.4767C23.9068 32.2426 23.8704 31.8269 24.1045 31.548C24.3384 31.269 24.7542 31.2327 25.0331 31.4668L25.234 31.6354C25.5129 31.8694 25.5493 32.2851 25.3152 32.564C25.1848 32.7194 24.998 32.7995 24.81 32.7995Z" fill="black"/>
<path d="M16.4795 4.83398C16.8435 4.83398 17.1387 4.53886 17.1387 4.1748C17.1387 3.81075 16.8435 3.51562 16.4795 3.51562C16.1154 3.51562 15.8203 3.81075 15.8203 4.1748C15.8203 4.53886 16.1154 4.83398 16.4795 4.83398Z" fill="black"/>
</g>
<defs>
<clipPath id="clip0_352_2642">
<rect width="45" height="45" fill="white"/>
</clipPath>
</defs>
</svg>
