<svg width="32" height="32" viewBox="0 0 32 32" fill="none" xmlns="http://www.w3.org/2000/svg">
<g clip-path="url(#clip0_352_2263)">
<path d="M3.8905 29.7415C3.8905 30.4943 3.28823 31.0967 2.53534 31.0967C1.78252 31.0967 1.18018 30.4944 1.18018 29.7415V17.5202C1.18018 16.7674 1.78245 16.165 2.53534 16.165C3.28816 16.165 3.8905 16.7673 3.8905 17.5202V29.7415Z" fill="#80C3FF"/>
<path d="M2.53516 16.165C3.28798 16.165 3.89032 16.7673 3.89032 17.5202V29.7415C3.89032 30.4943 3.28805 31.0967 2.53516 31.0967" fill="#2A8BF4"/>
<path d="M2.53525 31.473C1.58165 31.473 0.803711 30.695 0.803711 29.7414V17.5201C0.803711 16.5665 1.58165 15.7886 2.53525 15.7886C3.48885 15.7886 4.26679 16.5665 4.26679 17.5201V29.7414C4.26679 30.695 3.48885 31.473 2.53525 31.473ZM2.53525 16.5414C1.98314 16.5414 1.55653 16.9931 1.55653 17.5201V29.7414C1.55653 30.2935 2.00825 30.7201 2.53525 30.7201C3.06225 30.7201 3.51397 30.2684 3.51397 29.7414V17.5201C3.51397 16.9931 3.08736 16.5414 2.53525 16.5414Z" fill="#33363A"/>
<path d="M2.53514 29.4153C2.33436 29.4153 2.15869 29.2396 2.15869 29.0388V28.7126C2.15869 28.5118 2.33436 28.3362 2.53514 28.3362C2.73592 28.3362 2.91158 28.5118 2.91158 28.7126V29.0388C2.91158 29.2396 2.76096 29.4153 2.53514 29.4153Z" fill="#33363A"/>
<path d="M2.53514 11.1209C2.33436 11.1209 2.15869 10.9452 2.15869 10.7444V5.4243C2.15869 5.22352 2.33436 5.04785 2.53514 5.04785C2.73592 5.04785 2.91158 5.22352 2.91158 5.4243V10.7444C2.91158 10.9703 2.76096 11.1209 2.53514 11.1209Z" fill="#33363A"/>
<path d="M2.5351 16.4913C2.18377 16.4913 1.90771 16.2153 1.90771 15.8639V11.7985C1.90771 11.4472 2.18377 11.1711 2.5351 11.1711C2.88643 11.1711 3.16249 11.4472 3.16249 11.7985V15.8639C3.16249 16.1902 2.88643 16.4913 2.5351 16.4913Z" fill="#33363A"/>
<path d="M2.53523 11.0206C1.38085 11.0206 0.427246 10.067 0.427246 8.91258V5.57493C0.427246 5.37415 0.602912 5.19849 0.803692 5.19849C1.00447 5.19849 1.18014 5.37415 1.18014 5.57493V8.91258C1.18014 9.6654 1.78241 10.2677 2.5353 10.2677C3.28819 10.2677 3.89046 9.66547 3.89046 8.91258V5.57493C3.89046 5.37415 4.06613 5.19849 4.26691 5.19849C4.46769 5.19849 4.64335 5.37415 4.64335 5.57493V8.91258C4.64322 10.0921 3.71466 11.0206 2.53523 11.0206Z" fill="#33363A"/>
<path d="M4.39231 11.5725C4.39231 12.1497 3.91548 12.6265 3.33832 12.6265H1.73222C1.15506 12.6265 0.678223 12.1497 0.678223 11.5725V9.64017C0.678223 9.06302 1.15506 8.58618 1.73222 8.58618H3.33832C3.91548 8.58618 4.39231 9.06302 4.39231 9.64017V11.5725Z" fill="#33363A"/>
<path d="M3.3383 12.978H1.7322C0.954259 12.978 0.301758 12.3506 0.301758 11.5476V9.61525C0.301758 8.83732 0.929144 8.18481 1.7322 8.18481H3.3383C4.11624 8.18481 4.76874 8.8122 4.76874 9.61525V11.5476C4.76867 12.3506 4.11624 12.978 3.3383 12.978ZM1.7322 8.96282C1.35575 8.96282 1.05465 9.26399 1.05465 9.64037V11.5727C1.05465 11.9491 1.35582 12.2502 1.7322 12.2502H3.3383C3.71475 12.2502 4.01585 11.9491 4.01585 11.5727V9.64037C4.01585 9.26392 3.71468 8.96282 3.3383 8.96282H1.7322Z" fill="#33363A"/>
<path d="M31.2941 18.7499C31.2941 25.8769 25.5222 31.6488 18.3952 31.6488C11.2682 31.6488 5.52148 25.8769 5.52148 18.7499C5.52148 11.6229 11.2933 5.85107 18.3952 5.85107C25.5222 5.85107 31.2941 11.6229 31.2941 18.7499Z" fill="white"/>
<path d="M18.4204 5.85107C25.5474 5.85107 31.3193 11.6229 31.3193 18.7499C31.3193 25.8769 25.5474 31.6488 18.4204 31.6488" fill="#C8DBDB"/>
<path d="M18.4206 32.0001C11.1179 32.0001 5.17041 26.0525 5.17041 18.7248C5.17041 11.4221 11.1179 5.44946 18.4206 5.44946C25.7233 5.44946 31.6959 11.397 31.6959 18.7248C31.6708 26.0525 25.7233 32.0001 18.4206 32.0001ZM18.4206 6.22747C11.5195 6.22747 5.92323 11.8488 5.92323 18.7499C5.92323 25.651 11.5445 31.2723 18.4206 31.2723C25.3217 31.2723 30.943 25.651 30.943 18.7499C30.918 11.8488 25.3217 6.22747 18.4206 6.22747Z" fill="#33363A"/>
<path d="M18.4202 27.3073C23.1464 27.3073 26.9777 23.476 26.9777 18.7498C26.9777 14.0237 23.1464 10.1924 18.4202 10.1924C13.6941 10.1924 9.86279 14.0237 9.86279 18.7498C9.86279 23.476 13.6941 27.3073 18.4202 27.3073Z" fill="white"/>
<path d="M9.86279 18.7498C9.86279 14.032 13.7023 10.1924 18.4202 10.1924C23.1382 10.1924 26.9777 14.0319 26.9777 18.7498" fill="#C8DBDB"/>
<path d="M18.4202 27.6836C13.5015 27.6836 9.48633 23.6684 9.48633 18.7497C9.48633 13.8311 13.5015 9.81592 18.4202 9.81592C23.3388 9.81592 27.354 13.8311 27.354 18.7497C27.354 23.6684 23.3388 27.6836 18.4202 27.6836ZM18.4202 10.5687C13.903 10.5687 10.2392 14.2326 10.2392 18.7497C10.2392 23.2669 13.903 26.9307 18.4202 26.9307C22.9373 26.9307 26.6012 23.2669 26.6012 18.7497C26.6012 14.2327 22.9373 10.5687 18.4202 10.5687Z" fill="#33363A"/>
<path d="M18.4205 23.9195C21.2756 23.9195 23.5901 21.605 23.5901 18.7499C23.5901 15.8948 21.2756 13.5803 18.4205 13.5803C15.5655 13.5803 13.251 15.8948 13.251 18.7499C13.251 21.605 15.5655 23.9195 18.4205 23.9195Z" fill="#C8DBDB"/>
<path d="M18.4205 23.9195C15.5597 23.9195 13.251 21.6107 13.251 18.7499C13.251 15.8891 15.5597 13.5803 18.4205 13.5803" fill="white"/>
<path d="M30.7172 13.8814C28.9354 5.82585 20.9803 0.756665 12.9248 2.53843L16.1369 17.1187L30.7172 13.8814Z" fill="#83ED88"/>
<path d="M29.1107 14.2327C27.5297 7.0806 20.4529 2.56352 13.3008 4.14451L16.1616 17.0936L29.1107 14.2327Z" fill="#5FCE96"/>
<path d="M28.1071 14.4586C26.6516 7.85863 20.1269 3.69289 13.5269 5.14837L16.1618 17.0936L28.1071 14.4586Z" fill="#F42535"/>
<path d="M16.1616 17.0936L28.1069 14.4587C27.3791 11.1712 25.3715 8.46092 22.7365 6.77954L16.1616 17.0936Z" fill="#FC4259"/>
<path d="M27.2789 14.6343L28.1071 14.4586C26.6516 7.85863 20.1269 3.69289 13.5269 5.14837L13.7025 5.97654C19.7504 5.04798 25.5725 8.76207 27.2789 14.6343Z" fill="#D60024"/>
<path d="M27.4548 12.451C26.4761 10.067 24.7947 8.10952 22.7119 6.77954L22.0845 7.75826C24.5187 9.31413 26.4008 11.6982 27.254 14.6343L28.0822 14.4587C27.9818 13.9568 27.8313 13.4548 27.6556 12.9781C27.6054 12.8023 27.5301 12.6267 27.4548 12.451Z" fill="#F42535"/>
<path d="M13.502 5.17334L16.162 17.0935L28.1073 14.4585L17.0905 15.638L13.502 5.17334Z" fill="#FC4259"/>
<path d="M17.0901 15.638L16.1616 17.0935L28.1069 14.4585L17.0901 15.638Z" fill="#FF647E"/>
<path d="M16.1619 17.4699C15.9862 17.4699 15.8357 17.3444 15.7855 17.1688L12.5733 2.58855C12.5482 2.48816 12.5733 2.38777 12.6235 2.31249C12.6737 2.23722 12.774 2.16194 12.8493 2.13683C21.0805 0.304897 29.2615 5.5247 31.0935 13.7559C31.1186 13.8563 31.0935 13.9566 31.0433 14.0319C30.9932 14.1072 30.8928 14.1825 30.8175 14.2076L16.2624 17.4197C16.2121 17.4699 16.187 17.4699 16.1619 17.4699ZM13.3763 2.83949L16.4379 16.6669L30.2653 13.6053C28.4083 6.10186 20.955 1.35889 13.3763 2.83949Z" fill="#33363A"/>
<path d="M28.1074 14.8349C27.9317 14.8349 27.7812 14.7094 27.7309 14.5337C26.3256 8.1596 19.9765 4.11929 13.6024 5.52462C13.4016 5.57478 13.2009 5.44934 13.1507 5.24856C13.1005 5.04778 13.226 4.84707 13.4268 4.79684C20.2276 3.29113 26.953 7.60749 28.4587 14.3832C28.5089 14.5839 28.3834 14.7847 28.1827 14.8349C28.1575 14.8349 28.1324 14.8349 28.1074 14.8349Z" fill="#33363A"/>
<path d="M20.4782 14.0571C20.4782 18.0473 17.241 21.2845 13.2508 21.2845C9.26069 21.2845 6.02344 18.0473 6.02344 14.0571C6.02344 10.067 9.26069 6.82973 13.2508 6.82973C17.2409 6.80462 20.4782 10.0419 20.4782 14.0571Z" fill="#A07F3C"/>
<path d="M20.4782 14.0571C20.4782 18.0473 17.241 21.2845 13.2508 21.2845C9.26069 21.2845 6.02344 18.0473 6.02344 14.0571" fill="#84692C"/>
<path d="M13.251 6.80469V21.2845C17.2411 21.2845 20.4784 18.0473 20.4784 14.0571C20.4784 10.067 17.2411 6.80469 13.251 6.80469Z" fill="#84692C"/>
<path d="M13.251 14.0571V21.2845C17.2411 21.2845 20.4784 18.0473 20.4784 14.0571H13.251Z" fill="#705622"/>
<path d="M13.2507 21.6609C9.05989 21.6609 5.64697 18.248 5.64697 14.0571C5.64697 9.86629 9.05989 6.45337 13.2507 6.45337C15.2835 6.45337 17.1907 7.25642 18.6211 8.68686C20.0515 10.1173 20.8546 12.0245 20.8546 14.0572C20.8545 18.248 17.4416 21.6609 13.2507 21.6609ZM13.2507 7.18108C9.46138 7.18108 6.3998 10.2678 6.3998 14.032C6.3998 17.8214 9.4865 20.883 13.2507 20.883C17.0401 20.883 20.1017 17.7963 20.1017 14.032C20.1017 12.2001 19.399 10.4686 18.0941 9.18867C16.7892 7.90885 15.0827 7.18108 13.2507 7.18108Z" fill="#33363A"/>
<path d="M13.2508 18.9257C15.9396 18.9257 18.1193 16.746 18.1193 14.0572C18.1193 11.3684 15.9396 9.18872 13.2508 9.18872C10.562 9.18872 8.38232 11.3684 8.38232 14.0572C8.38232 16.746 10.562 18.9257 13.2508 18.9257Z" fill="#BEDD05"/>
<path d="M8.38232 14.0572C8.38232 11.3721 10.5656 9.18872 13.2508 9.18872L8.38232 14.0572Z" fill="#DEF21D"/>
<path d="M8.38232 14.0571C8.38232 16.7423 10.5656 18.9256 13.2508 18.9256C15.936 18.9256 18.1193 16.7423 18.1193 14.0571H8.38232Z" fill="#85C606"/>
<path d="M8.38232 14.0571C8.38232 16.7423 10.5656 18.9256 13.2508 18.9256L8.38232 14.0571Z" fill="#BEDD05"/>
<path d="M13.251 9.18872V18.9256C15.9361 18.9256 18.1194 16.7423 18.1194 14.0571C18.0943 11.372 15.9361 9.18872 13.251 9.18872Z" fill="#85C606"/>
<path d="M18.0941 14.0572C18.0941 11.3721 15.9108 9.18872 13.2256 9.18872L18.0941 14.0572Z" fill="#52C408"/>
<path d="M13.2505 14.0571V18.9256C15.9356 18.9256 18.119 16.7423 18.119 14.0571H13.2505Z" fill="#52C408"/>
<path d="M13.251 18.9005C15.9361 18.9005 18.1194 16.7172 18.1194 14.032L13.251 18.9005Z" fill="#25C10A"/>
<path d="M13.2506 15.7885C14.2069 15.7885 14.9821 15.0133 14.9821 14.057C14.9821 13.1007 14.2069 12.3254 13.2506 12.3254C12.2943 12.3254 11.519 13.1007 11.519 14.057C11.519 15.0133 12.2943 15.7885 13.2506 15.7885Z" fill="#BEDD05"/>
<path d="M13.2505 15.7636C14.2041 15.7636 14.982 14.9857 14.982 14.0321C14.982 13.0785 14.2041 12.3005 13.2505 12.3005C13.2505 12.3256 13.2505 15.7636 13.2505 15.7636Z" fill="#85C606"/>
<path d="M11.519 14.0572H14.9822C14.9822 13.1036 14.2043 12.3257 13.2507 12.3257C12.297 12.3256 11.519 13.1036 11.519 14.0572Z" fill="#85C606"/>
<path d="M13.251 14.057H14.9825C14.9825 13.1034 14.2046 12.3254 13.251 12.3254V14.057Z" fill="#52C408"/>
<path d="M13.2506 15.0861C13.8188 15.0861 14.2794 14.6254 14.2794 14.0572C14.2794 13.489 13.8188 13.0283 13.2506 13.0283C12.6823 13.0283 12.2217 13.489 12.2217 14.0572C12.2217 14.6254 12.6823 15.0861 13.2506 15.0861Z" fill="#BEDD05"/>
<path d="M14.2799 14.0572C14.2799 13.48 13.8282 13.0283 13.251 13.0283C12.6739 13.0283 12.2222 13.48 12.2222 14.0572H14.2799Z" fill="#85C606"/>
<path d="M13.251 15.086V13.0032C12.6739 13.0032 12.2221 13.4549 12.2221 14.0321C12.197 14.6092 12.6738 15.086 13.251 15.086Z" fill="#85C606"/>
<path d="M13.2506 14.0572V13.0032C12.6734 13.0032 12.2217 13.4549 12.2217 14.0321H13.2506V14.0572Z" fill="#52C408"/>
<path d="M13.2507 19.2768C10.3648 19.2768 8.00586 16.9179 8.00586 14.032C8.00586 11.146 10.3648 8.78711 13.2507 8.78711C16.1366 8.78711 18.4956 11.146 18.4956 14.032C18.4704 16.943 16.1366 19.2768 13.2507 19.2768ZM13.2507 9.56505C10.7663 9.56505 8.75868 11.5726 8.75868 14.0571C8.75868 16.5415 10.7663 18.5491 13.2507 18.5491C15.7351 18.5491 17.7427 16.5415 17.7427 14.0571C17.7176 11.5726 15.71 9.56505 13.2507 9.56505Z" fill="#33363A"/>
<path d="M22.3601 8.51103C21.7327 10.3932 18.119 26.0776 20.0011 26.705C21.8833 27.3323 28.5586 12.7019 29.1859 10.8198C29.8132 8.9377 28.6338 7.43199 26.7517 6.8046C24.8696 6.17715 23.0126 6.62887 22.3601 8.51103Z" fill="#FFE108"/>
<path d="M22.3601 8.51104C21.7327 10.3932 18.119 26.0776 20.0011 26.705C21.8833 27.3324 28.5586 12.7019 29.1859 10.8198C29.8132 8.93772 28.2574 8.51104 26.3753 7.88365C24.4932 7.23115 23.0126 6.62888 22.3601 8.51104Z" fill="#FFB206"/>
<path d="M22.3601 8.51099C21.7327 10.3931 18.119 26.0775 20.0011 26.7049C21.8833 27.3323 28.5586 12.7018 29.1859 10.8198" fill="#FF8103"/>
<path d="M20.0012 26.705C18.5707 26.2281 20.3023 17.1187 21.5069 11.8989L27.8057 14.032C25.5974 18.9255 21.4316 27.2069 20.0012 26.705Z" fill="#FF6B06"/>
<path d="M20.0015 26.705C18.9475 26.3537 19.625 21.2092 20.5536 16.4412L25.8235 18.2229C23.6403 22.5643 21.0554 27.0814 20.0015 26.705Z" fill="#ED4706"/>
<path d="M20.0012 26.705C19.2483 26.4541 19.3738 23.8693 19.8255 20.7073L23.7905 22.0624C22.2346 24.848 20.7289 26.956 20.0012 26.705Z" fill="#D83705"/>
<path d="M20.1521 27.1316C20.0266 27.1316 19.9513 27.1065 19.876 27.0814C19.4243 26.9309 18.3703 26.5544 19.876 18.0221C20.6289 13.756 21.6829 9.36433 22.0091 8.41066C22.6616 6.47834 24.619 5.7004 26.8776 6.45322C29.1361 7.20604 30.1901 9.03804 29.5377 10.9452C29.2115 11.924 27.3796 16.0395 25.397 19.8791C22.0594 26.3285 20.7544 27.1316 20.1521 27.1316ZM22.7369 8.63648C22.4107 9.56497 21.3818 13.8563 20.6289 18.0723C19.2487 25.8768 20.127 26.3536 20.127 26.3536C20.127 26.3536 21.1309 26.5042 24.7696 19.4776C26.7271 15.6882 28.5339 11.6479 28.835 10.6943C29.4624 8.83726 28.032 7.63272 26.6267 7.15588C25.2213 6.67912 23.3643 6.77944 22.7369 8.63648Z" fill="#33363A"/>
<path d="M26.8522 6.95523C27.2035 6.87995 27.4293 6.55373 27.3541 6.2024C27.078 4.84724 27.9563 3.51726 29.3115 3.26625C29.6628 3.19098 29.8887 2.86476 29.8134 2.51343C29.7381 2.1621 29.4119 1.93627 29.0606 2.01155C27.0279 2.41304 25.6978 4.4207 26.0994 6.45334C26.1746 6.80468 26.5009 7.03057 26.8522 6.95523Z" fill="#92FC6B"/>
<path d="M29.2365 2.86471C29.4122 2.83959 29.613 2.86471 29.7384 2.99021C29.638 3.14076 29.5126 3.24115 29.3118 3.29138C27.9566 3.56744 27.0783 4.87237 27.3544 6.22754C27.4296 6.57887 27.2038 6.90508 26.8525 6.98036C26.6015 7.03052 26.3506 6.9302 26.2 6.72942C26.1247 4.8723 27.3795 3.21604 29.2365 2.86471Z" fill="#70D63A"/>
<path d="M26.7269 7.3567C26.5261 7.3567 26.3254 7.30654 26.1748 7.18103C25.949 7.03048 25.7984 6.80459 25.7482 6.52853C25.2965 4.29504 26.752 2.08674 29.0106 1.63501C29.5627 1.53462 30.0897 1.88595 30.1901 2.43807C30.2904 2.99018 29.9391 3.51717 29.387 3.61756C28.2326 3.84339 27.4798 4.97273 27.7056 6.12704C27.7558 6.4031 27.7056 6.65404 27.5551 6.87986C27.4045 7.10569 27.1786 7.25631 26.9026 7.30647C26.8524 7.3567 26.7771 7.3567 26.7269 7.3567ZM29.1862 2.38784C29.1611 2.38784 29.1611 2.38784 29.1361 2.38784C27.3041 2.76428 26.0996 4.54598 26.476 6.37798C26.5011 6.45326 26.5261 6.50349 26.5764 6.55365C26.6265 6.60381 26.7019 6.60381 26.7771 6.60381C26.8524 6.57869 26.9026 6.55365 26.9528 6.50342C27.003 6.45326 27.003 6.37791 27.003 6.30264C26.7018 4.74676 27.7056 3.21593 29.2615 2.91483C29.4121 2.88972 29.4873 2.73917 29.4623 2.61366C29.4121 2.46318 29.3117 2.38784 29.1862 2.38784Z" fill="#33363A"/>
<path d="M27.1534 6.82979C27.4294 6.60396 27.4545 6.2024 27.2035 5.92634C26.3001 4.89747 26.4005 3.29136 27.4294 2.38792C27.6803 2.16209 27.7305 1.76053 27.4795 1.48448C27.2537 1.20842 26.8521 1.18331 26.5761 1.43432C25.0202 2.81453 24.8445 5.19857 26.2247 6.75444C26.5009 7.03057 26.9024 7.05561 27.1534 6.82979Z" fill="#92FC6B"/>
<path d="M27.1787 2.06162C27.3293 1.93612 27.505 1.88595 27.6806 1.91107C27.6806 2.08673 27.6053 2.2624 27.4548 2.3879C26.4259 3.29135 26.3255 4.89738 27.229 5.92633C27.4548 6.20238 27.4297 6.60388 27.1788 6.82977C26.978 7.00544 26.702 7.03055 26.4761 6.93016C25.4974 5.37415 25.7484 3.31639 27.1787 2.06162Z" fill="#70D63A"/>
<path d="M26.7518 7.3568C26.7267 7.3568 26.7017 7.3568 26.6766 7.3568C26.4005 7.33168 26.1496 7.20625 25.9739 7.00547C25.2461 6.1773 24.8697 5.09826 24.945 3.99404C25.0203 2.88989 25.5222 1.86094 26.3503 1.13323C26.7769 0.756786 27.4043 0.807015 27.7808 1.23362C28.1572 1.66023 28.107 2.28761 27.6804 2.66406C27.2538 3.0405 27.0028 3.5675 26.9526 4.11954C26.9275 4.6967 27.1032 5.2237 27.4796 5.65037C27.6553 5.85115 27.7557 6.10209 27.7305 6.37815C27.7054 6.6542 27.58 6.90515 27.3792 7.08081C27.2287 7.28152 26.9777 7.3568 26.7518 7.3568ZM27.0279 1.66023C26.9777 1.66023 26.9024 1.68534 26.8522 1.7355C26.1747 2.33777 25.7731 3.16594 25.6978 4.06931C25.6477 4.97276 25.9237 5.85108 26.526 6.52863C26.5762 6.57879 26.6264 6.60391 26.7017 6.62902C26.7769 6.62902 26.8272 6.60391 26.9024 6.55375C26.9526 6.50358 26.9777 6.45336 26.9777 6.37808C26.9777 6.3028 26.9526 6.25258 26.9024 6.20241C26.4006 5.62526 26.1496 4.87237 26.1998 4.11954C26.2499 3.34161 26.6013 2.63894 27.1785 2.13706C27.2789 2.03667 27.304 1.88612 27.2036 1.76062C27.1784 1.68527 27.1032 1.66023 27.0279 1.66023Z" fill="#33363A"/>
<path d="M26.9024 5.87613C26.6765 5.60007 26.7016 5.19858 26.9525 4.97269C27.9814 4.06925 28.0818 2.46321 27.1784 1.43426C26.9525 1.15821 26.9776 0.756717 27.2285 0.530822C27.4795 0.304927 27.9061 0.330042 28.132 0.580983C29.5122 2.13686 29.3616 4.54601 27.7806 5.90111C27.5298 6.17723 27.1283 6.15218 26.9024 5.87613Z" fill="#92FC6B"/>
<path d="M27.5049 1.18335C27.3793 1.03279 27.2037 0.982566 27.028 0.95752C27.0029 1.13318 27.0531 1.30885 27.1786 1.4594C28.082 2.48828 27.9816 4.09438 26.9527 4.99782C26.6767 5.22365 26.6516 5.62521 26.9026 5.90127C27.0782 6.10205 27.3543 6.15221 27.5801 6.07693C28.7345 4.67154 28.7596 2.58867 27.5049 1.18335Z" fill="#70D63A"/>
<path d="M27.3794 6.4784C27.3543 6.4784 27.3292 6.4784 27.3041 6.4784C27.028 6.45328 26.7771 6.32785 26.6014 6.12707C26.4258 5.92629 26.3254 5.67534 26.3505 5.39929C26.3756 5.12323 26.5011 4.87229 26.7018 4.69663C27.5802 3.91869 27.6805 2.56353 26.9026 1.6852C26.5262 1.25859 26.5764 0.631208 27.003 0.254762C27.2038 0.0790965 27.4547 -0.0212935 27.7308 0.00382115C28.0068 0.0289358 28.2578 0.154372 28.4334 0.355152C29.1612 1.18332 29.5376 2.26236 29.4623 3.36658C29.387 4.47073 28.8852 5.49968 28.057 6.22739C27.8562 6.40312 27.6303 6.4784 27.3794 6.4784ZM27.6805 0.781827C27.6053 0.781827 27.555 0.806942 27.5049 0.857102C27.4045 0.957492 27.3794 1.10804 27.4798 1.23355C28.5338 2.43809 28.4083 4.24498 27.2037 5.29897C27.1033 5.39936 27.0782 5.54991 27.1786 5.67541C27.2288 5.72557 27.279 5.75069 27.3543 5.75069C27.4295 5.75069 27.4798 5.72557 27.5299 5.67541C28.2075 5.07314 28.609 4.24497 28.6843 3.3416C28.7596 2.43816 28.4585 1.55983 27.8561 0.882286C27.8311 0.806873 27.7558 0.781827 27.6805 0.781827Z" fill="#33363A"/>
<path d="M26.7518 5.57493C26.6765 5.2236 26.9023 4.89738 27.2537 4.8221C28.6088 4.54605 29.4872 3.24112 29.2111 1.88595C29.1358 1.53462 29.3617 1.20841 29.713 1.13313C30.0643 1.05785 30.3905 1.28368 30.4658 1.63501C30.8673 3.66772 29.5373 5.67532 27.5046 6.07681C27.1533 6.15215 26.802 5.92626 26.7518 5.57493Z" fill="#92FC6B"/>
<path d="M29.6129 1.81064C29.5878 1.63497 29.4623 1.48442 29.3117 1.38403C29.2113 1.53458 29.1612 1.71025 29.1862 1.88591C29.4623 3.24108 28.5839 4.57106 27.2288 4.82207C26.8774 4.89734 26.6516 5.22356 26.7269 5.57489C26.777 5.82583 26.9778 6.02661 27.2288 6.07677C28.9353 5.44945 29.9892 3.64257 29.6129 1.81064Z" fill="#70D63A"/>
<path d="M27.3544 6.47842C26.8776 6.47842 26.451 6.1522 26.3506 5.67537C26.2502 5.12326 26.6015 4.59626 27.1536 4.49587C28.308 4.27004 29.0608 3.14071 28.835 1.98639C28.7346 1.43428 29.086 0.907285 29.6381 0.806895C29.9141 0.756734 30.1651 0.806895 30.3909 0.957446C30.6167 1.108 30.7673 1.33389 30.8175 1.60995C31.2692 3.84344 29.8137 6.05174 27.5551 6.50346C27.505 6.47842 27.4297 6.47842 27.3544 6.47842ZM27.1035 5.52482C27.1286 5.67537 27.2791 5.75064 27.4047 5.7256C29.2366 5.34915 30.4411 3.56745 30.0647 1.73545C30.0396 1.66018 30.0146 1.60995 29.9644 1.55979C29.9142 1.50963 29.8389 1.50963 29.7636 1.50963C29.613 1.53474 29.5378 1.68529 29.5628 1.8108C29.864 3.36667 28.8601 4.8975 27.3043 5.1986C27.1788 5.22365 27.0784 5.3742 27.1035 5.52482Z" fill="#33363A"/>
<path d="M26.4759 7.55735C26.1497 7.45696 25.974 7.08051 26.0744 6.7543C26.5261 5.44936 25.8235 4.01892 24.5185 3.5672C24.1923 3.46681 24.0167 3.09037 24.1171 2.76415C24.2426 2.43793 24.5939 2.26227 24.9201 2.36266C26.9026 3.04021 27.9566 5.17331 27.279 7.15579C27.1786 7.482 26.8272 7.65767 26.4759 7.55735Z" fill="#92FC6B"/>
<path d="M24.644 3.16575C24.4683 3.11559 24.2926 3.14064 24.1421 3.21591C24.2174 3.36646 24.3429 3.51708 24.5185 3.56724C25.8235 4.01897 26.5261 5.42429 26.0744 6.75434C25.974 7.08055 26.1497 7.457 26.4759 7.55739C26.7268 7.63267 26.9778 7.55739 27.1534 7.38172C27.4546 5.57484 26.4257 3.76803 24.644 3.16575Z" fill="#70D63A"/>
<path d="M26.6767 7.959C26.5764 7.959 26.4509 7.93388 26.3505 7.90884C25.8235 7.73317 25.5475 7.15601 25.7231 6.62902C25.8988 6.10202 25.8737 5.52486 25.6228 4.99787C25.3718 4.49599 24.9452 4.09443 24.3931 3.91876C23.8661 3.7431 23.59 3.16594 23.7657 2.63894C23.9414 2.11195 24.5185 1.83589 25.0455 2.01156C26.0995 2.36289 26.9527 3.11571 27.4296 4.11954C27.9314 5.12337 28.0067 6.25264 27.6303 7.28152C27.5551 7.53246 27.3543 7.73324 27.1285 7.85868C27.003 7.93388 26.8524 7.959 26.6767 7.959ZM24.7193 2.71415C24.6189 2.71415 24.5185 2.78942 24.4684 2.88981C24.4182 3.01532 24.4935 3.16587 24.6189 3.21603C25.3467 3.46697 25.9239 3.96885 26.2752 4.67152C26.6265 5.37418 26.6767 6.15211 26.4257 6.87989C26.3756 7.0054 26.4508 7.15595 26.5763 7.20611C26.6516 7.23122 26.7018 7.23122 26.7771 7.18099C26.8272 7.15588 26.8775 7.10572 26.9026 7.03044C27.2037 6.17723 27.1284 5.24867 26.7269 4.44562C26.3254 3.64257 25.6227 3.01518 24.7695 2.73913C24.7695 2.71415 24.7444 2.71415 24.7193 2.71415Z" fill="#33363A"/>
<path d="M26.5009 7.55756C26.8271 7.65795 27.2036 7.48228 27.304 7.15607C27.7557 5.85113 29.161 5.14847 30.4911 5.57508C30.8173 5.67547 31.1937 5.4998 31.2941 5.17359C31.3945 4.84737 31.2189 4.47093 30.8926 4.37054C28.9102 3.69299 26.7771 4.77203 26.0995 6.72946C25.999 7.08072 26.1747 7.45717 26.5009 7.55756Z" fill="#92FC6B"/>
<path d="M30.6164 5.19846C30.7921 5.24862 30.9176 5.39924 30.9929 5.54979C30.8423 5.62506 30.6666 5.65018 30.491 5.59995C29.186 5.14823 27.7556 5.85089 27.3039 7.18094C27.2035 7.50715 26.827 7.68282 26.5008 7.58243C26.2499 7.50715 26.0993 7.28126 26.0742 7.03032C26.9274 5.39924 28.8346 4.59618 30.6164 5.19846Z" fill="#70D63A"/>
<path d="M26.7017 7.98417C26.6013 7.98417 26.4759 7.95906 26.3755 7.93401C26.1246 7.85874 25.9238 7.65796 25.7984 7.43213C25.6729 7.2063 25.6729 6.90513 25.7482 6.65419C26.476 4.49605 28.8349 3.31655 31.0182 4.04433C31.5452 4.21999 31.8212 4.79715 31.6456 5.32414C31.4699 5.85114 30.8927 6.1272 30.3657 5.95153C29.2616 5.57509 28.0319 6.17736 27.6555 7.28158C27.5298 7.70812 27.1283 7.98417 26.7017 7.98417ZM26.6265 7.20623C26.752 7.2564 26.9025 7.18112 26.9527 7.05568C27.4546 5.54997 29.1108 4.74692 30.6165 5.24887C30.742 5.29903 30.8926 5.22375 30.9428 5.09832C30.9929 4.97281 30.9176 4.82226 30.7671 4.7721C28.9853 4.16983 27.053 5.12343 26.4507 6.9052C26.4256 6.98048 26.4256 7.03071 26.4758 7.10598C26.501 7.13089 26.5511 7.18112 26.6265 7.20623Z" fill="#33363A"/>
<path d="M28.935 11.1211C28.8848 11.1211 28.8597 11.1211 28.8095 11.096L27.1532 10.5439C26.9524 10.4686 26.852 10.2678 26.9274 10.067C27.0026 9.86623 27.2034 9.76584 27.4042 9.84119L29.0605 10.3933C29.2612 10.4686 29.3616 10.6694 29.2863 10.8701C29.2361 11.0207 29.0856 11.1211 28.935 11.1211Z" fill="#33363A"/>
<path d="M26.0745 10.1173C26.0243 10.1173 25.9992 10.1173 25.949 10.0922L25.6729 9.9918C25.4721 9.91653 25.3718 9.71575 25.422 9.51497C25.4973 9.31419 25.698 9.2138 25.8988 9.26403L26.1749 9.36442C26.3757 9.43969 26.476 9.64047 26.4258 9.84125C26.3756 10.017 26.225 10.1173 26.0745 10.1173Z" fill="#33363A"/>
<path d="M24.6691 9.66557C24.6189 9.66557 24.5938 9.66557 24.5435 9.64045L24.418 9.61534C24.2173 9.54006 24.1169 9.33928 24.1671 9.1385C24.2424 8.93772 24.4432 8.83733 24.6439 8.88756L24.7694 8.91268C24.9702 8.98795 25.0706 9.18873 25.0204 9.38951C24.9702 9.56518 24.8196 9.66557 24.6691 9.66557Z" fill="#33363A"/>
<path d="M23.59 9.2891C23.5398 9.2891 23.5147 9.2891 23.4644 9.26399L23.3389 9.23887C23.1382 9.1636 23.0378 8.96282 23.088 8.76204C23.1633 8.56126 23.3641 8.46087 23.5648 8.5111L23.6903 8.53621C23.8911 8.61149 23.9915 8.81227 23.9413 9.01305C23.9162 9.18871 23.7656 9.2891 23.59 9.2891Z" fill="#33363A"/>
<path d="M28.2577 13.1035C28.2076 13.1035 28.1824 13.1035 28.1322 13.0784L26.476 12.5263C26.2752 12.451 26.1748 12.2502 26.2501 12.0494C26.3254 11.8487 26.5262 11.7483 26.727 11.8236L28.3832 12.3757C28.584 12.451 28.6844 12.6518 28.6091 12.8526C28.5589 13.0032 28.4083 13.1035 28.2577 13.1035Z" fill="#33363A"/>
<path d="M25.3968 12.1249C25.3466 12.1249 25.3215 12.1249 25.2712 12.0998L24.9952 11.9994C24.7944 11.9241 24.694 11.7233 24.7443 11.5225C24.8195 11.3218 25.0203 11.2214 25.2211 11.2716L25.4971 11.372C25.6979 11.4473 25.7983 11.648 25.7481 11.8488C25.6979 12.0245 25.5473 12.1249 25.3968 12.1249Z" fill="#33363A"/>
<path d="M23.9913 11.648C23.9662 11.648 23.916 11.648 23.8658 11.6229L23.7403 11.5978C23.5395 11.5476 23.4391 11.3217 23.4894 11.1209C23.5396 10.9201 23.7654 10.8198 23.9662 10.87L24.0917 10.8951C24.2925 10.9453 24.3929 11.1712 24.3427 11.3719C24.2924 11.5476 24.1419 11.648 23.9913 11.648Z" fill="#33363A"/>
<path d="M22.9122 11.2967C22.8871 11.2967 22.8369 11.2967 22.7867 11.2716L22.6612 11.2464C22.4604 11.1712 22.36 10.9704 22.4103 10.7696C22.4604 10.5688 22.6863 10.4684 22.8871 10.5187L23.0126 10.5438C23.2134 10.6191 23.3138 10.8198 23.2635 11.0206C23.2384 11.1963 23.0879 11.2967 22.9122 11.2967Z" fill="#33363A"/>
<path d="M27.4794 15.061C27.4292 15.061 27.4041 15.061 27.3539 15.0359L25.6976 14.4838C25.4968 14.4085 25.3965 14.2077 25.4718 14.007C25.5471 13.8062 25.7479 13.7058 25.9486 13.7811L27.6049 14.3332C27.8057 14.4085 27.9061 14.6093 27.8307 14.8101C27.7805 14.9857 27.6299 15.061 27.4794 15.061Z" fill="#33363A"/>
<path d="M24.6189 14.0822C24.5938 14.0822 24.5436 14.0822 24.4934 14.057L24.2174 13.9566C24.0166 13.8814 23.9162 13.6806 23.9664 13.4798C24.0417 13.279 24.2425 13.1786 24.4433 13.2289L24.7193 13.3293C24.9201 13.4045 25.0205 13.6053 24.9703 13.8061C24.9201 13.9818 24.7695 14.0822 24.6189 14.0822Z" fill="#33363A"/>
<path d="M23.2135 13.6304C23.1633 13.6304 23.1382 13.6304 23.088 13.6053L22.9625 13.5802C22.7617 13.5049 22.6613 13.3041 22.7115 13.1033C22.7868 12.9026 22.9876 12.8022 23.1884 12.8524L23.3139 12.8775C23.5147 12.9528 23.615 13.1536 23.5648 13.3544C23.5147 13.505 23.3641 13.6304 23.2135 13.6304Z" fill="#33363A"/>
<path d="M22.1344 13.2542C22.1093 13.2542 22.0591 13.2542 22.0089 13.2291L21.8834 13.204C21.6826 13.1538 21.5822 12.9279 21.6324 12.7271C21.7077 12.5263 21.9085 12.426 22.1093 12.4762L22.2348 12.5013C22.4356 12.5515 22.5359 12.7774 22.4857 12.9781C22.4606 13.1538 22.3101 13.2542 22.1344 13.2542Z" fill="#33363A"/>
<path d="M26.5512 16.9682C26.501 16.9682 26.4759 16.9682 26.4257 16.9431L24.7694 16.391C24.5686 16.3157 24.4682 16.115 24.5436 15.9142C24.6189 15.7134 24.8196 15.613 25.0204 15.6884L26.6767 16.2405C26.8775 16.3157 26.9778 16.5165 26.9025 16.7173C26.8523 16.893 26.7018 16.9682 26.5512 16.9682Z" fill="#33363A"/>
<path d="M23.6904 15.9896C23.6403 15.9896 23.6151 15.9896 23.5649 15.9645L23.2637 15.8641C23.063 15.7888 22.9626 15.5881 23.0128 15.3873C23.0881 15.1865 23.2889 15.0861 23.4896 15.1363L23.7908 15.2367C23.9916 15.312 24.092 15.5128 24.0418 15.7136C23.9916 15.8892 23.841 15.9896 23.6904 15.9896Z" fill="#33363A"/>
<path d="M22.2848 15.5379C22.2346 15.5379 22.2095 15.5379 22.1593 15.5128L22.0338 15.4877C21.833 15.4124 21.7326 15.2116 21.7828 15.0108C21.8581 14.81 22.0589 14.7096 22.2597 14.7599L22.3852 14.785C22.5859 14.8603 22.6863 15.061 22.6361 15.2618C22.5859 15.4124 22.4353 15.5379 22.2848 15.5379Z" fill="#33363A"/>
<path d="M21.2057 15.1614C21.1555 15.1614 21.1304 15.1614 21.0802 15.1363L20.9547 15.1112C20.7539 15.0359 20.6535 14.8351 20.7037 14.6344C20.779 14.4336 20.9798 14.3332 21.1806 14.3834L21.3061 14.4085C21.5068 14.4838 21.6072 14.6846 21.557 14.8854C21.5068 15.061 21.3813 15.1614 21.2057 15.1614Z" fill="#33363A"/>
<path d="M25.5973 18.9004C25.5471 18.9004 25.522 18.9004 25.4718 18.8753L23.9159 18.3483C23.7151 18.273 23.6147 18.0722 23.6901 17.8715C23.7653 17.6707 23.9661 17.5703 24.1669 17.6456L25.7228 18.1726C25.9236 18.2479 26.0239 18.4487 25.9486 18.6495C25.8984 18.8001 25.7729 18.9004 25.5973 18.9004Z" fill="#33363A"/>
<path d="M22.9373 17.9721C22.9122 17.9721 22.862 17.9721 22.8118 17.947L22.5357 17.8717C22.3349 17.8215 22.2345 17.5956 22.2848 17.3949C22.3349 17.1941 22.5608 17.0937 22.7616 17.1439L23.0377 17.2192C23.2384 17.2693 23.3388 17.4952 23.2886 17.696C23.2384 17.8717 23.0878 17.9721 22.9373 17.9721Z" fill="#33363A"/>
<path d="M21.6322 17.5455C21.6071 17.5455 21.5569 17.5455 21.5067 17.5203L21.4063 17.4952C21.2055 17.4199 21.1052 17.2192 21.1554 17.0184C21.2055 16.8176 21.4314 16.7172 21.6322 16.7674L21.7326 16.7926C21.9334 16.8678 22.0338 17.0686 21.9836 17.2694C21.9334 17.4199 21.8079 17.5455 21.6322 17.5455Z" fill="#33363A"/>
<path d="M20.6288 17.1941C20.6037 17.1941 20.5535 17.1941 20.5033 17.169L20.4029 17.1439C20.2021 17.0686 20.1017 16.8678 20.152 16.6671C20.2021 16.4663 20.428 16.3659 20.6288 16.4161L20.7292 16.4412C20.93 16.5165 21.0304 16.7173 20.9801 16.9181C20.955 17.0937 20.8045 17.1941 20.6288 17.1941Z" fill="#33363A"/>
<path d="M24.6186 20.7827C24.5684 20.7827 24.5433 20.7827 24.4931 20.7576L22.8368 20.2055C22.636 20.1302 22.5356 19.9294 22.611 19.7286C22.6862 19.5279 22.887 19.4275 23.0878 19.5028L24.7441 20.0549C24.9448 20.1302 25.0452 20.331 24.9699 20.5318C24.9197 20.6823 24.7692 20.7827 24.6186 20.7827Z" fill="#33363A"/>
<path d="M21.7581 19.7787C21.733 19.7787 21.6828 19.7787 21.6326 19.7536L21.3565 19.6532C21.1557 19.5779 21.0554 19.3771 21.1056 19.1763C21.1557 18.9756 21.3816 18.8752 21.5824 18.9254L21.8585 19.0258C22.0592 19.1011 22.1596 19.3018 22.1094 19.5026C22.0593 19.6784 21.9086 19.7787 21.7581 19.7787Z" fill="#33363A"/>
<path d="M20.3526 19.3272C20.3025 19.3272 20.2774 19.3272 20.2271 19.3021L20.1016 19.277C19.9009 19.2017 19.8005 19.0009 19.8507 18.8001C19.926 18.5993 20.1268 18.499 20.3275 18.5492L20.453 18.5743C20.6538 18.6496 20.7542 18.8504 20.704 19.0511C20.6789 19.2268 20.5283 19.3272 20.3526 19.3272Z" fill="#33363A"/>
<path d="M23.5897 22.6648C23.5396 22.6648 23.5145 22.6648 23.4642 22.6397L21.808 22.0876C21.6072 22.0123 21.5068 21.8115 21.5822 21.6107C21.6574 21.4099 21.8582 21.3095 22.059 21.3849L23.7153 21.937C23.916 22.0123 24.0164 22.2131 23.9411 22.4138C23.8909 22.5644 23.7403 22.6648 23.5897 22.6648Z" fill="#33363A"/>
<path d="M20.7293 21.661C20.7042 21.661 20.654 21.661 20.6038 21.6359L20.3277 21.5355C20.1269 21.4602 20.0265 21.2594 20.0768 21.0587C20.1269 20.8579 20.3528 20.7575 20.5536 20.8077L20.8297 20.9081C21.0304 20.9834 21.1308 21.1842 21.0806 21.385C21.0304 21.5606 20.8798 21.661 20.7293 21.661Z" fill="#33363A"/>
<path d="M22.4857 24.4968C22.4356 24.4968 22.4105 24.4968 22.3602 24.4717L20.704 23.9196C20.5032 23.8443 20.4028 23.6435 20.4782 23.4427C20.5534 23.242 20.7542 23.1416 20.955 23.2169L22.6113 23.769C22.812 23.8443 22.9124 24.0451 22.8371 24.2459C22.7868 24.3964 22.6363 24.4968 22.4857 24.4968Z" fill="#33363A"/>
<path d="M19.8758 23.5934C19.8256 23.5934 19.8005 23.5934 19.7503 23.5683L19.4742 23.4679C19.2734 23.3926 19.173 23.1918 19.2233 22.991C19.2985 22.7903 19.4993 22.6899 19.7001 22.7401L19.9761 22.8405C20.1769 22.9158 20.2773 23.1165 20.2271 23.3173C20.1769 23.493 20.0264 23.5934 19.8758 23.5934Z" fill="#33363A"/>
<path d="M21.2563 26.3034C21.2061 26.3034 21.181 26.3034 21.1307 26.2783L19.4745 25.7262C19.2737 25.6509 19.1733 25.4502 19.2487 25.2494C19.3239 25.0486 19.5247 24.9482 19.7255 25.0236L21.3818 25.5757C21.5825 25.6509 21.6829 25.8517 21.6076 26.0525C21.5574 26.2031 21.4068 26.3034 21.2563 26.3034Z" fill="#33363A"/>
<path d="M27.5549 23.9445C27.5549 28.2357 23.4644 28.4114 18.4202 28.4114C13.3761 28.4114 9.28564 28.2357 9.28564 23.9445C9.28564 19.6532 13.3761 16.165 18.4202 16.165C23.4644 16.165 27.5549 19.6532 27.5549 23.9445Z" fill="#C17E25"/>
<path d="M27.5549 23.9445C27.5549 28.2357 23.4644 28.4114 18.4202 28.4114C13.3761 28.4114 9.28564 28.2357 9.28564 23.9445C9.28564 19.6532 13.3761 16.165 18.4202 16.165C23.4644 16.165 27.5549 19.6532 27.5549 23.9445Z" fill="white"/>
<path d="M27.5549 23.9444C27.5549 28.2357 23.4644 28.4113 18.4202 28.4113C13.3761 28.4113 9.28564 28.2357 9.28564 23.9444C9.28564 19.6532 13.3761 23.9695 18.4202 23.9695C23.4644 23.9695 27.5549 19.6532 27.5549 23.9444Z" fill="#F4F3E9"/>
<path d="M18.4204 26.178C13.8783 26.178 10.114 22.6898 9.38623 25.0989C10.0889 28.2609 13.8783 28.3864 18.4204 28.3864C22.9626 28.3864 26.7269 28.2359 27.4547 25.0989C26.7269 22.7149 22.9626 26.178 18.4204 26.178Z" fill="#E0DECE"/>
<path d="M18.4202 28.7878C13.7274 28.7878 8.90918 28.7878 8.90918 23.9445C8.90918 19.4524 13.1753 15.7886 18.4202 15.7886C23.6651 15.7886 27.9313 19.4524 27.9313 23.9445C27.9313 28.7878 23.0879 28.7878 18.4202 28.7878ZM18.4202 16.5414C13.5769 16.5414 9.66207 19.8539 9.66207 23.9445C9.66207 27.7589 13.1252 28.0349 18.4202 28.0349C23.7152 28.0349 27.1784 27.7589 27.1784 23.9445C27.1784 19.854 23.2636 16.5414 18.4202 16.5414Z" fill="#33363A"/>
<path d="M22.8369 22.6896C22.8369 26.8303 20.8544 27.282 18.4202 27.282C15.986 27.282 14.0034 26.8303 14.0034 22.6896C14.0034 20.5565 15.9859 18.8501 18.4202 18.8501C20.8544 18.8501 22.8369 20.5566 22.8369 22.6896Z" fill="#D3D1C1"/>
<path d="M22.8369 22.6896C22.8369 24.8227 20.8544 25.7512 18.4202 25.7512C15.986 25.7512 14.0034 24.8227 14.0034 22.6896C14.0034 20.5565 15.9859 18.8501 18.4202 18.8501C20.8544 18.8501 22.8369 20.5566 22.8369 22.6896Z" fill="#FFBC00"/>
<path d="M18.4206 19.578C20.7294 19.578 22.6114 21.1088 22.8373 23.0412C22.8625 22.9157 22.8625 22.7902 22.8625 22.6647C22.8625 20.5316 20.88 18.8252 18.4457 18.8252C16.0115 18.8252 14.0039 20.5567 14.0039 22.6647C14.0039 22.7902 14.0039 22.9157 14.029 23.0412C14.2297 21.1088 16.1118 19.578 18.4206 19.578Z" fill="#FFCE00"/>
<path d="M22.8369 22.6897C22.8369 24.8228 20.8544 25.7513 18.4202 25.7513C15.986 25.7513 14.0034 24.8228 14.0034 22.6897C14.0034 20.5566 15.9859 22.6897 18.4202 22.6897C20.8544 22.6897 22.8369 20.5567 22.8369 22.6897Z" fill="#FF9100"/>
<path d="M18.4206 26.1279C15.4594 26.1279 13.6274 24.8229 13.6274 22.6898C13.6274 20.356 15.7856 18.4739 18.4206 18.4739C21.0807 18.4739 23.2388 20.356 23.2388 22.6898C23.2137 24.7978 21.3818 26.1279 18.4206 26.1279ZM18.4206 19.2268C16.1871 19.2268 14.3803 20.7826 14.3803 22.6899C14.3803 25.1743 17.4921 25.3751 18.4206 25.3751C19.3491 25.3751 22.486 25.1743 22.486 22.6899C22.4609 20.7826 20.6541 19.2268 18.4206 19.2268Z" fill="#33363A"/>
<path d="M15.3084 22.0121C15.2833 22.0121 15.2583 22.0121 15.2332 22.0121C14.9571 21.962 14.7563 21.711 14.8066 21.435C15.0073 20.0297 16.9898 19.1262 17.9685 19.1262C18.2446 19.1262 18.4704 19.352 18.4704 19.6281C18.4704 19.9042 18.2446 20.13 17.9685 20.13C17.316 20.13 15.9107 20.7825 15.7853 21.5604C15.7602 21.8365 15.5343 22.0121 15.3084 22.0121Z" fill="#FFEF5A"/>
<path d="M15.2332 23.1415C15.2081 23.1415 15.1831 23.1415 15.158 23.1415C14.8819 23.0913 14.6811 22.8403 14.7314 22.5643C14.7815 22.2381 15.0827 22.0374 15.3587 22.0374C15.6348 22.0374 15.8606 22.2632 15.8606 22.5392C15.8606 22.74 15.7351 22.9157 15.5846 22.991C15.4842 23.0913 15.3587 23.1415 15.2332 23.1415Z" fill="#FFEF5A"/>
<path d="M15.2836 23.7187C15.2836 23.7187 15.2585 23.7187 15.2334 23.7187C15.1079 23.6936 15.0076 23.5681 15.0327 23.4426C15.0578 23.2921 15.1832 23.2168 15.3087 23.2168C15.4593 23.2168 15.5597 23.3172 15.5597 23.4677C15.5597 23.5681 15.5095 23.6434 15.4342 23.6936C15.409 23.6936 15.3589 23.7187 15.2836 23.7187Z" fill="#FFEF5A"/>
</g>
<defs>
<clipPath id="clip0_352_2263">
<rect width="32" height="32" fill="white"/>
</clipPath>
</defs>
</svg>
