<svg width="32" height="32" viewBox="0 0 32 32" fill="none" xmlns="http://www.w3.org/2000/svg">
<g clip-path="url(#clip0_349_2190)">
<path d="M22.9687 6.56934V29.0312C22.9687 29.5618 22.8031 30.0537 22.5212 30.4581C22.5212 30.4581 2.09323 26.3193 5.08123 4.06934H20.4687C21.8494 4.06934 22.9687 5.18809 22.9687 6.56934Z" fill="#99B2E9"/>
<path d="M22.6213 27.2118L22.5212 30.4581C22.07 31.1068 21.3188 31.5312 20.4688 31.5312H2.96875C1.58812 31.5312 0.46875 30.4118 0.46875 29.0312V6.56934C0.46875 5.18809 1.58812 4.06934 2.96875 4.06934H5.08125C5.125 15.3943 12.5725 24.9356 22.6213 27.2118Z" fill="#85A4E4"/>
<path d="M20.7812 6.88184V26.705C10.3162 25.425 4.27731 17.2272 5.18306 6.25684H20.1562C20.5012 6.25684 20.7812 6.53621 20.7812 6.88184Z" fill="#FFF8E6"/>
<path d="M20.7812 26.705V28.7187C20.7812 29.0637 20.5012 29.3437 20.1562 29.3437H3.28125C2.93625 29.3437 2.65625 29.0637 2.65625 28.7187V6.88184C2.65625 6.53621 2.93625 6.25684 3.28125 6.25684H5.18313C6.04437 15.9187 12.3081 23.95 20.7812 26.705Z" fill="#FFF1CF"/>
<path d="M14.7291 2.96875C14.4577 2.96875 14.2261 2.77463 14.1764 2.50775C13.96 1.34725 12.942 0.46875 11.7188 0.46875C10.4955 0.46875 9.4775 1.34725 9.26119 2.50775C9.21144 2.77463 8.97988 2.96875 8.70844 2.96875H7.65625C6.96588 2.96875 6.40625 3.52838 6.40625 4.21875V5.982C6.40625 6.67237 6.96588 7.232 7.65625 7.232H15.7812C16.4716 7.232 17.0312 6.67237 17.0312 5.982V4.21875C17.0312 3.52838 16.4716 2.96875 15.7812 2.96875H14.7291Z" fill="#FF6E80"/>
<path d="M28.8557 19.172C29.2976 20.0007 29.3151 21.0313 28.8107 21.9045C28.4251 22.5726 27.8063 23.0226 27.117 23.2113C26.9888 24.442 26.7963 25.7057 26.5363 27.1232C25.8345 28.2557 18.4801 28.2551 17.7763 27.1245C17.6357 26.3551 17.5145 25.6313 17.4126 24.9332C17.4126 24.9332 17.4126 17.0001 20.2595 9.27758C21.6845 8.32571 23.6107 8.54821 24.8013 9.94571C24.9351 10.1026 25.132 10.1945 25.3388 10.1876C26.1738 10.1588 27.0132 10.5007 27.592 11.1907C28.1595 11.867 28.3545 12.732 28.1982 13.5363C28.1476 13.7957 28.2501 14.0632 28.4657 14.2157C29.1857 14.7251 29.6563 15.5645 29.6563 16.5138C29.6563 17.2295 29.3895 17.882 28.9495 18.3782C28.7545 18.5988 28.717 18.9126 28.8557 19.172Z" fill="#8CE09F"/>
<path d="M27.2831 21.5738L17.4125 24.9332C17.3263 24.3445 17.2544 23.7745 17.1956 23.2113C16.3463 22.9782 15.6188 22.3507 15.2944 21.4601C15.0081 20.6732 15.095 19.8413 15.4644 19.1582C15.6 18.9088 15.5663 18.6045 15.3763 18.3932C14.9288 17.8951 14.6562 17.2363 14.6562 16.5138C14.6562 15.5645 15.1269 14.7251 15.8469 14.2157C16.0625 14.0632 16.165 13.7957 16.1144 13.5363C15.9581 12.732 16.1531 11.867 16.7206 11.1907C17.2994 10.5007 18.1387 10.1588 18.9737 10.1876C19.1806 10.1945 19.3775 10.1026 19.5112 9.94571C19.7369 9.68071 19.9894 9.45759 20.2594 9.27759C19.3962 14.9901 21.7838 19.1507 27.2831 21.5738Z" fill="#73DA8C"/>
<path d="M30.9064 23.5713C30.9064 26.7688 28.8076 28.7913 26.2189 28.7913C24.8826 28.7913 23.677 28.2526 22.8232 27.2907C22.8232 27.2907 24.3945 21.0363 24.4976 17.6926C25.0307 17.3851 25.6114 17.2107 26.2189 17.2107C28.8076 17.2107 30.9064 20.3732 30.9064 23.5713Z" fill="#FFF8E6"/>
<path d="M28.8623 24.1037C28.8623 24.3 28.8411 24.4912 28.8004 24.6756C26.8059 24.2149 25.7078 23.1525 25.3979 21.59C25.6561 21.5056 25.9323 21.46 26.2186 21.46C27.6786 21.46 28.8623 22.6437 28.8623 24.1037Z" fill="#FCE3A0"/>
<path d="M29.5094 25.0151L22.8231 27.2908C22.0231 26.3901 21.5312 25.1183 21.5312 23.5714C21.5312 21.1239 22.76 18.6976 24.4975 17.6926C24.3944 21.0364 26.0881 23.5076 29.5094 25.0151Z" fill="#FFF1CF"/>
<path d="M28.8008 24.6757C28.7489 24.9101 28.6658 25.1332 28.5564 25.3395L25.1189 26.5095C24.2083 26.092 23.5752 25.172 23.5752 24.1038C23.5752 22.9301 24.3402 21.9351 25.3983 21.5901C26.1133 22.8401 27.2502 23.8726 28.8008 24.6757Z" fill="#FFCE71"/>
<path d="M24.6562 23.9031C24.6562 27.0093 22.138 29.5281 19.0312 29.5281C16.9568 29.5281 15.1449 28.405 14.1699 26.7343C14.5705 26.8993 17.0805 21.4368 17.4399 18.5068C17.9443 18.3574 18.4787 18.2781 19.0312 18.2781C22.138 18.2781 24.6562 20.7962 24.6562 23.9031Z" fill="#FF6E80"/>
<path d="M21.23 24.84L14.8894 26.9975C14.8331 26.9975 14.5706 26.8993 14.17 26.7343C13.6844 25.9025 13.4062 24.9356 13.4062 23.9031C13.4062 21.3487 15.1081 19.1925 17.44 18.5068C17.0806 21.4368 18.3669 23.5787 21.23 24.84Z" fill="#FD5C6F"/>
<path d="M22.7813 23.9031C22.7813 25.9737 21.1025 27.6531 19.0313 27.6531C17.9713 27.6531 17.0144 27.2131 16.3325 26.5062C16.3325 26.5062 17.7956 22.4225 17.4669 20.4943C17.9431 20.275 18.4731 20.1531 19.0313 20.1531C21.1025 20.1531 22.7813 21.8318 22.7813 23.9031Z" fill="#FFA1AC"/>
<path d="M21.23 24.84L16.3325 26.5063C15.6819 25.8325 15.2812 24.9144 15.2812 23.9031C15.2812 22.39 16.1769 21.0869 17.4669 20.4944C17.7956 22.4225 19.0594 23.8838 21.23 24.84Z" fill="#FF8A98"/>
<path d="M31.5312 25.2812V27.1562C31.5312 29.5725 29.5724 31.5312 27.1562 31.5312H26.3343C20.6022 30.7436 18.1238 28.182 21.1199 24.6562H30.9062C31.2512 24.6562 31.5312 24.9363 31.5312 25.2812Z" fill="#B5E9F1"/>
<path d="M26.3344 31.5312H17.1562C14.74 31.5312 12.7812 29.5725 12.7812 27.1562V25.2812C12.7812 24.9361 13.0611 24.6562 13.4062 24.6562H21.12C21.1494 27.49 22.2775 30.4175 26.3344 31.5312Z" fill="#9BE1EC"/>
<path d="M14.9761 5.82568H8.41357C8.1547 5.82568 7.94482 5.61581 7.94482 5.35693C7.94482 5.09806 8.1547 4.88818 8.41357 4.88818H14.9761C15.235 4.88818 15.4448 5.09806 15.4448 5.35693C15.4448 5.61581 15.235 5.82568 14.9761 5.82568Z" fill="black"/>
<path d="M7.98761 11.0882C7.80455 10.9052 7.50773 10.9052 7.32473 11.0882L5.87048 12.5425L5.48767 12.1597C5.30461 11.9766 5.0078 11.9766 4.8248 12.1597C4.64173 12.3427 4.64173 12.6395 4.8248 12.8225L5.53911 13.5369C5.63061 13.6284 5.75061 13.6742 5.87055 13.6742C5.99048 13.6742 6.11048 13.6284 6.20198 13.5369L7.98767 11.7512C8.17067 11.5681 8.17067 11.2713 7.98761 11.0882Z" fill="black"/>
<path d="M7.98761 15.7757C7.80455 15.5927 7.50773 15.5927 7.32473 15.7757L5.87048 17.23L5.48767 16.8472C5.30461 16.6641 5.0078 16.6641 4.8248 16.8472C4.64173 17.0302 4.64173 17.327 4.8248 17.51L5.53911 18.2243C5.63061 18.3158 5.75061 18.3617 5.87055 18.3617C5.99048 18.3617 6.11048 18.3159 6.20198 18.2243L7.98767 16.4387C8.17067 16.2556 8.17067 15.9588 7.98761 15.7757Z" fill="black"/>
<path d="M7.98761 20.4632C7.80455 20.2802 7.50773 20.2802 7.32473 20.4632L5.87048 21.9175L5.48767 21.5347C5.30461 21.3516 5.0078 21.3516 4.8248 21.5347C4.64173 21.7177 4.64173 22.0145 4.8248 22.1975L5.53911 22.9118C5.63061 23.0033 5.75061 23.0492 5.87055 23.0492C5.99048 23.0492 6.11048 23.0034 6.20198 22.9118L7.98767 21.1262C8.17067 20.9431 8.17067 20.6463 7.98761 20.4632Z" fill="black"/>
<path d="M19.1713 28.2819C18.9124 28.2819 18.7026 28.0721 18.7026 27.8132C18.7026 27.5973 18.5269 27.4216 18.311 27.4216C18.0951 27.4216 17.9194 27.5973 17.9194 27.8132C17.9194 28.0721 17.7096 28.2819 17.4507 28.2819C17.1918 28.2819 16.9819 28.0721 16.9819 27.8132C16.9819 27.0803 17.5782 26.4841 18.311 26.4841C19.0438 26.4841 19.6401 27.0804 19.6401 27.8132C19.6401 28.0721 19.4302 28.2819 19.1713 28.2819Z" fill="black"/>
<path d="M26.8617 28.2819C26.6029 28.2819 26.393 28.0721 26.393 27.8132C26.393 27.5973 26.2173 27.4216 26.0014 27.4216C25.7856 27.4216 25.6099 27.5973 25.6099 27.8132C25.6099 28.0721 25.4 28.2819 25.1411 28.2819C24.8822 28.2819 24.6724 28.0721 24.6724 27.8132C24.6724 27.0803 25.2686 26.4841 26.0014 26.4841C26.7342 26.4841 27.3305 27.0804 27.3305 27.8132C27.3305 28.0721 27.1206 28.2819 26.8617 28.2819Z" fill="black"/>
<path d="M22.1562 29.7031C21.6709 29.7031 21.2096 29.493 20.8903 29.1266C20.7202 28.9314 20.7405 28.6353 20.9357 28.4652C21.1309 28.2951 21.4269 28.3155 21.5971 28.5106C21.7383 28.6727 21.9421 28.7656 22.1563 28.7656C22.3704 28.7656 22.5743 28.6727 22.7154 28.5106C22.8855 28.3155 23.1816 28.2951 23.3768 28.4652C23.572 28.6353 23.5923 28.9313 23.4223 29.1266C23.1028 29.493 22.6414 29.7031 22.1562 29.7031Z" fill="black"/>
<path d="M31.3417 24.2779C31.3638 24.0464 31.375 23.8101 31.375 23.5713C31.375 21.9171 30.8429 20.2216 29.915 18.9196C29.7877 18.7409 29.6553 18.5726 29.5184 18.4146C29.9116 17.862 30.125 17.1989 30.125 16.5138C30.125 15.4502 29.6059 14.4481 28.7363 13.8329C28.6731 13.7882 28.6424 13.707 28.6583 13.6256C28.8481 12.6485 28.5903 11.6511 27.951 10.8894C27.2978 10.1106 26.3389 9.68437 25.3232 9.719C25.2623 9.72194 25.201 9.69206 25.1581 9.64163C24.6877 9.0895 24.0924 8.68225 23.4375 8.45075V6.56938C23.4375 4.93244 22.1057 3.60063 20.4688 3.60063H17.3851C17.1363 2.95738 16.5112 2.5 15.7812 2.5H14.7294C14.6837 2.5 14.6457 2.46756 14.6371 2.42162C14.3754 1.01844 13.1482 0 11.7188 0C10.2893 0 9.06206 1.01844 8.80056 2.42112C8.79181 2.46756 8.75387 2.5 8.70813 2.5H7.65625C6.92631 2.5 6.30125 2.95738 6.05244 3.60063H2.96875C1.33181 3.60063 0 4.93237 0 6.56938V29.0312C0 30.6682 1.33181 32 2.96875 32H17.1562H27.1562C29.8271 32 32 29.8271 32 27.1562V25.2812C32 24.8328 31.7288 24.4466 31.3417 24.2779ZM30.4375 23.5713C30.4375 23.7799 30.4278 23.9861 30.4086 24.1875H29.3301C29.3309 24.1596 29.3312 24.1317 29.3312 24.1038C29.3312 22.3875 27.935 20.9912 26.2188 20.9912C25.6425 20.9912 25.0876 21.1482 24.6054 21.4413C24.2821 20.712 23.8197 20.0576 23.252 19.5117C24.0655 18.3422 25.1311 17.6794 26.2188 17.6794C28.4267 17.6794 30.4375 20.4877 30.4375 23.5713ZM24.9257 22.3548C25.2981 22.0784 25.7482 21.9287 26.2188 21.9287C27.418 21.9287 28.3937 22.9044 28.3937 24.1038C28.3937 24.1317 28.3932 24.1596 28.3921 24.1875H25.1184C25.1228 24.0929 25.125 23.9979 25.125 23.9031C25.125 23.3683 25.0557 22.8494 24.9257 22.3548ZM19.0312 19.6844C16.705 19.6844 14.8125 21.5769 14.8125 23.9031C14.8125 23.9979 14.8157 24.0928 14.8221 24.1875H13.8827C13.8776 24.093 13.875 23.9981 13.875 23.9031C13.875 21.0599 16.1881 18.7469 19.0312 18.7469C21.8744 18.7469 24.1875 21.0599 24.1875 23.9031C24.1875 23.9981 24.1849 24.093 24.1798 24.1875H23.2404C23.2468 24.0928 23.25 23.9979 23.25 23.9031C23.25 21.5769 21.3575 19.6844 19.0312 19.6844ZM24.4445 10.2498C24.6745 10.5195 25.0057 10.668 25.3549 10.656C26.0816 10.6314 26.7662 10.9357 27.2328 11.4919C27.6895 12.0362 27.8736 12.7487 27.7381 13.4464C27.6517 13.8888 27.8311 14.3409 28.1949 14.5983C28.8164 15.038 29.1875 15.7541 29.1875 16.5138C29.1875 16.9519 29.0654 17.3773 28.8374 17.7458C28.0451 17.0909 27.1478 16.7419 26.2188 16.7419C24.8833 16.7419 23.6011 17.4761 22.625 18.7789V18.3552C23.3524 17.0578 24.3736 16.0438 25.6619 15.3406C25.8892 15.2165 25.9728 14.9318 25.8487 14.7045C25.7247 14.4773 25.4399 14.3936 25.2127 14.5177C24.1989 15.0711 23.3329 15.7954 22.625 16.6799V15.3389C23.1786 14.3518 23.9021 13.5269 24.7769 12.8859C24.9857 12.7329 25.0309 12.4395 24.8779 12.2307C24.7249 12.0219 24.4316 11.9767 24.2227 12.1296C23.6252 12.5674 23.0911 13.0806 22.625 13.6635V11.5869C22.625 11.328 22.4151 11.1181 22.1562 11.1181C21.8974 11.1181 21.6875 11.328 21.6875 11.5869V13.6639C21.2213 13.0808 20.6871 12.5676 20.0894 12.1296C19.8805 11.9766 19.5872 12.0218 19.4342 12.2307C19.2812 12.4395 19.3264 12.7328 19.5352 12.8859C20.4102 13.5271 21.1339 14.3522 21.6875 15.3396V16.6804C20.9795 15.7956 20.1134 15.0712 19.0994 14.5177C18.8722 14.3936 18.5874 14.4773 18.4634 14.7045C18.3393 14.9318 18.423 15.2165 18.6502 15.3406C19.9387 16.0439 20.96 17.0581 21.6875 18.3559V18.4194C20.8843 18.0287 19.9829 17.8094 19.0312 17.8094C17.926 17.8094 16.8886 18.1052 15.9939 18.6217C15.9558 18.4241 15.8652 18.2359 15.7249 18.0799C15.3381 17.6493 15.125 17.0931 15.125 16.5138C15.125 15.7541 15.4961 15.0381 16.1176 14.5984C16.4814 14.341 16.6608 13.8888 16.5746 13.4469C16.4389 12.7487 16.6231 12.0362 17.0798 11.4919C17.5463 10.9357 18.2302 10.6307 18.9583 10.6561C19.3065 10.6673 19.638 10.5195 19.8681 10.2496C20.4626 9.55181 21.2752 9.16756 22.1562 9.16756C23.0373 9.16756 23.85 9.55181 24.4445 10.2498ZM17.5 4.53813H20.4688C21.5888 4.53813 22.5 5.44938 22.5 6.56938V8.2455C22.3861 8.23519 22.2714 8.22994 22.1562 8.22994C21.8487 8.22994 21.5449 8.26719 21.25 8.339V6.88188C21.25 6.27881 20.7593 5.78813 20.1562 5.78813H17.5V4.53813ZM2.96875 31.0625C1.84875 31.0625 0.9375 30.1513 0.9375 29.0312V6.56938C0.9375 5.44938 1.84875 4.53813 2.96875 4.53813H5.9375V5.78813H3.28125C2.67819 5.78813 2.1875 6.27881 2.1875 6.88188V20.7781C2.1875 21.037 2.39738 21.2469 2.65625 21.2469C2.91512 21.2469 3.125 21.037 3.125 20.7781V6.88188C3.125 6.79575 3.19513 6.72563 3.28125 6.72563H6.10687C6.38469 7.302 6.97475 7.70062 7.65625 7.70062H10.625C10.8839 7.70062 11.0938 7.49075 11.0938 7.23187C11.0938 6.973 10.8839 6.76312 10.625 6.76312H7.65625C7.22544 6.76312 6.875 6.41269 6.875 5.98187V4.21875C6.875 3.78794 7.22544 3.4375 7.65625 3.4375H8.70813C9.204 3.4375 9.63037 3.08269 9.72206 2.59344C9.90094 1.63394 10.7407 0.9375 11.7188 0.9375C12.6968 0.9375 13.5366 1.63394 13.7155 2.59387C13.8071 3.08269 14.2335 3.4375 14.7294 3.4375H15.7812C16.2121 3.4375 16.5625 3.78794 16.5625 4.21875V5.98187C16.5625 6.41269 16.2121 6.76312 15.7812 6.76312H12.8125C12.5536 6.76312 12.3438 6.973 12.3438 7.23187C12.3438 7.49075 12.5536 7.70062 12.8125 7.70062H15.7812C16.4627 7.70062 17.0528 7.30194 17.3306 6.72563H20.1562C20.2424 6.72563 20.3125 6.79575 20.3125 6.88188V8.70081C19.8797 8.93519 19.4861 9.25238 19.1546 9.6415C19.1115 9.692 19.0496 9.72019 18.9899 9.719C18.0349 9.68587 17.1325 10.0599 16.4852 10.75H10.1606C9.90175 10.75 9.69188 10.9599 9.69188 11.2188C9.69188 11.4776 9.90175 11.6875 10.1606 11.6875H15.8659C15.6938 12.0813 15.6012 12.5054 15.5938 12.9375H10.1606C9.90175 12.9375 9.69188 13.1474 9.69188 13.4062C9.69188 13.6651 9.90175 13.875 10.1606 13.875H15.5181C14.9812 14.2727 14.5845 14.8205 14.3697 15.4375H10.1606C9.90175 15.4375 9.69188 15.6474 9.69188 15.9062C9.69188 16.1651 9.90175 16.375 10.1606 16.375H14.1905C14.1886 16.4211 14.1876 16.4674 14.1876 16.5138C14.1876 16.8964 14.254 17.2717 14.3811 17.625H10.1606C9.90175 17.625 9.69188 17.8349 9.69188 18.0938C9.69188 18.3526 9.90175 18.5625 10.1606 18.5625H14.9056C14.9448 18.6116 14.9855 18.6596 15.0278 18.7066C15.084 18.7692 15.0938 18.8585 15.0524 18.9346C14.9521 19.1194 14.8699 19.3141 14.8073 19.5148C14.6093 19.7054 14.4242 19.9093 14.2533 20.1249H10.1606C9.90175 20.1249 9.69188 20.3348 9.69188 20.5937C9.69188 20.8526 9.90175 21.0624 10.1606 21.0624H13.6411C13.4329 21.4557 13.2666 21.8744 13.1481 22.3124H10.1606C9.90175 22.3124 9.69188 22.5223 9.69188 22.7812C9.69188 23.0401 9.90175 23.2499 10.1606 23.2499H12.9723C12.9493 23.4646 12.9375 23.6824 12.9375 23.9031C12.9375 24.0313 12.9416 24.1597 12.9495 24.2874C12.5739 24.4608 12.3125 24.841 12.3125 25.2812V27.1562C12.3125 27.7611 12.424 28.3406 12.6275 28.8749H3.28125C3.19513 28.8749 3.125 28.8048 3.125 28.7187V22.9656C3.125 22.7067 2.91512 22.4968 2.65625 22.4968C2.39738 22.4968 2.1875 22.7067 2.1875 22.9656V28.7187C2.1875 29.3217 2.67819 29.8124 3.28125 29.8124H13.1075C13.4261 30.2964 13.8289 30.7201 14.2951 31.0624H2.96875V31.0625ZM31.0625 27.1562C31.0625 29.3101 29.3101 31.0625 27.1562 31.0625H17.1562C15.0024 31.0625 13.25 29.3101 13.25 27.1562V25.2812C13.25 25.1951 13.3201 25.125 13.4062 25.125H18.0775C18.3364 25.125 18.5462 24.9151 18.5462 24.6562C18.5462 24.3974 18.3364 24.1875 18.0775 24.1875H15.7622C15.7541 24.0929 15.75 23.998 15.75 23.9031C15.75 22.0938 17.2219 20.6219 19.0312 20.6219C20.8406 20.6219 22.3125 22.0938 22.3125 23.9031C22.3125 23.9979 22.3084 24.0929 22.3002 24.1875H20.265C20.0061 24.1875 19.7962 24.3974 19.7962 24.6562C19.7962 24.9151 20.0061 25.125 20.265 25.125H30.9062C30.9924 25.125 31.0625 25.1951 31.0625 25.2812V27.1562Z" fill="black"/>
<path d="M19 22.6831C18.7411 22.6831 18.5312 22.4732 18.5312 22.2143V22.0278C18.5312 21.769 18.7411 21.5591 19 21.5591C19.2589 21.5591 19.4688 21.769 19.4688 22.0278V22.2143C19.4688 22.4732 19.2589 22.6831 19 22.6831Z" fill="black"/>
<path d="M20.4197 23.3242C20.2859 23.3242 20.1531 23.2673 20.0604 23.1568C19.8939 22.9585 19.9198 22.6629 20.1181 22.4964L20.261 22.3765C20.4593 22.2101 20.755 22.236 20.9214 22.4343C21.0878 22.6326 21.0619 22.9282 20.8636 23.0947L20.7208 23.2145C20.6329 23.2883 20.526 23.3242 20.4197 23.3242Z" fill="black"/>
<path d="M17.6426 23.3243C17.5363 23.3243 17.4294 23.2883 17.3416 23.2146L17.1987 23.0947C17.0004 22.9283 16.9745 22.6326 17.141 22.4343C17.3073 22.2359 17.603 22.2101 17.8013 22.3766L17.9442 22.4964C18.1425 22.6629 18.1684 22.9585 18.002 23.1568C17.9092 23.2673 17.7764 23.3243 17.6426 23.3243Z" fill="black"/>
<path d="M11.7188 3.4375C11.9776 3.4375 12.1875 3.22763 12.1875 2.96875C12.1875 2.70987 11.9776 2.5 11.7188 2.5C11.4599 2.5 11.25 2.70987 11.25 2.96875C11.25 3.22763 11.4599 3.4375 11.7188 3.4375Z" fill="black"/>
</g>
<defs>
<clipPath id="clip0_349_2190">
<rect width="32" height="32" fill="white"/>
</clipPath>
</defs>
</svg>
