<svg width="32" height="32" viewBox="0 0 32 32" fill="none" xmlns="http://www.w3.org/2000/svg">
<g clip-path="url(#clip0_352_2427)">
<path d="M16.0002 4.28125C15.8977 4.28125 15.7952 4.2825 15.6934 4.285V6.16125C15.7952 6.15813 15.8977 6.15625 16.0002 6.15625C21.4284 6.15625 25.844 10.5719 25.844 16C25.844 21.4281 21.4284 25.8438 16.0002 25.8438C15.8977 25.8438 15.7952 25.8419 15.6934 25.8388V27.715C15.7952 27.7175 15.8977 27.7188 16.0002 27.7188C22.4721 27.7188 27.719 22.4719 27.719 16C27.719 9.52812 22.4721 4.28125 16.0002 4.28125Z" fill="#FCE3A0"/>
<path d="M15.6931 6.16116V4.28491C9.36312 4.44804 4.28125 9.63054 4.28125 15.9999C4.28125 22.3693 9.36312 27.5518 15.6931 27.7149V25.8387C10.4062 25.6762 6.15625 21.3255 6.15625 15.9999C6.15625 10.6743 10.4062 6.32366 15.6931 6.16116Z" fill="#FFCE71"/>
<path d="M23.1874 5.60315V13.32C23.1874 13.3406 23.1868 13.3606 23.1855 13.3806C16.196 12.2856 12.7621 9.46846 15.0318 4.78315C17.7499 4.69752 20.4687 4.97065 23.1874 5.60315Z" fill="#FFF8E6"/>
<path d="M23.1856 13.3807C23.1544 14.3882 22.3275 15.1951 21.3125 15.1951H10.6875C9.65188 15.1951 8.8125 14.3557 8.8125 13.3201V5.6032C10.8856 5.12133 12.9587 4.84758 15.0319 4.7832C15.7506 8.29695 17.8381 11.642 23.1856 13.3807Z" fill="#FFF1CF"/>
<path d="M19.6436 8.90616C19.6436 9.18554 19.5367 9.46554 19.3236 9.67866L18.3036 10.6987C17.0967 10.7903 16.3862 10.4583 16.8405 9.06929L17.7767 8.13241C18.2042 7.70554 18.8961 7.70554 19.323 8.13241C19.5367 8.34616 19.6436 8.62616 19.6436 8.90616Z" fill="#B5E9F1"/>
<path d="M18.3036 10.6987L16.5442 12.4581C15.8117 13.1906 14.6249 13.1906 13.8924 12.4581L12.6761 11.2418C12.2492 10.815 12.2492 10.1231 12.6761 9.69559L12.6767 9.69496C13.1042 9.26809 13.7961 9.26809 14.223 9.69496L14.998 10.47C15.1199 10.5918 15.318 10.5918 15.4399 10.47L16.8405 9.06934C17.2505 9.64184 17.7342 10.1881 18.3036 10.6987Z" fill="#9BE1EC"/>
<path d="M23.1873 3.75V5.625H15.2323C14.124 4.38937 13.4633 3.11812 14.7111 1.875H21.3123C22.348 1.875 23.1873 2.71438 23.1873 3.75Z" fill="#99B2E9"/>
<path d="M15.2325 5.625H8.8125V3.75C8.8125 2.71438 9.65188 1.875 10.6875 1.875H14.7113C14.7494 3.11812 14.895 4.38937 15.2325 5.625Z" fill="#85A4E4"/>
<path d="M19.1524 3.28125H19.0975C18.5949 3.28125 18.1875 2.87381 18.1875 2.37119V1.37881C18.1875 0.876188 18.5949 0.46875 19.0976 0.46875H19.1525C19.6551 0.46875 20.0625 0.876188 20.0625 1.37881V2.37125C20.0625 2.87381 19.6551 3.28125 19.1524 3.28125Z" fill="#B5E9F1"/>
<path d="M12.9024 3.28125H12.8475C12.3449 3.28125 11.9375 2.87381 11.9375 2.37119V1.37881C11.9375 0.876188 12.3449 0.46875 12.8476 0.46875H12.9025C13.4051 0.46875 13.8125 0.876188 13.8125 1.37881V2.37125C13.8125 2.87381 13.4051 3.28125 12.9024 3.28125Z" fill="#9BE1EC"/>
<path d="M31.5312 20.2945C31.5312 20.8245 31.4025 21.3576 31.1669 21.8532C25.4814 22.0863 25.0869 18.5893 26.0425 14.5276C26.435 14.0763 26.7937 13.7138 27.0537 13.4657C27.2862 13.2438 27.6512 13.2438 27.8837 13.4657C28.9181 14.4538 31.5312 17.2507 31.5312 20.2945Z" fill="#8CE09F"/>
<path d="M31.1669 21.8532C30.5438 23.1632 29.175 24.2063 27.4688 24.2063C25.1169 24.2063 23.4062 22.2245 23.4062 20.2945C23.4062 18.0151 24.8719 15.8738 26.0425 14.5276C26.0594 17.3457 26.7275 20.4926 31.1669 21.8532Z" fill="#73DA8C"/>
<path d="M15.752 22.3218C15.752 22.3218 16.3363 20.526 15.2629 19.2468C14.4968 18.3338 13.325 18.2067 12.7168 18.2088C12.4765 18.2096 12.2709 18.3821 12.2283 18.6186C12.1207 19.2172 12.0424 20.3933 12.8085 21.3063C13.882 22.5855 15.752 22.3218 15.752 22.3218Z" fill="#8CE09F"/>
<path d="M21.6251 25.9483C21.6251 27.2626 21.0614 28.6964 20.1514 29.7833C14.215 29.3283 12.2977 25.1653 14.1145 21.4058C14.5932 21.4114 15.1201 21.4982 15.697 21.6814C15.8939 21.7439 16.1064 21.7439 16.3032 21.6814C19.9795 20.5158 21.6251 23.2476 21.6251 25.9483Z" fill="#FF8A98"/>
<path d="M20.151 29.7834C19.351 30.7389 18.283 31.4254 17.096 31.5254C16.8725 31.5439 16.577 31.5204 16.307 31.4384C16.107 31.3779 15.893 31.3779 15.693 31.4384C15.423 31.5204 15.1275 31.5439 14.904 31.5254C12.3655 31.3109 10.375 28.4179 10.375 25.9484C10.375 23.6714 11.5445 21.3729 14.1145 21.4054C13.8425 24.3724 15.616 28.6094 20.151 29.7834Z" fill="#FF6E80"/>
<path d="M3.36356 27.0731C2.77644 27.0351 2.2995 26.5586 2.26094 25.9715C2.22631 25.4449 2.53613 24.986 2.98713 24.7979C3.1335 24.7369 3.23194 24.5976 3.23194 24.4391V20.7007H5.20563V24.4391C5.20563 24.5977 5.30406 24.7369 5.45044 24.7979C5.90156 24.986 6.21137 25.4451 6.17663 25.9717C6.13788 26.5588 5.66088 27.0352 5.07375 27.0731C4.83044 27.0889 4.60169 27.0311 4.40744 26.9198C4.29119 26.8532 4.14638 26.8532 4.03013 26.9198C3.83581 27.0311 3.60694 27.0889 3.36356 27.0731Z" fill="#FFF1CF"/>
<path d="M7.96864 17.0493C7.96864 18.3412 7.49552 19.5868 6.88552 20.6562C2.16796 20.0771 1.77464 17.0078 2.51114 13.7274V13.7268C3.01489 13.4574 3.59239 13.2993 4.21864 13.2993C6.38989 13.2993 7.96864 15.1993 7.96864 17.0493Z" fill="#E4996D"/>
<path d="M6.88562 20.6562C6.56437 21.2193 6.205 21.7343 5.85625 22.1806C5.02625 23.2443 3.41125 23.2443 2.58125 22.1806C1.57187 20.8868 0.46875 19.0224 0.46875 17.0493C0.46875 15.7331 1.26813 14.3918 2.51125 13.7268C2.51625 16.3337 3.07812 19.2506 6.88562 20.6562Z" fill="#DF8A57"/>
<path d="M15.2184 13.475C14.6182 13.475 14.018 13.2466 13.561 12.7897L12.345 11.5736C11.7359 10.9645 11.7359 9.97342 12.345 9.36436C12.9547 8.75473 13.9456 8.75461 14.5548 9.36373L15.2189 10.0279L17.4455 7.80123C18.0547 7.19223 19.0457 7.19223 19.6548 7.80123C20.2639 8.4103 20.2639 9.40142 19.6548 10.0105L16.8756 12.7897C16.4187 13.2465 15.8185 13.475 15.2184 13.475ZM13.4502 9.84405C13.2902 9.84405 13.1304 9.90492 13.0086 10.0267C12.7644 10.2709 12.7644 10.6671 13.008 10.9107L14.224 12.1267C14.7722 12.675 15.6645 12.675 16.2127 12.1267L18.9919 9.34755C19.2354 9.10405 19.2354 8.70779 18.9919 8.46423C18.7484 8.22061 18.3521 8.22061 18.1085 8.46423L15.7714 10.8014C15.4667 11.106 14.9712 11.106 14.6665 10.8014L13.8918 10.0267C13.7701 9.90492 13.6102 9.84405 13.4502 9.84405Z" fill="black"/>
<path d="M28.2073 13.1265C28.083 13.0079 27.9376 12.9248 27.7836 12.8774C27.1245 10.3872 25.671 8.14644 23.6562 6.51731V3.75C23.6562 2.45762 22.6048 1.40625 21.3124 1.40625H20.5312C20.5312 0.630875 19.9004 0 19.125 0C18.3496 0 17.7188 0.630875 17.7188 1.40625H14.2812C14.2812 0.630875 13.6504 0 12.875 0C12.0996 0 11.4688 0.630875 11.4688 1.40625H10.6875C9.39513 1.40625 8.34375 2.45762 8.34375 3.75V6.51731C6.34087 8.13713 4.89362 10.3596 4.22944 12.8306C4.22587 12.8306 4.22231 12.8306 4.21875 12.8306C3.89412 12.8306 3.57006 12.8691 3.25569 12.9449C3.004 13.0057 2.84919 13.2589 2.90994 13.5106C2.97069 13.7622 3.22406 13.9171 3.47556 13.8563C3.71806 13.7978 3.96812 13.7681 4.21881 13.7681C6.1525 13.7681 7.50006 15.4974 7.50006 17.0494C7.50006 18.9193 6.40519 20.715 5.48675 21.8923C5.18062 22.2846 4.71844 22.5097 4.21881 22.5097C3.71919 22.5097 3.257 22.2846 2.95088 21.8923C2.03238 20.715 0.9375 18.9193 0.9375 17.0494C0.9375 16.2691 1.26444 15.4644 1.83456 14.8415C2.00938 14.6506 1.99625 14.3541 1.80525 14.1792C1.61438 14.0044 1.31781 14.0175 1.143 14.2086C0.416625 15.0021 0 16.0376 0 17.0494C0 19.1858 1.20269 21.1757 2.21169 22.4689C2.37112 22.6733 2.55712 22.8489 2.76312 22.9928V24.3843C2.13613 24.6672 1.74775 25.3112 1.79294 26.0022C1.84725 26.8259 2.50956 27.4874 3.33369 27.5409C3.36994 27.5432 3.40606 27.5444 3.44206 27.5444C3.71381 27.5444 3.97937 27.4786 4.21875 27.3512C4.48944 27.4954 4.795 27.5609 5.10413 27.5409C5.928 27.4874 6.59025 26.8261 6.64463 26.0024C6.68969 25.3115 6.30144 24.6674 5.67438 24.3843V22.9928C5.75138 22.939 5.82562 22.8808 5.89669 22.8183C6.94019 24.3617 8.32613 25.6504 9.94356 26.578C10.0766 27.7164 10.5604 28.8864 11.316 29.868C12.2845 31.1262 13.5448 31.8805 14.8646 31.992C14.9276 31.9973 14.9923 31.9999 15.0583 31.9999C15.3139 31.9999 15.5859 31.9606 15.829 31.8867C15.9409 31.8528 16.059 31.8528 16.1709 31.8867C16.4766 31.9796 16.8283 32.0179 17.1353 31.992C19.7513 31.7711 21.7577 29.0781 22.0555 26.5784C23.2267 25.9073 24.2682 25.0558 25.1586 24.0414C25.7197 24.3757 26.3449 24.5837 26.9999 24.651V25.4322C26.9999 25.6912 27.2097 25.901 27.4687 25.901C27.7276 25.901 27.9374 25.6912 27.9374 25.4322V24.651C28.9876 24.5431 29.9609 24.0736 30.7167 23.3021C31.5323 22.4696 32 21.3733 32 20.2944C32 17.0948 29.3477 14.2159 28.2073 13.1265ZM5.70919 25.941C5.68606 26.2908 5.39362 26.5826 5.04369 26.6054C4.901 26.6144 4.76169 26.5827 4.64125 26.5136C4.38075 26.3639 4.057 26.3638 3.79725 26.5132C3.67594 26.5826 3.5365 26.6147 3.39425 26.6054C3.044 26.5827 2.75156 26.2906 2.7285 25.9408C2.7085 25.6341 2.88494 25.3487 3.16731 25.2308C3.49137 25.0957 3.70069 24.7851 3.70069 24.4394V23.395C3.86906 23.4295 4.0425 23.4473 4.21881 23.4473C4.39512 23.4473 4.56856 23.4295 4.73694 23.395V24.4394C4.73694 24.7851 4.94631 25.0958 5.27006 25.2307C5.55269 25.3487 5.72913 25.6343 5.70919 25.941ZM26.8527 13.0256C26.81 13.0558 26.7689 13.0894 26.73 13.1266C26.5468 13.3016 26.3223 13.5251 26.0748 13.7905C25.6946 12.0461 24.8698 10.4422 23.6562 9.098V7.75775C25.1877 9.1825 26.3017 11.0138 26.8527 13.0256ZM18.6562 1.40625C18.6562 1.14775 18.8665 0.9375 19.125 0.9375C19.3835 0.9375 19.5938 1.14775 19.5938 1.40625V2.34375C19.5938 2.60225 19.3835 2.8125 19.125 2.8125C18.8665 2.8125 18.6562 2.60225 18.6562 2.34375V1.40625ZM12.4062 1.40625C12.4062 1.14775 12.6165 0.9375 12.875 0.9375C13.1335 0.9375 13.3438 1.14775 13.3438 1.40625V2.34375C13.3438 2.60225 13.1335 2.8125 12.875 2.8125C12.6165 2.8125 12.4062 2.60225 12.4062 2.34375V1.40625ZM9.28125 3.75C9.28125 2.97463 9.91212 2.34375 10.6875 2.34375H11.4688C11.4688 3.11912 12.0996 3.75 12.875 3.75C13.6504 3.75 14.2812 3.11912 14.2812 2.34375H17.7188C17.7188 3.11912 18.3496 3.75 19.125 3.75C19.9004 3.75 20.5312 3.11912 20.5312 2.34375H21.3125C22.0879 2.34375 22.7188 2.97463 22.7188 3.75V5.15625H16.2019C15.9429 5.15625 15.7331 5.36606 15.7331 5.625C15.7331 5.88394 15.9429 6.09375 16.2019 6.09375H22.7188V13.32C22.7188 14.0954 22.0879 14.7262 21.3125 14.7262H10.6875C9.91212 14.7262 9.28125 14.0954 9.28125 13.32V6.09375H14.0144C14.2733 6.09375 14.4831 5.88394 14.4831 5.625C14.4831 5.36606 14.2733 5.15625 14.0144 5.15625H9.28125V3.75ZM6.05562 13.2652C5.77369 13.1235 5.47731 13.0152 5.17106 12.9421C5.72925 10.9634 6.83306 9.16331 8.34375 7.75781V9.098C7.26269 10.2962 6.48031 11.7231 6.05562 13.2652ZM9.92237 25.4684C8.56256 24.5941 7.40212 23.434 6.52637 22.0701C6.74056 21.7755 6.93194 21.4885 7.10262 21.2097C7.84912 22.4816 8.86144 23.582 10.0732 24.4353C9.99731 24.766 9.94644 25.1117 9.92237 25.4684ZM17.0564 31.0579C16.9095 31.0701 16.671 31.0589 16.4432 30.9897C16.1532 30.9018 15.8468 30.9018 15.5568 30.9897C15.3289 31.0588 15.0909 31.0704 14.9436 31.0579C12.6347 30.8629 10.8438 28.1509 10.8438 25.9481C10.8438 24.4097 11.3968 23.0864 12.3229 22.4084C12.8114 22.0509 13.3914 21.8719 14.0568 21.8719C14.5162 21.8719 15.0164 21.9572 15.5552 22.1281C15.8462 22.2204 16.1538 22.2204 16.4448 22.1281H16.4449C17.7639 21.7099 18.8514 21.8041 19.6771 22.4084C20.6033 23.0864 21.1562 24.4097 21.1562 25.9481C21.1562 28.1509 19.3654 30.8629 17.0564 31.0579ZM12.6895 18.7009C12.6919 18.6873 12.7039 18.6774 12.7188 18.6773C13.2594 18.6764 14.2639 18.7852 14.9035 19.5481C15.3087 20.0309 15.4334 20.6113 15.4419 21.1214C14.7716 20.9516 13.9768 20.8606 13.1848 21.0255C13.1789 21.0187 13.1731 21.0119 13.1673 21.005C12.5284 20.2429 12.5937 19.2342 12.6895 18.7009ZM22.0777 25.4688C22.0536 25.1119 22.0027 24.7661 21.9268 24.4352C22.6076 23.9559 23.2256 23.3983 23.7724 22.7707C23.9071 22.9569 24.0569 23.1348 24.2208 23.3021C24.2806 23.3631 24.3418 23.4223 24.4042 23.4795C23.7199 24.2486 22.9407 24.9147 22.0777 25.4688ZM27.9375 23.7027V22.5001C28.4414 21.5808 29.0634 20.9288 29.7874 20.5613C30.0183 20.4441 30.1104 20.1619 29.9932 19.9311C29.8761 19.7003 29.5938 19.6079 29.3631 19.7253C28.8387 19.9916 28.3622 20.3699 27.9375 20.8563V19.5558C28.2846 18.9251 28.693 18.433 29.1524 18.0921C29.3602 17.9377 29.4037 17.6442 29.2494 17.4363C29.0951 17.2284 28.8014 17.185 28.5937 17.3393C28.3629 17.5106 28.1439 17.7102 27.9375 17.9371V16.0478C27.9375 15.7889 27.7277 15.5791 27.4688 15.5791C27.2098 15.5791 27 15.7889 27 16.0478V17.9371C26.7936 17.7102 26.5746 17.5106 26.3438 17.3393C26.1359 17.1849 25.8424 17.2284 25.6881 17.4363C25.5338 17.6442 25.5773 17.9377 25.7851 18.0921C26.2446 18.433 26.6529 18.9252 27 19.5558V20.8563C26.5754 20.3699 26.0989 19.9916 25.5744 19.7253C25.3436 19.6081 25.0614 19.7004 24.9443 19.9311C24.8271 20.1619 24.9192 20.4441 25.1501 20.5613C25.874 20.9288 26.496 21.5808 27 22.5001V23.7027C25.439 23.4742 23.875 22.1383 23.875 20.2944C23.875 19.9622 23.9095 19.6187 23.9774 19.2737C24.0275 19.0198 23.8621 18.7733 23.6081 18.7232C23.3542 18.6729 23.1077 18.8385 23.0576 19.0925C22.9779 19.4971 22.9375 19.9014 22.9375 20.2943C22.9375 20.8378 23.0562 21.3856 23.2782 21.9019C22.7928 22.4999 22.2395 23.0333 21.6265 23.4944C21.3061 22.7288 20.8306 22.0909 20.2308 21.6519C19.0869 20.8146 17.7514 20.844 16.6926 21.0887C16.8771 20.6553 17.1172 20.2424 17.4175 19.8403C17.5724 19.6328 17.5299 19.3391 17.3224 19.1842C17.115 19.0293 16.8212 19.0717 16.6664 19.2792C16.4939 19.5101 16.3372 19.7479 16.1966 19.9916C16.0812 19.6361 15.8997 19.2766 15.6217 18.9455C14.7446 17.8993 13.4445 17.7397 12.7351 17.7397C12.7286 17.7397 12.7221 17.7397 12.7157 17.7397C12.2485 17.7409 11.8494 18.0753 11.7668 18.535C11.6519 19.1744 11.5773 20.3462 12.2561 21.3513C12.0909 21.4359 11.9282 21.5356 11.7692 21.6519C11.1694 22.0909 10.6939 22.7288 10.3735 23.4944C9.22419 22.6301 8.28744 21.5149 7.63656 20.233C8.27131 18.9126 8.4375 17.8254 8.4375 17.0494C8.4375 16.0134 8.00425 14.9599 7.24894 14.159C7.13225 14.0353 7.00994 13.9196 6.88269 13.8122C7.16006 12.6566 7.65681 11.5656 8.34375 10.5954V13.32C8.34375 14.6124 9.39513 15.6637 10.6875 15.6637H21.3125C22.6049 15.6637 23.6562 14.6124 23.6562 13.32V10.5934C24.522 11.812 25.0783 13.2096 25.2856 14.7016C24.7801 15.3313 24.2589 16.081 23.8361 16.9102C23.7185 17.1407 23.8102 17.4231 24.0408 17.5407C24.2713 17.6583 24.5537 17.5667 24.6713 17.336C25.49 15.7304 26.7183 14.4343 27.3774 13.8048C27.4286 13.7559 27.5089 13.7559 27.5599 13.8046C30.7212 16.8242 31.0625 19.3491 31.0625 20.2944C31.0625 22.1382 29.4985 23.4742 27.9375 23.7027Z" fill="black"/>
</g>
<defs>
<clipPath id="clip0_352_2427">
<rect width="32" height="32" fill="white"/>
</clipPath>
</defs>
</svg>
