<svg width="37" height="36" viewBox="0 0 37 36" fill="none" xmlns="http://www.w3.org/2000/svg">
<path fill-rule="evenodd" clip-rule="evenodd" d="M35.8029 31.3904V27.2988C35.8029 27.1153 35.6509 26.9653 35.4675 26.9653H32.1592C32.3426 26.9653 32.4946 27.1152 32.4946 27.2988V31.3904C32.4946 31.5758 32.3426 31.7257 32.1592 31.7257H33.6447H35.4675C35.6509 31.7257 35.8029 31.5758 35.8029 31.3904Z" fill="#78C2A4"/>
<path fill-rule="evenodd" clip-rule="evenodd" d="M19.2007 24.298V16.8546L16.5591 16.5972L14.3398 18.936C14.3398 18.936 11.0075 20.3437 11.1772 20.4226C11.2994 20.4779 11.1772 24.2981 11.1772 24.2981H19.2007V24.298Z" fill="#EDF4FF"/>
<path fill-rule="evenodd" clip-rule="evenodd" d="M20.5078 15.5037C21.0148 14.6238 20.9517 14.2766 21.0148 13.0791V11.7987C21.0148 10.5716 20.0107 9.56738 18.7836 9.56738H12.9541C12.0209 9.56738 11.4548 10.0231 10.9951 10.7689L7.56445 16.3401C7.68673 16.3618 11.2363 19.5319 11.5953 19.6009C12.5027 19.7745 17.6571 17.5968 17.6571 17.5968L18.0162 17.4528C18.8999 17.0957 19.6418 16.6597 20.1862 15.9771C20.3026 15.8311 20.4092 15.6733 20.5078 15.5037Z" fill="#EDF4FF"/>
<path fill-rule="evenodd" clip-rule="evenodd" d="M16.7499 21.3842C16.5802 21.3053 16.4106 21.0311 15.9904 20.5162C15.5662 19.9993 14.8659 19.3423 14.3392 18.936C13.405 18.1577 13.405 18.1577 12.763 17.6004C12.0331 17.0736 11.1394 16.7817 10.2319 16.608C9.87285 16.539 9.51381 16.4897 9.15867 16.4502L7.56467 17.5964L8.39327 19.2714C8.9693 19.3877 9.42111 19.5594 9.70317 19.6896C12.3052 20.893 13.3942 22.7692 13.4396 23.4321C13.479 23.9904 12.8142 24.1344 10.6067 24.1344H6.79732L5.80762 25.6337L6.79732 26.9653H16.2686L19.2001 24.298L16.7499 21.3842Z" fill="#7E707D"/>
<path fill-rule="evenodd" clip-rule="evenodd" d="M28.8513 26.9658H21.3706H16.2691H6.79779H3.73013H1.54827C1.36482 26.9658 1.21484 27.1157 1.21484 27.2992V31.3909C1.21484 31.5763 1.36475 31.7262 1.54827 31.7262H3.37109H33.6452H35.468C35.6514 31.7262 35.8034 31.5763 35.8034 31.3909V27.2992C35.8034 27.1158 35.6514 26.9658 35.468 26.9658H28.8513Z" fill="#B3E59F"/>
<path fill-rule="evenodd" clip-rule="evenodd" d="M33.6452 31.7261H3.37109V33.2176C3.37109 34.0382 4.04185 34.709 4.86251 34.709H32.1537C32.9744 34.709 33.6452 34.0383 33.6452 33.2176V31.7261Z" fill="#F9F7F8"/>
<path fill-rule="evenodd" clip-rule="evenodd" d="M17.6573 17.5964L16.5585 15.4243L13.4712 16.7639C13.0983 16.9118 12.8438 17.2334 12.763 17.6003C12.7156 17.8213 12.7294 18.06 12.8202 18.2849C13.0589 18.8827 13.7434 19.1747 14.3392 18.936L17.6573 17.5964Z" fill="#FFEEE6"/>
<path fill-rule="evenodd" clip-rule="evenodd" d="M18.0154 17.4521C18.8992 17.095 19.641 16.659 20.1854 15.9764C20.3018 15.8304 20.4083 15.6726 20.507 15.5029C21.014 14.6231 20.9508 14.2759 21.014 13.0783V11.7979C21.014 10.6734 20.1716 9.73829 19.0865 9.58838C19.4831 9.99084 19.7277 10.5432 19.7277 11.1489V12.4292C19.6665 13.6267 19.7297 13.9759 19.2227 14.8558C19.124 15.0255 19.0156 15.1833 18.8991 15.3292C18.4474 15.8955 17.8575 16.294 17.1611 16.6175L17.6563 17.596L18.0154 17.4521Z" fill="#DBEAFF"/>
<path fill-rule="evenodd" clip-rule="evenodd" d="M17.6575 17.5967L17.1624 16.6182C17.0223 16.6832 16.8802 16.7444 16.7323 16.8036L16.3732 16.9496L16.3673 16.9398L13.8461 17.9577C13.4654 18.1096 13.0491 18.0465 12.7355 17.8256C12.7335 17.9794 12.7591 18.1353 12.8203 18.2852C13.059 18.883 13.7435 19.175 14.3393 18.9363L17.6575 17.5967Z" fill="#FFDFCF"/>
<path fill-rule="evenodd" clip-rule="evenodd" d="M6.40654 24.1341C5.83837 24.1341 5.46158 24.1322 5.22482 23.6331C4.90921 22.9643 4.12202 21.7747 3.35071 21.7154C2.75887 21.6701 2.83974 21.8851 2.91275 22.2974L3.72944 26.9651H6.7971V24.1341H6.40654Z" fill="#FFEEE6"/>
<path fill-rule="evenodd" clip-rule="evenodd" d="M8.39369 19.2716L9.15909 16.4505C8.80005 16.411 8.44693 16.3834 8.11155 16.3578C7.85113 16.34 7.68738 16.3617 7.5651 16.34C7.41909 16.3164 7.33036 16.2335 7.20209 15.9632C6.88446 15.2965 6.04209 13.9884 5.26876 13.9293C4.67692 13.8839 4.75981 14.1009 4.8308 14.5112L5.55082 18.6186C5.67707 19.3387 5.685 19.2421 6.48395 19.169C7.20606 19.102 7.8551 19.1631 8.39369 19.2716Z" fill="#FFEEE6"/>
<path fill-rule="evenodd" clip-rule="evenodd" d="M26.6642 21.9763C25.1057 20.6663 22.5036 20.1199 20.1876 20.3685C19.0788 20.4869 18.0372 20.7887 17.2067 21.274C16.9937 21.3983 16.8733 21.4397 16.751 21.3844V24.2983L21.3712 26.9656H28.8519C28.8303 24.9257 29.1735 24.399 26.6642 21.9763Z" fill="#F37C7C"/>
<path fill-rule="evenodd" clip-rule="evenodd" d="M15.8688 12.1636C16.8177 12.1636 17.595 11.3094 17.595 10.2638V9.56738H14.1406V10.2638C14.1407 11.3093 14.9179 12.1636 15.8688 12.1636Z" fill="#FFDFCF"/>
<path fill-rule="evenodd" clip-rule="evenodd" d="M17.0012 9.56698C18.325 8.95148 19.3685 7.48763 19.3685 6.30786V5.23659C18.1362 3.2638 13.6126 2.50334 12.3672 5.23659V6.30786C12.3672 7.48763 13.4108 8.95141 14.7365 9.56893C15.082 9.72524 15.4525 9.84417 15.8347 9.85072C16.2407 9.85768 16.6355 9.73317 17.0012 9.56698Z" fill="#FFEEE6"/>
<path fill-rule="evenodd" clip-rule="evenodd" d="M19.3685 5.23717C19.3685 2.63698 17.6187 1.31913 15.8688 1.2915C14.119 1.31913 12.3672 2.63698 12.3672 5.23717C13.7856 5.13855 13.9612 4.10674 14.9377 4.35923C15.2573 4.44212 19.1595 5.22339 19.3685 5.23717Z" fill="#E29D7B"/>
<path fill-rule="evenodd" clip-rule="evenodd" d="M15.8688 9.85147C15.5887 9.85147 15.3086 9.79231 14.9909 9.67588C14.9061 9.64429 14.8193 9.60684 14.7364 9.56738H14.1406V10.0902C14.1406 10.5498 15.4308 10.9168 15.9181 10.9148C16.7624 10.9148 17.595 10.538 17.595 10.0902V9.56738H17.0012C17.0012 9.56933 17.0012 9.56933 17.0012 9.56738C16.9795 9.57921 16.9577 9.58708 16.938 9.59696C16.7802 9.66802 16.6126 9.72912 16.4469 9.7706C16.2516 9.82182 16.068 9.85147 15.8688 9.85147Z" fill="#FFCEBF"/>
<path fill-rule="evenodd" clip-rule="evenodd" d="M19.3693 5.23717C19.3693 2.63698 17.6195 1.31913 15.8696 1.2915C15.554 1.29547 15.2403 1.3428 14.9346 1.4316C16.2445 1.81235 17.367 2.96254 17.4893 4.88203C18.4244 5.0675 19.2747 5.23125 19.3693 5.23717Z" fill="#CE8B6B"/>
<path fill-rule="evenodd" clip-rule="evenodd" d="M17.0026 9.56736C18.3264 8.95187 19.37 7.48801 19.37 6.30825V5.23698C19.2753 5.23106 18.425 5.06731 17.4899 4.88184V5.95311C17.4899 7.20783 16.3103 8.78407 14.8662 9.32072C14.732 9.37006 14.6057 9.40952 14.4814 9.43715C14.5663 9.48447 14.6511 9.5279 14.7379 9.56931C14.8208 9.60682 14.9076 9.64426 14.9924 9.67586C15.31 9.79222 15.5902 9.85145 15.8703 9.85145C16.1721 9.85145 16.4641 9.78046 16.7462 9.67586C16.835 9.64232 16.9179 9.60682 17.0026 9.56736Z" fill="#FFDFCF"/>
<path fill-rule="evenodd" clip-rule="evenodd" d="M8.39337 19.2712L8.77412 17.8666C8.14679 17.6693 7.25709 17.4977 6.20754 17.5944C5.40859 17.6674 5.40066 17.764 5.27441 17.0439L5.55064 18.6182C5.67688 19.3383 5.68481 19.2417 6.48376 19.1687C7.20573 19.1016 7.85477 19.1628 8.39337 19.2712Z" fill="#FFDFCF"/>
<path fill-rule="evenodd" clip-rule="evenodd" d="M21.3696 26.9656V24.2983H16.7494H16.3825C15.6486 24.2983 15.0469 24.9001 15.0469 25.6339C15.0469 26.3304 15.5855 26.9064 16.2681 26.9656H21.3696V26.9656Z" fill="#FFEEE6"/>
<path fill-rule="evenodd" clip-rule="evenodd" d="M31.9752 23.6377C32.1125 22.8413 31.9752 21.7079 31.3582 20.2618C30.7802 19.9758 30.1193 19.8475 29.4348 19.9205C28.188 20.0527 27.1759 20.9227 26.663 21.9762C26.59 22.1281 26.5269 22.282 26.4736 22.4378C26.3276 22.8817 26.2685 23.3433 26.3158 23.7852C26.4736 25.2668 27.4009 26.5255 28.8508 26.9654L29.6057 26.7246C30.6941 26.3775 31.5234 25.4886 31.7942 24.3787L31.9752 23.6377Z" fill="#FFEEE6"/>
<path fill-rule="evenodd" clip-rule="evenodd" d="M33.9581 24.4084C34.2145 23.3293 33.6207 22.2837 34.0074 20.5594C34.2974 19.2653 33.3328 19.2258 32.23 19.6263C31.8749 19.7565 31.579 19.9735 31.358 20.2616C30.7898 20.9955 30.7011 22.191 31.3304 23.5581C32.1668 25.3692 28.8506 26.9652 28.8506 26.9652C31.7091 26.9653 33.4491 26.549 33.9581 24.4084Z" fill="#7E707D"/>
<path fill-rule="evenodd" clip-rule="evenodd" d="M31.3302 23.5586C30.7009 22.1914 30.7897 20.9959 31.3579 20.262C30.8804 20.0273 30.3478 19.8971 29.7895 19.901C29.4128 20.7355 29.4187 21.931 29.9651 23.2705C30.551 24.7068 29.0951 26.0226 28.1738 26.6816C28.3849 26.796 28.6098 26.8926 28.8505 26.9657C28.8505 26.9657 32.1667 25.3696 31.3302 23.5586Z" fill="#FFDFCF"/>
<path fill-rule="evenodd" clip-rule="evenodd" d="M33.9577 24.4092C34.2141 23.3301 33.6203 22.2845 34.007 20.5602C34.2102 19.6586 33.8018 19.3667 33.1646 19.4081C31.8311 21.2468 33.0206 23.0184 32.5886 24.6005C32.2671 25.9578 31.4484 26.6227 30.1641 26.9265C32.2453 26.7825 33.5315 26.1986 33.9577 24.4092Z" fill="#6A5D6A"/>
<path fill-rule="evenodd" clip-rule="evenodd" d="M14.3355 22.2804C13.2012 18.7846 8.76442 17.8632 8.77431 17.8672L8.39355 19.2718C8.96959 19.3882 9.4214 19.5599 9.70346 19.6901C12.3055 20.8935 13.3945 22.7697 13.4399 23.4325C13.4596 23.7245 13.2879 23.9021 12.8066 24.0066C12.8066 24.0066 13.3906 24.2137 13.8896 23.7107L13.8857 23.7147C14.3276 23.326 14.4835 22.7361 14.3355 22.2804ZM13.4912 23.9672C13.5129 23.9573 13.5346 23.9455 13.5563 23.9356C13.5346 23.9455 13.5129 23.9573 13.4912 23.9672ZM13.5603 23.9336C13.5701 23.9277 13.58 23.9237 13.5898 23.9178C13.58 23.9237 13.5701 23.9277 13.5603 23.9336ZM13.5918 23.9178C13.6017 23.9119 13.6115 23.906 13.6234 23.9001C13.6115 23.906 13.6017 23.9119 13.5918 23.9178ZM13.6234 23.8981C13.6333 23.8942 13.6431 23.8882 13.653 23.8823C13.6431 23.8882 13.6332 23.8942 13.6234 23.8981ZM13.7161 23.8429C13.726 23.837 13.7358 23.831 13.7437 23.8232C13.7358 23.831 13.726 23.837 13.7161 23.8429ZM13.7752 23.8015C13.7851 23.7955 13.793 23.7896 13.8029 23.7818C13.7931 23.7896 13.7851 23.7955 13.7752 23.8015ZM13.8029 23.7817C13.8226 23.7679 13.8404 23.7521 13.8581 23.7383C13.8404 23.7521 13.8226 23.7679 13.8029 23.7817ZM13.8838 23.7166C13.8739 23.7225 13.8661 23.7304 13.8581 23.7383L13.8838 23.7166ZM13.7161 23.8429C13.7062 23.8488 13.6964 23.8567 13.6865 23.8626L13.7161 23.8429Z" fill="#6A5D6A"/>
<path fill-rule="evenodd" clip-rule="evenodd" d="M28.1749 26.6818C27.1155 26.1018 26.4487 25.0226 26.3165 23.7857C26.2692 23.3437 26.3284 22.8821 26.4744 22.4382C26.5276 22.2824 26.5908 22.1285 26.6638 21.9766C26.2495 21.6275 25.7602 21.3335 25.2236 21.0928C25.1151 21.3216 25.0224 21.5544 24.9435 21.7912C24.6989 22.525 24.6022 23.2865 24.6792 24.0165C24.7956 25.0996 25.1606 26.1117 25.7405 26.9659H28.8516C28.6108 26.8929 28.3859 26.7962 28.1749 26.6818Z" fill="#EE6161"/>
<path fill-rule="evenodd" clip-rule="evenodd" d="M33.6456 33.2171V31.7256H32.1601H28.3586V33.2171C28.3586 34.0377 27.6859 34.7085 26.8672 34.7085H32.1542C32.9749 34.7085 33.6456 34.0378 33.6456 33.2171Z" fill="#F0F0F0"/>
<path fill-rule="evenodd" clip-rule="evenodd" d="M35.9382 31.4521V27.237C35.9382 27.048 35.7817 26.8936 35.5928 26.8936H32.1846C32.3736 26.8936 32.53 27.048 32.53 27.237V31.4521C32.53 31.6432 32.3735 31.7977 32.1846 31.7977H33.7149H35.5928C35.7817 31.7977 35.9382 31.6432 35.9382 31.4521Z" fill="#95D6A4"/>
<path d="M35.4675 26.4433H33.3537C33.8698 26.0083 34.2603 25.3948 34.4661 24.5292C34.6019 23.9579 34.5401 23.4246 34.4748 22.8598C34.3998 22.2118 34.3223 21.5418 34.517 20.6737C34.6666 20.0061 34.5577 19.505 34.1933 19.1844C33.7522 18.7964 33.0317 18.78 32.0518 19.1359C31.7412 19.2488 31.4633 19.4193 31.2269 19.6366C30.6411 19.4156 30.0099 19.3343 29.3794 19.4013C28.2365 19.5232 27.1788 20.2089 26.505 21.2061C25.8187 20.7444 24.9784 20.3768 24.039 20.1314C23.7598 20.0584 23.4749 20.2256 23.4021 20.5045C23.3292 20.7834 23.4962 21.0686 23.7752 21.1414C24.6513 21.3703 25.4202 21.7136 26.0244 22.1426C26.0082 22.1863 25.9926 22.2302 25.9778 22.2746C25.8057 22.7979 25.7431 23.3394 25.7968 23.8403C25.9065 24.8696 26.3371 25.7739 26.9996 26.4432H21.8921V24.8199H23.2797C23.568 24.8199 23.8017 24.5863 23.8017 24.298C23.8017 24.0096 23.568 23.776 23.2797 23.776H17.2718V21.8254C17.3345 21.7978 17.4 21.7647 17.469 21.7244C18.4809 21.1329 19.9327 20.8082 21.4523 20.8329C21.4552 20.8329 21.4581 20.8329 21.461 20.8329C21.7453 20.8329 21.978 20.6049 21.9828 20.3195C21.9875 20.0313 21.7576 19.7937 21.4694 19.7891C20.8676 19.7795 20.2815 19.8186 19.722 19.9015V17.1272C20.1846 16.789 20.6215 16.3513 20.9603 15.7638C21.4593 14.8978 21.4792 14.4235 21.5153 13.5626C21.5211 13.4248 21.5274 13.2739 21.5362 13.106C21.5365 13.1014 21.5362 13.0968 21.5362 13.0921C21.5364 13.0876 21.5369 13.0831 21.5369 13.0786V11.7982C21.5369 10.2801 20.3018 9.04492 18.7838 9.04492H18.6013C19.3745 8.25446 19.8916 7.2294 19.8916 6.30783V5.2367C19.8916 3.89116 19.4608 2.74786 18.6456 1.93054C17.9153 1.19827 16.9325 0.78578 15.8783 0.769147C15.8728 0.769008 15.8673 0.769008 15.8618 0.769147C14.8075 0.78578 13.8244 1.19827 13.0936 1.93047C12.2777 2.74793 11.8464 3.89123 11.8464 5.23677V6.3079C11.8464 7.22913 12.3637 8.25419 13.1376 9.04499H12.9543C11.601 9.04499 10.9345 9.87226 10.5508 10.4947L7.51161 15.4303C7.16788 14.8131 6.31576 13.4855 5.30817 13.4084C5.02771 13.3871 4.67605 13.3957 4.44158 13.6554C4.19487 13.9289 4.25681 14.2711 4.30198 14.521L5.03634 18.7085C5.10148 19.0798 5.15284 19.373 5.39802 19.5722C5.65482 19.7809 5.95025 19.7494 6.29252 19.7127C6.36274 19.7052 6.4418 19.6967 6.53144 19.6885C7.98005 19.555 9.07895 19.9762 9.48399 20.1633C9.9225 20.3661 10.3108 20.5867 10.6546 20.8145V23.6121C10.6384 23.6121 10.623 23.6122 10.6067 23.6122H6.40665C5.79276 23.6122 5.7762 23.5773 5.697 23.4104C5.59483 23.1939 4.66213 21.2926 3.39077 21.1952C3.10954 21.1734 2.75677 21.1822 2.52237 21.4428C2.27552 21.7172 2.33635 22.0476 2.3852 22.313L3.10836 26.4434H1.54777C1.07613 26.4433 0.692383 26.827 0.692383 27.2987V31.3903C0.692383 31.863 1.07613 32.2476 1.54777 32.2476H2.84863V33.2171C2.84863 34.3273 3.75183 35.2306 4.862 35.2306H32.1532C33.2634 35.2306 34.1666 34.3273 34.1666 33.2171V32.2476H35.4675C35.9402 32.2476 36.3248 31.863 36.3248 31.3903V27.2987C36.3248 26.827 35.9402 26.4433 35.4675 26.4433ZM31.8048 23.3401C31.3849 22.4275 31.3011 21.572 31.5685 20.931C31.7323 20.5387 32.0227 20.2572 32.4083 20.1171C32.8233 19.9664 33.1035 19.9242 33.2777 19.9242C33.4101 19.9242 33.4813 19.9487 33.5038 19.9683C33.5217 19.9841 33.5732 20.1112 33.4983 20.4455V20.4454C33.2649 21.4862 33.3608 22.3144 33.4377 22.9799C33.4946 23.4713 33.5437 23.8955 33.4505 24.2878C33.1543 25.5333 32.4328 26.1335 30.732 26.3477C30.7364 26.3438 30.741 26.34 30.7454 26.3361C32.1891 25.0899 32.1182 24.0186 31.8048 23.3401ZM26.8348 23.7295C26.7968 23.3745 26.8433 22.9842 26.9689 22.6025C27.2941 21.625 28.1999 20.577 29.4901 20.4394C29.8673 20.3991 30.2445 20.432 30.6041 20.5316C30.2241 21.4447 30.3136 22.5968 30.8567 23.7771C31.3676 24.8833 29.4232 26.0599 28.8065 26.3987C27.7164 25.9851 26.9681 24.981 26.8348 23.7295ZM20.8482 24.82V26.4433H16.3052C15.8929 26.404 15.5693 26.0559 15.5693 25.6336C15.5693 25.1849 15.9343 24.82 16.3829 24.82H20.8482ZM18.6781 20.1162C18.0383 20.2883 17.4517 20.5252 16.9421 20.823C16.9321 20.8289 16.9228 20.8342 16.9141 20.8392C16.856 20.7706 16.7808 20.674 16.7112 20.585C16.6263 20.4761 16.5207 20.3405 16.3938 20.185C16.1233 19.8554 15.7364 19.4593 15.3372 19.096L18.2121 17.9362C18.3621 17.8755 18.5186 17.8083 18.6781 17.7341V20.1162H18.6781ZM14.145 18.4515C13.9859 18.5151 13.8104 18.5124 13.6508 18.4442C13.4912 18.3758 13.3683 18.2505 13.3043 18.0901C13.2403 17.931 13.2426 17.7554 13.3108 17.5958C13.3792 17.4357 13.505 17.3124 13.6647 17.2486C13.6694 17.2468 13.674 17.2448 13.6787 17.2428L16.3155 16.1003L16.9355 17.3257L14.145 18.4515ZM15.87 1.813C17.1687 1.83715 18.554 2.72399 18.8069 4.60666C17.6666 4.38925 15.3403 3.92359 15.0699 3.85351C15.0697 3.85344 15.0696 3.85344 15.0695 3.85337C14.918 3.81426 14.778 3.79721 14.6478 3.79721C14.1542 3.79721 13.803 4.04149 13.5088 4.24616C13.3283 4.37178 13.1534 4.49336 12.9344 4.5823C13.1962 2.7164 14.5761 1.83708 15.87 1.813ZM12.8903 6.3079V5.6858C13.4495 5.55795 13.8193 5.30177 14.1049 5.10308C14.4473 4.86493 14.5573 4.79909 14.8082 4.86402C14.9955 4.91246 17.7026 5.46623 18.8477 5.67696V6.3079C18.8477 7.20505 17.9913 8.51983 16.8111 9.0816C16.7946 9.08814 16.7785 9.09538 16.7629 9.10345C16.6982 9.13289 16.6328 9.16065 16.5663 9.18536C16.2951 9.28474 16.0803 9.329 15.87 9.329C15.6612 9.329 15.4393 9.28335 15.1741 9.1862C15.1106 9.1626 15.0476 9.13581 14.9849 9.10721C14.9682 9.09823 14.9508 9.09029 14.9331 9.08313C13.8365 8.55678 12.8903 7.29768 12.8903 6.3079ZM17.0743 10.1068V10.2634C17.0743 11.0231 16.5341 11.6413 15.8701 11.6413C15.2049 11.6413 14.6638 11.0231 14.6638 10.2634V10.1066C14.7132 10.1273 14.7627 10.147 14.8126 10.1656C15.1989 10.3071 15.5349 10.373 15.8701 10.373C16.2038 10.373 16.5393 10.3071 16.9278 10.1648C16.9768 10.1465 17.0257 10.1271 17.0743 10.1068ZM11.4396 11.0424C11.857 10.3652 12.2959 10.089 12.9543 10.089H13.6199V10.2635C13.6199 11.5988 14.6293 12.6853 15.87 12.6853C17.1096 12.6853 18.1181 11.5989 18.1181 10.2635V10.089H18.7837C19.7262 10.089 20.4929 10.8558 20.4929 11.7984V13.0655C20.4843 13.2315 20.478 13.3817 20.4722 13.5189C20.4374 14.3482 20.4269 14.5985 20.0558 15.2426C19.6335 15.9747 18.9869 16.4833 17.9065 16.9327L17.2702 15.675C17.5133 15.5478 17.6863 15.4134 17.9305 15.1572C17.9565 15.1301 17.9793 15.1002 17.9988 15.0681L18.6281 14.0323C18.7778 13.786 18.6994 13.4649 18.4531 13.3152C18.2068 13.1654 17.8857 13.2439 17.736 13.4903L17.1367 14.4766C16.9375 14.681 16.8467 14.7314 16.5462 14.8626L13.2699 16.2823C12.9762 16.4011 12.7286 16.5973 12.5452 16.8476C12.0792 16.5907 11.5766 16.4024 11.0577 16.2617L12.1205 14.5339C12.2715 14.2884 12.1949 13.9669 11.9494 13.8158C11.7038 13.6649 11.3824 13.7415 11.2314 13.987L9.97317 16.0324C9.46889 15.9516 8.96279 15.9003 8.47229 15.8613L11.4396 11.0424ZM8.01283 18.6801C7.5439 18.6184 7.01289 18.5958 6.43609 18.649C6.34082 18.6577 6.12215 18.6811 6.09285 18.684C6.08214 18.6281 5.35543 14.483 5.35543 14.483C5.76778 14.6584 6.38891 15.4704 6.72978 16.1859C6.9236 16.5961 7.12953 16.7699 7.40534 16.8358C7.7302 16.8776 7.96676 16.8707 8.07386 16.8781C8.21194 16.888 8.3521 16.8989 8.49296 16.9106L8.01283 18.6801ZM11.6985 21.6447C12.5175 22.4291 12.8705 23.1586 12.9147 23.4333C12.7572 23.5138 12.3493 23.5674 11.6985 23.5935V21.6447ZM7.31925 24.6562H10.6067C12.6328 24.6562 13.3301 24.5366 13.7155 24.1231C13.841 23.9883 13.9854 23.7526 13.9603 23.3964C13.8944 22.4331 12.5654 20.4382 9.92209 19.2157C9.73864 19.131 9.43555 19.0059 9.03705 18.8921L9.54377 17.0244C10.4999 17.158 11.4453 17.3914 12.2139 17.8625C12.2153 18.0713 12.2555 18.2798 12.3355 18.4785C12.5025 18.8969 12.8236 19.2254 13.2397 19.4037C13.4545 19.4957 13.6808 19.5419 13.9072 19.5419C14.0131 19.5419 14.119 19.5317 14.2237 19.5115C14.712 19.9137 15.2582 20.4467 15.586 20.8461C15.7046 20.9916 15.8021 21.1166 15.8881 21.2269C16.0019 21.3729 16.1115 21.5129 16.228 21.6292V23.7831C15.2761 23.8622 14.5255 24.6617 14.5255 25.6336C14.5255 25.9238 14.5924 26.1985 14.7116 26.4434H7.31925V24.6562ZM4.75337 23.8568C5.10496 24.5981 5.71259 24.6519 6.27533 24.6558V26.4433H4.16815L3.4374 22.2671C3.85274 22.43 4.43706 23.1867 4.75337 23.8568ZM35.2809 31.2038H19.7544C19.4661 31.2038 19.2325 31.4374 19.2325 31.7257C19.2325 32.0141 19.4661 32.2477 19.7544 32.2477H33.1227V33.2172C33.1227 33.7518 32.6878 34.1867 32.1532 34.1867H4.862C4.32745 34.1867 3.89255 33.7518 3.89255 33.2172V32.2477H17.4581C17.7463 32.2477 17.98 32.0141 17.98 31.7257C17.98 31.4374 17.7463 31.2038 17.4581 31.2038H1.7363V27.4873H3.72747C3.72796 27.4873 3.72852 27.4873 3.729 27.4873C3.72935 27.4873 19.6229 27.4873 28.8494 27.4873C28.8499 27.4873 28.8505 27.4874 28.851 27.4874C28.8515 27.4874 35.2809 27.4873 35.2809 27.4873V31.2038Z" fill="black"/>
</svg>
