<svg width="37" height="36" viewBox="0 0 37 36" fill="none" xmlns="http://www.w3.org/2000/svg">
<path d="M10.7532 29.3122L10.7442 28.0182C10.7423 27.7522 10.9564 27.535 11.2224 27.5331L16.4194 27.4966C16.6854 27.4948 16.9027 27.7088 16.9045 27.9749L16.9135 29.2688L10.7532 29.3122Z" fill="#EDF4FC"/>
<path d="M1.57314 15.7029C2.01362 15.4783 2.55389 15.6182 2.82869 16.0293C4.28412 18.2059 5.61641 19.3617 5.61641 19.3617C5.703 19.1496 5.95625 18.9699 6.45164 18.8507C7.21014 18.6684 7.97198 19.0167 8.43025 19.648C8.79887 20.1559 9.4345 20.0492 10.1908 20.0799C10.9187 20.1103 11.6204 20.3604 12.2036 20.7971L12.5355 21.0458C13.5211 21.7841 14.3454 22.7207 14.9263 23.8067C15.4475 24.7814 15.943 26.0572 16.0541 27.4997L11.4219 27.5322C11.3485 27.0413 11.1859 26.5981 11.0164 26.2456C10.7761 25.7459 10.3857 25.3348 9.90473 25.0587C9.3247 24.7258 8.59733 24.536 7.88817 24.4306C6.34308 24.2011 4.98634 23.2808 4.16945 21.9495L1.18408 17.0849C0.885936 16.599 1.06524 15.962 1.57314 15.7029Z" fill="#F9D0B4"/>
<path d="M17.1591 29.2671L10.5077 29.3139C10.239 29.3159 10.0226 29.5352 10.0244 29.8039V33.3544H17.6492V29.7504C17.6474 29.4816 17.4279 29.2653 17.1591 29.2671Z" fill="#70D6F9"/>
<path d="M26.4589 29.3139L19.8075 29.2671C19.5387 29.2652 19.3192 29.4816 19.3174 29.7504V33.3544H26.9422V29.8039C26.944 29.5352 26.7276 29.3159 26.4589 29.3139Z" fill="#70D6F9"/>
<path d="M26.2131 29.3122L26.2221 28.0182C26.2239 27.7522 26.0098 27.535 25.7438 27.5331L20.5469 27.4966C20.2808 27.4948 20.0636 27.7088 20.0618 27.9749L20.0527 29.2688L26.2131 29.3122Z" fill="#EDF4FC"/>
<path d="M35.394 15.7024C34.9535 15.4778 34.4133 15.6178 34.1385 16.0288C32.683 18.2055 31.3508 19.3612 31.3508 19.3612C31.2642 19.1491 31.0109 18.9694 30.5155 18.8503C29.757 18.6679 28.9952 19.0162 28.5369 19.6475C28.1683 20.1554 27.5327 20.0487 26.7764 20.0794C26.0485 20.1098 25.3468 20.3599 24.7636 20.7966L24.4316 21.0453C23.446 21.7836 22.6218 22.7202 22.0409 23.8062C21.5197 24.781 21.0241 26.0567 20.9131 27.4992L25.5453 27.5317C25.6187 27.0408 25.7813 26.5976 25.9507 26.2451C26.1911 25.7455 26.5815 25.3343 27.0624 25.0583C27.6425 24.7254 28.3698 24.5355 29.079 24.4301C30.6241 24.2006 31.9808 23.2804 32.7977 21.949L35.7829 17.0843C36.0812 16.5985 35.9019 15.9615 35.394 15.7024Z" fill="#F9D0B4"/>
<path d="M21.5967 2.9067H21.0913C20.8095 2.9067 20.581 2.67832 20.581 2.39644V1.71313C20.581 1.38371 20.314 1.1167 19.9846 1.1167H16.9803C16.6509 1.1167 16.3839 1.38371 16.3839 1.71313V2.39644C16.3839 2.67819 16.1555 2.9067 15.8736 2.9067H15.3682C14.9289 2.9067 14.5458 3.24529 14.5326 3.68438C14.519 4.13876 14.8833 4.51141 15.3346 4.51141H15.8736C16.1554 4.51141 16.3839 4.73978 16.3839 5.02167V5.70497C16.3839 6.03439 16.6509 6.30141 16.9803 6.30141H19.9846C20.314 6.30141 20.581 6.03439 20.581 5.70497V5.02167C20.581 4.73992 20.8094 4.51141 21.0913 4.51141H21.6303C22.0816 4.51141 22.446 4.13876 22.4323 3.68438C22.4191 3.24529 22.0359 2.9067 21.5967 2.9067Z" fill="#FCE4BE"/>
<path d="M21.5967 8.09127H21.0913C20.8095 8.09127 20.581 7.8629 20.581 7.58101V6.8977C20.581 6.56828 20.314 6.30127 19.9846 6.30127H16.9803C16.6509 6.30127 16.3839 6.56828 16.3839 6.8977V7.58101C16.3839 7.86276 16.1555 8.09127 15.8736 8.09127H15.3682C14.9289 8.09127 14.5458 8.42986 14.5326 8.86895C14.519 9.32333 14.8833 9.69598 15.3346 9.69598H15.8736C16.1554 9.69598 16.3839 9.92435 16.3839 10.2062V10.8895C16.3839 11.219 16.6509 11.486 16.9803 11.486H19.9846C20.314 11.486 20.581 11.219 20.581 10.8895V10.2062C20.581 9.92449 20.8094 9.69598 21.0913 9.69598H21.6303C22.0816 9.69598 22.446 9.32333 22.4323 8.86895C22.4191 8.42986 22.0359 8.09127 21.5967 8.09127Z" fill="#FCE4BE"/>
<path d="M21.5967 13.2758H21.0913C20.8095 13.2758 20.581 13.0475 20.581 12.7656V12.0823C20.581 11.7529 20.314 11.4858 19.9846 11.4858H16.9803C16.6509 11.4858 16.3839 11.7529 16.3839 12.0823V12.7656C16.3839 13.0473 16.1555 13.2758 15.8736 13.2758H15.3682C14.9289 13.2758 14.5458 13.6144 14.5326 14.0535C14.519 14.5079 14.8833 14.8806 15.3346 14.8806H15.8736C16.1554 14.8806 16.3839 15.1089 16.3839 15.3908V16.0741C16.3839 16.4035 16.6509 16.6705 16.9803 16.6705H19.9846C20.314 16.6705 20.581 16.4035 20.581 16.0741V15.3908C20.581 15.1091 20.8094 14.8806 21.0913 14.8806H21.6303C22.0816 14.8806 22.446 14.5079 22.4323 14.0535C22.4191 13.6143 22.0359 13.2758 21.5967 13.2758Z" fill="#FCE4BE"/>
<path d="M21.5967 18.4609H21.0913C20.8095 18.4609 20.581 18.2325 20.581 17.9506V17.2673C20.581 16.9379 20.314 16.6709 19.9846 16.6709H16.9803C16.6509 16.6709 16.3839 16.9379 16.3839 17.2673V17.9506C16.3839 18.2324 16.1555 18.4609 15.8736 18.4609H15.3682C14.9289 18.4609 14.5458 18.7995 14.5326 19.2386C14.519 19.693 14.8833 20.0656 15.3346 20.0656H15.8736C16.1554 20.0656 16.3839 20.294 16.3839 20.5759V21.2592C16.3839 21.5886 16.6509 21.8556 16.9803 21.8556H19.9846C20.314 21.8556 20.581 21.5886 20.581 21.2592V20.5759C20.581 20.2941 20.8094 20.0656 21.0913 20.0656H21.6303C22.0816 20.0656 22.446 19.693 22.4323 19.2386C22.4191 18.7995 22.0359 18.4609 21.5967 18.4609Z" fill="#FCE4BE"/>
<path d="M7.75907 22.0241C7.70041 22.0241 7.64092 22.0093 7.58643 21.978C6.9376 21.6055 4.85446 20.3067 5.29368 19.23C5.36624 19.0524 5.5689 18.967 5.74667 19.0395C5.92431 19.112 6.00966 19.3148 5.93724 19.4924C5.82243 19.7739 6.65126 20.6387 7.93253 21.375C8.09891 21.4706 8.15632 21.683 8.06069 21.8494C7.99647 21.9614 7.87944 22.0241 7.75907 22.0241Z" fill="black"/>
<path d="M17.6492 33.7015C17.4572 33.7015 17.3017 33.5459 17.3017 33.354V29.7499C17.3014 29.7023 17.2756 29.6693 17.2603 29.6543C17.245 29.6393 17.2122 29.6143 17.1626 29.6143C17.1622 29.6143 17.1619 29.6143 17.1615 29.6143L10.5101 29.661C10.4333 29.6615 10.3712 29.7244 10.3718 29.8011V33.3541C10.3718 33.5461 10.2162 33.7016 10.0243 33.7016C9.83231 33.7016 9.67678 33.5461 9.67678 33.3541V29.8036C9.67372 29.3462 10.0453 28.9695 10.5051 28.9661L17.1565 28.9194C17.3819 28.92 17.5893 29.0032 17.748 29.1596C17.9068 29.316 17.995 29.5249 17.9966 29.7477V33.3541C17.9967 33.5459 17.8412 33.7015 17.6492 33.7015Z" fill="black"/>
<path d="M10.7532 29.5191C10.5623 29.5191 10.4071 29.3652 10.4057 29.1741L10.3975 28.0206C10.3944 27.5633 10.7637 27.1888 11.2208 27.1855L16.4178 27.1489C16.8717 27.1456 17.2497 27.5152 17.2529 27.9724L17.261 29.1114C17.2624 29.3034 17.1078 29.46 16.916 29.4614C16.9152 29.4614 16.9143 29.4614 16.9135 29.4614C16.7227 29.4614 16.5674 29.3074 16.566 29.1164L16.5579 27.9774C16.5575 27.9033 16.5004 27.8464 16.4227 27.8441L11.2258 27.8806C11.1518 27.8812 11.0919 27.9418 11.0925 28.0159L11.1007 29.1694C11.1021 29.3612 10.9475 29.518 10.7557 29.5194C10.755 29.5191 10.754 29.5191 10.7532 29.5191Z" fill="black"/>
<path d="M11.4024 27.7647C11.2374 27.7647 11.0911 27.6467 11.0608 27.4786C10.9962 27.1192 10.8758 26.7546 10.703 26.3953C10.4951 25.963 10.1591 25.6047 9.73156 25.3591C9.25675 25.0868 8.61945 24.8897 7.83704 24.7733C6.19938 24.5301 4.75465 23.5669 3.87313 22.1303L0.887763 17.2659C0.695114 16.9519 0.641878 16.5684 0.741678 16.2138C0.841477 15.8592 1.08695 15.5598 1.41512 15.3925C2.01294 15.0874 2.74462 15.2777 3.11741 15.8352C4.15307 17.384 5.13286 18.4133 5.58418 18.8542C5.77057 18.7066 6.03133 18.5934 6.3702 18.512C7.23184 18.3051 8.15047 18.6704 8.71118 19.4428C8.90119 19.7046 9.21366 19.7192 9.79536 19.7237C9.92713 19.7249 10.0639 19.726 10.2047 19.7317C11.0067 19.7652 11.7697 20.037 12.4117 20.518L12.7436 20.7668C13.7818 21.5445 14.6424 22.5386 15.2325 23.6418C15.8863 24.8645 16.2757 26.111 16.3896 27.3466C16.4073 27.5377 16.2666 27.7069 16.0755 27.7245C15.8845 27.743 15.7152 27.6015 15.6976 27.4104C15.5921 26.2677 15.2294 25.11 14.6195 23.9695C14.077 22.9554 13.2843 22.0401 12.3268 21.3229L11.9948 21.0741C11.4655 20.6777 10.8366 20.4536 10.1759 20.426C10.0433 20.4205 9.9142 20.4196 9.78966 20.4186C9.18197 20.4139 8.55356 20.4089 8.14867 19.8511C7.75364 19.3069 7.1194 19.0467 6.53255 19.1876C6.04857 19.304 5.95502 19.4499 5.93793 19.4919C5.89553 19.5956 5.80588 19.6726 5.69691 19.6986C5.58779 19.7244 5.47312 19.6965 5.38847 19.6231C5.3326 19.5746 4.00407 18.4115 2.5396 16.2213C2.36266 15.9567 2.01503 15.8663 1.73078 16.0114C1.57232 16.0922 1.45862 16.2309 1.41053 16.402C1.36244 16.5731 1.38704 16.7507 1.48003 16.9023L4.46526 21.767C5.23891 23.0278 6.50503 23.8731 7.93892 24.0861C8.80765 24.2151 9.52696 24.4407 10.0772 24.7565C10.6273 25.0722 11.0601 25.5348 11.3292 26.0942C11.5292 26.5101 11.6689 26.9345 11.7446 27.3558C11.7787 27.5447 11.653 27.7254 11.4642 27.7593C11.4436 27.7629 11.4229 27.7647 11.4024 27.7647Z" fill="black"/>
<path d="M29.2063 22.0239C29.0859 22.0239 28.9688 21.9612 28.9046 21.8495C28.809 21.6831 28.8665 21.4707 29.0328 21.3751C30.3141 20.6388 31.1429 19.7739 31.0281 19.4925C30.9557 19.3149 31.0409 19.1121 31.2186 19.0395C31.3961 18.967 31.5991 19.0523 31.6716 19.2301C32.1109 20.3066 30.0277 21.6055 29.3789 21.9781C29.3244 22.0091 29.2649 22.0239 29.2063 22.0239Z" fill="black"/>
<path d="M26.942 33.7016C26.7501 33.7016 26.5945 33.5461 26.5945 33.3542V29.8036C26.5951 29.7245 26.5331 29.6617 26.4562 29.6612L19.8048 29.6145C19.7606 29.6178 19.7214 29.6393 19.7061 29.6545C19.6908 29.6696 19.6651 29.7024 19.6647 29.7526V33.3543C19.6647 33.5462 19.5092 33.7018 19.3172 33.7018C19.1253 33.7018 18.9697 33.5462 18.9697 33.3543V29.7503C18.9713 29.5251 19.0595 29.3162 19.2183 29.1597C19.377 29.0031 19.5834 28.9174 19.8098 28.9195L26.4612 28.9662C26.9212 28.9694 27.2927 29.3462 27.2895 29.806V33.3542C27.2895 33.5461 27.1338 33.7016 26.942 33.7016Z" fill="black"/>
<path d="M26.2129 29.5021C26.2121 29.5021 26.2112 29.5021 26.2104 29.5021C26.0185 29.5007 25.864 29.344 25.8654 29.1521L25.8735 28.0159C25.874 27.942 25.8141 27.8812 25.7402 27.8807L20.5432 27.8441C20.543 27.8441 20.5427 27.8441 20.5423 27.8441C20.4687 27.8441 20.4085 27.9038 20.408 27.9773L20.4001 29.105C20.3987 29.2961 20.2434 29.4499 20.0526 29.4499C20.0517 29.4499 20.0509 29.4499 20.0501 29.4499C19.8581 29.4486 19.7037 29.2919 19.7051 29.1L19.713 27.9724C19.7161 27.5153 20.0905 27.1429 20.548 27.149L25.745 27.1856C26.2022 27.1888 26.5715 27.5633 26.5685 28.0205L26.5604 29.1568C26.5589 29.3481 26.4036 29.5021 26.2129 29.5021Z" fill="black"/>
<path d="M25.5736 27.7145C25.5518 27.7145 25.5297 27.7124 25.5073 27.7081C25.319 27.6718 25.1956 27.4896 25.232 27.3011C25.3098 26.898 25.446 26.4922 25.6372 26.0948C25.9063 25.5353 26.3391 25.0727 26.889 24.7571C27.4394 24.4413 28.1588 24.2157 29.0274 24.0867C30.4613 23.8737 31.7273 23.0285 32.5011 21.7675L35.4863 16.9028C35.5793 16.7513 35.6039 16.5736 35.5558 16.4025C35.5076 16.2314 35.3939 16.0927 35.2356 16.012C34.9512 15.8668 34.6036 15.9572 34.4267 16.2218C32.9623 18.412 31.6338 19.5751 31.5779 19.6236C31.4932 19.697 31.3786 19.7251 31.2694 19.6991C31.1605 19.673 31.0708 19.5961 31.0284 19.4924C31.0113 19.4505 30.9179 19.3045 30.4338 19.1882C29.8467 19.0472 29.2126 19.3076 28.8177 19.8516C28.4126 20.4095 27.7844 20.4144 27.1767 20.4191C27.0521 20.4201 26.923 20.4211 26.79 20.4265C26.1298 20.454 25.5008 20.6782 24.9715 21.0746L24.6396 21.3233C23.6822 22.0405 22.8893 22.9558 22.3468 23.9701C21.7441 25.0969 21.3828 26.2413 21.2725 27.3712C21.2539 27.5622 21.0842 27.7011 20.8929 27.6834C20.7019 27.6647 20.5623 27.4947 20.5807 27.3038C20.6999 26.0823 21.0878 24.8505 21.7339 23.6423C22.3239 22.539 23.1846 21.5449 24.2227 20.7672L24.5547 20.5185C25.1967 20.0376 25.9598 19.7656 26.7612 19.7321C26.9026 19.7264 27.0392 19.7252 27.171 19.7241C27.7527 19.7196 28.0652 19.705 28.2552 19.4432C28.816 18.6705 29.7348 18.3054 30.5961 18.5124C30.935 18.5938 31.1956 18.707 31.3822 18.8546C31.8336 18.4137 32.8133 17.3844 33.8489 15.8356C34.2217 15.2782 34.9535 15.0879 35.5514 15.3929C35.8794 15.5602 36.1249 15.8596 36.2248 16.2142C36.3246 16.5688 36.2714 16.9523 36.0787 17.2663L33.0935 22.131C32.212 23.5674 30.7672 24.5308 29.1296 24.774C28.3472 24.8902 27.7097 25.0873 27.2351 25.3598C26.8075 25.6052 26.4716 25.9634 26.2636 26.3958C26.0985 26.7394 25.9809 27.0882 25.9145 27.4326C25.8824 27.599 25.7368 27.7145 25.5736 27.7145Z" fill="black"/>
<path d="M19.9854 6.64873H16.9812C16.4608 6.64873 16.0372 6.22535 16.0372 5.70481V5.0215C16.0372 4.93171 15.9643 4.85888 15.8745 4.85888H15.3354C15.0217 4.85888 14.7287 4.73489 14.5102 4.50972C14.2917 4.28454 14.1766 3.98778 14.1861 3.67379C14.2046 3.05915 14.7353 2.55904 15.3691 2.55904H15.8745C15.9643 2.55904 16.0372 2.48607 16.0372 2.39627V1.71297C16.0372 1.19257 16.4606 0.769043 16.9812 0.769043H19.9854C20.5058 0.769043 20.9294 1.19243 20.9294 1.71297V2.39627C20.9294 2.48607 21.0023 2.55904 21.0921 2.55904H21.5975C22.2313 2.55904 22.762 3.05915 22.7805 3.67393C22.79 3.98778 22.6749 4.28468 22.4564 4.50972C22.2379 4.73475 21.9449 4.85888 21.6312 4.85888H21.0921C21.0023 4.85888 20.9294 4.93185 20.9294 5.0215V5.70481C20.9294 6.22535 20.5058 6.64873 19.9854 6.64873ZM15.3691 3.25402C15.1071 3.25402 14.8882 3.45168 14.8808 3.69464C14.877 3.81918 14.9225 3.93663 15.0089 4.02559C15.0954 4.11469 15.2115 4.16375 15.3354 4.16375H15.8745C16.3475 4.16375 16.7322 4.5485 16.7322 5.02136V5.70467C16.7322 5.842 16.8438 5.95361 16.9812 5.95361H19.9854C20.1226 5.95361 20.2344 5.842 20.2344 5.70467V5.02136C20.2344 4.5485 20.6191 4.16375 21.0921 4.16375H21.6312C21.7553 4.16375 21.8712 4.11469 21.9577 4.02559C22.0441 3.93663 22.0896 3.81904 22.0858 3.69464C22.0786 3.45154 21.8595 3.25402 21.5975 3.25402H21.0921C20.6191 3.25402 20.2344 2.86928 20.2344 2.39627V1.71297C20.2344 1.57578 20.1228 1.46403 19.9854 1.46403H16.9812C16.844 1.46403 16.7322 1.57564 16.7322 1.71297V2.39627C16.7322 2.86928 16.3475 3.25402 15.8745 3.25402H15.3691Z" fill="black"/>
<path d="M19.9854 11.8338H16.9812C16.4608 11.8338 16.0372 11.4104 16.0372 10.8899V10.2066C16.0372 10.1168 15.9643 10.0439 15.8745 10.0439H15.3354C15.0217 10.0439 14.7287 9.91995 14.5102 9.69478C14.2917 9.4696 14.1766 9.17284 14.1861 8.85885C14.2046 8.24421 14.7353 7.7441 15.3691 7.7441H15.8745C15.9643 7.7441 16.0372 7.67113 16.0372 7.58133V6.89803C16.0372 6.37762 16.4606 5.9541 16.9812 5.9541H19.9854C20.5058 5.9541 20.9294 6.37748 20.9294 6.89803V7.58133C20.9294 7.67113 21.0023 7.7441 21.0921 7.7441H21.5975C22.2313 7.7441 22.762 8.24421 22.7805 8.85899C22.79 9.17284 22.6749 9.46974 22.4564 9.69478C22.2379 9.91981 21.9449 10.0439 21.6312 10.0439H21.0921C21.0023 10.0439 20.9294 10.1169 20.9294 10.2066V10.8899C20.9294 11.4104 20.5058 11.8338 19.9854 11.8338ZM15.3691 8.43908C15.1071 8.43908 14.8882 8.63673 14.8808 8.8797C14.877 9.00424 14.9225 9.12169 15.0089 9.21065C15.0954 9.29975 15.2115 9.34881 15.3354 9.34881H15.8745C16.3475 9.34881 16.7322 9.73356 16.7322 10.2064V10.8897C16.7322 11.0271 16.8438 11.1387 16.9812 11.1387H19.9854C20.1226 11.1387 20.2344 11.0271 20.2344 10.8897V10.2064C20.2344 9.73356 20.6191 9.34881 21.0921 9.34881H21.6312C21.7553 9.34881 21.8712 9.29975 21.9577 9.21065C22.0441 9.12169 22.0896 9.0041 22.0858 8.8797C22.0786 8.63659 21.8595 8.43908 21.5975 8.43908H21.0921C20.6191 8.43908 20.2344 8.05434 20.2344 7.58133V6.89803C20.2344 6.76084 20.1228 6.64908 19.9854 6.64908H16.9812C16.844 6.64908 16.7322 6.7607 16.7322 6.89803V7.58133C16.7322 8.05434 16.3475 8.43908 15.8745 8.43908H15.3691Z" fill="black"/>
<path d="M19.9854 17.0179H16.9812C16.4608 17.0179 16.0372 16.5945 16.0372 16.0739V15.3906C16.0372 15.3008 15.9643 15.228 15.8745 15.228H15.3354C15.0217 15.228 14.7287 15.104 14.5102 14.8789C14.2917 14.6537 14.1766 14.3569 14.1861 14.0429C14.2046 13.4283 14.7353 12.9282 15.3691 12.9282H15.8745C15.9643 12.9282 16.0372 12.8552 16.0372 12.7654V12.0821C16.0372 11.5617 16.4606 11.1382 16.9812 11.1382H19.9854C20.5058 11.1382 20.9294 11.5616 20.9294 12.0821V12.7654C20.9294 12.8552 21.0023 12.9282 21.0921 12.9282H21.5975C22.2313 12.9282 22.762 13.4283 22.7805 14.0431C22.79 14.3569 22.6749 14.6538 22.4564 14.8789C22.2379 15.1039 21.9449 15.228 21.6312 15.228H21.0921C21.0023 15.228 20.9294 15.301 20.9294 15.3906V16.0739C20.9294 16.5944 20.5058 17.0179 19.9854 17.0179ZM15.3691 13.6232C15.1071 13.6232 14.8882 13.8208 14.8808 14.0638C14.877 14.1883 14.9225 14.3058 15.0089 14.3947C15.0954 14.4838 15.2115 14.5329 15.3354 14.5329H15.8745C16.3475 14.5329 16.7322 14.9176 16.7322 15.3905V16.0738C16.7322 16.2111 16.8438 16.3228 16.9812 16.3228H19.9854C20.1226 16.3228 20.2344 16.2111 20.2344 16.0738V15.3905C20.2344 14.9176 20.6191 14.5329 21.0921 14.5329H21.6312C21.7553 14.5329 21.8712 14.4838 21.9577 14.3947C22.0441 14.3058 22.0896 14.1882 22.0858 14.0638C22.0786 13.8207 21.8595 13.6232 21.5975 13.6232H21.0921C20.6191 13.6232 20.2344 13.2384 20.2344 12.7654V12.0821C20.2344 11.9449 20.1228 11.8332 19.9854 11.8332H16.9812C16.844 11.8332 16.7322 11.9448 16.7322 12.0821V12.7654C16.7322 13.2384 16.3475 13.6232 15.8745 13.6232H15.3691Z" fill="black"/>
<path d="M19.9854 22.2029H16.9812C16.4608 22.2029 16.0372 21.7796 16.0372 21.259V20.5757C16.0372 20.4859 15.9643 20.4131 15.8745 20.4131H15.3354C15.0217 20.4131 14.7287 20.2891 14.5102 20.0639C14.2917 19.8387 14.1766 19.542 14.1861 19.228C14.2046 18.6133 14.7353 18.1132 15.3691 18.1132H15.8745C15.9643 18.1132 16.0372 18.0403 16.0372 17.9505V17.2672C16.0372 16.7468 16.4606 16.3232 16.9812 16.3232H19.9854C20.5058 16.3232 20.9294 16.7466 20.9294 17.2672V17.9505C20.9294 18.0403 21.0023 18.1132 21.0921 18.1132H21.5975C22.2313 18.1132 22.762 18.6133 22.7805 19.2281C22.79 19.542 22.6749 19.8389 22.4564 20.0639C22.2379 20.289 21.9449 20.4131 21.6312 20.4131H21.0921C21.0023 20.4131 20.9294 20.486 20.9294 20.5757V21.259C20.9294 21.7794 20.5058 22.2029 19.9854 22.2029ZM15.3691 18.8082C15.1071 18.8082 14.8882 19.0059 14.8808 19.2488C14.877 19.3734 14.9225 19.4908 15.0089 19.5798C15.0954 19.6689 15.2115 19.718 15.3354 19.718H15.8745C16.3475 19.718 16.7322 20.1027 16.7322 20.5756V21.2589C16.7322 21.3962 16.8438 21.5078 16.9812 21.5078H19.9854C20.1226 21.5078 20.2344 21.3962 20.2344 21.2589V20.5756C20.2344 20.1027 20.6191 19.718 21.0921 19.718H21.6312C21.7553 19.718 21.8712 19.6689 21.9577 19.5798C22.0441 19.4908 22.0896 19.3732 22.0858 19.2488C22.0786 19.0057 21.8595 18.8082 21.5975 18.8082H21.0921C20.6191 18.8082 20.2344 18.4235 20.2344 17.9505V17.2672C20.2344 17.13 20.1228 17.0182 19.9854 17.0182H16.9812C16.844 17.0182 16.7322 17.1298 16.7322 17.2672V17.9505C16.7322 18.4235 16.3475 18.8082 15.8745 18.8082H15.3691Z" fill="black"/>
<path d="M31.2443 31.1306H31.564V31.4503C31.564 31.7005 31.7586 31.8951 32.0088 31.8951C32.2451 31.8951 32.4536 31.7005 32.4536 31.4642V31.4503V31.1306H32.7733C33.0235 31.1306 33.2181 30.936 33.2181 30.6858C33.2181 30.4495 33.0235 30.241 32.7872 30.241H32.7733H32.4536V29.9214C32.4536 29.6712 32.259 29.4766 32.0088 29.4766C31.7725 29.4766 31.564 29.6712 31.564 29.9075V29.9214V30.241H31.2443C30.9941 30.241 30.7995 30.4356 30.7995 30.6858C30.7856 30.9221 30.9802 31.1306 31.2443 31.1306C31.2304 31.1306 31.2304 31.1306 31.2443 31.1306Z" fill="#70D6F9"/>
<path d="M11.8393 7.19518C12.1003 7.19518 12.3119 6.98359 12.3119 6.72259C12.3119 6.46159 12.1003 6.25 11.8393 6.25C11.5783 6.25 11.3667 6.46159 11.3667 6.72259C11.3667 6.98359 11.5783 7.19518 11.8393 7.19518Z" fill="#FC657E"/>
<path d="M29.2148 35.2313C29.4758 35.2313 29.6874 35.0197 29.6874 34.7587C29.6874 34.4977 29.4758 34.2861 29.2148 34.2861C28.9538 34.2861 28.7422 34.4977 28.7422 34.7587C28.7422 35.0197 28.9538 35.2313 29.2148 35.2313Z" fill="#F5C84C"/>
<path d="M27.8177 14.5443C27.3868 14.4609 27.0393 14.1273 26.9559 13.6965C26.9559 13.6826 26.9142 13.6826 26.9142 13.6965C26.8308 14.1273 26.4833 14.4609 26.0524 14.5443C26.0385 14.5443 26.0385 14.5721 26.0524 14.586C26.4833 14.6694 26.8308 15.003 26.9142 15.4339C26.9142 15.4478 26.9559 15.4478 26.9559 15.4339C27.0393 15.003 27.3868 14.6694 27.8177 14.586C27.8316 14.5721 27.8316 14.5443 27.8177 14.5443Z" fill="#87D147"/>
<path d="M7.91245 10.9342C8.53794 10.823 9.02442 10.3365 9.14952 9.72495C9.14952 9.69715 9.20512 9.69715 9.20512 9.72495C9.33022 10.3365 9.8167 10.823 10.4422 10.9342C10.47 10.9342 10.47 10.9759 10.4422 10.9898C9.8167 11.101 9.33022 11.5875 9.20512 12.1991C9.20512 12.2269 9.14952 12.2269 9.14952 12.1991C9.02442 11.5875 8.53794 11.101 7.91245 10.9898C7.88465 10.9759 7.88465 10.9342 7.91245 10.9342Z" fill="#F5C84C"/>
</svg>
