<svg width="36" height="36" viewBox="0 0 36 36" fill="none" xmlns="http://www.w3.org/2000/svg">
<path d="M30.5098 19.582H32.5495V32.6865H30.5098V19.582Z" fill="#7A8C98"/>
<path d="M33.0257 32.6865H30.0341C29.7338 32.6865 29.4902 32.93 29.4902 33.2304V34.1823C29.4902 34.4827 29.7338 34.7262 30.0341 34.7262H33.0257C33.3261 34.7262 33.5696 34.4827 33.5696 34.1823V33.2304C33.5696 32.93 33.3261 32.6865 33.0257 32.6865Z" fill="#C5D3DD"/>
<path d="M33.025 32.6865H30.9854C31.2857 32.6865 31.5293 32.93 31.5293 33.2304V34.1823C31.5293 34.4827 31.2857 34.7262 30.9854 34.7262H33.025C33.3254 34.7262 33.569 34.4827 33.569 34.1823V33.2304C33.569 32.93 33.3254 32.6865 33.025 32.6865Z" fill="#B6C4CF"/>
<path d="M3.44922 19.582H5.48891V32.6865H3.44922V19.582Z" fill="#7A8C98"/>
<path d="M5.96418 32.6865H2.97262C2.67223 32.6865 2.42871 32.93 2.42871 33.2304V34.1823C2.42871 34.4827 2.67223 34.7262 2.97262 34.7262H5.96418C6.26457 34.7262 6.50809 34.4827 6.50809 34.1823V33.2304C6.50809 32.93 6.26457 32.6865 5.96418 32.6865Z" fill="#C5D3DD"/>
<path d="M5.96449 32.6865H3.9248C4.2252 32.6865 4.46872 32.93 4.46872 33.2304V34.1823C4.46872 34.4827 4.2252 34.7262 3.9248 34.7262H5.96449C6.26489 34.7262 6.50841 34.4827 6.50841 34.1823V33.2304C6.50841 32.93 6.26489 32.6865 5.96449 32.6865Z" fill="#B6C4CF"/>
<path d="M8.96314 34.7265H12.8858C13.6368 34.7265 14.2456 34.1177 14.2456 33.3667C14.2456 32.6156 13.6368 32.0068 12.8858 32.0068H8.2832V34.0465C8.2832 34.4221 8.58764 34.7265 8.96314 34.7265Z" fill="#C5D3DD"/>
<path d="M12.8854 32.0068H10.8457C11.5967 32.0068 12.2055 32.6156 12.2055 33.3667C12.2055 34.1177 11.5967 34.7265 10.8457 34.7265H12.8854C13.6364 34.7265 14.2452 34.1177 14.2452 33.3667C14.2451 32.6156 13.6363 32.0068 12.8854 32.0068Z" fill="#B6C4CF"/>
<path d="M19.8626 34.7265H23.7852C24.5363 34.7265 25.1451 34.1177 25.1451 33.3667C25.1451 32.6156 24.5363 32.0068 23.7852 32.0068H19.1826V34.0465C19.1827 34.4221 19.487 34.7265 19.8626 34.7265Z" fill="#C5D3DD"/>
<path d="M23.7848 32.0068H21.7451C22.4961 32.0068 23.1049 32.6156 23.1049 33.3667C23.1049 34.1177 22.4961 34.7265 21.7451 34.7265H23.7848C24.5358 34.7265 25.1446 34.1177 25.1446 33.3667C25.1446 32.6156 24.5358 32.0068 23.7848 32.0068Z" fill="#B6C4CF"/>
<path d="M8.2832 32.0066L12.8858 19.582H18.1683L12.2059 32.0066H8.2832Z" fill="#0573CE"/>
<path d="M23.1059 32.0066L20.543 19.582H15.9404L19.1832 32.0066H23.1059Z" fill="#528FD8"/>
<path d="M20.5421 19.582H18.7744L21.3373 32.0066H23.1051L20.5421 19.582Z" fill="#0573CE"/>
<path d="M17.181 6.98319L13.3379 17.5422H20.8644L23.8271 9.40216C24.1834 8.42337 23.6787 7.34106 22.6998 6.9848L19.5983 5.85592C18.6196 5.49973 17.5373 6.0044 17.181 6.98319Z" fill="#6CF5C2"/>
<path d="M34.1814 19.5822H1.81735C1.51696 19.5822 1.27344 19.3387 1.27344 19.0383V18.0864C1.27344 17.786 1.51696 17.5425 1.81735 17.5425H34.1814C34.4818 17.5425 34.7253 17.786 34.7253 18.0864V19.0383C34.7253 19.3387 34.4818 19.5822 34.1814 19.5822Z" fill="#C5D3DD"/>
<path d="M34.1815 17.5425H32.0059C32.3063 17.5425 32.5498 17.786 32.5498 18.0864V19.0383C32.5498 19.3387 32.3063 19.5822 32.0059 19.5822H34.1815C34.4819 19.5822 34.7254 19.3387 34.7254 19.0383V18.0864C34.7254 17.786 34.4819 17.5425 34.1815 17.5425Z" fill="#B6C4CF"/>
<path d="M18.6064 9.19336L20.8438 8.44836L21.5888 10.6857L19.3514 11.4307L18.6064 9.19336Z" fill="#6CF5C2"/>
<path d="M26.7904 15.3093L22.3925 13.1097L21.5833 10.6812L19.3467 11.4264L20.3102 14.3181C20.409 14.6147 20.6216 14.8599 20.9012 14.9997L25.7359 17.4178C26.3181 17.7091 27.0262 17.4731 27.3174 16.8909C27.6086 16.3086 27.3727 15.6005 26.7904 15.3093Z" fill="#FED2A4"/>
<path d="M22.0566 6.58039C23.5214 6.58039 24.7088 5.39294 24.7088 3.92814C24.7088 2.46333 23.5214 1.27588 22.0566 1.27588C20.5918 1.27588 19.4043 2.46333 19.4043 3.92814C19.4043 5.39294 20.5918 6.58039 22.0566 6.58039Z" fill="#FED2A4"/>
<path d="M24.0368 2.16309C24.0984 2.58369 24.0598 3.02516 23.9042 3.45263C23.4032 4.82907 21.8812 5.53876 20.5047 5.03779C20.0773 4.88218 19.7143 4.62803 19.4316 4.31047C19.5685 5.24423 20.2004 6.07494 21.1494 6.42036C22.5258 6.92133 24.0478 6.21164 24.5488 4.8352C24.8943 3.88616 24.6641 2.86813 24.0368 2.16309Z" fill="#FFBD86"/>
<path d="M34.1814 17.0376H27.8058C28.1624 16.2231 27.8204 15.2598 27.0162 14.8575L23.0933 12.8955L24.3019 9.57482C24.6827 8.52758 24.2833 7.38329 23.4023 6.78189C24.1295 6.43903 24.7273 5.82128 25.0233 5.008C25.3117 4.21559 25.2743 3.35822 24.9179 2.59401C24.5615 1.82974 23.9288 1.25002 23.1364 0.961603C22.344 0.67319 21.4866 0.710613 20.7224 1.06694C19.9582 1.42327 19.3784 2.05602 19.09 2.84844C18.8033 3.63627 18.839 4.48818 19.1896 5.2491C18.1285 5.14416 17.0879 5.76407 16.7072 6.81084L12.9848 17.0376H7.16863C6.88984 17.0376 6.66383 17.2636 6.66383 17.5424C6.66383 17.8212 6.88984 18.0472 7.16863 18.0472H34.1814C34.2029 18.0472 34.2204 18.0647 34.2204 18.0862V19.0379C34.2204 19.0598 34.2033 19.077 34.1814 19.077H1.81721C1.79533 19.077 1.77817 19.0598 1.77817 19.0379V18.0862C1.77817 18.0647 1.79567 18.0472 1.81721 18.0472H4.813C5.09179 18.0472 5.31781 17.8213 5.31781 17.5424C5.31781 17.2636 5.09179 17.0376 4.813 17.0376H1.81721C1.23897 17.0376 0.768555 17.508 0.768555 18.0862V19.0379C0.768555 19.6162 1.23897 20.0866 1.81721 20.0866H2.94427V32.1832C2.37943 32.1987 1.92443 32.6619 1.92443 33.2305V34.1824C1.92443 34.7607 2.39491 35.2311 2.97315 35.2311H5.9647C6.54301 35.2311 7.01342 34.7607 7.01342 34.1824V33.2305C7.01342 32.6619 6.55842 32.1987 5.99358 32.1832V20.0865H12.1611L7.81041 31.831C7.79109 31.8831 7.7816 31.9372 7.77999 31.9913C7.77972 31.9965 7.77864 32.0012 7.77864 32.0066V34.0463C7.77864 34.6995 8.3101 35.2309 8.96339 35.2309H12.8861C13.9142 35.2309 14.7506 34.3945 14.7506 33.3664C14.7506 32.3785 13.9783 31.5681 13.0058 31.5061L14.19 29.0385C14.3106 28.7872 14.2047 28.4856 13.9534 28.365C13.7023 28.2445 13.4005 28.3503 13.2798 28.6017L11.888 31.5016H9.00902L13.2376 20.0865H15.55L16.19 22.5387L14.2994 26.4782C14.1788 26.7295 14.2847 27.0311 14.5361 27.1517C14.6066 27.1855 14.6809 27.2015 14.7542 27.2015C14.9423 27.2015 15.1228 27.0959 15.2097 26.915L16.5846 24.0501L18.6781 32.0713V34.0463C18.6781 34.6995 19.2096 35.2309 19.8628 35.2309H23.7855C24.8136 35.2309 25.6501 34.3945 25.6501 33.3664C25.6501 32.3383 24.8137 31.5018 23.7855 31.5018H23.5168L21.1621 20.0865H30.0051V27.2553C30.0051 27.534 30.2311 27.7601 30.5099 27.7601C30.7887 27.7601 31.0147 27.5341 31.0147 27.2553V20.0865H32.0448V32.1817H31.0147V29.611C31.0147 29.3322 30.7887 29.1061 30.5099 29.1061C30.2311 29.1061 30.0051 29.3321 30.0051 29.611V32.1832C29.4403 32.1987 28.9852 32.6619 28.9852 33.2304V34.1823C28.9852 34.7606 29.4557 35.231 30.034 35.231H33.0255C33.6038 35.231 34.0742 34.7606 34.0742 34.1823V33.2304C34.0742 32.6619 33.6192 32.1987 33.0544 32.1832V20.0865H34.1815C34.7597 20.0865 35.2301 19.6161 35.2301 19.0379V18.0861C35.23 17.508 34.7596 17.0376 34.1814 17.0376ZM23.8477 17.0376H21.5857L21.934 16.0805L23.8477 17.0376ZM26.866 16.6648C26.6998 16.9972 26.2941 17.1322 25.9617 16.9661L21.1271 14.548C20.9661 14.4675 20.846 14.3291 20.7891 14.1583L19.9852 11.7455L21.264 11.3194L21.9136 13.269C21.9559 13.396 22.047 13.501 22.1667 13.5609L26.5647 15.7605C26.8971 15.9267 27.0323 16.3324 26.866 16.6648ZM20.0388 3.19379C20.2349 2.65473 20.6293 2.22436 21.1492 1.98199C21.4378 1.84737 21.746 1.77966 22.0554 1.77966C22.3031 1.77966 22.5515 1.82307 22.7912 1.9103C23.3302 2.10651 23.7606 2.50079 24.0029 3.02068C24.2454 3.54049 24.2708 4.12371 24.0746 4.66271C23.6697 5.77544 22.435 6.35119 21.3222 5.9462C20.7832 5.75 20.3528 5.35571 20.1105 4.83576C19.868 4.31588 19.8426 3.73272 20.0388 3.19379ZM17.656 7.15599C17.9163 6.44031 18.7105 6.07012 19.4261 6.33033L22.5273 7.45894C23.243 7.71962 23.6134 8.51399 23.3532 9.2296L22.4545 11.6986L21.317 8.28467C21.2289 8.02015 20.9429 7.87699 20.6785 7.96536C20.414 8.05354 20.2711 8.33932 20.3592 8.60384L20.9449 10.3616L19.6661 10.7877L19.0804 9.0299C18.9922 8.76545 18.7064 8.62215 18.4419 8.71059C18.1774 8.79877 18.0344 9.08455 18.1226 9.34907L19.8314 14.4775C19.9736 14.9041 20.2734 15.2498 20.6755 15.451L21.0252 15.6258L20.5114 17.0376H14.0593L17.656 7.15599ZM13.741 33.3664C13.741 33.8379 13.3574 34.2215 12.8859 34.2215H8.96326C8.86667 34.2215 8.78812 34.1429 8.78812 34.0464V32.5115H12.8859C13.3574 32.5114 13.741 32.895 13.741 33.3664ZM33.0646 34.1823C33.0646 34.2038 33.0471 34.2214 33.0255 34.2214H30.034C30.0124 34.2214 29.9948 34.2038 29.9948 34.1823V33.2304C29.9948 33.2089 30.0124 33.1913 30.034 33.1913H33.0255C33.0471 33.1913 33.0646 33.2089 33.0646 33.2304V34.1823ZM6.00381 34.1823C6.00381 34.2038 5.98624 34.2214 5.96463 34.2214H2.97308C2.95154 34.2214 2.93397 34.2038 2.93397 34.1823V33.2304C2.93397 33.2089 2.95154 33.1913 2.97308 33.1913H5.96463C5.98624 33.1913 6.00381 33.2089 6.00381 33.2304V34.1823ZM4.9839 32.1818H3.95382V20.0866H4.9839V32.1818ZM24.6404 33.3664C24.6404 33.8379 24.2568 34.2215 23.7854 34.2215H19.8627C19.7661 34.2215 19.6876 34.1429 19.6876 34.0464V32.5115H23.7855C24.2569 32.5114 24.6404 32.895 24.6404 33.3664ZM22.486 31.5018H19.5728L16.5934 20.0865H20.1313L22.486 31.5018Z" fill="black"/>
</svg>
