<svg width="30" height="36" viewBox="0 0 30 36" fill="none" xmlns="http://www.w3.org/2000/svg">
<path d="M12.3321 1.27393H14.9535C17.0777 1.27393 18.7997 2.99593 18.7997 5.12016V7.71998H8.48584V5.12016C8.48584 2.99593 10.2078 1.27393 12.3321 1.27393Z" fill="#017297"/>
<path d="M14.953 1.27393H13.5244C17.8473 3.23965 17.2442 5.43724 17.1682 7.71992H18.7993V5.12009C18.7992 2.99593 17.0772 1.27393 14.953 1.27393Z" fill="#025F80"/>
<path d="M10.412 7.34468L10.9088 9.3203C9.95704 9.96921 8.25537 9.17612 8.25537 7.82055C8.25544 6.28297 9.69448 6.23128 10.412 7.34468Z" fill="#CC7262"/>
<path d="M16.8732 7.34468L16.3765 9.3203C17.3282 9.96921 19.0299 9.17612 19.0299 7.82055C19.0298 6.28297 17.5908 6.23128 16.8732 7.34468Z" fill="#CC7262"/>
<path d="M23.878 20.8623H18.8981V31.602H7.70158V18.1337L6.54503 19.6811L3.06348 17.5788L5.56207 13.771C5.90211 13.2538 6.47914 12.9419 7.0981 12.9419H19.8169C20.5987 12.9419 21.2949 13.4369 21.5517 14.175L23.878 20.8623Z" fill="#62DBFB"/>
<path d="M17.417 31.6023H18.8978V19.0275C18.8978 18.6186 18.5663 18.2871 18.1574 18.2871C17.7485 18.2871 17.417 18.6186 17.417 19.0275V31.6023Z" fill="#01D0FB"/>
<path d="M14.2027 13.2343C14.1959 13.6658 14.5439 14.0193 14.9754 14.0193H18.9313C19.3556 14.0193 19.7334 14.2879 19.8729 14.6885L22.0219 20.8627H23.8775L21.5513 14.1755C21.2945 13.4374 20.5983 12.9424 19.8165 12.9424H14.2074L14.2027 13.2343Z" fill="#01D0FB"/>
<path d="M20.9766 21.7079L22.5926 27.4636C22.8174 28.2645 23.6578 28.7229 24.4529 28.4785C25.248 28.2341 25.6857 27.3828 25.4218 26.5938L23.5256 20.9243L20.9766 21.7079Z" fill="#D88D82"/>
<path d="M25.4221 26.5938L23.5258 20.9243L22.3052 21.2996L24.0759 26.5938C24.312 27.2998 23.9861 28.0554 23.3453 28.3817C23.6757 28.5504 24.0696 28.5964 24.4531 28.4785C25.2482 28.2341 25.6859 27.3827 25.4221 26.5938Z" fill="#CC7262"/>
<path d="M21.3345 22.9797L21.9032 25.0051L24.7484 24.5775L24.074 22.5611C24.0156 22.5605 23.9567 22.5631 23.8971 22.572L21.5497 22.9249C21.4748 22.9361 21.4029 22.9547 21.3345 22.9797Z" fill="#CC7262"/>
<path d="M28.421 16.7705L28.2302 16.6055C27.9871 16.3952 27.6253 16.3996 27.3874 16.6158L24.377 19.3522C24.0243 19.6728 23.5647 19.8504 23.088 19.8504H13.1995C12.5899 19.8504 12.0009 20.0707 11.5408 20.4705C10.8021 21.1124 10.5002 22.1229 10.7655 23.0648L12.2033 28.1691C12.2564 28.3574 12.1152 28.5441 11.9197 28.5441H1.9624V34.726H15.9696C18.5297 34.726 20.245 32.0943 19.2113 29.752L16.5377 23.6932C16.3967 23.3739 16.6114 23.0106 16.9591 22.9799L24.3015 22.3319C24.5332 22.3115 24.7665 22.3176 24.9968 22.3501L25.556 22.4291C26.4656 22.5575 27.3028 21.9124 27.4106 21.0001L27.4841 20.3773L28.6767 18.1528C28.9251 17.689 28.819 17.1148 28.421 16.7705Z" fill="#FFCEBF"/>
<path d="M28.4202 16.77L28.2294 16.605C27.9863 16.3947 27.6245 16.3992 27.3866 16.6153L26.9321 17.0285C27.2799 17.3767 27.3631 17.9147 27.1276 18.3541L25.9351 20.5786L25.8615 21.2014C25.8029 21.6972 25.5286 22.1138 25.1445 22.3705L25.555 22.4284C26.4646 22.5569 27.3018 21.9117 27.4096 20.9994L27.4831 20.3766L28.6757 18.1522C28.9243 17.6885 28.8183 17.1143 28.4202 16.77Z" fill="#FFB09E"/>
<path d="M16.5372 23.6931C16.4333 23.4577 16.523 23.1987 16.7165 23.0664L15.4105 23.1816C15.0628 23.2123 14.8482 23.5757 14.9891 23.895L17.6628 29.9538C18.526 31.9098 17.4718 34.0674 15.6097 34.7259H15.9691C18.5292 34.7259 20.2445 32.0941 19.2109 29.7519L16.5372 23.6931Z" fill="#FFB09E"/>
<path d="M11.1811 28.5439H1.9624V34.7258H11.1897C11.1844 32.9655 11.1784 30.0647 11.1811 28.5439Z" fill="#E5EEF9"/>
<path d="M19.211 29.7521L17.098 24.9639H11.3001L12.2031 28.1693C12.2562 28.3576 12.1149 28.5443 11.9194 28.5443H11.1825C11.1751 30.0661 11.1872 33.3291 11.1931 34.7261H15.9693C18.5294 34.7261 20.2447 32.0943 19.211 29.7521Z" fill="#017297"/>
<path d="M15.6095 34.7261H15.9689C18.529 34.7261 20.2443 32.0943 19.2106 29.7521L17.0976 24.9639H15.4604L17.6626 29.954C18.5258 31.91 17.4716 34.0677 15.6095 34.7261Z" fill="#025F80"/>
<path d="M15.2435 18.7567V19.3223C15.2435 19.8639 14.8045 20.3028 14.2629 20.3028H13.4165L12.3515 22.4441C12.0241 23.1026 11.3524 23.5192 10.6167 23.5192H3.56685C3.26935 23.5192 2.97724 23.4635 2.70484 23.3576C2.43184 23.2511 2.17924 23.0948 1.96015 22.8936C1.10171 22.1065 0.941315 20.8128 1.58 19.8395L3.06339 17.5791L6.54495 19.6815L5.61112 20.9301H9.95705C10.2013 20.9301 10.4372 20.8404 10.6203 20.6782L12.5141 18.7599C12.6772 18.5947 12.8997 18.5017 13.1319 18.5017H14.9884C15.1293 18.5018 15.2435 18.6159 15.2435 18.7567Z" fill="#D88D82"/>
<path d="M24.795 23.3595L21.2786 23.888C21.0028 23.9294 20.7456 23.7394 20.7041 23.4636L20.6285 22.9606C20.5385 22.362 20.9509 21.8038 21.5495 21.7138L23.8969 21.361C24.4956 21.271 25.0538 21.6833 25.1437 22.2819L25.2193 22.7849C25.2607 23.0608 25.0708 23.318 24.795 23.3595Z" fill="#D88D82"/>
<path d="M15.6676 12.8217V10.499H11.6162V12.8217C11.6162 12.8886 11.562 12.9428 11.4952 12.9428H10.4199C10.6064 14.5573 11.9774 15.8111 13.6419 15.8111C15.3064 15.8111 16.6774 14.5573 16.8638 12.9428H15.7886C15.7217 12.9428 15.6676 12.8886 15.6676 12.8217Z" fill="#D88D82"/>
<path d="M14.2461 10.499L14.2027 13.2346C14.1959 13.6661 14.5439 14.0196 14.9754 14.0196H16.5421C16.708 13.6889 16.8198 13.3262 16.8641 12.9428H15.7888C15.7219 12.9428 15.6678 12.8886 15.6678 12.8217V10.4991H14.2461V10.499Z" fill="#CC7262"/>
<path d="M15.668 12.6697V10.499H11.6167V12.6695C11.8319 12.7489 12.0646 12.7923 12.3074 12.7923H14.9778C15.2204 12.7923 15.4529 12.7489 15.668 12.6697Z" fill="#CC7262"/>
<path d="M16.9743 6.15402V9.44953C16.9743 10.5521 16.0806 11.4459 14.9779 11.4459H12.3075C11.2046 11.4459 10.3105 10.5519 10.3105 9.449V5.60579C10.3105 4.86911 10.8374 4.2554 11.5349 4.12105C11.6993 4.08935 11.8651 4.17086 11.9458 4.31759L12.4051 5.15268C12.7535 5.78604 13.4556 6.1386 14.1716 6.0404L16.4798 5.72291C16.7413 5.68697 16.9743 5.8901 16.9743 6.15402Z" fill="#D88D82"/>
<path d="M28.75 16.3885L28.5586 16.2228C28.1227 15.8472 27.4727 15.8551 27.0461 16.2419L24.0363 18.9785C23.9671 19.0413 23.8923 19.0961 23.8134 19.1434L22.9868 16.7666C22.8952 16.5033 22.6074 16.3642 22.3441 16.4556C22.0808 16.5472 21.9416 16.8349 22.0331 17.0983L22.8147 19.3454H19.4018V18.0572C19.4018 17.7784 19.1757 17.5523 18.8969 17.5523C18.6182 17.5523 18.3921 17.7784 18.3921 18.0572V19.3454H15.7468C15.7469 19.3377 15.7474 19.33 15.7474 19.3222V18.7566C15.7474 18.3377 15.4066 17.9968 14.9876 17.9968H13.1311C12.7664 17.9968 12.4104 18.1457 12.154 18.4052L10.2742 20.3093C10.1847 20.3842 10.0723 20.4253 9.9562 20.4253H8.20505V18.1338C8.20505 17.9163 8.06579 17.7233 7.85943 17.6547C7.6532 17.5861 7.42603 17.6575 7.29579 17.8316L6.41332 19.0127L3.7721 17.4178L5.98289 14.0482C6.23038 13.6719 6.64695 13.4471 7.0971 13.4471H9.99793C10.397 15.11 11.8903 16.3151 13.6414 16.3151C15.3925 16.3151 16.8859 15.11 17.2849 13.4471H19.8156C20.382 13.4471 20.8878 13.8065 21.074 14.3414L21.2598 14.8751C21.3517 15.1393 21.6402 15.2773 21.9024 15.1859C22.1657 15.0943 22.3049 14.8065 22.2133 14.5432L22.0275 14.0094C21.7001 13.0692 20.8112 12.4375 19.8156 12.4375H16.1722V11.6457C16.7818 11.3127 17.2379 10.7331 17.4066 10.042C17.9029 9.98979 18.3949 9.77549 18.7865 9.42925C19.2683 9.00333 19.5336 8.43189 19.5336 7.8202C19.5336 7.43224 19.4522 7.09045 19.3034 6.81334V5.11981C19.3034 2.72076 17.3514 0.769043 14.952 0.769043H12.331C9.93163 0.769043 7.97957 2.72083 7.97957 5.11981V6.81334C7.83075 7.09038 7.74938 7.43224 7.74938 7.82013C7.74938 8.43122 8.01444 9.00219 8.49575 9.42804C8.88748 9.77461 9.37971 9.98932 9.8765 10.0418C10.0453 10.733 10.5016 11.3127 11.1114 11.6458V12.4374H7.09717C6.3061 12.4374 5.57426 12.8322 5.13912 13.4939L1.15706 19.5624C0.807466 20.0952 0.646668 20.7126 0.6921 21.3478C0.712023 21.6259 0.954331 21.8356 1.23164 21.8153C1.50975 21.7955 1.71908 21.5539 1.69916 21.2758C1.66968 20.8633 1.77414 20.4623 2.00117 20.1162L3.21789 18.2624L5.80594 19.8251L5.20596 20.6276C5.09153 20.7806 5.07329 20.9851 5.15891 21.1559C5.24446 21.3268 5.41919 21.4347 5.61027 21.4347H9.9562C10.3238 21.4347 10.6782 21.3001 10.9541 21.0558C10.9625 21.0483 10.9707 21.0406 10.9787 21.0325L12.8724 19.1143C12.9403 19.0456 13.0346 19.0062 13.1311 19.0062H14.7378V19.3219C14.7378 19.5842 14.5244 19.7977 14.2621 19.7977H13.4156C13.224 19.7977 13.0489 19.9061 12.9636 20.0777L11.8987 22.2189C11.686 22.6466 11.285 22.9328 10.8228 22.9991C10.817 22.9998 10.8111 23.0003 10.8052 23.0012C10.6211 23.0253 11.0099 23.0116 3.56594 23.014C3.33251 23.014 3.10407 22.9712 2.88741 22.8869C2.81492 22.8586 2.7435 22.8255 2.67519 22.7885C2.43005 22.6558 2.12367 22.7468 1.99087 22.9919C1.85807 23.237 1.94914 23.5434 2.19427 23.6762C2.29927 23.7331 2.40899 23.784 2.52085 23.8276C2.85517 23.9577 3.20672 24.0236 3.56587 24.0236H7.19537V28.0393H1.96085C1.68206 28.0393 1.45604 28.2653 1.45604 28.5441C1.45604 28.8229 1.68206 29.0489 1.96085 29.0489H10.6743C10.6742 29.2331 10.6791 33.1729 10.682 34.2208H1.96092C1.68213 34.2208 1.45611 34.4468 1.45611 34.7256C1.45611 35.0044 1.68213 35.2304 1.96092 35.2304H15.9683C17.3419 35.2304 18.6097 34.5434 19.3597 33.3925C20.1097 32.2416 20.2263 30.8044 19.6717 29.5478L19.4017 28.9358V23.2707L20.1539 23.2043L20.204 23.5378C20.2791 24.0378 20.7109 24.3976 21.202 24.3976C21.2037 24.3976 21.2055 24.3974 21.2072 24.3974L22.1061 27.5995C22.2519 28.1188 22.5929 28.5472 23.0666 28.8056C23.5421 29.0651 24.0872 29.1185 24.6009 28.9606C25.1166 28.8021 25.5365 28.4504 25.7833 27.9705C26.0299 27.4907 26.0716 26.9448 25.9005 26.4334L25.0266 23.8198C25.4146 23.6958 25.6886 23.3488 25.724 22.9475C25.7456 22.9482 25.7672 22.9498 25.7888 22.9498C26.2583 22.9498 26.7118 22.7961 27.0909 22.5041C27.5514 22.1493 27.8426 21.636 27.9108 21.0585L27.973 20.5311L29.1206 18.3907C29.4825 17.7146 29.3302 16.8912 28.75 16.3885ZM10.8144 9.44857V5.60544C10.8144 5.15279 11.1166 4.75844 11.5445 4.63661L11.9619 5.39557C12.4076 6.20582 13.3229 6.6658 14.2395 6.54014L16.4686 6.23348C16.4686 6.23348 16.4679 9.49946 16.4667 9.52443C16.4667 9.52564 16.4665 9.52685 16.4665 9.52799C16.4253 10.3139 15.773 10.9406 14.977 10.9406H12.3066C11.4838 10.9407 10.8144 10.2713 10.8144 9.44857ZM18.1178 8.67285C17.9363 8.83331 17.7089 8.94861 17.4782 9.00522V7.38788C17.7353 7.1239 18.0302 7.04124 18.2116 7.1033C18.4101 7.17101 18.524 7.4323 18.524 7.8202C18.524 8.22808 18.3031 8.50902 18.1178 8.67285ZM12.3309 1.77866H14.9519C16.7946 1.77866 18.2937 3.27753 18.2937 5.11981V6.08945C18.0265 6.05034 17.7467 6.08904 17.4781 6.19532V6.15366C17.4781 5.88194 17.3606 5.62374 17.1558 5.44518C16.951 5.26661 16.6794 5.1855 16.4101 5.22246L14.1019 5.53995C13.5966 5.60954 13.0921 5.35573 12.8463 4.909L12.387 4.07392C12.199 3.73226 11.8177 3.55201 11.4383 3.62504C10.4918 3.80745 9.80469 4.64031 9.80469 5.6055V6.19552C9.53613 6.08924 9.25633 6.05054 8.98905 6.08958V5.11981C8.98919 3.27753 10.4883 1.77866 12.3309 1.77866ZM8.75899 7.8202C8.75899 7.4325 8.87274 7.17128 9.07103 7.10357C9.25222 7.04158 9.5473 7.1239 9.80482 7.38761V9.00508C9.57389 8.94827 9.34632 8.83271 9.16473 8.67198C8.97963 8.50815 8.75899 8.22748 8.75899 7.8202ZM11.4951 13.4471C11.8402 13.4471 12.121 13.1663 12.121 12.8212V11.9427C12.326 11.9579 15.1513 11.9435 15.1626 11.9427V12.8212C15.1626 13.1663 15.4435 13.4471 15.7886 13.4471H16.2362C15.8677 14.538 14.8365 15.3055 13.6415 15.3055C12.4465 15.3055 11.4152 14.5379 11.0468 13.4471H11.4951ZM6.94822 19.9836L7.19544 19.6527V20.4252H6.618L6.94822 19.9836ZM8.20505 24.0238H10.5098L11.6409 28.0395C10.941 28.0395 9.0223 28.0395 8.20505 28.0395V24.0238ZM18.5138 32.8414C17.9509 33.7052 16.9992 34.221 15.9683 34.221H11.6947C11.6912 33.3392 11.6841 29.2361 11.6845 29.049H11.9183C12.1708 29.049 12.403 28.9335 12.5554 28.7321C12.7081 28.5304 12.7562 28.275 12.6876 28.0318L11.9655 25.4683H16.768L18.7479 29.9555C19.1643 30.8988 19.0768 31.9775 18.5138 32.8414ZM18.3921 26.6478L16.9983 23.4889L17.0022 23.4828L18.3921 23.3601V26.6478ZM24.7193 22.8596L21.2024 23.3879L21.1267 22.8849C21.0783 22.5625 21.3011 22.2607 21.6236 22.2123C24.0914 21.8425 23.9783 21.8528 24.0601 21.8528C24.3433 21.8528 24.5989 22.0591 24.6435 22.3564C24.6446 22.3631 24.7243 22.8934 24.7193 22.8596ZM24.8852 27.509C24.764 27.745 24.5575 27.9178 24.3041 27.9957C24.0508 28.0736 23.783 28.0466 23.5501 27.9195C23.3173 27.7925 23.1497 27.5821 23.078 27.3268L22.2162 24.2567L24.0174 23.986L24.9429 26.7538C25.0269 27.005 25.0065 27.2733 24.8852 27.509ZM28.2304 17.9141L27.0377 20.1386C27.0079 20.1943 26.9887 20.2552 26.9813 20.318L26.908 20.9406C26.872 21.2457 26.718 21.517 26.4745 21.7046C26.231 21.8922 25.9293 21.972 25.6245 21.9288L25.5714 21.9214C25.4671 21.6173 25.2743 21.3518 25.0101 21.1566C24.6662 20.9026 24.244 20.7977 23.821 20.8612L21.4736 21.214C20.8993 21.3003 20.4417 21.6834 20.2332 22.184L16.9141 22.4771C16.5886 22.5053 16.295 22.6902 16.1289 22.9714C15.9629 23.2526 15.9427 23.5986 16.0746 23.8965L16.3227 24.4587H11.6813L11.5111 23.8545C12.0638 23.638 12.5266 23.2238 12.8026 22.6687L13.7283 20.8074H14.262C14.6799 20.8074 15.0578 20.6336 15.328 20.3549H23.0869C23.6902 20.3549 24.2685 20.1314 24.7154 19.7255L27.7248 16.9893C27.7739 16.9447 27.8491 16.944 27.8987 16.9868L28.089 17.1516C28.3101 17.3432 28.3682 17.6568 28.2304 17.9141Z" fill="black"/>
</svg>
