<svg width="50" height="50" viewBox="0 0 50 50" fill="none" xmlns="http://www.w3.org/2000/svg">
<path d="M41.6798 32.8017C38.6763 31.2853 35.3761 30.2412 32.1264 29.5853C31.3578 28.7604 30.8291 27.7413 30.5974 26.6379C32.609 25.0646 34.149 22.7048 34.9928 19.8937C37.3226 19.541 37.9284 15.961 37.0044 14.0007C41.2471 -4.59134 8.8628 -4.62992 13.0047 13.9601C12.0324 15.9195 12.6374 19.5478 14.9942 19.8956C15.8269 22.7067 17.378 25.0666 19.3897 26.6397C19.149 27.7918 18.587 28.852 17.7686 29.6977C16.2304 29.9667 15.2835 30.1932 15.2632 30.2154C8.96134 31.9501 3.36895 33.8996 4.13673 41.6571C3.8168 52.7686 46.1662 52.779 45.8634 41.6574C46.1962 38.1573 45.0661 34.3977 41.6798 32.8017ZM25.0211 1.52917C32.3316 1.42848 36.6371 6.23669 35.6891 12.7258C35.2568 12.5176 34.7377 12.5086 34.2725 12.6134C34.0883 12.0608 33.788 11.1747 33.2722 9.736C33.2066 9.60856 33.0995 9.49323 33.0143 9.37682C26.4265 4.99362 23.6764 13.1211 17.7611 9.3529C17.7262 9.33083 17.7022 9.31051 17.6709 9.28659C17.3688 9.20954 17.0302 9.26071 16.8383 9.53346C16.226 10.7665 15.9043 12.1331 15.7017 12.6135C15.2549 12.4992 14.7647 12.5087 14.3422 12.7038C13.3939 6.22008 17.713 1.43053 25.0211 1.52917ZM16.2764 18.8621C15.9012 17.9131 15.2785 18.588 14.8708 18.2763C13.946 17.6477 13.7161 14.4336 14.9041 14.0964C15.5218 13.8931 16.0674 14.6802 16.6467 14.229C16.809 14.1011 16.9175 13.9171 16.9507 13.7132C17.006 13.4644 17.3983 12.3186 17.8275 11.1341C24.5696 14.2283 26.0198 7.17516 31.9459 10.4967C32.7271 12.4042 32.744 13.4159 33.3384 14.2272C33.9157 14.6812 34.4652 13.8861 35.0813 14.0945C35.5547 14.2271 36.0023 15.1279 35.8918 16.342C35.7997 17.3533 35.4184 17.9999 35.1162 18.2744C34.6774 18.5592 34.0109 17.9159 33.7107 18.8602C31.024 29.7757 18.9524 29.7784 16.2764 18.8621ZM20.7399 27.5405C23.3784 29.0387 26.6105 29.0387 29.2489 27.5405C29.5756 28.6744 30.1644 29.7157 30.9677 30.58C30.5753 31.8162 27.7513 34.1557 24.999 35.8633C22.2357 34.1556 19.4117 31.8106 19.0286 30.58C19.8283 29.7143 20.4145 28.6733 20.7399 27.5405ZM5.6544 41.657C5.09122 35.4715 8.48204 33.9377 13.6789 32.2398C13.4395 33.2323 13.255 34.2372 13.1263 35.2499C9.90372 36.2223 10.0779 39.1877 10.5841 41.9056C9.87686 42.8672 11.0723 44.1764 12.0929 43.5469C12.8537 43.1316 12.8245 41.959 12.0578 41.5685C11.7716 39.5766 11.2266 37.1143 13.9542 36.7091C16.5387 36.5949 16.5866 39.0984 16.783 40.992C16.1202 41.5648 16.4191 42.7072 17.264 42.9107C18.3754 43.2489 19.2159 41.7276 18.2991 40.992C18.132 38.4353 17.7333 35.5838 14.6571 35.1708C14.8239 34.0147 15.0633 32.8704 15.3737 31.7443C15.8664 31.6149 16.0933 31.5404 17.6894 31.2488C18.6676 33.5423 22.7388 36.2411 24.2438 37.1622V48.4694C15.3961 48.107 5.66173 46.2972 5.6544 41.657ZM44.3399 41.657C44.3375 46.2881 34.6055 48.1092 25.7469 48.4693V37.1621C27.2759 36.2171 31.4023 33.4777 32.3252 31.1824C33.0715 31.324 33.7928 31.5091 34.5045 31.6982C34.9372 33.2808 35.2306 34.8983 35.3814 36.5321C31.8584 37.8001 33.655 43.071 37.2187 41.9236C39.913 41.0985 39.6573 36.9514 36.8993 36.4436C36.7651 35.0168 36.5318 33.601 36.2012 32.2066C41.4246 33.8932 44.9232 35.4355 44.3399 41.657ZM36.3025 37.8824C38.0334 37.8996 38.0377 40.5257 36.3013 40.534C34.5638 40.5219 34.5754 37.8965 36.3063 37.8824H36.3025Z" fill="#1FC5B1"/>
</svg>
