<svg width="50" height="50" viewBox="0 0 50 50" fill="none" xmlns="http://www.w3.org/2000/svg">
<path d="M13.1836 27.4966C9.14502 27.4966 5.85938 30.7822 5.85938 34.8208C5.85938 38.8594 9.14502 42.145 13.1836 42.145C17.2222 42.145 20.5078 38.8594 20.5078 34.8208C20.5078 30.7822 17.2222 27.4966 13.1836 27.4966ZM13.1836 40.6802C9.95273 40.6802 7.32422 38.0517 7.32422 34.8208C7.32422 31.5899 9.95273 28.9614 13.1836 28.9614C16.4145 28.9614 19.043 31.5899 19.043 34.8208C19.043 38.0517 16.4145 40.6802 13.1836 40.6802Z" fill="#1FC5B1"/>
<path d="M47.8027 30.4263H46.0802C44.5312 27.1736 41.3181 24.8602 37.5489 24.5928V23.8344C37.5489 22.6229 36.5633 21.6371 35.3517 21.6371H30.2247C29.0131 21.6371 28.0274 22.6228 28.0274 23.8344V29.5375C27.6907 30.0967 27.4111 30.6846 27.1885 31.2924H25.7324V15.126C27.2754 14.9042 28.5988 13.9937 29.3789 12.716H32.422V11.2512H29.984C30.0766 10.8663 30.127 10.4651 30.127 10.0521C30.127 9.44502 30.0202 8.8624 29.8256 8.32148H39.0137V11.2512H36.8164V12.716H47.0703C48.6857 12.716 50 11.4018 50 9.78633C50 8.1709 48.6857 6.85664 47.0703 6.85664H29.0049C28.0646 5.68066 26.6193 4.92529 25 4.92529C23.3807 4.92529 21.9354 5.68066 20.9951 6.85674H2.92969C1.31426 6.85674 0 8.171 0 9.78643C0 11.4019 1.31426 12.7161 2.92969 12.7161H20.6211C21.4012 13.9937 22.7246 14.9043 24.2676 15.1261V31.2926H22.8116C22.5889 30.6848 22.3094 30.0969 21.9727 29.5377V23.8346C21.9727 22.623 20.987 21.6373 19.7754 21.6373H14.6484C13.4369 21.6373 12.4512 22.6229 12.4512 23.8346V24.593C8.68203 24.8604 5.46885 27.1738 3.91982 30.4265H2.19727C0.985645 30.4265 0 31.4121 0 32.6237V37.0183C0 38.2298 0.985645 39.2155 2.19727 39.2155H3.91982C5.56836 42.677 9.10107 45.0749 13.1836 45.0749C17.0971 45.0749 20.5051 42.8708 22.2327 39.6391C23.0145 40.256 23.9789 40.5975 25 40.5975C26.0211 40.5975 26.9855 40.256 27.7673 39.6391C29.4949 42.8708 32.9028 45.0749 36.8164 45.0749C40.8988 45.0749 44.4315 42.677 46.0801 39.2155H47.8027C49.0144 39.2155 50 38.2299 50 37.0183V32.6237C50 31.412 49.0144 30.4263 47.8027 30.4263ZM40.4785 8.32148H41.9434V11.2512H40.4785V8.32148ZM48.5352 9.78633C48.5352 10.594 47.878 11.2512 47.0703 11.2512H43.4082V8.32148H47.0703C47.878 8.32148 48.5352 8.97861 48.5352 9.78633ZM9.52148 8.32148V11.2512H8.05664V8.32148H9.52148ZM1.46484 9.78633C1.46484 8.97861 2.12197 8.32148 2.92969 8.32148H6.5918V11.2512H2.92969C2.12197 11.2512 1.46484 10.594 1.46484 9.78633ZM10.9863 11.2512V8.32148H20.1744C19.9798 8.8625 19.873 9.44502 19.873 10.0521C19.873 10.465 19.9234 10.8662 20.016 11.2512H10.9863ZM21.3379 10.0522C21.3379 8.03291 22.9807 6.39014 25 6.39014C27.0193 6.39014 28.6621 8.03291 28.6621 10.0522C28.6621 12.0716 27.0193 13.7144 25 13.7144C22.9807 13.7144 21.3379 12.0715 21.3379 10.0522ZM3.35605 37.7505H2.19727C1.79346 37.7505 1.46484 37.422 1.46484 37.0181V32.6235C1.46484 32.2197 1.79346 31.8911 2.19727 31.8911H3.35605C3.07871 32.8198 2.92969 33.8031 2.92969 34.8208C2.92969 35.8385 3.07861 36.8219 3.35605 37.7505ZM29.4922 23.8345C29.4922 23.4307 29.8208 23.1021 30.2246 23.1021H35.3516C35.7555 23.1021 36.084 23.4306 36.084 23.8345V24.5669H29.4922V23.8345ZM26.7714 32.7573C26.6817 33.1951 26.621 33.6397 26.5891 34.0884H23.4109C23.379 33.6396 23.3183 33.1951 23.2286 32.7573H26.7714ZM13.1836 43.6099C8.33731 43.6099 4.39453 39.6671 4.39453 34.8208C4.39453 29.9745 8.33731 26.0317 13.1836 26.0317H16.1133V24.5669H13.916V23.8345C13.916 23.4307 14.2445 23.1021 14.6484 23.1021H19.7754C20.1792 23.1021 20.5078 23.4306 20.5078 23.8345V24.5669H17.5781V26.0317H20.5078V29.957L20.6209 30.1361C21.5052 31.5369 21.9726 33.1568 21.9726 34.8207C21.9727 39.6671 18.0299 43.6099 13.1836 43.6099ZM25 39.1324C24.1842 39.1324 23.4209 38.8081 22.8532 38.2324C23.1532 37.3846 23.3449 36.486 23.411 35.5532H26.589C26.6551 36.486 26.8468 37.3846 27.1468 38.2324C26.5791 38.8082 25.8158 39.1324 25 39.1324ZM36.8164 43.6099C31.9701 43.6099 28.0273 39.6671 28.0273 34.8208C28.0273 33.1568 28.4948 31.537 29.379 30.1362L29.4921 29.9571V26.0318H36.8163C41.6626 26.0318 45.6054 29.9746 45.6054 34.8209C45.6054 39.6672 41.6627 43.6099 36.8164 43.6099ZM48.5352 37.0182C48.5352 37.422 48.2065 37.7506 47.8027 37.7506H46.6439C46.9213 36.8219 47.0703 35.8386 47.0703 34.8209C47.0703 33.8032 46.9214 32.8199 46.6439 31.8912H47.8027C48.2065 31.8912 48.5352 32.2198 48.5352 32.6236V37.0182Z" fill="#1FC5B1"/>
<path d="M36.8164 27.4966C32.7778 27.4966 29.4922 30.7822 29.4922 34.8208C29.4922 38.8594 32.7778 42.145 36.8164 42.145C40.855 42.145 44.1406 38.8594 44.1406 34.8208C44.1406 30.7822 40.855 27.4966 36.8164 27.4966ZM36.8164 40.6802C33.5855 40.6802 30.957 38.0517 30.957 34.8208C30.957 31.5899 33.5855 28.9614 36.8164 28.9614C40.0473 28.9614 42.6758 31.5899 42.6758 34.8208C42.6758 38.0517 40.0473 40.6802 36.8164 40.6802Z" fill="#1FC5B1"/>
<path d="M33.8867 11.251H35.3516V12.7158H33.8867V11.251Z" fill="#1FC5B1"/>
<path d="M24.2676 9.05371H25.7324V10.5186H24.2676V9.05371Z" fill="#1FC5B1"/>
<path d="M39.0137 32.0029H40.4785V33.4678H39.0137V32.0029Z" fill="#1FC5B1"/>
<path d="M36.084 30.5381H37.5488V32.0029H36.084V30.5381Z" fill="#1FC5B1"/>
</svg>
