<svg width="50" height="50" viewBox="0 0 50 50" fill="none" xmlns="http://www.w3.org/2000/svg">
<g clip-path="url(#clip0_1734_5217)">
<path d="M12.9174 13.6633C10.8091 15.0142 9.95964 17.5036 9.61833 19.354C9.61559 19.3689 9.61335 19.3838 9.61149 19.3987C9.45563 20.6851 9.3485 22.0772 9.61833 23.5397C9.95964 25.3901 10.8091 27.8794 12.9175 29.2304C13.2867 29.4669 13.6993 29.5858 14.1138 29.5858C14.4798 29.5858 14.8475 29.4931 15.1882 29.3067C15.9103 28.9117 16.3589 28.156 16.3589 27.3343V15.559C16.3589 14.7373 15.9103 13.9817 15.1882 13.5866C14.4614 13.1892 13.6126 13.2178 12.9174 13.6633ZM14.8929 27.3345C14.8929 27.6243 14.7404 27.8808 14.4848 28.0206C14.3651 28.086 14.0498 28.215 13.7084 27.996C12.3898 27.1513 11.474 25.5184 11.0599 23.2738C10.8401 22.082 10.902 20.9412 11.064 19.5979C11.48 17.3647 12.3942 15.7396 13.7084 14.8975C14.0498 14.6788 14.3651 14.8073 14.4848 14.8729C14.7404 15.0127 14.8929 15.2692 14.8929 15.559V27.3345Z" fill="#1FC5B1"/>
<path d="M49.8462 42.8049L45.1684 34.7028C45.0215 34.4482 45.0415 34.1306 45.2193 33.8934C47.8767 30.3506 49.309 26.1328 49.3611 21.6959C49.4275 16.0512 47.2453 10.7382 43.2164 6.73577C39.1868 2.73255 33.8588 0.583626 28.2127 0.688216C24.5117 0.756185 20.8945 1.81185 17.7523 3.74144C14.6967 5.61781 12.1638 8.26644 10.4276 11.4012C9.88132 12.3874 9.05524 12.9951 8.12887 13.5883C6.60319 14.5659 5.64352 16.1808 5.09489 17.8729C4.46735 19.8084 4.30348 21.9343 4.67399 23.9428C5.06413 26.0578 5.93923 28.2291 7.68044 29.588C8.22809 30.0154 8.87975 30.2573 9.43952 30.6733C9.97087 31.0682 10.4325 31.559 10.7729 32.1281C12.4391 34.9133 14.7731 37.3001 17.5225 39.0302C17.8652 39.2459 18.3177 39.1429 18.5333 38.8002C18.7489 38.4576 18.6459 38.0051 18.3033 37.7895C15.7482 36.1817 13.5793 33.9637 12.0308 31.3754C11.6696 30.7715 11.2041 30.233 10.6681 29.778C10.1256 29.3172 9.50876 29.0495 8.9196 28.6716C7.52282 27.7768 6.55329 26.0496 6.11559 23.6769C5.88327 22.4175 5.9487 21.2134 6.11969 19.7956C6.33718 18.6276 6.70514 17.4618 7.34499 16.4527C7.7819 15.7634 8.32536 15.2184 9.01003 14.7812C10.1173 14.0742 11.0621 13.2815 11.71 12.1117C13.3241 9.19759 15.6787 6.73529 18.5194 4.99085C21.4387 3.19818 24.8 2.21732 28.2395 2.15423C33.4869 2.05579 38.4374 4.05443 42.1832 7.77601C45.9283 11.4966 47.9569 16.4341 47.8952 21.6789C47.8467 25.8024 46.5159 29.722 44.0466 33.0139C43.5158 33.7214 43.4578 34.6721 43.8988 35.436L48.4182 43.2639L46.9982 44.0837L41.8042 35.0996C41.2825 34.1973 41.3712 33.0866 42.03 32.27C44.4921 29.2187 45.8479 25.375 45.8479 21.4471C45.8479 18.98 45.3378 16.5975 44.3316 14.3658C44.1653 13.9966 43.7313 13.8324 43.3621 13.9988C42.993 14.1652 42.8288 14.5992 42.9951 14.9683C43.9153 17.0093 44.3819 19.1891 44.3819 21.4471C44.3819 25.0411 43.1415 28.5579 40.8891 31.3494C39.8464 32.6417 39.7074 34.4019 40.535 35.8334L45.7287 44.8167L43.7477 45.9605L39.0806 37.9092C38.1007 36.219 36.052 35.5011 34.2093 36.2022C32.4197 36.8833 30.5325 37.2287 28.6004 37.2287C26.7361 37.2287 24.9118 36.9071 23.1779 36.2728C21.3368 35.5992 20.0999 33.8206 20.0999 31.8472V11.0683C20.0999 9.09544 21.3372 7.31683 23.1788 6.64241C24.9493 5.99407 26.7734 5.66536 28.6004 5.66536C31.1633 5.66536 33.6077 6.26019 35.8656 7.43324C38.0209 8.55296 39.9189 10.1843 41.3548 12.1508C41.5934 12.4776 42.052 12.5491 42.379 12.3106C42.7059 12.0718 42.7774 11.6133 42.5387 11.2863C40.9703 9.13802 38.8965 7.35589 36.5415 6.13236C34.1075 4.86771 31.3615 4.19935 28.6004 4.19935C26.6009 4.19935 24.6073 4.55814 22.6748 5.26576C20.2579 6.15091 18.634 8.48275 18.634 11.0683V31.847C18.634 34.4334 20.2577 36.7652 22.6743 37.6493C24.57 38.3428 26.5638 38.6946 28.6004 38.6946C30.7114 38.6946 32.774 38.3169 34.7308 37.5722C35.8987 37.1277 37.1945 37.5786 37.8124 38.6444L42.4782 46.6934L40.678 47.7327L36.746 40.9222C36.2321 40.0321 35.1895 39.6178 34.2104 39.915C32.5289 40.4251 30.7782 40.7024 29.0069 40.739C26.3154 40.7944 23.7053 40.312 21.248 39.305C20.8734 39.1514 20.4454 39.3307 20.2918 39.7052C20.1382 40.0798 20.3174 40.5079 20.6921 40.6615C23.3364 41.7452 26.1445 42.2655 29.0372 42.2046C30.9424 42.1653 32.8262 41.8668 34.6361 41.3178C34.9595 41.2196 35.3051 41.3585 35.4764 41.6552C35.4764 41.6552 39.5653 48.7374 39.5668 48.7399C39.7723 49.0959 40.1535 49.3151 40.5641 49.3151C40.7633 49.3151 40.9598 49.2627 41.137 49.1606L49.4257 44.3751C49.9744 44.0581 50.1632 43.3538 49.8462 42.8049Z" fill="#1FC5B1"/>
<path d="M2.11534 24.7672L0.76114 25.5491C0.410554 25.7515 0.290437 26.1999 0.492878 26.5504C0.62862 26.7855 0.875007 26.917 1.12833 26.917C1.25264 26.917 1.37872 26.8852 1.49415 26.8186L2.84835 26.0368C3.19893 25.8343 3.31905 25.3861 3.11661 25.0355C2.91417 24.6849 2.46592 24.5649 2.11534 24.7672Z" fill="#1FC5B1"/>
<path d="M2.84835 16.7859L1.49415 16.0041C1.14356 15.8017 0.695222 15.9218 0.492878 16.2724C0.290437 16.623 0.410554 17.0712 0.76114 17.2736L2.11534 18.0555C2.23077 18.1221 2.35684 18.1538 2.48116 18.1538C2.73448 18.1538 2.98087 18.0224 3.11661 17.7872C3.31915 17.4366 3.19903 16.9884 2.84835 16.7859Z" fill="#1FC5B1"/>
<path d="M2.26016 22.1442C2.66494 22.1442 2.99316 21.8161 2.99316 21.4112C2.99316 21.0063 2.66494 20.6782 2.26016 20.6782H0.733008C0.328223 20.6782 0 21.0063 0 21.4112C0 21.8161 0.328223 22.1442 0.733008 22.1442H2.26016Z" fill="#1FC5B1"/>
</g>
<defs>
<clipPath id="clip0_1734_5217">
<rect width="50" height="50" fill="white"/>
</clipPath>
</defs>
</svg>
