<svg width="27" height="20" viewBox="0 0 27 20" fill="none" xmlns="http://www.w3.org/2000/svg">
<path d="M16.0092 9.67676L14.8966 8.86313V6.3636C14.8966 6.11224 14.6881 5.90906 14.4311 5.90906H12.569C12.3121 5.90906 12.1035 6.11224 12.1035 6.3636V8.86313L10.9909 9.67676C10.7852 9.82721 10.7433 10.1122 10.8974 10.3131C11.0514 10.5131 11.3433 10.554 11.5491 10.4045L12.724 9.54539H14.2761L15.4506 10.4049C15.5344 10.4663 15.6321 10.4954 15.7294 10.4954C15.8709 10.4954 16.0111 10.4322 16.1023 10.3136C16.2564 10.1122 16.215 9.82721 16.0092 9.67676Z" fill="#8B8992"/>
<path d="M14.8964 0.909084C14.8964 0.407724 14.4788 0 13.9653 0H13.0343C12.5208 0 12.1033 0.407724 12.1033 0.909084V2.72725C12.1033 2.97862 12.3118 3.1818 12.5688 3.1818H14.4309C14.6878 3.1818 14.8964 2.97862 14.8964 2.72725V0.909084Z" fill="#8B8992"/>
<path d="M5.589 3.18176H5.5876H5.58621H0.931034C0.417569 3.18176 0 3.58949 0 4.09085V4.99993C0 5.50129 0.417569 5.90902 0.931034 5.90902H5.12069C5.37765 5.90902 5.58621 5.70583 5.58621 5.45447L5.5876 4.09085C5.8441 4.08994 6.05172 3.88676 6.05172 3.6363C6.05172 3.38631 5.84503 3.18358 5.589 3.18176Z" fill="#8B8992"/>
<path d="M12.5686 3.6363C12.5686 3.38494 12.36 3.18176 12.1031 3.18176H10.2503C9.99382 3.18176 9.78527 3.38449 9.78481 3.63494L9.78015 5.45311C9.78015 5.57402 9.82857 5.68993 9.91608 5.77538C10.0031 5.86129 10.1218 5.90902 10.2457 5.90902H12.1031C12.36 5.90902 12.5686 5.70583 12.5686 5.45447V3.6363Z" fill="#8B8992"/>
<path d="M17.6802 3.6363C17.6802 3.38494 17.4717 3.18176 17.2147 3.18176H14.8964C14.6395 3.18176 14.4309 3.38494 14.4309 3.6363V5.45447C14.4309 5.70583 14.6395 5.90902 14.8964 5.90902H16.7538C17.0108 5.90902 17.2194 5.70583 17.2194 5.45447C17.2194 4.95857 17.2166 4.49221 17.2152 4.25085L17.2147 4.09085C17.4717 4.09085 17.6802 3.88767 17.6802 3.6363Z" fill="#8B8992"/>
<path d="M26.0687 3.18176H21.4135C21.1565 3.18176 20.948 3.38494 20.948 3.6363C20.948 3.88767 21.1565 4.09085 21.4135 4.09085V5.45447C21.4135 5.70583 21.6221 5.90902 21.879 5.90902H26.0687C26.5822 5.90902 26.9997 5.50129 26.9997 4.99993V4.09085C26.9997 3.58949 26.5822 3.18176 26.0687 3.18176Z" fill="#8B8992"/>
<path d="M10.7167 4.09109C10.7167 3.58973 10.2991 3.18201 9.78566 3.18201H5.58669C5.07322 3.18201 4.65566 3.58973 4.65566 4.09109L4.65659 7.15289C2.35879 8.34061 0.931519 10.6506 0.931519 13.1819C0.931519 15.0033 1.65866 16.7151 2.9784 18.0037C4.29721 19.291 6.04988 20.0001 7.91241 20.0001H7.91428C8.17124 20.0001 8.37979 19.7964 8.37979 19.5455V17.7274C8.37979 17.476 8.17124 17.2728 7.91428 17.2728C5.60438 17.2728 3.72462 15.4378 3.72462 13.1819C3.72462 10.926 5.60438 9.09106 7.91428 9.09106C8.45847 9.09106 8.98077 9.18833 9.46631 9.3806C9.58502 9.42742 9.71769 9.42469 9.8336 9.37333C9.94998 9.32196 10.0389 9.22606 10.0813 9.10833C10.0813 9.10833 10.6217 7.58834 10.6776 7.42925C10.6943 7.38243 10.7027 7.33334 10.7027 7.28425C10.7027 7.2838 10.7167 4.282 10.7167 4.09109Z" fill="#EEEEEE"/>
<path d="M22.3452 7.14971V4.09109C22.3452 3.58973 21.9276 3.18201 21.4142 3.18201H17.2152C16.7017 3.18201 16.2842 3.58973 16.2842 4.09109C16.2842 4.282 16.2981 7.2838 16.2981 7.2838C16.2981 7.33289 16.307 7.38243 16.3233 7.4288C16.3791 7.58834 16.9196 9.10788 16.9196 9.10788C16.9615 9.2256 17.0509 9.32151 17.1673 9.37287C17.2832 9.42333 17.4159 9.42605 17.5346 9.38015C18.0201 9.18833 18.5424 9.09106 19.0866 9.09106C21.3965 9.09106 23.2762 10.926 23.2762 13.1819C23.2762 15.4378 21.3965 17.2728 19.0866 17.2728C18.8296 17.2728 18.6211 17.476 18.6211 17.7274V19.5455C18.6211 19.7964 18.8296 20.0001 19.0866 20.0001H19.0885C20.951 20.0001 22.7037 19.291 24.0225 18.0037C25.3422 16.7151 26.0694 15.0033 26.0694 13.1819C26.0694 10.6506 24.6421 8.34061 22.3452 7.14971Z" fill="#EEEEEE"/>
<path d="M11.7334 9.85609C11.724 9.84472 11.7147 9.83336 11.7045 9.8229C10.6836 8.74928 9.37271 8.18201 7.91378 8.18201C5.09042 8.18201 2.79309 10.4252 2.79309 13.182C2.79309 15.9388 5.09042 18.1819 7.91378 18.1819C10.7371 18.1819 13.0345 15.9388 13.0345 13.182C13.0345 11.9465 12.5606 10.7352 11.7334 9.85609Z" fill="#1FC5B1"/>
<path d="M19.086 8.18201C17.6271 8.18201 16.3162 8.74928 15.2953 9.82245C15.2855 9.83245 15.2762 9.84381 15.2674 9.85472C15.2674 9.85472 15.266 9.85609 15.2655 9.85699C14.4392 10.7361 13.9653 11.9465 13.9653 13.182C13.9653 15.9388 16.2627 18.1819 19.086 18.1819C21.9094 18.1819 24.2067 15.9388 24.2067 13.182C24.2067 10.4252 21.9094 8.18201 19.086 8.18201Z" fill="#1FC5B1"/>
<path d="M15.362 2.72725C15.362 2.47589 15.1534 2.27271 14.8964 2.27271H12.1033C11.8464 2.27271 11.6378 2.47589 11.6378 2.72725V6.36359C11.6378 6.61495 11.8464 6.81813 12.1033 6.81813H14.8964C15.1534 6.81813 15.362 6.61495 15.362 6.36359V2.72725Z" fill="#C8C6CC"/>
<path d="M7.91377 16.3636C9.71346 16.3636 11.1724 14.9391 11.1724 13.1818C11.1724 11.4245 9.71346 10 7.91377 10C6.11409 10 4.65515 11.4245 4.65515 13.1818C4.65515 14.9391 6.11409 16.3636 7.91377 16.3636Z" fill="#F5F5F5"/>
<path d="M19.0865 16.3636C20.8862 16.3636 22.3451 14.9391 22.3451 13.1818C22.3451 11.4245 20.8862 10 19.0865 10C17.2868 10 15.8279 11.4245 15.8279 13.1818C15.8279 14.9391 17.2868 16.3636 19.0865 16.3636Z" fill="#F5F5F5"/>
<path d="M7.91377 10C6.11688 10 4.65515 11.4277 4.65515 13.1818C4.65515 14.9359 6.11688 16.3636 7.91377 16.3636C9.71067 16.3636 11.1724 14.9359 11.1724 13.1818C11.1724 11.4277 9.71067 10 7.91377 10ZM7.91377 15.4545C6.63034 15.4545 5.58619 14.435 5.58619 13.1818C5.58619 11.9286 6.63034 10.9091 7.91377 10.9091C9.1972 10.9091 10.2414 11.9286 10.2414 13.1818C10.2414 14.435 9.1972 15.4545 7.91377 15.4545Z" fill="#1C2359"/>
<path d="M26.069 3.1818C23.679 3.1818 19.0964 3.1818 16.7758 3.1818H15.3621V2.72725C15.3621 2.47589 15.1535 2.27271 14.8966 2.27271V0.909085C14.8966 0.407724 14.479 0 13.9655 0H13.0345C12.521 0 12.1034 0.407724 12.1034 0.909085V2.27271C11.8465 2.27271 11.6379 2.47589 11.6379 2.72725V3.1818H10.2507C10.246 3.1818 10.2423 3.18407 10.2381 3.18452C10.2335 3.18452 10.2293 3.1818 10.2242 3.1818C7.89145 3.1818 3.3075 3.1818 0.931035 3.1818C0.417569 3.1818 0 3.58952 0 4.09088V4.99997C0 5.50133 0.417569 5.90905 0.931035 5.90905H4.6561L4.65657 7.15268C2.35831 8.3404 0.931035 10.6504 0.931035 13.1817C0.931035 15.0031 1.65817 16.7149 2.97791 18.0035C4.29672 19.2908 6.04893 19.9999 7.91193 19.9999H7.91379C8.17076 19.9999 8.37931 19.7962 8.37931 19.5453V18.1585C10.9853 17.9281 13.0345 15.7853 13.0345 13.1817C13.0345 12.0608 12.6411 10.9622 11.9508 10.1113L12.7244 9.54539H14.276L15.0497 10.1113C14.3593 10.9622 13.9655 12.0604 13.9655 13.1817C13.9655 15.7853 16.0147 17.9281 18.6207 18.1585V19.5453C18.6207 19.7962 18.8292 19.9999 19.0862 19.9999H19.0881C20.9506 19.9999 22.7033 19.2908 24.0221 18.0035C25.3418 16.7149 26.069 15.0031 26.069 13.1817C26.069 10.6504 24.6417 8.3404 22.3448 7.1495V5.90905H26.069C26.5824 5.90905 27 5.50133 27 4.99997V4.09088C27 3.58952 26.5824 3.1818 26.069 3.1818ZM15.6912 9.44448L14.8966 8.86312V6.81813C15.1535 6.81813 15.3621 6.61495 15.3621 6.36359V5.90905H16.2875C16.2903 6.52268 16.2954 7.07222 16.2978 7.28586C16.2982 7.33449 16.3071 7.38268 16.3229 7.42858C16.3606 7.53586 16.6176 8.25903 16.7819 8.72085C16.3955 8.91357 16.0292 9.1513 15.6912 9.44448ZM12.1034 8.86312L11.3088 9.44403C10.9708 9.15085 10.604 8.91357 10.2181 8.72085C10.3824 8.25903 10.6394 7.53586 10.6771 7.42858C10.6934 7.38222 10.7018 7.33449 10.7022 7.28586C10.7046 7.07222 10.7097 6.52268 10.7125 5.90905H11.6379V6.36359C11.6379 6.61495 11.8465 6.81813 12.1034 6.81813V8.86312ZM12.569 5.90905V3.1818H14.431V5.90905H12.569ZM16.2931 4.09088C16.2884 4.34406 16.2866 4.66042 16.2861 4.99997H15.3621V4.09088H16.2931ZM13.0345 0.909085H13.9655V2.27271H13.0345V0.909085ZM11.6379 4.99997H10.7139C10.7134 4.66042 10.7116 4.34406 10.7069 4.09088H11.6379V4.99997ZM0.931035 4.99997V4.09088H4.65517L4.65564 4.99997H0.931035ZM3.63616 17.3603C2.49238 16.244 1.86207 14.7599 1.86207 13.1817C1.86207 10.9881 3.09988 8.98585 5.10207 7.95085C5.40093 7.78722 5.58621 7.47995 5.58621 7.1495V4.09088H9.77633C9.78191 4.42315 9.78331 4.91633 9.78238 5.44496C9.78238 5.4486 9.78052 5.45133 9.78052 5.45451C9.78052 5.45814 9.78238 5.46087 9.78238 5.46405C9.78098 6.05587 9.77679 6.69132 9.77214 7.20359C9.69766 7.41404 9.49516 7.98313 9.35271 8.38403C8.89371 8.25312 8.41329 8.18176 7.91379 8.18176C5.09043 8.18176 2.7931 10.4249 2.7931 13.1817C2.7931 15.7853 4.84231 17.9281 7.44828 18.1585V19.074C6.00843 18.9676 4.66914 18.369 3.63616 17.3603ZM7.91379 17.2726C5.6039 17.2726 3.72414 15.4376 3.72414 13.1817C3.72414 10.9258 5.6039 9.09085 7.91379 9.09085C9.10226 9.09085 10.1729 9.55402 11.0118 10.4299C11.0123 10.4308 11.0127 10.4313 11.0137 10.4322C11.0221 10.4427 11.0309 10.4531 11.0402 10.4627C11.7059 11.1658 12.1034 12.1826 12.1034 13.1817C12.1034 15.4376 10.2237 17.2726 7.91379 17.2726ZM13.0345 8.6363V6.81813H13.9655V8.6363H13.0345ZM14.8966 13.1817C14.8966 12.1826 15.2941 11.1658 15.9598 10.4631C15.9686 10.4536 15.9775 10.4436 15.9854 10.4336C15.9863 10.4327 15.9877 10.4313 15.9887 10.4299C16.8275 9.55402 17.8982 9.09085 19.0862 9.09085C21.3961 9.09085 23.2759 10.9258 23.2759 13.1817C23.2759 15.4376 21.3961 17.2726 19.0862 17.2726C16.7763 17.2726 14.8966 15.4376 14.8966 13.1817ZM25.1379 13.1817C25.1379 14.7599 24.5076 16.244 23.3638 17.3603C22.3309 18.369 20.9911 18.9676 19.5517 19.074V18.1585C22.1577 17.9281 24.2069 15.7853 24.2069 13.1817C24.2069 10.4249 21.9096 8.18176 19.0862 8.18176C18.5867 8.18176 18.1063 8.25312 17.6473 8.38358C17.5048 7.98267 17.3023 7.41358 17.2279 7.20313C17.2227 6.69086 17.2186 6.05587 17.2176 5.4636C17.2176 5.46042 17.2195 5.45723 17.2195 5.45405C17.2195 5.45042 17.2176 5.44769 17.2176 5.44451C17.2167 4.91587 17.2181 4.42315 17.2237 4.09043H21.4138V7.14904C21.4138 7.47949 21.5991 7.78631 21.9082 7.9554C23.9001 8.98585 25.1379 10.9881 25.1379 13.1817ZM26.069 4.99997H22.3448V4.09088H26.069V4.99997Z" fill="#1C2359"/>
<path d="M22.3451 13.1818C22.3451 11.4277 20.8834 10 19.0865 10C17.2896 10 15.8279 11.4277 15.8279 13.1818C15.8279 14.9359 17.2896 16.3636 19.0865 16.3636C20.8834 16.3636 22.3451 14.9359 22.3451 13.1818ZM16.7589 13.1818C16.7589 11.9286 17.8031 10.9091 19.0865 10.9091C20.3699 10.9091 21.4141 11.9286 21.4141 13.1818C21.4141 14.435 20.3699 15.4545 19.0865 15.4545C17.8031 15.4545 16.7589 14.435 16.7589 13.1818Z" fill="#1C2359"/>
</svg>
