<svg width="250" height="60" viewBox="0 0 250 60" fill="none" xmlns="http://www.w3.org/2000/svg">
<path d="M35.2577 36.4167C43.2673 36.4167 49.7604 29.9308 49.7604 21.93C49.7604 13.9293 43.2673 7.44336 35.2577 7.44336C27.248 7.44336 20.7549 13.9293 20.7549 21.93C20.7549 29.9308 27.248 36.4167 35.2577 36.4167Z" fill="#1FC5B1"/>
<path d="M43.8794 18.7364H38.4837V13.3467H32.0603V18.7364H26.636V25.1528H32.0603V30.5425H38.4837V25.1528H43.8794V18.7364Z" fill="#E4E4E6"/>
<path d="M64.7201 41.9775H7.25139C3.25456 41.9775 0 45.2285 0 49.2209V52.757C0 56.7494 3.25456 60.0004 7.25139 60.0004H29.8049C33.8017 60.0004 37.0563 56.7494 37.0563 52.757V51.9585V48.3654V45.5137H64.7486C66.8041 45.5137 68.46 47.1962 68.46 49.2209C68.46 51.2741 66.8041 52.9281 64.7486 52.9281H51.3592V56.4642H64.7486C68.7454 56.4642 72 53.2133 72 49.2209C71.9715 45.2285 68.7169 41.9775 64.7201 41.9775ZM33.4877 52.757C33.4877 54.8102 31.8033 56.4642 29.7764 56.4642H7.22284C5.16733 56.4642 3.5115 54.8102 3.5115 52.757V49.2209C3.5115 47.1677 5.16733 45.5137 7.22284 45.5137H33.4877V48.3654V51.9585V52.757Z" fill="white"/>
<path opacity="0.5" d="M58.1252 52.9277H51.3306V56.4639H58.1252V52.9277Z" fill="#E4E4E6"/>
<path opacity="0.5" d="M20.0127 41.9775V45.4851H31.4037H33.4877V48.3369V51.9585V52.2722H37.0278V51.9585V48.3369V45.4851H39.8541H50.5313V41.9775H20.0127Z" fill="#E4E4E6"/>
<path d="M52.3584 1.16895H45.2212V3.19366H52.3584C54.4139 3.19366 56.0697 4.87617 56.0697 6.90088V22.3001C56.0697 22.899 56.0412 23.4978 55.9841 24.0967C55.0705 34.7336 46.1062 43.0891 35.2291 43.0891C24.3521 43.0891 15.4163 34.7336 14.4742 24.0967C14.4171 23.4978 14.3885 22.899 14.3885 22.3001V6.90088C14.3885 4.84765 16.0729 3.19366 18.0999 3.19366H25.2371V1.16895H18.0999C14.931 1.16895 12.3616 3.73548 12.3616 6.90088V22.3001C12.3616 22.899 12.3901 23.4978 12.4187 24.0967C13.3322 35.8457 23.2101 45.1138 35.172 45.1138C47.1625 45.1138 57.0119 35.8457 57.9254 24.0967C57.9825 23.4978 57.9825 22.899 57.9825 22.3001V6.90088C58.0967 3.73548 55.5273 1.16895 52.3584 1.16895Z" fill="#E4E4E6"/>
<path opacity="0.3" d="M58.0968 13.2891V22.3005C58.0968 22.8993 58.0682 23.4982 58.0397 24.097H56.0127C56.0698 23.4982 56.0983 22.8993 56.0983 22.3005V13.2891H58.0968Z" fill="white"/>
<path opacity="0.3" d="M14.5313 24.097H12.5044C12.4473 23.4982 12.4473 22.8993 12.4473 22.3005V13.2891H14.4742V22.3005C14.4457 22.8993 14.4742 23.4982 14.5313 24.097Z" fill="white"/>
<path d="M35.2577 45.9695C22.1824 45.9695 11.5337 35.3326 11.5337 22.2718V18.0228C11.5337 16.9676 12.3902 16.1406 13.4179 16.1406C14.4742 16.1406 15.3021 16.9961 15.3021 18.0228V22.2718C15.3021 33.2509 24.2379 42.1767 35.2292 42.1767C46.2204 42.1767 55.1562 33.2509 55.1562 22.2718V18.0228C55.1562 16.9676 56.0127 16.1406 57.0404 16.1406C58.0967 16.1406 58.9247 16.9961 58.9247 18.0228V22.2718C58.9818 35.3612 48.3331 45.9695 35.2577 45.9695Z" fill="white"/>
<path d="M40.5391 43.8311C40.5391 46.7399 38.1696 49.0783 35.2862 49.0783C34.7437 49.0783 34.2299 48.9927 33.7445 48.8501C33.4305 48.7646 33.145 48.6505 32.8881 48.5079C31.2037 47.6524 30.0332 45.8844 30.0332 43.8311C30.0332 41.8064 31.2037 40.0384 32.8881 39.1543C33.1736 39.0117 33.4591 38.8977 33.7445 38.8121C34.2299 38.6695 34.7437 38.584 35.2862 38.584C38.1696 38.584 40.5391 40.9224 40.5391 43.8311Z" fill="white"/>
<path d="M35.2576 47.6811C37.3862 47.6811 39.1117 45.9574 39.1117 43.8313C39.1117 41.7051 37.3862 39.9814 35.2576 39.9814C33.1291 39.9814 31.4036 41.7051 31.4036 43.8313C31.4036 45.9574 33.1291 47.6811 35.2576 47.6811Z" fill="white"/>
<path d="M37.7129 43.8314C37.7129 45.2002 36.5995 46.2839 35.2577 46.2839C33.8873 46.2839 32.8025 45.1717 32.8025 43.8314C32.8025 42.4626 33.9159 41.3789 35.2577 41.3789C36.628 41.3789 37.7129 42.4911 37.7129 43.8314Z" fill="white"/>
<path d="M30.3759 1.11219V3.30801C30.3759 3.90687 29.8906 4.39166 29.291 4.39166H26.4362C25.8366 4.39166 25.3513 3.90687 25.3513 3.30801V1.11219C25.3513 0.51333 25.8366 0.02854 26.4362 0.02854H29.291C29.862 2.29236e-05 30.3759 0.484812 30.3759 1.11219Z" fill="white"/>
<path d="M30.3759 1.11217V3.30798C30.3759 3.90684 29.8906 4.39163 29.291 4.39163H27.1213V0H29.291C29.862 0 30.3759 0.484789 30.3759 1.11217Z" fill="#1FC5B1"/>
<path d="M40.1682 1.11219V3.30801C40.1682 3.90687 40.6535 4.39166 41.2531 4.39166H44.1079C44.7075 4.39166 45.1928 3.90687 45.1928 3.30801V1.11219C45.1928 0.51333 44.7075 0.02854 44.1079 0.02854H41.2531C40.6535 2.29236e-05 40.1682 0.484812 40.1682 1.11219Z" fill="white"/>
<path d="M40.1682 1.11217V3.30798C40.1682 3.90684 40.6535 4.39163 41.2531 4.39163H43.4228V0H41.2531C40.6535 0 40.1682 0.484789 40.1682 1.11217Z" fill="#1FC5B1"/>
<path d="M55.2703 54.7247C55.2703 57.6334 52.9008 59.9718 50.0174 59.9718C49.4749 59.9718 48.9611 59.8863 48.4757 59.7437C48.1617 59.6581 47.8762 59.5441 47.6193 59.4015C45.9349 58.546 44.7644 56.7779 44.7644 54.7247C44.7644 52.7 45.9349 50.9319 47.6193 50.0479C47.9048 49.9053 48.1903 49.7912 48.4757 49.7057C48.9611 49.5631 49.4749 49.4775 50.0174 49.4775C52.9008 49.4775 55.2703 51.8159 55.2703 54.7247Z" fill="white"/>
<path d="M49.9888 58.5746C52.1174 58.5746 53.8429 56.851 53.8429 54.7248C53.8429 52.5986 52.1174 50.875 49.9888 50.875C47.8603 50.875 46.1348 52.5986 46.1348 54.7248C46.1348 56.851 47.8603 58.5746 49.9888 58.5746Z" fill="white"/>
<path d="M52.4441 54.7249C52.4441 56.0938 51.3307 57.1774 49.9889 57.1774C48.6185 57.1774 47.5337 56.0652 47.5337 54.7249C47.5337 53.3561 48.6471 52.2725 49.9889 52.2725C51.3592 52.2725 52.4441 53.3561 52.4441 54.7249Z" fill="white"/>
<path d="M85.0832 33.2061V8.70605H89.7732L100.203 25.9961H97.7182L107.973 8.70605H112.628L112.698 33.2061H107.378L107.343 16.8611H108.323L100.133 30.6161H97.5782L89.2132 16.8611H90.4032V33.2061H85.0832ZM123.726 18.5761H135.521V22.9861H123.726V18.5761ZM124.146 28.6561H137.481V33.2061H118.511V8.70605H137.026V13.2561H124.146V28.6561ZM141.992 33.2061V8.70605H153.122C155.782 8.70605 158.127 9.21939 160.157 10.2461C162.187 11.2494 163.774 12.6611 164.917 14.4811C166.061 16.3011 166.632 18.4594 166.632 20.9561C166.632 23.4294 166.061 25.5877 164.917 27.4311C163.774 29.2511 162.187 30.6744 160.157 31.7011C158.127 32.7044 155.782 33.2061 153.122 33.2061H141.992ZM147.662 28.5511H152.842C154.476 28.5511 155.887 28.2477 157.077 27.6411C158.291 27.0111 159.224 26.1244 159.877 24.9811C160.554 23.8377 160.892 22.4961 160.892 20.9561C160.892 19.3927 160.554 18.0511 159.877 16.9311C159.224 15.7877 158.291 14.9127 157.077 14.3061C155.887 13.6761 154.476 13.3611 152.842 13.3611H147.662V28.5511ZM182.808 33.6261C180.872 33.6261 179.075 33.3111 177.418 32.6811C175.785 32.0511 174.362 31.1644 173.148 30.0211C171.958 28.8777 171.025 27.5361 170.348 25.9961C169.695 24.4561 169.368 22.7761 169.368 20.9561C169.368 19.1361 169.695 17.4561 170.348 15.9161C171.025 14.3761 171.97 13.0344 173.183 11.8911C174.397 10.7477 175.82 9.86105 177.453 9.23105C179.087 8.60105 180.86 8.28605 182.773 8.28605C184.71 8.28605 186.483 8.60105 188.093 9.23105C189.727 9.86105 191.138 10.7477 192.328 11.8911C193.542 13.0344 194.487 14.3761 195.163 15.9161C195.84 17.4327 196.178 19.1127 196.178 20.9561C196.178 22.7761 195.84 24.4677 195.163 26.0311C194.487 27.5711 193.542 28.9127 192.328 30.0561C191.138 31.1761 189.727 32.0511 188.093 32.6811C186.483 33.3111 184.722 33.6261 182.808 33.6261ZM182.773 28.7961C183.87 28.7961 184.873 28.6094 185.783 28.2361C186.717 27.8627 187.533 27.3261 188.233 26.6261C188.933 25.9261 189.47 25.0977 189.843 24.1411C190.24 23.1844 190.438 22.1227 190.438 20.9561C190.438 19.7894 190.24 18.7277 189.843 17.7711C189.47 16.8144 188.933 15.9861 188.233 15.2861C187.557 14.5861 186.752 14.0494 185.818 13.6761C184.885 13.3027 183.87 13.1161 182.773 13.1161C181.677 13.1161 180.662 13.3027 179.728 13.6761C178.818 14.0494 178.013 14.5861 177.313 15.2861C176.613 15.9861 176.065 16.8144 175.668 17.7711C175.295 18.7277 175.108 19.7894 175.108 20.9561C175.108 22.0994 175.295 23.1611 175.668 24.1411C176.065 25.0977 176.602 25.9261 177.278 26.6261C177.978 27.3261 178.795 27.8627 179.728 28.2361C180.662 28.6094 181.677 28.7961 182.773 28.7961ZM207.004 33.2061L196.434 8.70605H202.559L211.799 30.4061H208.194L217.574 8.70605H223.209L212.604 33.2061H207.004ZM221.214 33.2061L232.134 8.70605H237.734L248.689 33.2061H242.739L233.779 11.5761H236.019L227.024 33.2061H221.214ZM226.674 27.9561L228.179 23.6511H240.779L242.319 27.9561H226.674Z" fill="white"/>
<path d="M85.6016 41.4277L81.8359 51.7949H80.2969L84.6328 40.4199H85.625L85.6016 41.4277ZM88.7578 51.7949L84.9844 41.4277L84.9609 40.4199H85.9531L90.3047 51.7949H88.7578ZM88.5625 47.584V48.8184H82.1719V47.584H88.5625ZM93.1797 39.7949V51.7949H91.7266V39.7949H93.1797ZM97.0703 39.7949V51.7949H95.6172V39.7949H97.0703ZM111.008 45.3105V46.5371H104.852V45.3105H111.008ZM105.086 40.4199V51.7949H103.578V40.4199H105.086ZM112.32 40.4199V51.7949H110.82V40.4199H112.32ZM118.289 51.9512C117.701 51.9512 117.167 51.8522 116.688 51.6543C116.214 51.4512 115.805 51.1673 115.461 50.8027C115.122 50.4382 114.862 50.0059 114.68 49.5059C114.497 49.0059 114.406 48.459 114.406 47.8652V47.5371C114.406 46.8496 114.508 46.2376 114.711 45.7012C114.914 45.1595 115.19 44.7012 115.539 44.3262C115.888 43.9512 116.284 43.6673 116.727 43.4746C117.169 43.2819 117.628 43.1855 118.102 43.1855C118.706 43.1855 119.227 43.2897 119.664 43.498C120.107 43.7064 120.469 43.998 120.75 44.373C121.031 44.7428 121.24 45.1803 121.375 45.6855C121.51 46.1855 121.578 46.7324 121.578 47.3262V47.9746H115.266V46.7949H120.133V46.6855C120.112 46.3105 120.034 45.946 119.898 45.5918C119.768 45.2376 119.56 44.946 119.273 44.7168C118.987 44.4876 118.596 44.373 118.102 44.373C117.773 44.373 117.471 44.4434 117.195 44.584C116.919 44.7194 116.682 44.9225 116.484 45.1934C116.286 45.4642 116.133 45.7949 116.023 46.1855C115.914 46.5762 115.859 47.0267 115.859 47.5371V47.8652C115.859 48.2663 115.914 48.6439 116.023 48.998C116.138 49.347 116.302 49.6543 116.516 49.9199C116.734 50.1855 116.997 50.3939 117.305 50.5449C117.617 50.696 117.971 50.7715 118.367 50.7715C118.878 50.7715 119.31 50.6673 119.664 50.459C120.018 50.2507 120.328 49.972 120.594 49.623L121.469 50.3184C121.286 50.5944 121.055 50.8574 120.773 51.1074C120.492 51.3574 120.146 51.5605 119.734 51.7168C119.328 51.873 118.846 51.9512 118.289 51.9512ZM128.25 50.3496V45.998C128.25 45.6647 128.182 45.3757 128.047 45.1309C127.917 44.8809 127.719 44.6882 127.453 44.5527C127.188 44.4173 126.859 44.3496 126.469 44.3496C126.104 44.3496 125.784 44.4121 125.508 44.5371C125.237 44.6621 125.023 44.8262 124.867 45.0293C124.716 45.2324 124.641 45.4512 124.641 45.6855H123.195C123.195 45.3835 123.273 45.084 123.43 44.7871C123.586 44.4902 123.81 44.222 124.102 43.9824C124.398 43.7376 124.753 43.5449 125.164 43.4043C125.581 43.2585 126.044 43.1855 126.555 43.1855C127.169 43.1855 127.711 43.2897 128.18 43.498C128.654 43.7064 129.023 44.0215 129.289 44.4434C129.56 44.86 129.695 45.3835 129.695 46.0137V49.9512C129.695 50.2324 129.719 50.5319 129.766 50.8496C129.818 51.1673 129.893 51.4408 129.992 51.6699V51.7949H128.484C128.411 51.6283 128.354 51.4069 128.312 51.1309C128.271 50.8496 128.25 50.5892 128.25 50.3496ZM128.5 46.6699L128.516 47.6855H127.055C126.643 47.6855 126.276 47.7194 125.953 47.7871C125.63 47.8496 125.359 47.946 125.141 48.0762C124.922 48.2064 124.755 48.3704 124.641 48.5684C124.526 48.7611 124.469 48.9876 124.469 49.248C124.469 49.5137 124.529 49.7559 124.648 49.9746C124.768 50.1934 124.948 50.3678 125.188 50.498C125.432 50.623 125.732 50.6855 126.086 50.6855C126.529 50.6855 126.919 50.5918 127.258 50.4043C127.596 50.2168 127.865 49.9876 128.062 49.7168C128.266 49.446 128.375 49.1829 128.391 48.9277L129.008 49.623C128.971 49.8418 128.872 50.084 128.711 50.3496C128.549 50.6152 128.333 50.8704 128.062 51.1152C127.797 51.3548 127.479 51.5553 127.109 51.7168C126.745 51.873 126.333 51.9512 125.875 51.9512C125.302 51.9512 124.799 51.8392 124.367 51.6152C123.94 51.3913 123.607 51.0918 123.367 50.7168C123.133 50.3366 123.016 49.9121 123.016 49.4434C123.016 48.9902 123.104 48.5918 123.281 48.248C123.458 47.8991 123.714 47.61 124.047 47.3809C124.38 47.1465 124.781 46.9694 125.25 46.8496C125.719 46.7298 126.242 46.6699 126.82 46.6699H128.5ZM133.539 39.7949V51.7949H132.086V39.7949H133.539ZM139.398 43.3418V44.4512H134.828V43.3418H139.398ZM136.375 41.2871H137.82V49.7012C137.82 49.9876 137.865 50.2038 137.953 50.3496C138.042 50.4954 138.156 50.5918 138.297 50.6387C138.438 50.6855 138.589 50.709 138.75 50.709C138.87 50.709 138.995 50.6986 139.125 50.6777C139.26 50.6517 139.362 50.6309 139.43 50.6152L139.438 51.7949C139.323 51.8314 139.172 51.8652 138.984 51.8965C138.802 51.9329 138.581 51.9512 138.32 51.9512C137.966 51.9512 137.641 51.8809 137.344 51.7402C137.047 51.5996 136.81 51.3652 136.633 51.0371C136.461 50.7038 136.375 50.2559 136.375 49.6934V41.2871ZM142.539 39.7949V51.7949H141.094V39.7949H142.539ZM142.195 47.248L141.594 47.2246C141.599 46.6465 141.685 46.1126 141.852 45.623C142.018 45.1283 142.253 44.6986 142.555 44.334C142.857 43.9694 143.216 43.6882 143.633 43.4902C144.055 43.2871 144.521 43.1855 145.031 43.1855C145.448 43.1855 145.823 43.2428 146.156 43.3574C146.49 43.4668 146.773 43.6439 147.008 43.8887C147.247 44.1335 147.43 44.4512 147.555 44.8418C147.68 45.2272 147.742 45.6986 147.742 46.2559V51.7949H146.289V46.2402C146.289 45.7975 146.224 45.4434 146.094 45.1777C145.964 44.9069 145.773 44.7116 145.523 44.5918C145.273 44.4668 144.966 44.4043 144.602 44.4043C144.242 44.4043 143.914 44.4798 143.617 44.6309C143.326 44.7819 143.073 44.9902 142.859 45.2559C142.651 45.5215 142.487 45.8262 142.367 46.1699C142.253 46.5085 142.195 46.8678 142.195 47.248ZM160.961 48.1777H162.461C162.383 48.8965 162.177 49.5397 161.844 50.1074C161.51 50.6751 161.039 51.1257 160.43 51.459C159.82 51.7871 159.06 51.9512 158.148 51.9512C157.482 51.9512 156.875 51.8262 156.328 51.5762C155.786 51.3262 155.32 50.972 154.93 50.5137C154.539 50.0501 154.237 49.4954 154.023 48.8496C153.815 48.1986 153.711 47.4746 153.711 46.6777V45.5449C153.711 44.748 153.815 44.0267 154.023 43.3809C154.237 42.7298 154.542 42.1725 154.938 41.709C155.339 41.2454 155.82 40.8887 156.383 40.6387C156.945 40.3887 157.578 40.2637 158.281 40.2637C159.141 40.2637 159.867 40.4251 160.461 40.748C161.055 41.071 161.516 41.5189 161.844 42.0918C162.177 42.6595 162.383 43.3184 162.461 44.0684H160.961C160.888 43.5371 160.753 43.0814 160.555 42.7012C160.357 42.3158 160.076 42.0189 159.711 41.8105C159.346 41.6022 158.87 41.498 158.281 41.498C157.776 41.498 157.331 41.5944 156.945 41.7871C156.565 41.9798 156.245 42.2533 155.984 42.6074C155.729 42.9616 155.536 43.3861 155.406 43.8809C155.276 44.3757 155.211 44.9251 155.211 45.5293V46.6777C155.211 47.235 155.268 47.7585 155.383 48.248C155.503 48.7376 155.682 49.1673 155.922 49.5371C156.161 49.9069 156.466 50.1986 156.836 50.4121C157.206 50.6204 157.643 50.7246 158.148 50.7246C158.789 50.7246 159.299 50.623 159.68 50.4199C160.06 50.2168 160.346 49.9251 160.539 49.5449C160.737 49.1647 160.878 48.709 160.961 48.1777ZM169.281 50.3496V45.998C169.281 45.6647 169.214 45.3757 169.078 45.1309C168.948 44.8809 168.75 44.6882 168.484 44.5527C168.219 44.4173 167.891 44.3496 167.5 44.3496C167.135 44.3496 166.815 44.4121 166.539 44.5371C166.268 44.6621 166.055 44.8262 165.898 45.0293C165.747 45.2324 165.672 45.4512 165.672 45.6855H164.227C164.227 45.3835 164.305 45.084 164.461 44.7871C164.617 44.4902 164.841 44.222 165.133 43.9824C165.43 43.7376 165.784 43.5449 166.195 43.4043C166.612 43.2585 167.076 43.1855 167.586 43.1855C168.201 43.1855 168.742 43.2897 169.211 43.498C169.685 43.7064 170.055 44.0215 170.32 44.4434C170.591 44.86 170.727 45.3835 170.727 46.0137V49.9512C170.727 50.2324 170.75 50.5319 170.797 50.8496C170.849 51.1673 170.924 51.4408 171.023 51.6699V51.7949H169.516C169.443 51.6283 169.385 51.4069 169.344 51.1309C169.302 50.8496 169.281 50.5892 169.281 50.3496ZM169.531 46.6699L169.547 47.6855H168.086C167.674 47.6855 167.307 47.7194 166.984 47.7871C166.661 47.8496 166.391 47.946 166.172 48.0762C165.953 48.2064 165.786 48.3704 165.672 48.5684C165.557 48.7611 165.5 48.9876 165.5 49.248C165.5 49.5137 165.56 49.7559 165.68 49.9746C165.799 50.1934 165.979 50.3678 166.219 50.498C166.464 50.623 166.763 50.6855 167.117 50.6855C167.56 50.6855 167.951 50.5918 168.289 50.4043C168.628 50.2168 168.896 49.9876 169.094 49.7168C169.297 49.446 169.406 49.1829 169.422 48.9277L170.039 49.623C170.003 49.8418 169.904 50.084 169.742 50.3496C169.581 50.6152 169.365 50.8704 169.094 51.1152C168.828 51.3548 168.51 51.5553 168.141 51.7168C167.776 51.873 167.365 51.9512 166.906 51.9512C166.333 51.9512 165.831 51.8392 165.398 51.6152C164.971 51.3913 164.638 51.0918 164.398 50.7168C164.164 50.3366 164.047 49.9121 164.047 49.4434C164.047 48.9902 164.135 48.5918 164.312 48.248C164.49 47.8991 164.745 47.61 165.078 47.3809C165.411 47.1465 165.812 46.9694 166.281 46.8496C166.75 46.7298 167.273 46.6699 167.852 46.6699H169.531ZM174.445 44.6699V51.7949H173V43.3418H174.406L174.445 44.6699ZM177.086 43.2949L177.078 44.6387C176.958 44.6126 176.844 44.597 176.734 44.5918C176.63 44.5814 176.51 44.5762 176.375 44.5762C176.042 44.5762 175.747 44.6283 175.492 44.7324C175.237 44.8366 175.021 44.9824 174.844 45.1699C174.667 45.3574 174.526 45.5814 174.422 45.8418C174.323 46.097 174.258 46.3783 174.227 46.6855L173.82 46.9199C173.82 46.4095 173.87 45.9303 173.969 45.4824C174.073 45.0345 174.232 44.6387 174.445 44.2949C174.659 43.946 174.93 43.6751 175.258 43.4824C175.591 43.2845 175.987 43.1855 176.445 43.1855C176.549 43.1855 176.669 43.1986 176.805 43.2246C176.94 43.2454 177.034 43.2689 177.086 43.2949ZM181.773 51.9512C181.185 51.9512 180.651 51.8522 180.172 51.6543C179.698 51.4512 179.289 51.1673 178.945 50.8027C178.607 50.4382 178.346 50.0059 178.164 49.5059C177.982 49.0059 177.891 48.459 177.891 47.8652V47.5371C177.891 46.8496 177.992 46.2376 178.195 45.7012C178.398 45.1595 178.674 44.7012 179.023 44.3262C179.372 43.9512 179.768 43.6673 180.211 43.4746C180.654 43.2819 181.112 43.1855 181.586 43.1855C182.19 43.1855 182.711 43.2897 183.148 43.498C183.591 43.7064 183.953 43.998 184.234 44.373C184.516 44.7428 184.724 45.1803 184.859 45.6855C184.995 46.1855 185.062 46.7324 185.062 47.3262V47.9746H178.75V46.7949H183.617V46.6855C183.596 46.3105 183.518 45.946 183.383 45.5918C183.253 45.2376 183.044 44.946 182.758 44.7168C182.471 44.4876 182.081 44.373 181.586 44.373C181.258 44.373 180.956 44.4434 180.68 44.584C180.404 44.7194 180.167 44.9225 179.969 45.1934C179.771 45.4642 179.617 45.7949 179.508 46.1855C179.398 46.5762 179.344 47.0267 179.344 47.5371V47.8652C179.344 48.2663 179.398 48.6439 179.508 48.998C179.622 49.347 179.786 49.6543 180 49.9199C180.219 50.1855 180.482 50.3939 180.789 50.5449C181.102 50.696 181.456 50.7715 181.852 50.7715C182.362 50.7715 182.794 50.6673 183.148 50.459C183.503 50.2507 183.812 49.972 184.078 49.623L184.953 50.3184C184.771 50.5944 184.539 50.8574 184.258 51.1074C183.977 51.3574 183.63 51.5605 183.219 51.7168C182.812 51.873 182.331 51.9512 181.773 51.9512ZM197 48.9199C197 48.6543 196.958 48.4199 196.875 48.2168C196.797 48.0085 196.656 47.821 196.453 47.6543C196.255 47.4876 195.979 47.3288 195.625 47.1777C195.276 47.0267 194.833 46.873 194.297 46.7168C193.734 46.5501 193.227 46.3652 192.773 46.1621C192.32 45.9538 191.932 45.7168 191.609 45.4512C191.286 45.1855 191.039 44.8809 190.867 44.5371C190.695 44.1934 190.609 43.8001 190.609 43.3574C190.609 42.9147 190.701 42.5059 190.883 42.1309C191.065 41.7559 191.326 41.4303 191.664 41.1543C192.008 40.873 192.417 40.6543 192.891 40.498C193.365 40.3418 193.893 40.2637 194.477 40.2637C195.331 40.2637 196.055 40.4277 196.648 40.7559C197.247 41.0788 197.703 41.5033 198.016 42.0293C198.328 42.5501 198.484 43.1074 198.484 43.7012H196.984C196.984 43.2741 196.893 42.8965 196.711 42.5684C196.529 42.235 196.253 41.9746 195.883 41.7871C195.513 41.5944 195.044 41.498 194.477 41.498C193.94 41.498 193.497 41.5788 193.148 41.7402C192.799 41.9017 192.539 42.1204 192.367 42.3965C192.201 42.6725 192.117 42.9876 192.117 43.3418C192.117 43.5814 192.167 43.8001 192.266 43.998C192.37 44.1908 192.529 44.3704 192.742 44.5371C192.961 44.7038 193.237 44.8574 193.57 44.998C193.909 45.1387 194.312 45.2741 194.781 45.4043C195.427 45.5866 195.984 45.7897 196.453 46.0137C196.922 46.2376 197.307 46.4902 197.609 46.7715C197.917 47.0475 198.143 47.3626 198.289 47.7168C198.44 48.0658 198.516 48.4616 198.516 48.9043C198.516 49.3678 198.422 49.7871 198.234 50.1621C198.047 50.5371 197.779 50.8574 197.43 51.123C197.081 51.3887 196.661 51.5944 196.172 51.7402C195.688 51.8809 195.146 51.9512 194.547 51.9512C194.021 51.9512 193.503 51.8783 192.992 51.7324C192.487 51.5866 192.026 51.3678 191.609 51.0762C191.198 50.7845 190.867 50.4251 190.617 49.998C190.372 49.5658 190.25 49.0658 190.25 48.498H191.75C191.75 48.8887 191.826 49.2246 191.977 49.5059C192.128 49.7819 192.333 50.0111 192.594 50.1934C192.859 50.3757 193.159 50.5111 193.492 50.5996C193.831 50.6829 194.182 50.7246 194.547 50.7246C195.073 50.7246 195.518 50.6517 195.883 50.5059C196.247 50.36 196.523 50.1517 196.711 49.8809C196.904 49.61 197 49.2897 197 48.9199ZM203.727 51.9512C203.138 51.9512 202.604 51.8522 202.125 51.6543C201.651 51.4512 201.242 51.1673 200.898 50.8027C200.56 50.4382 200.299 50.0059 200.117 49.5059C199.935 49.0059 199.844 48.459 199.844 47.8652V47.5371C199.844 46.8496 199.945 46.2376 200.148 45.7012C200.352 45.1595 200.628 44.7012 200.977 44.3262C201.326 43.9512 201.721 43.6673 202.164 43.4746C202.607 43.2819 203.065 43.1855 203.539 43.1855C204.143 43.1855 204.664 43.2897 205.102 43.498C205.544 43.7064 205.906 43.998 206.188 44.373C206.469 44.7428 206.677 45.1803 206.812 45.6855C206.948 46.1855 207.016 46.7324 207.016 47.3262V47.9746H200.703V46.7949H205.57V46.6855C205.549 46.3105 205.471 45.946 205.336 45.5918C205.206 45.2376 204.997 44.946 204.711 44.7168C204.424 44.4876 204.034 44.373 203.539 44.373C203.211 44.373 202.909 44.4434 202.633 44.584C202.357 44.7194 202.12 44.9225 201.922 45.1934C201.724 45.4642 201.57 45.7949 201.461 46.1855C201.352 46.5762 201.297 47.0267 201.297 47.5371V47.8652C201.297 48.2663 201.352 48.6439 201.461 48.998C201.576 49.347 201.74 49.6543 201.953 49.9199C202.172 50.1855 202.435 50.3939 202.742 50.5449C203.055 50.696 203.409 50.7715 203.805 50.7715C204.315 50.7715 204.747 50.6673 205.102 50.459C205.456 50.2507 205.766 49.972 206.031 49.623L206.906 50.3184C206.724 50.5944 206.492 50.8574 206.211 51.1074C205.93 51.3574 205.583 51.5605 205.172 51.7168C204.766 51.873 204.284 51.9512 203.727 51.9512ZM210.148 44.6699V51.7949H208.703V43.3418H210.109L210.148 44.6699ZM212.789 43.2949L212.781 44.6387C212.661 44.6126 212.547 44.597 212.438 44.5918C212.333 44.5814 212.214 44.5762 212.078 44.5762C211.745 44.5762 211.451 44.6283 211.195 44.7324C210.94 44.8366 210.724 44.9824 210.547 45.1699C210.37 45.3574 210.229 45.5814 210.125 45.8418C210.026 46.097 209.961 46.3783 209.93 46.6855L209.523 46.9199C209.523 46.4095 209.573 45.9303 209.672 45.4824C209.776 45.0345 209.935 44.6387 210.148 44.2949C210.362 43.946 210.633 43.6751 210.961 43.4824C211.294 43.2845 211.69 43.1855 212.148 43.1855C212.253 43.1855 212.372 43.1986 212.508 43.2246C212.643 43.2454 212.737 43.2689 212.789 43.2949ZM216.836 50.4902L219.148 43.3418H220.625L217.586 51.7949H216.617L216.836 50.4902ZM214.906 43.3418L217.289 50.5293L217.453 51.7949H216.484L213.422 43.3418H214.906ZM223.586 43.3418V51.7949H222.133V43.3418H223.586ZM222.023 41.0996C222.023 40.8652 222.094 40.6673 222.234 40.5059C222.38 40.3444 222.594 40.2637 222.875 40.2637C223.151 40.2637 223.362 40.3444 223.508 40.5059C223.659 40.6673 223.734 40.8652 223.734 41.0996C223.734 41.3236 223.659 41.5163 223.508 41.6777C223.362 41.834 223.151 41.9121 222.875 41.9121C222.594 41.9121 222.38 41.834 222.234 41.6777C222.094 41.5163 222.023 41.3236 222.023 41.0996ZM229.289 50.7637C229.633 50.7637 229.951 50.6934 230.242 50.5527C230.534 50.4121 230.773 50.2194 230.961 49.9746C231.148 49.7246 231.255 49.4408 231.281 49.123H232.656C232.63 49.623 232.461 50.0892 232.148 50.5215C231.841 50.9486 231.438 51.2949 230.938 51.5605C230.438 51.821 229.888 51.9512 229.289 51.9512C228.654 51.9512 228.099 51.8392 227.625 51.6152C227.156 51.3913 226.766 51.084 226.453 50.6934C226.146 50.3027 225.914 49.8548 225.758 49.3496C225.607 48.8392 225.531 48.3001 225.531 47.7324V47.4043C225.531 46.8366 225.607 46.3001 225.758 45.7949C225.914 45.2845 226.146 44.834 226.453 44.4434C226.766 44.0527 227.156 43.7454 227.625 43.5215C228.099 43.2975 228.654 43.1855 229.289 43.1855C229.951 43.1855 230.529 43.321 231.023 43.5918C231.518 43.8574 231.906 44.222 232.188 44.6855C232.474 45.1439 232.63 45.6647 232.656 46.248H231.281C231.255 45.8991 231.156 45.584 230.984 45.3027C230.818 45.0215 230.589 44.7975 230.297 44.6309C230.01 44.459 229.674 44.373 229.289 44.373C228.846 44.373 228.474 44.4616 228.172 44.6387C227.875 44.8105 227.638 45.0449 227.461 45.3418C227.289 45.6335 227.164 45.959 227.086 46.3184C227.013 46.6725 226.977 47.0345 226.977 47.4043V47.7324C226.977 48.1022 227.013 48.4668 227.086 48.8262C227.159 49.1855 227.281 49.5111 227.453 49.8027C227.63 50.0944 227.867 50.3288 228.164 50.5059C228.466 50.6777 228.841 50.7637 229.289 50.7637ZM237.789 51.9512C237.201 51.9512 236.667 51.8522 236.188 51.6543C235.714 51.4512 235.305 51.1673 234.961 50.8027C234.622 50.4382 234.362 50.0059 234.18 49.5059C233.997 49.0059 233.906 48.459 233.906 47.8652V47.5371C233.906 46.8496 234.008 46.2376 234.211 45.7012C234.414 45.1595 234.69 44.7012 235.039 44.3262C235.388 43.9512 235.784 43.6673 236.227 43.4746C236.669 43.2819 237.128 43.1855 237.602 43.1855C238.206 43.1855 238.727 43.2897 239.164 43.498C239.607 43.7064 239.969 43.998 240.25 44.373C240.531 44.7428 240.74 45.1803 240.875 45.6855C241.01 46.1855 241.078 46.7324 241.078 47.3262V47.9746H234.766V46.7949H239.633V46.6855C239.612 46.3105 239.534 45.946 239.398 45.5918C239.268 45.2376 239.06 44.946 238.773 44.7168C238.487 44.4876 238.096 44.373 237.602 44.373C237.273 44.373 236.971 44.4434 236.695 44.584C236.419 44.7194 236.182 44.9225 235.984 45.1934C235.786 45.4642 235.633 45.7949 235.523 46.1855C235.414 46.5762 235.359 47.0267 235.359 47.5371V47.8652C235.359 48.2663 235.414 48.6439 235.523 48.998C235.638 49.347 235.802 49.6543 236.016 49.9199C236.234 50.1855 236.497 50.3939 236.805 50.5449C237.117 50.696 237.471 50.7715 237.867 50.7715C238.378 50.7715 238.81 50.6673 239.164 50.459C239.518 50.2507 239.828 49.972 240.094 49.623L240.969 50.3184C240.786 50.5944 240.555 50.8574 240.273 51.1074C239.992 51.3574 239.646 51.5605 239.234 51.7168C238.828 51.873 238.346 51.9512 237.789 51.9512ZM247.688 49.5527C247.688 49.3444 247.641 49.1517 247.547 48.9746C247.458 48.7923 247.273 48.6283 246.992 48.4824C246.716 48.3314 246.299 48.2012 245.742 48.0918C245.273 47.9928 244.849 47.8757 244.469 47.7402C244.094 47.6048 243.773 47.4408 243.508 47.248C243.247 47.0553 243.047 46.8288 242.906 46.5684C242.766 46.3079 242.695 46.0033 242.695 45.6543C242.695 45.321 242.768 45.0059 242.914 44.709C243.065 44.4121 243.276 44.1491 243.547 43.9199C243.823 43.6908 244.154 43.5111 244.539 43.3809C244.924 43.2507 245.354 43.1855 245.828 43.1855C246.505 43.1855 247.083 43.3053 247.562 43.5449C248.042 43.7845 248.409 44.1048 248.664 44.5059C248.919 44.9017 249.047 45.3418 249.047 45.8262H247.602C247.602 45.5918 247.531 45.3652 247.391 45.1465C247.255 44.9225 247.055 44.7376 246.789 44.5918C246.529 44.446 246.208 44.373 245.828 44.373C245.427 44.373 245.102 44.4355 244.852 44.5605C244.607 44.6803 244.427 44.834 244.312 45.0215C244.203 45.209 244.148 45.4069 244.148 45.6152C244.148 45.7715 244.174 45.9121 244.227 46.0371C244.284 46.1569 244.383 46.2689 244.523 46.373C244.664 46.472 244.862 46.5658 245.117 46.6543C245.372 46.7428 245.698 46.8314 246.094 46.9199C246.786 47.0762 247.357 47.2637 247.805 47.4824C248.253 47.7012 248.586 47.9694 248.805 48.2871C249.023 48.6048 249.133 48.9902 249.133 49.4434C249.133 49.8132 249.055 50.1517 248.898 50.459C248.747 50.7663 248.526 51.0319 248.234 51.2559C247.948 51.4746 247.604 51.6465 247.203 51.7715C246.807 51.8913 246.362 51.9512 245.867 51.9512C245.122 51.9512 244.492 51.8184 243.977 51.5527C243.461 51.2871 243.07 50.9434 242.805 50.5215C242.539 50.0996 242.406 49.6543 242.406 49.1855H243.859C243.88 49.5814 243.995 49.8965 244.203 50.1309C244.411 50.36 244.667 50.5241 244.969 50.623C245.271 50.7168 245.57 50.7637 245.867 50.7637C246.263 50.7637 246.594 50.7116 246.859 50.6074C247.13 50.5033 247.336 50.36 247.477 50.1777C247.617 49.9954 247.688 49.7871 247.688 49.5527Z" fill="white"/>
</svg>
