<svg width="106" height="120" viewBox="0 0 106 120" fill="none" xmlns="http://www.w3.org/2000/svg">
<path d="M28.8043 53.9349C41.5584 66.1917 60.3244 70.4855 65.131 71.2568C61.8362 48.501 39.9181 32.4804 16.6021 37.2528C13.4694 64.363 40.5162 84.6211 65.472 74.5236C65.4711 74.5041 65.4691 74.4853 65.4679 74.4662C38.9907 71.2355 28.8043 53.9349 28.8043 53.9349Z" fill="#1B763B"/>
<path d="M87.5656 37.2532C84.9123 36.71 82.1649 36.4246 79.3511 36.4246C69.8839 36.4246 61.1778 39.6628 54.2607 45.0802C57.7603 48.2959 60.7302 52.0824 63.0336 56.2905C68.4776 53.2046 76.9187 47.9972 79.8904 43.7491C76.1687 50.5272 71.7574 53.6322 64.2933 58.7853C66.378 63.2532 67.737 68.1322 68.1938 73.2824C79.8296 67.3925 87.8129 55.3329 87.8129 41.3986C87.8127 39.9951 87.7228 38.6139 87.5656 37.2532Z" fill="#8BC53F"/>
<path d="M42.3699 23.0458L44.9573 38.1995C46.8386 39.0382 48.6432 40.0258 50.3578 41.1458L45.5675 22.3663C49.1734 20.6965 51.381 15.3187 50.1769 9.65385C48.8424 3.37455 43.822 -0.878239 38.9629 0.154535C34.104 1.18731 31.2476 7.11449 32.582 13.3938C33.7861 19.0588 37.9908 23.073 42.3699 23.0458Z" fill="#F6921E"/>
<path d="M59.1652 23.3573L54.7051 40.8432C56.397 39.7694 58.1546 38.8335 59.9709 38.0446L62.3625 24.0374C66.3354 23.978 69.3223 19.7047 70.5268 14.0395C70.9208 12.1854 71.8331 7.17479 71.1753 4.03283C71.1237 3.78324 70.9041 3.60425 70.6486 3.60425C70.3937 3.6039 70.1743 3.78182 70.1204 4.03106L67.6601 15.609C67.6069 15.8608 67.4551 16.0813 67.2392 16.2205C67.0237 16.3612 66.7608 16.4098 66.5087 16.3566L66.453 16.3445C65.9288 16.2331 65.5942 15.7176 65.7049 15.1934L68.1543 3.67237C68.2759 3.10241 67.9122 2.54274 67.3423 2.42158L67.3231 2.41768C67.0494 2.3595 66.764 2.41236 66.5293 2.56474C66.2946 2.71694 66.1307 2.95642 66.0725 3.22978L63.6231 14.7508C63.569 15.0029 63.4184 15.2227 63.2021 15.3632C62.9866 15.5039 62.7237 15.5525 62.4716 15.4989L62.4166 15.4868C61.8924 15.3752 61.5572 14.8599 61.6691 14.3357L64.1173 2.81451C64.1755 2.54097 64.1222 2.25537 63.9704 2.02104C63.8177 1.78635 63.5782 1.6219 63.3052 1.56336C62.7244 1.44043 62.1544 1.81065 62.0313 2.3909L59.5869 13.8928C59.5331 14.1449 59.3818 14.3654 59.1659 14.5051C58.9497 14.6453 58.6866 14.6939 58.4354 14.6407L58.3797 14.6286C57.8556 14.5176 57.521 14.0017 57.6322 13.4772L60.1038 1.85021C60.1554 1.60878 60.0355 1.36344 59.8141 1.2547C59.5929 1.14596 59.3249 1.20131 59.1652 1.38952C57.1061 3.82156 55.8113 8.73122 55.3678 10.8172C54.1639 16.4823 55.1535 21.6013 59.1652 23.3573Z" fill="#F6921E"/>
<path d="M13.1136 102.314H4.976C5.01751 103.243 5.25646 103.966 5.69266 104.482C6.12904 104.999 6.84624 105.256 7.84371 105.256C8.34253 105.256 8.91941 105.186 9.57416 105.044C10.2286 104.904 10.9819 104.671 11.8341 104.349C12.5197 105.058 12.946 106.018 13.1122 107.228C11.4432 108.417 9.39872 109.011 6.97875 109.011C5.66428 109.011 4.56375 108.803 3.67732 108.386C2.79037 107.969 2.07051 107.384 1.51794 106.633C0.964832 105.882 0.573685 104.996 0.344318 103.973C0.114419 102.951 0 101.835 0 100.625C0 99.4565 0.140852 98.3769 0.422549 97.3858C0.704069 96.3951 1.13158 95.5346 1.70562 94.8041C2.27913 94.0739 3.00927 93.5004 3.89622 93.0829C4.78265 92.6656 5.82056 92.457 7.00979 92.457C8.01134 92.457 8.91337 92.6243 9.71678 92.9574C10.5197 93.2917 11.2033 93.7506 11.7665 94.3344C12.3298 94.9189 12.7626 95.6174 13.0652 96.4313C13.3671 97.2448 13.5188 98.132 13.5188 99.0911C13.5192 100.364 13.3838 101.438 13.1136 102.314ZM4.94461 98.9347H9.04429V98.5905C9.04429 97.8189 8.87311 97.1822 8.53181 96.6814C8.18997 96.1806 7.67767 95.9303 6.99436 95.9303C6.33198 95.9303 5.8399 96.165 5.51917 96.6346C5.19845 97.104 5.00687 97.8707 4.94461 98.9347Z" fill="#52443B"/>
<path d="M24.2839 99.8418V99.4353C24.2839 98.267 24.1589 97.4167 23.9082 96.8847C23.6579 96.3527 23.1887 96.0865 22.4999 96.0865C21.7694 96.0865 21.2583 96.4466 20.9665 97.1664C20.6742 97.8859 20.5284 99.0805 20.5284 100.75C20.5284 101.584 20.5855 102.283 20.7003 102.846C20.8147 103.409 20.982 103.863 21.201 104.208C21.4201 104.552 21.6965 104.802 22.0304 104.959C22.3639 105.115 22.7601 105.193 23.2196 105.193C23.6991 105.193 24.2311 105.089 24.8156 104.88C25.3994 104.672 26.0252 104.338 26.6931 103.879C26.8809 103.984 27.0734 104.135 27.2719 104.333C27.4701 104.531 27.6526 104.755 27.8195 105.006C27.9864 105.256 28.1324 105.522 28.258 105.804C28.3831 106.085 28.4771 106.351 28.5394 106.602C27.8511 107.332 26.9537 107.916 25.8482 108.354C24.7423 108.792 23.6155 109.011 22.4685 109.011C20.2359 109.011 18.5253 108.281 17.3362 106.821C16.1472 105.361 15.5527 103.284 15.5527 100.593C15.5527 99.2167 15.7452 98.0172 16.1316 96.9945C16.5176 95.9728 17.0283 95.1277 17.6649 94.4596C18.3012 93.7923 19.0314 93.2917 19.8557 92.9574C20.6795 92.6243 21.54 92.457 22.4375 92.457C23.3551 92.457 24.1949 92.5821 24.9564 92.8324C25.7178 93.083 26.3748 93.4378 26.9278 93.8964C27.4803 94.3558 27.9082 94.9034 28.2108 95.5392C28.5131 96.1762 28.6644 96.8801 28.6644 97.6518C28.6644 98.5279 28.4088 99.1436 27.8977 99.4981C27.3863 99.8532 26.7557 100.03 26.0046 100.03C25.3791 100.03 24.8049 99.9671 24.2839 99.8418Z" fill="#52443B"/>
<path d="M42.3715 94.3033C43.8737 95.8054 44.6247 97.9543 44.6247 100.75C44.6247 102.001 44.4628 103.139 44.1396 104.161C43.816 105.183 43.3466 106.054 42.7314 106.774C42.1157 107.494 41.3593 108.047 40.4626 108.432C39.5655 108.818 38.5326 109.011 37.3645 109.011C36.1958 109.011 35.1687 108.813 34.2821 108.417C33.395 108.021 32.6439 107.462 32.0289 106.742C31.4132 106.023 30.9493 105.152 30.6364 104.13C30.3235 103.108 30.167 101.981 30.167 100.75C30.167 99.498 30.3233 98.3666 30.6364 97.3542C30.9493 96.3425 31.408 95.4717 32.0133 94.7412C32.618 94.0111 33.3691 93.4479 34.2665 93.0512C35.1632 92.6553 36.1958 92.4568 37.3645 92.4568C39.43 92.457 41.0987 93.0727 42.3715 94.3033ZM37.3802 96.1183C36.9178 96.1183 36.5449 96.2278 36.2613 96.4469C35.9778 96.6659 35.752 96.9632 35.5836 97.3386C35.4156 97.7143 35.3002 98.1475 35.237 98.6373C35.1739 99.1278 35.1426 99.6544 35.1426 100.218C35.1426 101.094 35.1685 101.85 35.2214 102.486C35.2739 103.123 35.3787 103.655 35.5361 104.082C35.6938 104.51 35.9146 104.829 36.1983 105.037C36.4818 105.246 36.8546 105.35 37.3173 105.35C38.2413 105.35 38.8506 104.948 39.1448 104.145C39.4392 103.342 39.5865 102.199 39.5865 100.718C39.5865 99.2163 39.4394 98.0739 39.1448 97.2916C38.8505 96.5093 38.2621 96.1183 37.3802 96.1183Z" fill="#52443B"/>
<path d="M48.2865 108.542V96.3063L45.5951 96.3376C45.4697 95.8208 45.4072 95.2519 45.4072 94.6319C45.4072 94.012 45.4697 93.4329 45.5951 92.8951L48.0358 92.9263C47.9311 92.1547 47.8795 91.4557 47.8795 90.8299C47.8795 89.265 48.3849 87.9663 49.3973 86.9339C50.4089 85.9009 51.7286 85.3845 53.356 85.3845C54.9835 85.3845 56.5791 85.677 58.1437 86.2607C58.1643 86.8037 58.0706 87.3928 57.8622 88.0291C57.6531 88.6657 57.393 89.1505 57.0796 89.484C56.0993 89.1924 55.2961 89.0459 54.6701 89.0459C53.2722 89.0459 52.5731 89.7657 52.5731 91.2051C52.5731 91.8105 52.615 92.3943 52.6985 92.9575L56.798 92.8951C56.9235 93.4328 56.9859 94.012 56.9859 94.6319C56.9859 95.2519 56.9235 95.8208 56.798 96.3376L53.043 96.2748V108.542C52.3335 108.667 51.551 108.73 50.6958 108.73C49.8404 108.73 49.0375 108.667 48.2865 108.542Z" fill="#81BA41"/>
<path d="M69.6913 94.3033C71.1934 95.8054 71.9449 97.9543 71.9449 100.75C71.9449 102.001 71.7825 103.139 71.4593 104.161C71.1361 105.183 70.6668 106.054 70.0516 106.774C69.4355 107.494 68.6791 108.047 67.7824 108.432C66.8857 108.818 65.8527 109.011 64.6846 109.011C63.5156 109.011 62.4885 108.813 61.6024 108.417C60.7149 108.021 59.9642 107.462 59.3489 106.742C58.7335 106.023 58.2692 105.152 57.9567 104.13C57.6434 103.108 57.4873 101.981 57.4873 100.75C57.4873 99.498 57.6432 98.3666 57.9567 97.3542C58.2692 96.3425 58.728 95.4717 59.3334 94.7412C59.9381 94.0111 60.6896 93.4479 61.587 93.0512C62.4837 92.6553 63.5159 92.4568 64.6848 92.4568C66.75 92.457 68.4189 93.0727 69.6913 94.3033ZM64.7 96.1183C64.2377 96.1183 63.8649 96.2278 63.5814 96.4469C63.2979 96.6659 63.0718 96.9632 62.9038 97.3386C62.7358 97.7143 62.6201 98.1475 62.5571 98.6373C62.494 99.1278 62.4628 99.6544 62.4628 100.218C62.4628 101.094 62.4883 101.85 62.5414 102.486C62.5939 103.123 62.6987 103.655 62.8561 104.082C63.0134 104.51 63.2346 104.829 63.5181 105.037C63.8015 105.246 64.1744 105.35 64.6367 105.35C65.5611 105.35 66.1701 104.948 66.4642 104.145C66.759 103.342 66.9059 102.199 66.9059 100.718C66.9059 99.2163 66.7592 98.0739 66.4642 97.2916C66.1702 96.5093 65.5818 96.1183 64.7 96.1183Z" fill="#81BA41"/>
<path d="M86.0255 94.3033C87.5276 95.8054 88.279 97.9543 88.279 100.75C88.279 102.001 88.1167 103.139 87.7935 104.161C87.4703 105.183 87.0009 106.054 86.3857 106.774C85.7697 107.494 85.0133 108.047 84.1166 108.432C83.2198 108.818 82.1869 109.011 81.0188 109.011C79.8498 109.011 78.8227 108.813 77.9364 108.417C77.0489 108.021 76.2982 107.462 75.6828 106.742C75.0675 106.023 74.6032 105.152 74.2907 104.13C73.9774 103.108 73.8213 101.981 73.8213 100.75C73.8213 99.498 73.9772 98.3666 74.2907 97.3542C74.6032 96.3425 75.062 95.4717 75.6672 94.7412C76.2719 94.0111 77.0234 93.4479 77.9208 93.0512C78.8175 92.6553 79.8498 92.4568 81.0186 92.4568C83.0843 92.457 84.753 93.0727 86.0255 94.3033ZM81.0342 96.1183C80.5721 96.1183 80.1992 96.2278 79.9156 96.4469C79.6321 96.6659 79.4059 96.9632 79.2379 97.3386C79.0699 97.7143 78.9545 98.1475 78.8913 98.6373C78.8282 99.1278 78.7971 99.6544 78.7971 100.218C78.7971 101.094 78.8227 101.85 78.8759 102.486C78.9284 103.123 79.0332 103.655 79.1906 104.082C79.3479 104.51 79.5691 104.829 79.8528 105.037C80.1362 105.246 80.5091 105.35 80.9714 105.35C81.8958 105.35 82.5048 104.948 82.7989 104.145C83.0937 103.342 83.2406 102.199 83.2406 100.718C83.2406 99.2163 83.0939 98.0739 82.7989 97.2916C82.5044 96.5093 81.9162 96.1183 81.0342 96.1183Z" fill="#81BA41"/>
<path d="M96.4775 92.6136C97.4792 92.6136 98.4495 92.8437 99.3881 93.3025V85.7291L99.576 85.51H101.485C102.486 85.51 103.179 85.7291 103.566 86.1671C103.952 86.6056 104.145 87.3673 104.145 88.4519V104.036C104.145 105.142 104.437 105.893 105.021 106.289C104.916 106.727 104.718 107.197 104.426 107.697C104.134 108.198 103.832 108.563 103.519 108.793C101.996 108.751 100.88 108.167 100.171 107.04C98.9191 108.354 97.4169 109.012 95.6645 109.012C93.9122 109.012 92.566 108.282 91.6274 106.821C90.6888 105.361 90.2188 103.358 90.2188 100.813C90.2188 99.5612 90.3804 98.4294 90.7043 97.4174C91.0275 96.4059 91.4706 95.5452 92.0342 94.8357C92.597 94.1268 93.2591 93.5788 94.0211 93.1928C94.7825 92.8068 95.6013 92.6136 96.4775 92.6136ZM97.0864 105.069C97.9484 105.069 98.7154 104.662 99.3883 103.848V96.995C98.5263 96.4943 97.843 96.244 97.3389 96.244C95.9091 96.244 95.1944 97.8084 95.1944 100.938C95.1944 103.692 95.8252 105.069 97.0864 105.069Z" fill="#81BA41"/>
<path d="M24.9744 118.639C24.5916 118.639 24.2428 118.576 23.9281 118.45C23.6134 118.324 23.3433 118.141 23.1178 117.9C22.8924 117.658 22.7176 117.361 22.5947 117.006C22.4714 116.653 22.4097 116.247 22.4097 115.791C22.4097 115.335 22.4792 114.93 22.6185 114.576C22.757 114.222 22.9449 113.924 23.181 113.683C23.4165 113.441 23.692 113.258 24.0067 113.132C24.3214 113.006 24.657 112.943 25.0138 112.943C25.2392 112.943 25.4427 112.959 25.6235 112.991C25.8046 113.022 25.9619 113.059 26.0955 113.1C26.2291 113.143 26.338 113.185 26.4219 113.226C26.506 113.268 26.5636 113.3 26.5949 113.321L26.3747 113.95C26.3275 113.919 26.2592 113.885 26.1702 113.848C26.0808 113.811 25.9798 113.775 25.8672 113.738C25.7546 113.701 25.6311 113.671 25.4975 113.648C25.3639 113.624 25.2288 113.612 25.0924 113.612C24.8037 113.612 24.5444 113.662 24.3136 113.762C24.0825 113.861 23.8857 114.006 23.7234 114.194C23.5608 114.383 23.4364 114.613 23.3498 114.883C23.2633 115.153 23.2198 115.456 23.2198 115.791C23.2198 116.116 23.2581 116.413 23.3339 116.68C23.4102 116.948 23.5239 117.177 23.6762 117.368C23.8283 117.56 24.0182 117.708 24.2466 117.813C24.4749 117.918 24.7411 117.97 25.0452 117.97C25.3964 117.97 25.6873 117.934 25.9185 117.86C26.1493 117.787 26.3222 117.721 26.4373 117.664L26.6341 118.293C26.5975 118.319 26.5319 118.352 26.4373 118.391C26.3431 118.431 26.225 118.468 26.0836 118.505C25.9419 118.542 25.7767 118.573 25.5878 118.599C25.3994 118.626 25.1949 118.639 24.9744 118.639Z" fill="#959595"/>
<path d="M30.9529 116.476C30.9529 116.801 30.9057 117.095 30.8115 117.357C30.7173 117.62 30.5846 117.845 30.4141 118.034C30.2437 118.223 30.0405 118.368 29.8044 118.471C29.5683 118.573 29.3115 118.624 29.0335 118.624C28.7553 118.624 28.4983 118.573 28.2626 118.471C28.0264 118.368 27.8232 118.223 27.6525 118.034C27.482 117.845 27.3499 117.62 27.2551 117.357C27.161 117.095 27.1138 116.801 27.1138 116.476C27.1138 116.156 27.161 115.864 27.2551 115.599C27.3499 115.334 27.482 115.107 27.6525 114.918C27.823 114.73 28.0264 114.584 28.2626 114.482C28.4983 114.38 28.7552 114.329 29.0335 114.329C29.3115 114.329 29.5683 114.38 29.8044 114.482C30.0405 114.584 30.2435 114.73 30.4141 114.918C30.5846 115.107 30.7171 115.334 30.8115 115.599C30.9057 115.864 30.9529 116.156 30.9529 116.476ZM30.1897 116.476C30.1897 116.015 30.0863 115.649 29.8793 115.379C29.6719 115.109 29.3902 114.974 29.0335 114.974C28.6766 114.974 28.3949 115.109 28.1879 115.379C27.9805 115.649 27.8771 116.015 27.8771 116.476C27.8771 116.938 27.9805 117.304 28.1879 117.573C28.3949 117.844 28.6766 117.979 29.0335 117.979C29.3901 117.979 29.6719 117.844 29.8793 117.573C30.0863 117.304 30.1897 116.938 30.1897 116.476Z" fill="#959595"/>
<path d="M31.9839 114.548C32.1515 114.506 32.3731 114.461 32.6484 114.414C32.9239 114.367 33.2425 114.344 33.6044 114.344C33.8665 114.344 34.0867 114.379 34.265 114.45C34.4432 114.521 34.5928 114.624 34.7136 114.761C34.7501 114.734 34.808 114.697 34.8865 114.65C34.9653 114.603 35.062 114.557 35.1776 114.513C35.2928 114.468 35.4215 114.429 35.5633 114.395C35.7047 114.361 35.8567 114.344 36.0195 114.344C36.3342 114.344 36.5913 114.389 36.7905 114.481C36.9897 114.573 37.1456 114.703 37.2586 114.871C37.3713 115.039 37.4472 115.238 37.4866 115.469C37.5259 115.699 37.5458 115.951 37.5458 116.224V118.521H36.8142V116.381C36.8142 116.14 36.8022 115.933 36.7789 115.759C36.7552 115.586 36.7105 115.442 36.6454 115.327C36.5794 115.211 36.4905 115.126 36.3779 115.071C36.2647 115.016 36.1194 114.988 35.9411 114.988C35.6944 114.988 35.4913 115.021 35.3314 115.087C35.1713 115.153 35.0623 115.211 35.005 115.264C35.0469 115.4 35.0783 115.55 35.0994 115.712C35.1203 115.875 35.131 116.045 35.131 116.224V118.521H34.3994V116.381C34.3994 116.14 34.3863 115.933 34.36 115.759C34.3334 115.586 34.2877 115.442 34.2222 115.327C34.1566 115.211 34.0677 115.126 33.9549 115.071C33.8419 115.016 33.6991 114.988 33.5259 114.988C33.4525 114.988 33.3739 114.991 33.2898 114.996C33.2059 115.001 33.1258 115.008 33.0498 115.016C32.9736 115.024 32.9045 115.033 32.8414 115.044C32.7782 115.054 32.7366 115.062 32.7156 115.067V118.521H31.9841L31.9839 114.548Z" fill="#959595"/>
<path d="M42.3601 116.483C42.3601 116.793 42.3193 117.079 42.2383 117.341C42.157 117.603 42.0376 117.829 41.8803 118.017C41.7229 118.206 41.5305 118.353 41.3022 118.458C41.0739 118.563 40.8129 118.615 40.5192 118.615C40.2834 118.615 40.0748 118.584 39.894 118.521C39.7129 118.458 39.5779 118.398 39.4889 118.34V119.976H38.7573V114.556C38.9303 114.514 39.1465 114.468 39.4062 114.418C39.6657 114.369 39.9659 114.344 40.3068 114.344C40.6215 114.344 40.9048 114.394 41.1564 114.493C41.4084 114.593 41.6233 114.734 41.8014 114.918C41.9796 115.102 42.1175 115.326 42.2147 115.59C42.3115 115.856 42.3601 116.153 42.3601 116.483ZM41.5972 116.483C41.5972 116.006 41.479 115.639 41.2431 115.382C41.0073 115.125 40.6927 114.996 40.2992 114.996C40.0787 114.996 39.9072 115.005 39.7839 115.02C39.6606 115.036 39.5623 115.054 39.4891 115.075V117.656C39.5779 117.729 39.7067 117.8 39.8744 117.868C40.0423 117.936 40.2259 117.97 40.4252 117.97C40.635 117.97 40.8147 117.932 40.9639 117.856C41.1134 117.78 41.2355 117.675 41.33 117.542C41.4242 117.408 41.4923 117.251 41.5346 117.07C41.5762 116.888 41.5972 116.693 41.5972 116.483Z" fill="#959595"/>
<path d="M44.7134 114.328C45.0072 114.328 45.255 114.366 45.4571 114.442C45.6587 114.518 45.8214 114.626 45.9447 114.765C46.068 114.904 46.156 115.069 46.2083 115.26C46.2605 115.452 46.2871 115.663 46.2871 115.894V118.45C46.2239 118.461 46.1361 118.475 46.0233 118.493C45.9106 118.512 45.7833 118.529 45.6419 118.545C45.5002 118.561 45.3467 118.575 45.1816 118.588C45.0164 118.601 44.8523 118.608 44.6898 118.608C44.4592 118.608 44.2465 118.584 44.0526 118.537C43.8584 118.49 43.6908 118.415 43.5492 118.313C43.4075 118.21 43.2971 118.075 43.2185 117.908C43.14 117.74 43.1006 117.538 43.1006 117.302C43.1006 117.076 43.1467 116.882 43.2384 116.72C43.3303 116.557 43.4547 116.426 43.612 116.326C43.7693 116.227 43.9529 116.153 44.1628 116.106C44.3723 116.059 44.5928 116.035 44.8234 116.035C44.8968 116.035 44.973 116.039 45.0517 116.047C45.1305 116.055 45.2052 116.066 45.2758 116.078C45.3467 116.092 45.4083 116.104 45.4608 116.114C45.5133 116.125 45.55 116.132 45.5709 116.138V115.933C45.5709 115.812 45.5578 115.693 45.5316 115.575C45.5053 115.457 45.4578 115.352 45.3898 115.26C45.3217 115.169 45.2286 115.095 45.1104 115.04C44.9925 114.985 44.8392 114.958 44.6503 114.958C44.4089 114.958 44.1981 114.975 44.017 115.009C43.8362 115.043 43.7012 115.078 43.6118 115.115L43.5253 114.509C43.6196 114.467 43.777 114.427 43.9975 114.387C44.2178 114.348 44.4564 114.328 44.7134 114.328ZM44.7764 117.994C44.9494 117.994 45.1028 117.99 45.2369 117.982C45.3705 117.974 45.4819 117.96 45.5711 117.939V116.72C45.5186 116.693 45.4333 116.671 45.3151 116.653C45.1975 116.635 45.0542 116.625 44.8866 116.625C44.7762 116.625 44.6597 116.633 44.5364 116.649C44.4131 116.665 44.3003 116.697 44.1983 116.747C44.0957 116.797 44.0104 116.865 43.9423 116.952C43.8742 117.038 43.8401 117.152 43.8401 117.294C43.8401 117.556 43.9239 117.739 44.0919 117.841C44.2597 117.943 44.488 117.994 44.7764 117.994Z" fill="#959595"/>
<path d="M47.498 114.548C47.6657 114.506 47.8887 114.461 48.1665 114.414C48.4444 114.367 48.7644 114.344 49.1263 114.344C49.4513 114.344 49.7215 114.389 49.9366 114.481C50.1518 114.573 50.3234 114.701 50.452 114.867C50.5802 115.032 50.6711 115.23 50.7236 115.461C50.7761 115.691 50.8021 115.946 50.8021 116.224V118.521H50.0706V116.381C50.0706 116.13 50.0532 115.914 50.0191 115.736C49.9851 115.558 49.9287 115.414 49.8501 115.303C49.7715 115.193 49.6665 115.113 49.5354 115.063C49.4043 115.014 49.2416 114.988 49.0477 114.988C48.9692 114.988 48.8879 114.991 48.8038 114.996C48.7199 115.002 48.6397 115.008 48.5638 115.016C48.4875 115.024 48.4196 115.033 48.3593 115.044C48.299 115.054 48.2557 115.062 48.2296 115.067V118.521H47.498V114.548Z" fill="#959595"/>
<path d="M51.3913 119.284C51.4487 119.31 51.5234 119.335 51.6153 119.359C51.707 119.382 51.7975 119.394 51.8869 119.394C52.1753 119.394 52.401 119.33 52.5633 119.202C52.7256 119.073 52.873 118.865 53.0043 118.576C52.674 117.947 52.3655 117.279 52.0797 116.574C51.7936 115.869 51.5566 115.154 51.3677 114.43H52.1546C52.2121 114.666 52.2812 114.921 52.3628 115.193C52.4444 115.466 52.5344 115.747 52.6344 116.035C52.7343 116.323 52.8414 116.612 52.9569 116.9C53.0724 117.189 53.193 117.467 53.3192 117.734C53.5184 117.184 53.6913 116.638 53.838 116.098C53.9847 115.558 54.1238 115.002 54.2549 114.43H55.0106C54.8213 115.201 54.6114 115.942 54.381 116.653C54.1499 117.363 53.9012 118.028 53.6331 118.647C53.5283 118.883 53.4197 119.086 53.3071 119.256C53.1944 119.427 53.0696 119.567 52.9335 119.678C52.7967 119.787 52.6436 119.869 52.4733 119.921C52.3025 119.974 52.1099 120 51.8947 120C51.837 120 51.7767 119.996 51.7139 119.988C51.6508 119.98 51.5892 119.97 51.5289 119.957C51.4686 119.944 51.4134 119.929 51.3638 119.913C51.3137 119.897 51.2783 119.884 51.2573 119.874L51.3913 119.284Z" fill="#959595"/>
<path d="M58.9128 117.979C59.7096 117.979 60.1086 117.706 60.1086 117.16C60.1086 116.992 60.0731 116.849 60.0023 116.731C59.9314 116.613 59.8358 116.511 59.7153 116.425C59.5947 116.338 59.4565 116.263 59.302 116.2C59.1475 116.137 58.9838 116.074 58.8108 116.012C58.6109 115.943 58.4223 115.866 58.2444 115.779C58.0658 115.693 57.9113 115.591 57.78 115.473C57.6489 115.355 57.5453 115.215 57.4688 115.052C57.3931 114.889 57.3555 114.692 57.3555 114.462C57.3555 113.984 57.5178 113.612 57.8431 113.344C58.1678 113.077 58.6166 112.943 59.1879 112.943C59.5182 112.943 59.8189 112.979 60.0889 113.049C60.3589 113.12 60.5567 113.197 60.683 113.282L60.4391 113.903C60.3291 113.835 60.1647 113.768 59.9472 113.702C59.7295 113.637 59.4765 113.604 59.1879 113.604C59.0412 113.604 58.9052 113.62 58.7789 113.651C58.6535 113.683 58.5428 113.73 58.4486 113.793C58.3544 113.856 58.2799 113.936 58.2245 114.033C58.1692 114.13 58.1417 114.244 58.1417 114.375C58.1417 114.522 58.1708 114.645 58.2281 114.745C58.2863 114.844 58.367 114.932 58.472 115.008C58.5768 115.084 58.6989 115.154 58.8378 115.217C58.9767 115.28 59.1305 115.343 59.2985 115.406C59.5346 115.5 59.7506 115.594 59.947 115.689C60.1441 115.783 60.3142 115.896 60.4588 116.027C60.6026 116.158 60.7139 116.314 60.7926 116.496C60.8714 116.676 60.9109 116.895 60.9109 117.152C60.9109 117.63 60.7366 117.997 60.3878 118.254C60.0391 118.511 59.5471 118.639 58.9126 118.639C58.6971 118.639 58.4993 118.625 58.3185 118.596C58.1378 118.567 57.9762 118.533 57.8351 118.494C57.6934 118.454 57.5714 118.412 57.4687 118.368C57.3667 118.323 57.2865 118.285 57.229 118.254L57.4573 117.624C57.5778 117.693 57.7613 117.769 58.0081 117.852C58.2541 117.936 58.5562 117.979 58.9128 117.979Z" fill="#959595"/>
<path d="M63.0121 118.6C62.5604 118.589 62.2408 118.493 62.0522 118.309C61.8636 118.125 61.7686 117.84 61.7686 117.451V112.542L62.5001 112.417V117.333C62.5001 117.454 62.5108 117.554 62.532 117.632C62.5526 117.711 62.5874 117.774 62.634 117.821C62.6816 117.868 62.7447 117.904 62.8226 117.927C62.9014 117.951 62.9984 117.97 63.1139 117.986L63.0121 118.6Z" fill="#959595"/>
<path d="M67.5426 116.476C67.5426 116.801 67.495 117.095 67.4008 117.357C67.3066 117.62 67.174 117.845 67.0038 118.034C66.833 118.223 66.6303 118.368 66.3941 118.471C66.158 118.573 65.9008 118.624 65.6228 118.624C65.3449 118.624 65.0877 118.573 64.8523 118.471C64.6162 118.368 64.4127 118.223 64.2419 118.034C64.0717 117.845 63.9391 117.62 63.8449 117.357C63.7505 117.095 63.7031 116.801 63.7031 116.476C63.7031 116.156 63.7507 115.864 63.8449 115.599C63.9391 115.334 64.0717 115.107 64.2419 114.918C64.4127 114.73 64.6162 114.584 64.8523 114.482C65.0875 114.38 65.3449 114.329 65.6228 114.329C65.9006 114.329 66.158 114.38 66.3941 114.482C66.6303 114.584 66.833 114.73 67.0038 114.918C67.174 115.107 67.3066 115.334 67.4008 115.599C67.4952 115.864 67.5426 116.156 67.5426 116.476ZM66.7791 116.476C66.7791 116.015 66.6757 115.649 66.4686 115.379C66.2616 115.109 65.9794 114.974 65.623 114.974C65.2665 114.974 64.9842 115.109 64.7772 115.379C64.5702 115.649 64.4668 116.015 64.4668 116.476C64.4668 116.938 64.5702 117.304 64.7772 117.573C64.9842 117.844 65.2665 117.979 65.623 117.979C65.9796 117.979 66.2616 117.844 66.4686 117.573C66.6757 117.304 66.7791 116.938 66.7791 116.476Z" fill="#959595"/>
<path d="M71.1385 118.112C71.0754 118.154 70.9535 118.207 70.7728 118.273C70.592 118.339 70.3807 118.371 70.1398 118.371C69.8931 118.371 69.6605 118.332 69.443 118.253C69.2254 118.175 69.0354 118.053 68.8731 117.888C68.7101 117.722 68.5818 117.517 68.4874 117.27C68.3932 117.024 68.3457 116.73 68.3457 116.389C68.3457 116.09 68.3904 115.816 68.4796 115.567C68.569 115.318 68.6987 115.103 68.8688 114.922C69.0397 114.741 69.2481 114.599 69.4948 114.497C69.7407 114.395 70.0187 114.344 70.3286 114.344C70.6695 114.344 70.9672 114.369 71.221 114.418C71.4756 114.468 71.6895 114.514 71.8627 114.556V118.206C71.8627 118.836 71.7003 119.292 71.375 119.575C71.0497 119.858 70.5569 120 69.8956 120C69.6391 120 69.3966 119.979 69.1683 119.937C68.94 119.895 68.7422 119.845 68.5742 119.787L68.7081 119.15C68.8548 119.208 69.0342 119.259 69.2468 119.304C69.4595 119.348 69.6807 119.371 69.9119 119.371C70.3472 119.371 70.6605 119.284 70.8519 119.111C71.0433 118.938 71.1389 118.663 71.1389 118.285V118.112H71.1385ZM71.1307 115.075C71.0569 115.054 70.9585 115.034 70.8359 115.016C70.7126 114.998 70.5461 114.988 70.3362 114.988C69.9427 114.988 69.6401 115.117 69.4274 115.374C69.2154 115.631 69.1092 115.972 69.1092 116.397C69.1092 116.633 69.139 116.835 69.1993 117.002C69.2596 117.17 69.341 117.309 69.4432 117.419C69.5459 117.529 69.6637 117.611 69.7976 117.663C69.9309 117.716 70.0692 117.742 70.2103 117.742C70.4045 117.742 70.5831 117.714 70.7454 117.659C70.9078 117.604 71.0369 117.54 71.1311 117.466V115.075H71.1307Z" fill="#959595"/>
<path d="M74.4413 114.328C74.7356 114.328 74.9829 114.366 75.1849 114.442C75.387 114.518 75.5493 114.626 75.6726 114.765C75.7958 114.904 75.8838 115.069 75.9363 115.26C75.9888 115.452 76.0151 115.663 76.0151 115.894V118.45C75.9519 118.461 75.8641 118.475 75.7513 118.493C75.6387 118.512 75.5117 118.529 75.3699 118.545C75.2282 118.561 75.0751 118.575 74.9098 118.588C74.7446 118.601 74.5802 118.608 74.4179 118.608C74.1876 118.608 73.9747 118.584 73.7807 118.537C73.5864 118.49 73.4192 118.415 73.2774 118.313C73.1357 118.21 73.0257 118.075 72.9471 117.908C72.8684 117.74 72.8286 117.538 72.8286 117.302C72.8286 117.076 72.8747 116.882 72.9668 116.72C73.0582 116.557 73.183 116.426 73.3404 116.326C73.4977 116.227 73.6813 116.153 73.8912 116.106C74.1003 116.059 74.3208 116.035 74.552 116.035C74.6249 116.035 74.7015 116.039 74.7803 116.047C74.8589 116.055 74.9334 116.066 75.0043 116.078C75.0751 116.092 75.1368 116.104 75.1893 116.114C75.2419 116.125 75.2787 116.132 75.2991 116.138V115.933C75.2991 115.812 75.2864 115.693 75.2601 115.575C75.2339 115.457 75.1863 115.352 75.1184 115.26C75.0503 115.169 74.9568 115.095 74.839 115.04C74.7207 114.985 74.5674 114.958 74.3788 114.958C74.1371 114.958 73.9267 114.975 73.745 115.009C73.5643 115.043 73.4296 115.078 73.3402 115.115L73.2538 114.509C73.3482 114.467 73.5055 114.427 73.7259 114.387C73.9457 114.348 74.1846 114.328 74.4413 114.328ZM74.5044 117.994C74.6774 117.994 74.8312 117.99 74.9653 117.982C75.0985 117.974 75.2099 117.96 75.2991 117.939V116.72C75.2466 116.693 75.1617 116.671 75.0432 116.653C74.9256 116.635 74.7822 116.625 74.6149 116.625C74.5043 116.625 74.3881 116.633 74.2648 116.649C74.1415 116.665 74.0287 116.697 73.9267 116.747C73.824 116.797 73.7388 116.865 73.6707 116.952C73.6026 117.038 73.5687 117.152 73.5687 117.294C73.5687 117.556 73.6522 117.739 73.8204 117.841C73.9875 117.943 74.2158 117.994 74.5044 117.994Z" fill="#959595"/>
<path d="M77.2261 114.548C77.3941 114.506 77.6167 114.461 77.8945 114.414C78.1723 114.367 78.4928 114.344 78.8544 114.344C79.1797 114.344 79.4499 114.389 79.6647 114.481C79.8802 114.573 80.0517 114.701 80.18 114.867C80.3083 115.032 80.3991 115.23 80.4514 115.461C80.5039 115.691 80.5302 115.946 80.5302 116.224V118.521H79.7986V116.381C79.7986 116.13 79.7816 115.914 79.7475 115.736C79.7135 115.558 79.6567 115.414 79.5781 115.303C79.4993 115.193 79.3945 115.113 79.2634 115.063C79.1323 115.014 78.97 114.988 78.7758 114.988C78.697 114.988 78.6163 114.991 78.5319 114.996C78.4483 115.002 78.3681 115.008 78.2922 115.016C78.2156 115.024 78.1476 115.033 78.0873 115.044C78.027 115.054 77.9839 115.062 77.9576 115.067V118.521H77.2261V114.548Z" fill="#959595"/>
</svg>
