<svg width="124" height="120" viewBox="0 0 124 120" fill="none" xmlns="http://www.w3.org/2000/svg">
<path d="M37.679 86.3345C37.679 78.8035 43.8057 72.6765 51.3368 72.6765C58.8678 72.6765 64.9947 78.8035 64.9947 86.3343V86.3345H69.4086V86.3343C69.4086 76.3697 61.3015 68.2627 51.3368 68.2627C41.372 68.2627 33.2651 76.3695 33.2651 86.3343V86.3345H37.679Z" fill="#497B39"/>
<path d="M45.4031 86.3346C45.4031 83.0575 48.0597 80.4009 51.337 80.4009C54.6142 80.4009 57.2708 83.0575 57.2708 86.3346H61.6846V86.3344C61.6846 80.6289 57.0428 75.9871 51.3368 75.9871C45.6313 75.9871 40.9893 80.6289 40.9893 86.3344V86.3346H45.4031Z" fill="#497B39"/>
<path d="M75.3367 68.2629C71.8404 68.2629 68.575 69.2641 65.8062 70.99C66.8938 72.0161 67.8737 73.1544 68.7248 74.3893C70.6853 73.2999 72.9392 72.6768 75.3367 72.6768C82.8677 72.6768 88.9948 78.8037 88.9948 86.3346L93.4085 86.3347C93.4085 76.37 85.3015 68.2629 75.3367 68.2629Z" fill="#609641"/>
<path d="M75.3367 75.9871C73.544 75.9871 71.8569 76.4459 70.3853 77.2512C71.0311 78.5999 71.5329 80.0292 71.8818 81.5168C72.8554 80.8171 74.0462 80.4007 75.3369 80.4007C78.614 80.4007 81.2708 83.0573 81.2708 86.3344H85.6845V86.3342C85.6845 80.6289 81.0426 75.9871 75.3367 75.9871Z" fill="#609641"/>
<path d="M61.8797 29.4146C61.8797 28.9853 61.5323 28.6379 61.103 28.6379C60.6743 28.6379 60.3269 28.9853 60.3269 29.4146V38.23C60.3269 38.9382 58.9105 38.9913 58.9105 38.23V29.4146C58.9105 28.9853 58.5626 28.6379 58.1339 28.6379C57.705 28.6379 57.3572 28.9853 57.3572 29.4146V38.23C57.3572 38.8177 55.8959 38.8007 55.8959 38.23V29.4146C55.8959 28.9853 55.5479 28.6379 55.1192 28.6379C54.6905 28.6379 54.3425 28.9853 54.3425 29.4146V38.23C54.3425 38.8016 53.2007 38.7322 53.2007 38.23V29.4146C53.2007 28.9853 52.8533 28.6379 52.424 28.6379C51.9953 28.6379 51.6477 28.9853 51.6477 29.4146C51.6477 49.9756 51.6477 29.3687 51.6477 40.0688H51.6548C51.7136 41.8561 53.0043 43.377 54.8221 44.0215C54.8221 68.214 54.8221 40.912 54.8221 64.9749C54.8221 66.0536 55.6964 66.9277 56.7749 66.9277C57.8536 66.9277 58.7277 66.0536 58.7277 64.9749C58.7277 40.9173 58.7277 68.198 58.7277 44.0139C60.5338 43.3653 61.8142 41.8486 61.8726 40.0688H61.8773C61.8769 10.0757 61.8797 59.5516 61.8797 29.4146Z" fill="#F6921E"/>
<path d="M70.8548 28.8311C66.8123 30.8181 65.7844 37.9441 65.7844 43.7682C65.7844 46.1428 66.8036 47.4062 68.0113 48.0704C68.0113 58.6892 68.0113 41.3434 68.0113 64.9748C68.0113 66.0536 68.8854 66.9276 69.9641 66.9276C71.0428 66.9276 71.9169 66.0536 71.9169 64.9748C71.9169 57.9218 71.9169 55.6595 71.9169 48.7359V43.3229V29.7219C71.9169 28.3515 70.8548 28.8311 70.8548 28.8311Z" fill="#F6921E"/>
<path d="M67.3057 13.6114C66.3328 16.6381 66.3861 19.747 67.2661 22.5677C69.6246 20.7879 71.4794 18.2924 72.4521 15.2657C73.4249 12.2389 73.3716 9.13003 72.4916 6.30933C70.1333 8.08891 68.2785 10.5846 67.3057 13.6114Z" fill="#91C53E"/>
<path d="M42.0255 26.1519C44.6035 28.0125 47.5766 28.9226 50.5311 28.9572C49.5674 26.164 47.7668 23.6291 45.189 21.7684C42.611 19.9079 39.6379 18.9978 36.6833 18.9631C37.6473 21.7563 39.4476 24.2914 42.0255 26.1519Z" fill="#91C53E"/>
<path d="M46.1404 54.0699C48.7066 52.1931 50.4907 49.6465 51.4368 46.8474C48.4825 46.9009 45.5152 47.8297 42.949 49.7067C40.3828 51.5835 38.5987 54.13 37.6526 56.9292C40.6071 56.8755 43.5745 55.9467 46.1404 54.0699Z" fill="#91C53E"/>
<path d="M87.0446 33.7786C83.8655 33.7887 80.925 34.8002 78.5144 36.5087C80.9359 38.2018 83.8825 39.1944 87.0616 39.1843C90.2408 39.1742 93.1812 38.1628 95.5918 36.4543C93.1703 34.7614 90.2238 33.7685 87.0446 33.7786Z" fill="#91C53E"/>
<path d="M84.5662 26.1519C81.9882 28.0125 79.015 28.9226 76.0605 28.9572C77.0243 26.164 78.8246 23.6291 81.4027 21.7684C83.9807 19.9079 86.9538 18.9978 89.9083 18.9631C88.9444 21.7563 87.1442 24.2914 84.5662 26.1519Z" fill="#91C53E"/>
<path d="M59.2862 13.6114C60.2591 16.6381 60.2058 19.747 59.3256 22.5677C56.9671 20.7879 55.1125 18.2924 54.1397 15.2657C53.1668 12.2389 53.2201 9.13003 54.1001 6.30933C56.4588 8.08891 58.3134 10.5846 59.2862 13.6114Z" fill="#91C53E"/>
<path d="M39.5474 33.7786C42.7266 33.7887 45.667 34.8002 48.0776 36.5087C45.6561 38.2018 42.7095 39.1944 39.5302 39.1843C36.351 39.1742 33.4106 38.1628 31 36.4543C33.4217 34.7614 36.3683 33.7685 39.5474 33.7786Z" fill="#91C53E"/>
<path d="M80.4514 54.0699C77.8853 52.1931 76.1011 49.6465 75.155 46.8474C78.1093 46.9009 81.0767 47.8297 83.6429 49.7067C86.209 51.5835 87.9934 54.13 88.9393 56.9292C85.9848 56.8755 83.0176 55.9467 80.4514 54.0699Z" fill="#91C53E"/>
<path d="M85.7546 6.36743C83.9259 7.02159 82.2661 8.20898 81.0332 9.89474C79.787 11.5987 79.1582 13.5642 79.1006 15.526C80.9487 14.865 82.6235 13.6596 83.859 11.9477C85.0812 10.2542 85.6976 8.30893 85.7546 6.36743Z" fill="#609540"/>
<path d="M99.6345 49.0862C98.4473 47.5491 96.8051 46.3374 94.8209 45.6858C92.815 45.0271 90.7516 45.0364 88.8679 45.5878C90.0678 47.1412 91.7318 48.3616 93.7416 49.0076C95.73 49.6468 97.7706 49.6319 99.6345 49.0862Z" fill="#609540"/>
<path d="M26.9573 49.0863C28.8212 49.6319 30.8618 49.647 32.8503 49.0079C34.8602 48.3618 36.524 47.1414 37.7239 45.588C35.8402 45.0366 33.7768 45.0273 31.7709 45.686C29.7867 46.3374 28.1445 47.5491 26.9573 49.0863Z" fill="#609540"/>
<path d="M40.8372 6.36743C40.8942 8.30893 41.5105 10.2542 42.7327 11.9477C43.9682 13.6596 45.6431 14.865 47.4914 15.526C47.4336 13.5642 46.805 11.5987 45.5586 9.89474C44.3259 8.20898 42.666 7.02159 40.8372 6.36743Z" fill="#609540"/>
<path d="M63.2959 10.9117C64.3292 9.31577 64.924 7.41089 64.906 5.36746C64.8886 3.38737 64.2982 1.54742 63.2959 0C62.2935 1.54742 61.7031 3.38737 61.6857 5.36746C61.6679 7.41089 62.2627 9.31577 63.2959 10.9117Z" fill="#609540"/>
<path d="M88.3728 29.1311C90.21 29.6208 92.2053 29.5977 94.1433 28.9492C96.021 28.3208 97.5886 27.1906 98.7505 25.7592C96.9689 25.2842 95.0367 25.2913 93.1481 25.8865C91.1992 26.5008 89.5713 27.6552 88.3728 29.1311Z" fill="#609540"/>
<path d="M38.2192 29.1312C37.0208 27.6552 35.393 26.5009 33.444 25.8865C31.5553 25.2912 29.6229 25.2842 27.8416 25.7593C29.0036 27.1907 30.571 28.3209 32.4488 28.9493C34.3867 29.5977 36.3822 29.6207 38.2192 29.1312Z" fill="#609540"/>
<path d="M12.1169 100.606C12.1169 102.657 11.6044 104.251 10.579 105.389C9.55309 106.526 8.10127 107.095 6.22272 107.095C4.32101 107.095 2.86028 106.531 1.84015 105.401C0.820612 104.273 0.310547 102.668 0.310547 100.589C0.310547 98.5086 0.823578 96.9117 1.84905 95.7972C2.87453 94.6826 4.33823 94.1252 6.23994 94.1252C8.11256 94.1252 9.56041 94.6909 10.5829 95.8227C11.6054 96.9545 12.1169 98.549 12.1169 100.606ZM2.49925 100.606C2.49925 102.157 2.81238 103.333 3.43903 104.135C4.06469 104.936 4.99278 105.337 6.22252 105.337C7.44593 105.337 8.36946 104.941 8.99314 104.147C9.61642 103.355 9.92797 102.174 9.92797 100.606C9.92797 99.06 9.6194 97.8883 9.00146 97.0898C8.38412 96.2914 7.46295 95.8916 6.23974 95.8916C5.00406 95.8916 4.07221 96.2914 3.44299 97.0898C2.81396 97.8883 2.49925 99.06 2.49925 100.606Z" fill="#A87C4F"/>
<path d="M16.3532 101.89V106.922H14.2939V94.323H17.8527C19.4787 94.323 20.6825 94.6278 21.4638 95.2366C22.245 95.8457 22.6359 96.7647 22.6359 97.9946C22.6359 99.563 21.8196 100.68 20.1883 101.347L23.7477 106.922H21.4034L18.3871 101.89H16.3532ZM16.3532 100.184H17.7839C18.7434 100.184 19.4383 100.005 19.8692 99.6493C20.3005 99.2928 20.5157 98.7647 20.5157 98.0637C20.5157 97.3513 20.2833 96.8399 19.8176 96.5297C19.3524 96.2196 18.6514 96.064 17.715 96.064H16.3532V100.184Z" fill="#A87C4F"/>
<path d="M30.1985 100.088H34.8345V106.414C34.0764 106.661 33.3482 106.836 32.6501 106.939C31.952 107.043 31.1979 107.095 30.388 107.095C28.4803 107.095 27.0099 106.531 25.9755 105.401C24.9411 104.272 24.4243 102.68 24.4243 100.623C24.4243 98.5948 25.0072 97.0076 26.174 95.8614C27.3402 94.7153 28.9456 94.1423 30.9912 94.1423C32.3067 94.1423 33.5536 94.3949 34.7311 94.9004L34.0075 96.6157C32.985 96.1446 31.9621 95.9087 30.9396 95.9087C29.5952 95.9087 28.5322 96.331 27.7511 97.1758C26.9697 98.0202 26.579 99.1749 26.579 100.64C26.579 102.179 26.9309 103.35 27.6349 104.152C28.3384 104.953 29.3512 105.354 30.6724 105.354C31.339 105.354 32.0514 105.271 32.8098 105.104V101.855H30.1987V100.088H30.1985Z" fill="#A87C4F"/>
<path d="M45.1467 106.922L43.8884 103.424H39.0712L37.8385 106.922H35.667L40.3807 94.2712H42.6217L47.3354 106.922H45.1467ZM43.3453 101.648L42.1648 98.2186C42.0787 97.9888 41.9596 97.6267 41.807 97.1325C41.655 96.6387 41.5501 96.2765 41.4929 96.0465C41.3373 96.7535 41.1105 97.5264 40.812 98.3646L39.6743 101.648L43.3453 101.648Z" fill="#A87C4F"/>
<path d="M58.9657 106.922H56.4407L50.2447 96.8824H50.1758L50.2185 97.4428C50.2989 98.5116 50.3391 99.4882 50.3391 100.373V106.922H48.4692V94.323H50.9681L57.1469 104.311H57.1986C57.1873 104.179 57.1641 103.698 57.1297 102.868C57.0952 102.038 57.078 101.39 57.078 100.924V94.323H58.9655L58.9657 106.922Z" fill="#A87C4F"/>
<path d="M61.7627 106.922V94.323H63.822V106.922H61.7627Z" fill="#A87C4F"/>
<path d="M71.9793 95.9088C70.7957 95.9088 69.8649 96.3282 69.187 97.1671C68.509 98.0059 68.17 99.1638 68.17 100.64C68.17 102.186 68.4964 103.355 69.1482 104.147C69.8005 104.94 70.7437 105.337 71.9793 105.337C72.5136 105.337 73.0304 105.283 73.5305 105.177C74.0303 105.071 74.5501 104.934 75.09 104.768V106.534C74.102 106.908 72.9815 107.094 71.7292 107.094C69.8851 107.094 68.4687 106.536 67.4806 105.418C66.4925 104.301 65.9983 102.702 65.9983 100.623C65.9983 99.3126 66.238 98.1666 66.718 97.1841C67.1976 96.2014 67.8911 95.4492 68.7988 94.9263C69.7067 94.4036 70.7726 94.1421 71.9964 94.1421C73.2831 94.1421 74.4727 94.4119 75.5641 94.9518L74.8226 96.6671C74.3979 96.4658 73.9484 96.2894 73.4741 96.1368C73.0003 95.9852 72.5021 95.9088 71.9793 95.9088Z" fill="#A87C4F"/>
<path d="M80.3258 106.922H76.9736V94.323H84.4192V97.0552H80.3256V99.4591H84.1005V102.191H80.3256V106.922H80.3258Z" fill="#8A5D3B"/>
<path d="M93.6888 106.922L93.0685 104.561H88.9751L88.337 106.922H84.5969L88.7075 94.2712H93.249L97.4113 106.922H93.6888ZM92.3615 101.769L91.8186 99.7009C91.6925 99.2411 91.5385 98.6463 91.3578 97.9169C91.1767 97.1873 91.0576 96.6644 91 96.3485C90.9483 96.6415 90.8464 97.1244 90.6942 97.7964C90.542 98.4683 90.2043 99.7927 89.6816 101.769L92.3615 101.769Z" fill="#8A5D3B"/>
<path d="M101.647 102.338V106.922H98.2434V94.323H102.371C105.795 94.323 107.507 95.564 107.507 98.0463C107.507 99.5054 106.795 100.634 105.37 101.433L109.041 106.922H105.181L102.509 102.338H101.647ZM101.647 99.7782H102.285C103.475 99.7782 104.069 99.2524 104.069 98.2012C104.069 97.3337 103.486 96.8997 102.32 96.8997H101.647V99.7782H101.647Z" fill="#8A5D3B"/>
<path d="M115.148 106.922L112.571 97.8479H112.494C112.614 99.3932 112.675 100.594 112.675 101.45V106.922H109.658V94.323H114.192L116.82 103.268H116.889L119.465 94.323H124.007V106.922H120.879V101.398C120.879 101.111 120.883 100.792 120.892 100.442C120.9 100.091 120.939 99.2327 121.008 97.8652H120.931L118.388 106.922H115.148Z" fill="#8A5D3B"/>
<path d="M27.1665 112.938C27.3118 112.974 27.3841 113.053 27.3841 113.177V117.615C27.3841 118.279 27.1493 118.842 26.679 119.305C26.209 119.768 25.6383 120 24.9683 120C24.6222 120 24.2732 119.92 23.9207 119.761C23.7823 119.672 23.7459 119.563 23.8118 119.435C23.8773 119.307 23.9866 119.264 24.1386 119.305C24.4011 119.437 24.6778 119.502 24.9681 119.502C25.4929 119.502 25.9424 119.319 26.316 118.953C26.6891 118.586 26.8792 118.141 26.8861 117.615V117.284C26.4574 117.768 25.9459 118.008 25.3515 118.004C24.7567 118 24.2592 117.797 23.8583 117.392C23.4571 116.988 23.2568 116.502 23.2568 115.935V113.177C23.2568 113.108 23.281 113.051 23.3297 113.006C23.378 112.961 23.4366 112.938 23.5058 112.938C23.5747 112.938 23.6333 112.961 23.682 113.006C23.7303 113.051 23.7544 113.108 23.7544 113.177V115.935C23.7544 116.371 23.9066 116.741 24.2109 117.045C24.5151 117.349 24.8828 117.501 25.3151 117.501C25.7474 117.501 26.1151 117.349 26.4194 117.045C26.7236 116.741 26.8792 116.371 26.8861 115.935V113.177C26.8861 113.122 26.893 113.088 26.9069 113.073C26.9207 113.06 26.9344 113.042 26.9482 113.022C26.9482 112.994 26.9833 112.97 27.0521 112.949H27.0727C27.0866 112.943 27.0969 112.939 27.1038 112.939L27.1665 112.938Z" fill="#91C53E"/>
<path d="M29.7171 117.268C29.2471 116.766 29.0117 116.17 29.0117 115.479C29.0117 114.788 29.2471 114.192 29.7171 113.69C30.1868 113.189 30.7539 112.938 31.4176 112.938C32.0812 112.938 32.6479 113.189 33.118 113.69C33.5883 114.192 33.823 114.788 33.823 115.479C33.823 116.17 33.5883 116.766 33.118 117.268C32.6479 117.769 32.0812 118.019 31.4176 118.019C30.7539 118.019 30.1868 117.769 29.7171 117.268ZM31.4176 113.426C30.8992 113.426 30.4513 113.627 30.0746 114.027C29.6979 114.428 29.5095 114.911 29.5095 115.474C29.5095 116.037 29.6981 116.519 30.0746 116.92C30.4513 117.321 30.8992 117.522 31.4176 117.522C31.9359 117.522 32.3835 117.321 32.7601 116.92C33.1372 116.519 33.3252 116.037 33.3252 115.474C33.3252 114.911 33.1372 114.428 32.7601 114.027C32.3835 113.627 31.9359 113.426 31.4176 113.426Z" fill="#91C53E"/>
<path d="M35.0984 115.946V113.177C35.0984 113.108 35.1225 113.049 35.1712 113.001C35.2195 112.953 35.2779 112.928 35.3474 112.928C35.4163 112.928 35.4748 112.953 35.5235 113.001C35.5718 113.049 35.596 113.108 35.596 113.177V115.946C35.596 116.381 35.748 116.751 36.0522 117.055C36.3564 117.359 36.7228 117.515 37.1515 117.522C37.5868 117.515 37.9585 117.359 38.2661 117.055C38.5732 116.751 38.7274 116.381 38.7274 115.946V113.177C38.7274 113.108 38.7536 113.049 38.8052 113.001C38.8569 112.953 38.9174 112.928 38.9869 112.928C39.0558 112.928 39.1144 112.953 39.1631 113.001C39.2114 113.049 39.2355 113.108 39.2355 113.177V115.946C39.2355 116.519 39.0332 117.008 38.6291 117.413C38.2249 117.817 37.7356 118.019 37.162 118.019C36.588 118.019 36.1007 117.817 35.6999 117.413C35.2987 117.008 35.0984 116.519 35.0984 115.946Z" fill="#91C53E"/>
<path d="M41.0295 117.771V113.198C41.0295 113.129 41.0537 113.07 41.1018 113.022C41.1501 112.973 41.2091 112.949 41.2779 112.949C41.3474 112.949 41.406 112.973 41.4541 113.022C41.5024 113.07 41.5269 113.129 41.5269 113.198V114.318C41.5545 114.262 41.5786 114.221 41.5994 114.193C42.1316 113.364 42.8089 112.949 43.6315 112.949C43.701 112.949 43.7596 112.973 43.8083 113.022C43.8566 113.07 43.8805 113.129 43.8805 113.198C43.8805 113.267 43.8564 113.326 43.8083 113.374C43.7596 113.422 43.701 113.446 43.6315 113.446C43.0787 113.446 42.5878 113.723 42.1595 114.276C41.9103 114.608 41.7065 115.002 41.5475 115.458C41.5339 115.486 41.5269 115.514 41.5269 115.541V117.771C41.5269 117.84 41.5024 117.898 41.4541 117.947C41.4058 117.995 41.3472 118.019 41.2779 118.019C41.2091 118.019 41.1499 117.995 41.1018 117.947C41.0537 117.898 41.0295 117.84 41.0295 117.771Z" fill="#91C53E"/>
<path d="M48.1014 117.268C47.6313 116.766 47.396 116.17 47.396 115.479C47.396 114.788 47.6313 114.192 48.1014 113.69C48.5711 113.189 49.1382 112.938 49.8018 112.938C50.4655 112.938 51.0322 113.189 51.5023 113.69C51.9723 114.192 52.2073 114.788 52.2073 115.479C52.2073 116.17 51.9725 116.766 51.5023 117.268C51.0322 117.769 50.4655 118.019 49.8018 118.019C49.1382 118.019 48.5711 117.769 48.1014 117.268ZM49.8018 113.426C49.2835 113.426 48.8353 113.627 48.4589 114.027C48.0822 114.428 47.8938 114.911 47.8938 115.474C47.8938 116.037 48.0822 116.519 48.4589 116.92C48.8353 117.321 49.2835 117.522 49.8018 117.522C50.3202 117.522 50.7677 117.321 51.1444 116.92C51.5215 116.519 51.7095 116.037 51.7095 115.474C51.7095 114.911 51.5215 114.428 51.1444 114.027C50.7677 113.627 50.3202 113.426 49.8018 113.426Z" fill="#91C53E"/>
<path d="M53.5864 117.771V113.198C53.5864 113.129 53.6106 113.07 53.6587 113.022C53.707 112.973 53.7659 112.949 53.8348 112.949C53.9043 112.949 53.9629 112.973 54.0112 113.022C54.0595 113.07 54.084 113.129 54.084 113.198V114.318C54.1117 114.262 54.1357 114.221 54.1565 114.193C54.6887 113.364 55.366 112.949 56.1886 112.949C56.2581 112.949 56.3167 112.973 56.3654 113.022C56.4137 113.07 56.4376 113.129 56.4376 113.198C56.4376 113.267 56.4135 113.326 56.3654 113.374C56.3167 113.422 56.2579 113.446 56.1886 113.446C55.6358 113.446 55.1449 113.723 54.7166 114.276C54.4674 114.608 54.2637 115.002 54.1046 115.458C54.0909 115.486 54.084 115.514 54.084 115.541V117.771C54.084 117.84 54.0595 117.898 54.0112 117.947C53.9629 117.995 53.9043 118.019 53.8348 118.019C53.7659 118.019 53.7068 117.995 53.6587 117.947C53.6104 117.898 53.5864 117.84 53.5864 117.771Z" fill="#91C53E"/>
<path d="M62.0478 113.187V117.615C62.0478 118.271 61.8144 118.833 61.3477 119.3C60.881 119.766 60.3157 120 59.6522 120C59.3136 120 58.9611 119.92 58.5947 119.761C58.4563 119.665 58.4219 119.554 58.4908 119.429C58.5666 119.27 58.6774 119.232 58.8227 119.316C59.0856 119.44 59.3617 119.502 59.6522 119.502C60.1775 119.502 60.6251 119.319 60.9952 118.953C61.3649 118.586 61.55 118.14 61.55 117.615V116.993C61.3354 117.304 61.0625 117.548 60.7308 117.724C60.399 117.9 60.0392 117.988 59.6522 117.988C58.9886 117.988 58.4255 117.741 57.9621 117.247C57.499 116.753 57.2676 116.158 57.2676 115.463C57.2676 114.768 57.5009 114.174 57.9671 113.68C58.4338 113.186 58.9955 112.938 59.6522 112.938C60.0323 112.938 60.3901 113.028 60.7254 113.208C61.0607 113.388 61.3354 113.63 61.55 113.934V113.187C61.55 113.118 61.5755 113.059 61.6278 113.011C61.6794 112.963 61.738 112.938 61.8039 112.938C61.8695 112.938 61.9265 112.963 61.9747 113.011C62.0232 113.059 62.0478 113.119 62.0478 113.187ZM57.7654 115.463C57.7654 116.027 57.95 116.508 58.3202 116.905C58.6899 117.302 59.1354 117.501 59.6578 117.501C60.1797 117.501 60.6253 117.302 60.9954 116.905C61.3651 116.508 61.5502 116.025 61.5502 115.459C61.5502 114.892 61.3651 114.413 60.9954 114.022C60.6253 113.632 60.1797 113.436 59.6578 113.436C59.1354 113.436 58.6899 113.634 58.3202 114.027C57.9498 114.421 57.7654 114.9 57.7654 115.463Z" fill="#91C53E"/>
<path d="M67.7604 113.011C67.8087 112.963 67.8672 112.938 67.9365 112.938C68.0054 112.938 68.0646 112.963 68.1127 113.011C68.161 113.06 68.1851 113.119 68.1851 113.187V117.771C68.1851 117.84 68.161 117.898 68.1127 117.947C68.0644 117.995 68.0054 118.019 67.9365 118.019C67.867 118.019 67.8085 117.995 67.7604 117.947C67.7121 117.898 67.6875 117.84 67.6875 117.771V117.014C67.4664 117.325 67.1883 117.57 66.853 117.75C66.5178 117.93 66.1599 118.019 65.7799 118.019C65.1162 118.019 64.5491 117.771 64.0795 117.273C63.6094 116.775 63.374 116.177 63.374 115.479C63.374 114.781 63.6094 114.183 64.0795 113.685C64.5491 113.187 65.1162 112.938 65.7799 112.938C66.1599 112.938 66.5178 113.028 66.853 113.208C67.1883 113.388 67.4664 113.63 67.6875 113.934V113.187C67.6875 113.119 67.7121 113.059 67.7604 113.011ZM63.8716 115.479C63.8716 116.046 64.0603 116.528 64.4367 116.925C64.8138 117.323 65.2629 117.522 65.7852 117.522C66.3072 117.522 66.7545 117.323 67.1278 116.925C67.5009 116.528 67.6875 116.046 67.6875 115.479C67.6875 114.912 67.5009 114.428 67.1278 114.027C66.7547 113.626 66.3072 113.426 65.7852 113.426C65.2629 113.426 64.814 113.626 64.4367 114.027C64.0603 114.428 63.8716 114.912 63.8716 115.479Z" fill="#91C53E"/>
<path d="M70.3011 117.812C70.2662 117.95 70.1869 118.019 70.0624 118.019H70.0004C69.9242 117.999 69.869 117.954 69.8346 117.885C69.8276 117.878 69.8243 117.867 69.8243 117.853L69.814 117.833V113.198C69.814 113.129 69.8381 113.07 69.8864 113.022C69.9347 112.973 69.9937 112.949 70.0626 112.949C70.132 112.949 70.1887 112.973 70.2338 113.022C70.2785 113.07 70.3013 113.129 70.3013 113.198V113.685C70.709 113.194 71.2155 112.949 71.82 112.949C72.4251 112.949 72.9296 113.151 73.3344 113.556C73.7385 113.96 73.9408 114.446 73.9408 115.013V117.771C73.9408 117.84 73.9163 117.898 73.868 117.947C73.8197 117.995 73.7607 118.019 73.6918 118.019C73.6229 118.019 73.5638 117.995 73.5157 117.947C73.4674 117.898 73.4432 117.84 73.4432 117.771V115.013C73.4432 114.584 73.2912 114.216 72.987 113.908C72.6828 113.601 72.3144 113.447 71.8827 113.447C71.4505 113.447 71.0823 113.599 70.7785 113.903C70.4743 114.207 70.3151 114.577 70.3015 115.013V117.812H70.3011Z" fill="#91C53E"/>
<path d="M75.6514 111.767V111.528C75.6514 111.46 75.6755 111.4 75.7238 111.352C75.7721 111.304 75.8311 111.279 75.9 111.279C75.9694 111.279 76.03 111.304 76.0817 111.352C76.1333 111.4 76.1595 111.459 76.1595 111.528V111.767C76.1595 111.843 76.1333 111.907 76.0817 111.959C76.03 112.01 75.9694 112.037 75.9 112.037C75.8311 112.037 75.7719 112.01 75.7238 111.959C75.6755 111.907 75.6514 111.843 75.6514 111.767ZM75.6514 117.771V113.188C75.6514 113.119 75.6755 113.059 75.7238 113.011C75.7721 112.963 75.8327 112.939 75.9055 112.939C75.978 112.939 76.0385 112.963 76.0868 113.011C76.1355 113.06 76.1597 113.119 76.1597 113.188V117.771C76.1597 117.84 76.1335 117.898 76.0819 117.947C76.0302 117.995 75.9696 118.019 75.9002 118.019C75.8313 118.019 75.7721 117.995 75.724 117.947C75.6755 117.898 75.6514 117.84 75.6514 117.771Z" fill="#91C53E"/>
<path d="M78.4251 117.278C77.917 116.784 77.6631 116.183 77.6631 115.474C77.6631 114.765 77.917 114.166 78.4251 113.675C78.9332 113.184 79.5205 112.938 80.1875 112.938C80.8545 112.938 81.4232 113.126 81.8933 113.499C81.9485 113.533 81.9799 113.585 81.9869 113.654C81.9932 113.723 81.9726 113.786 81.9243 113.841C81.821 113.959 81.7068 113.972 81.5823 113.882C81.2023 113.578 80.7425 113.426 80.2033 113.426C79.6642 113.426 79.1887 113.627 78.7776 114.028C78.3661 114.428 78.1607 114.913 78.1607 115.479C78.1607 116.046 78.3659 116.529 78.7776 116.926C79.1887 117.324 79.6622 117.522 80.198 117.522C80.7336 117.522 81.1953 117.373 81.5823 117.076C81.7068 116.986 81.8226 117.004 81.9299 117.128C82.0367 117.252 82.0179 117.37 81.8727 117.481C81.4095 117.84 80.8773 118.02 80.2758 118.02C79.5499 118.019 78.9332 117.772 78.4251 117.278Z" fill="#91C53E"/>
<path d="M87.9898 110.771C88.0587 110.771 88.1173 110.797 88.166 110.849C88.2143 110.901 88.2384 110.962 88.2384 111.031C88.2384 111.1 88.2143 111.159 88.166 111.207C88.1173 111.255 88.0587 111.279 87.9898 111.279C87.6718 111.279 87.4507 111.351 87.3262 111.492C87.2017 111.634 87.1395 111.908 87.1395 112.316V112.856H87.8548C87.9237 112.856 87.9843 112.88 88.0365 112.928C88.0882 112.977 88.1143 113.035 88.1143 113.104C88.1143 113.174 88.0882 113.234 88.0365 113.286C87.9843 113.337 87.9239 113.364 87.8548 113.364H87.1395V117.781C87.1395 117.85 87.115 117.909 87.0667 117.957C87.0184 118.005 86.9594 118.029 86.8903 118.029C86.8214 118.029 86.7609 118.005 86.7092 117.957C86.657 117.909 86.6314 117.85 86.6314 117.781V113.364H85.9575C85.888 113.364 85.8294 113.337 85.7807 113.286C85.7324 113.234 85.7085 113.174 85.7085 113.104C85.7085 113.035 85.7326 112.977 85.7807 112.928C85.8294 112.88 85.888 112.856 85.9575 112.856H86.6314V112.316C86.6453 111.777 86.7555 111.383 86.9632 111.134C87.1845 110.892 87.5267 110.771 87.9898 110.771Z" fill="#91C53E"/>
<path d="M89.6908 117.268C89.2207 116.766 88.9854 116.17 88.9854 115.479C88.9854 114.788 89.2207 114.192 89.6908 113.69C90.1605 113.189 90.7275 112.938 91.3912 112.938C92.0549 112.938 92.6215 113.189 93.0916 113.69C93.5617 114.192 93.7966 114.788 93.7966 115.479C93.7966 116.17 93.5619 116.766 93.0916 117.268C92.6215 117.769 92.0549 118.019 91.3912 118.019C90.7275 118.019 90.1605 117.769 89.6908 117.268ZM91.3912 113.426C90.8728 113.426 90.4249 113.627 90.0482 114.027C89.6716 114.428 89.4829 114.911 89.4829 115.474C89.4829 116.037 89.6716 116.519 90.0482 116.92C90.4247 117.321 90.8728 117.522 91.3912 117.522C91.9096 117.522 92.3571 117.321 92.7338 116.92C93.1108 116.519 93.2988 116.037 93.2988 115.474C93.2988 114.911 93.1108 114.428 92.7338 114.027C92.3571 113.627 91.9096 113.426 91.3912 113.426Z" fill="#91C53E"/>
<path d="M95.6427 117.268C95.1726 116.766 94.9373 116.17 94.9373 115.479C94.9373 114.788 95.1726 114.192 95.6427 113.69C96.1124 113.189 96.6794 112.938 97.3431 112.938C98.0067 112.938 98.5734 113.189 99.0435 113.69C99.5136 114.192 99.7485 114.788 99.7485 115.479C99.7485 116.17 99.5136 116.766 99.0435 117.268C98.5734 117.769 98.0067 118.019 97.3431 118.019C96.6796 118.019 96.1124 117.769 95.6427 117.268ZM97.3431 113.426C96.8247 113.426 96.3768 113.627 96.0001 114.027C95.6235 114.428 95.4351 114.911 95.4351 115.474C95.4351 116.037 95.6235 116.519 96.0001 116.92C96.3768 117.321 96.8247 117.522 97.3431 117.522C97.8615 117.522 98.309 117.321 98.6857 116.92C99.0627 116.519 99.2509 116.037 99.2509 115.474C99.2509 114.911 99.0629 114.428 98.6857 114.027C98.309 113.627 97.8617 113.426 97.3431 113.426Z" fill="#91C53E"/>
<path d="M105.192 117.771V117.034C104.964 117.338 104.681 117.579 104.342 117.755C104.004 117.931 103.637 118.019 103.244 118.019C102.559 118.019 101.978 117.772 101.501 117.278C101.024 116.784 100.786 116.186 100.786 115.484C100.786 114.783 101.024 114.183 101.501 113.685C101.978 113.187 102.559 112.938 103.244 112.938C103.638 112.938 104.004 113.028 104.342 113.208C104.681 113.388 104.965 113.63 105.192 113.934V111.01C105.192 110.941 105.219 110.882 105.27 110.834C105.322 110.786 105.382 110.761 105.452 110.761C105.521 110.761 105.58 110.786 105.628 110.834C105.677 110.882 105.701 110.941 105.701 111.01V117.771C105.701 117.84 105.676 117.898 105.628 117.947C105.58 117.995 105.521 118.019 105.452 118.019C105.382 118.019 105.322 117.995 105.27 117.947C105.219 117.898 105.192 117.84 105.192 117.771ZM101.294 115.484C101.294 116.048 101.485 116.526 101.87 116.92C102.253 117.314 102.709 117.511 103.238 117.511C103.767 117.511 104.22 117.323 104.596 116.946C104.973 116.569 105.172 116.111 105.192 115.572V115.406C105.172 114.86 104.973 114.397 104.596 114.017C104.22 113.637 103.767 113.446 103.238 113.446C102.709 113.446 102.253 113.645 101.87 114.043C101.485 114.44 101.294 114.921 101.294 115.484Z" fill="#91C53E"/>
</svg>
