<svg width="217" height="48" viewBox="0 0 217 48" fill="none" xmlns="http://www.w3.org/2000/svg">
<path d="M33.0117 19.6581H31.0397C30.2823 19.6581 29.6675 19.0433 29.6675 18.2859C29.6675 17.5451 30.2823 16.9287 31.0397 16.9287H33.0117C35.0933 16.9287 36.9874 17.7805 38.3596 19.1377C39.7318 20.5099 40.5837 22.4025 40.5837 24.5005C40.5837 26.5985 39.7318 28.4911 38.3596 29.8633C36.9874 31.2205 35.0948 32.0708 33.0117 32.0708H23.0104C22.5365 32.9226 21.6217 33.491 20.5809 33.491C19.0512 33.491 17.8051 32.2448 17.8051 30.7151C17.8051 29.169 19.0512 27.9228 20.5809 27.9228C21.6217 27.9228 22.5365 28.5061 23.0104 29.3414H33.0117C34.336 29.3414 35.5507 28.8045 36.4355 27.9228C37.3023 27.0545 37.8542 25.8412 37.8542 24.5005C37.8542 23.1598 37.3023 21.9452 36.4355 21.0768C35.5507 20.1935 34.336 19.6581 33.0117 19.6581Z" fill="#1C2359"/>
<path d="M15.7399 12.0868V14.0423C15.7399 14.7996 15.1249 15.4146 14.3677 15.4146C13.6253 15.4146 13.0104 14.7996 13.0104 14.0423V12.0868C13.0104 9.98877 13.8623 8.09619 15.2345 6.72401C16.6067 5.35182 18.4992 4.5 20.5823 4.5C22.6804 4.5 24.5729 5.35182 25.9451 6.72401C27.3173 8.09619 28.1542 9.98877 28.1542 12.0868V22.0715C29.006 22.5603 29.5729 23.4601 29.5729 24.501C29.5729 26.0305 28.3267 27.2768 26.797 27.2768C25.2673 27.2768 24.0211 26.0305 24.0211 24.501C24.0211 23.4601 24.5894 22.5603 25.4247 22.0715V12.0868C25.4247 10.7461 24.8879 9.53134 24.0046 8.64804C23.1378 7.77974 21.923 7.22937 20.5823 7.22937C19.2416 7.22937 18.0434 7.78124 17.16 8.64804C16.2752 9.53134 15.7399 10.7461 15.7399 12.0868Z" fill="#1FC5B1"/>
<path d="M8.16777 32.071C6.06978 32.071 4.17715 31.2192 2.80494 29.8635C1.43272 28.4914 0.597412 26.5988 0.597412 24.5008C0.597412 22.4028 1.43272 20.5101 2.80494 19.138C4.17715 17.7808 6.06978 16.929 8.16777 16.929H18.1677C18.6416 16.0772 19.5399 15.5088 20.5806 15.5088C22.1268 15.5088 23.3566 16.7551 23.3566 18.2847C23.3566 19.8309 22.1268 21.0771 20.5806 21.0771C19.5399 21.0771 18.64 20.4937 18.1677 19.6569H8.16777C6.82706 19.6569 5.6123 20.1923 4.74548 21.0771C3.86218 21.9439 3.32535 23.1586 3.32535 24.5008C3.32535 25.8429 3.86218 27.0562 4.74548 27.923C5.6123 28.8063 6.82706 29.3417 8.16777 29.3417H10.1398C10.8807 29.3417 11.4971 29.9566 11.4971 30.7138C11.4971 31.4712 10.8822 32.0696 10.1398 32.0696H8.16777V32.071Z" fill="#1C2359"/>
<path d="M28.1528 36.9137C28.1528 39.0117 27.316 40.9043 25.9438 42.2764C24.5716 43.6487 22.679 44.5005 20.581 44.5005C18.4994 44.5005 16.6053 43.6487 15.2331 42.2764C13.8609 40.9043 13.0091 39.0117 13.0091 36.9137V26.929C12.1573 26.4401 11.5889 25.5402 11.5889 24.4995C11.5889 22.9698 12.8351 21.7236 14.3648 21.7236C15.9095 21.7236 17.1572 22.9698 17.1572 24.4995C17.1572 25.5402 16.5888 26.4401 15.737 26.929V36.9137C15.737 38.2544 16.2724 39.4692 17.1572 40.3525C18.0405 41.2208 19.2387 41.7726 20.5794 41.7726C21.9202 41.7726 23.1349 41.2208 24.0017 40.3525C24.885 39.4692 25.4219 38.2544 25.4219 36.9137V34.9581C25.4219 34.2008 26.0368 33.586 26.7942 33.586C27.5514 33.586 28.1514 34.2008 28.1514 34.9581V36.9137H28.1528Z" fill="#1FC5B1"/>
<path d="M50.8876 24V1.504H55.2396V24H50.8876ZM64.9996 24V1.504H69.3516V24H64.9996ZM53.6396 14.304V10.464H66.2156V14.304H53.6396ZM81.5341 24.32C79.9128 24.32 78.4728 23.9787 77.2141 23.296C75.9555 22.592 74.9528 21.632 74.2061 20.416C73.4808 19.2 73.1181 17.8133 73.1181 16.256C73.1181 14.72 73.4701 13.3547 74.1741 12.16C74.8995 10.944 75.8808 9.984 77.1181 9.28C78.3555 8.55467 79.7315 8.192 81.2461 8.192C82.7395 8.192 84.0515 8.53333 85.1821 9.216C86.3341 9.87733 87.2301 10.7947 87.8701 11.968C88.5315 13.12 88.8621 14.432 88.8621 15.904C88.8621 16.1813 88.8408 16.4693 88.7981 16.768C88.7768 17.0453 88.7235 17.3653 88.6381 17.728L75.6461 17.76V14.624L86.6861 14.592L84.9901 15.904C84.9475 14.9867 84.7768 14.2187 84.4781 13.6C84.2008 12.9813 83.7848 12.512 83.2301 12.192C82.6968 11.8507 82.0355 11.68 81.2461 11.68C80.4141 11.68 79.6888 11.872 79.0701 12.256C78.4515 12.6187 77.9715 13.1413 77.6301 13.824C77.3101 14.4853 77.1501 15.2747 77.1501 16.192C77.1501 17.1307 77.3208 17.952 77.6621 18.656C78.0248 19.3387 78.5368 19.872 79.1981 20.256C79.8595 20.6187 80.6275 20.8 81.5021 20.8C82.2915 20.8 83.0061 20.672 83.6461 20.416C84.2861 20.1387 84.8408 19.7333 85.3101 19.2L87.7741 21.664C87.0275 22.5387 86.1101 23.2 85.0221 23.648C83.9555 24.096 82.7928 24.32 81.5341 24.32ZM98.5586 24.32C97.1506 24.32 95.8813 23.968 94.7506 23.264C93.62 22.56 92.7346 21.6 92.0946 20.384C91.4546 19.168 91.1346 17.8027 91.1346 16.288C91.1346 14.752 91.4546 13.376 92.0946 12.16C92.7346 10.944 93.62 9.984 94.7506 9.28C95.8813 8.576 97.1506 8.224 98.5586 8.224C99.668 8.224 100.66 8.448 101.535 8.896C102.409 9.344 103.103 9.97333 103.615 10.784C104.148 11.5733 104.436 12.4693 104.479 13.472V19.04C104.436 20.064 104.148 20.9707 103.615 21.76C103.103 22.5493 102.409 23.1787 101.535 23.648C100.66 24.096 99.668 24.32 98.5586 24.32ZM99.3266 20.448C100.5 20.448 101.449 20.064 102.175 19.296C102.9 18.5067 103.263 17.4933 103.263 16.256C103.263 15.4453 103.092 14.7307 102.751 14.112C102.431 13.472 101.972 12.9813 101.375 12.64C100.799 12.2773 100.116 12.096 99.3266 12.096C98.5586 12.096 97.876 12.2773 97.2786 12.64C96.7026 12.9813 96.244 13.472 95.9026 14.112C95.5826 14.7307 95.4226 15.4453 95.4226 16.256C95.4226 17.088 95.5826 17.824 95.9026 18.464C96.244 19.0827 96.7026 19.5733 97.2786 19.936C97.876 20.2773 98.5586 20.448 99.3266 20.448ZM103.039 24V19.84L103.711 16.064L103.039 12.352V8.544H107.199V24H103.039ZM111.547 24V0.863998H115.739V24H111.547ZM122.365 24V2.112H126.557V24H122.365ZM118.749 12.224V8.544H130.173V12.224H118.749ZM143.571 24V15.136C143.571 14.2187 143.283 13.472 142.707 12.896C142.131 12.32 141.384 12.032 140.467 12.032C139.87 12.032 139.336 12.16 138.867 12.416C138.398 12.672 138.024 13.0347 137.747 13.504C137.491 13.9733 137.363 14.5173 137.363 15.136L135.731 14.304C135.731 13.088 135.987 12.032 136.499 11.136C137.011 10.2187 137.715 9.504 138.611 8.992C139.528 8.48 140.574 8.224 141.747 8.224C142.92 8.224 143.955 8.48 144.851 8.992C145.768 9.504 146.483 10.208 146.995 11.104C147.507 12 147.763 13.0347 147.763 14.208V24H143.571ZM133.171 24V0.863998H137.363V24H133.171ZM159.076 24.32C157.497 24.32 156.078 23.968 154.82 23.264C153.561 22.56 152.569 21.6 151.844 20.384C151.118 19.168 150.756 17.8027 150.756 16.288C150.756 14.752 151.118 13.376 151.844 12.16C152.569 10.944 153.561 9.984 154.82 9.28C156.1 8.55467 157.518 8.192 159.076 8.192C160.292 8.192 161.412 8.416 162.436 8.864C163.46 9.312 164.345 9.952 165.092 10.784L162.404 13.504C161.998 13.056 161.508 12.7147 160.932 12.48C160.377 12.2453 159.758 12.128 159.076 12.128C158.308 12.128 157.614 12.3093 156.996 12.672C156.398 13.0133 155.918 13.4933 155.556 14.112C155.214 14.7093 155.044 15.424 155.044 16.256C155.044 17.0667 155.214 17.792 155.556 18.432C155.918 19.0507 156.398 19.5413 156.996 19.904C157.614 20.2453 158.308 20.416 159.076 20.416C159.78 20.416 160.409 20.2987 160.964 20.064C161.54 19.808 162.03 19.4453 162.436 18.976L165.156 21.696C164.366 22.5493 163.46 23.2 162.436 23.648C161.412 24.096 160.292 24.32 159.076 24.32ZM174.29 24.32C172.882 24.32 171.613 23.968 170.482 23.264C169.351 22.56 168.466 21.6 167.826 20.384C167.186 19.168 166.866 17.8027 166.866 16.288C166.866 14.752 167.186 13.376 167.826 12.16C168.466 10.944 169.351 9.984 170.482 9.28C171.613 8.576 172.882 8.224 174.29 8.224C175.399 8.224 176.391 8.448 177.266 8.896C178.141 9.344 178.834 9.97333 179.346 10.784C179.879 11.5733 180.167 12.4693 180.21 13.472V19.04C180.167 20.064 179.879 20.9707 179.346 21.76C178.834 22.5493 178.141 23.1787 177.266 23.648C176.391 24.096 175.399 24.32 174.29 24.32ZM175.058 20.448C176.231 20.448 177.181 20.064 177.906 19.296C178.631 18.5067 178.994 17.4933 178.994 16.256C178.994 15.4453 178.823 14.7307 178.482 14.112C178.162 13.472 177.703 12.9813 177.106 12.64C176.53 12.2773 175.847 12.096 175.058 12.096C174.29 12.096 173.607 12.2773 173.01 12.64C172.434 12.9813 171.975 13.472 171.634 14.112C171.314 14.7307 171.154 15.4453 171.154 16.256C171.154 17.088 171.314 17.824 171.634 18.464C171.975 19.0827 172.434 19.5733 173.01 19.936C173.607 20.2773 174.29 20.448 175.058 20.448ZM178.77 24V19.84L179.442 16.064L178.77 12.352V8.544H182.93V24H178.77ZM187.278 24V8.544H191.47V24H187.278ZM191.47 15.456L189.838 14.368C190.03 12.4693 190.585 10.976 191.502 9.888C192.42 8.77867 193.742 8.224 195.47 8.224C196.217 8.224 196.889 8.352 197.486 8.608C198.084 8.84267 198.628 9.23733 199.118 9.792L196.494 12.8C196.26 12.544 195.972 12.352 195.63 12.224C195.31 12.096 194.937 12.032 194.51 12.032C193.614 12.032 192.878 12.32 192.302 12.896C191.748 13.4507 191.47 14.304 191.47 15.456ZM208.185 24.32C206.564 24.32 205.124 23.9787 203.865 23.296C202.607 22.592 201.604 21.632 200.857 20.416C200.132 19.2 199.769 17.8133 199.769 16.256C199.769 14.72 200.121 13.3547 200.825 12.16C201.551 10.944 202.532 9.984 203.769 9.28C205.007 8.55467 206.383 8.192 207.897 8.192C209.391 8.192 210.703 8.53333 211.833 9.216C212.985 9.87733 213.881 10.7947 214.521 11.968C215.183 13.12 215.513 14.432 215.513 15.904C215.513 16.1813 215.492 16.4693 215.449 16.768C215.428 17.0453 215.375 17.3653 215.289 17.728L202.297 17.76V14.624L213.337 14.592L211.641 15.904C211.599 14.9867 211.428 14.2187 211.129 13.6C210.852 12.9813 210.436 12.512 209.881 12.192C209.348 11.8507 208.687 11.68 207.897 11.68C207.065 11.68 206.34 11.872 205.721 12.256C205.103 12.6187 204.623 13.1413 204.281 13.824C203.961 14.4853 203.801 15.2747 203.801 16.192C203.801 17.1307 203.972 17.952 204.313 18.656C204.676 19.3387 205.188 19.872 205.849 20.256C206.511 20.6187 207.279 20.8 208.153 20.8C208.943 20.8 209.657 20.672 210.297 20.416C210.937 20.1387 211.492 19.7333 211.961 19.2L214.425 21.664C213.679 22.5387 212.761 23.2 211.673 23.648C210.607 24.096 209.444 24.32 208.185 24.32Z" fill="#1C2359"/>
<path d="M56.3563 38.2727C56.2882 37.697 56.0116 37.25 55.5268 36.9318C55.042 36.6136 54.4473 36.4545 53.7427 36.4545C53.2276 36.4545 52.7768 36.5379 52.3904 36.7045C52.0079 36.8712 51.7086 37.1004 51.4927 37.392C51.2806 37.6837 51.1745 38.0152 51.1745 38.3864C51.1745 38.697 51.2484 38.964 51.3961 39.1875C51.5476 39.4072 51.7408 39.5909 51.9757 39.7386C52.2105 39.8826 52.4567 40.0019 52.7143 40.0966C52.9719 40.1875 53.2086 40.2614 53.4245 40.3182L54.6063 40.6364C54.9094 40.7159 55.2465 40.8258 55.6177 40.9659C55.9927 41.1061 56.3507 41.2973 56.6916 41.5398C57.0363 41.7784 57.3204 42.0852 57.5438 42.4602C57.7673 42.8352 57.8791 43.2955 57.8791 43.8409C57.8791 44.4697 57.7143 45.0379 57.3848 45.5455C57.059 46.053 56.5817 46.4564 55.9529 46.7557C55.3279 47.0549 54.5685 47.2045 53.6745 47.2045C52.8412 47.2045 52.1196 47.0701 51.5098 46.8011C50.9037 46.5322 50.4264 46.1572 50.0779 45.6761C49.7332 45.1951 49.5382 44.6364 49.4927 44H50.9473C50.9851 44.4394 51.1329 44.803 51.3904 45.0909C51.6518 45.375 51.9813 45.5871 52.3791 45.7273C52.7806 45.8636 53.2124 45.9318 53.6745 45.9318C54.2124 45.9318 54.6954 45.8447 55.1234 45.6705C55.5514 45.4924 55.8904 45.2462 56.1404 44.9318C56.3904 44.6136 56.5154 44.2424 56.5154 43.8182C56.5154 43.4318 56.4075 43.1174 56.1916 42.875C55.9757 42.6326 55.6916 42.4356 55.3393 42.2841C54.987 42.1326 54.6063 42 54.1973 41.8864L52.7654 41.4773C51.8563 41.2159 51.1366 40.8428 50.6063 40.358C50.076 39.8731 49.8109 39.2386 49.8109 38.4545C49.8109 37.803 49.987 37.2348 50.3393 36.75C50.6954 36.2614 51.1726 35.8826 51.7711 35.6136C52.3734 35.3409 53.0457 35.2045 53.7882 35.2045C54.5382 35.2045 55.2048 35.339 55.7882 35.608C56.3715 35.8731 56.8336 36.2367 57.1745 36.6989C57.5192 37.161 57.701 37.6856 57.72 38.2727H56.3563ZM60.5158 47V35.3636H61.9249V45.75H67.334V47H60.5158ZM79.2009 41.1818C79.2009 42.4091 78.9793 43.4697 78.5361 44.3636C78.0929 45.2576 77.485 45.947 76.7123 46.4318C75.9395 46.9167 75.057 47.1591 74.0645 47.1591C73.0721 47.1591 72.1895 46.9167 71.4168 46.4318C70.6441 45.947 70.0361 45.2576 69.5929 44.3636C69.1498 43.4697 68.9282 42.4091 68.9282 41.1818C68.9282 39.9545 69.1498 38.8939 69.5929 38C70.0361 37.1061 70.6441 36.4167 71.4168 35.9318C72.1895 35.447 73.0721 35.2045 74.0645 35.2045C75.057 35.2045 75.9395 35.447 76.7123 35.9318C77.485 36.4167 78.0929 37.1061 78.5361 38C78.9793 38.8939 79.2009 39.9545 79.2009 41.1818ZM77.8373 41.1818C77.8373 40.1742 77.6687 39.3239 77.3316 38.6307C76.9982 37.9375 76.5456 37.4129 75.9736 37.0568C75.4054 36.7008 74.7691 36.5227 74.0645 36.5227C73.36 36.5227 72.7217 36.7008 72.1498 37.0568C71.5816 37.4129 71.1289 37.9375 70.7918 38.6307C70.4585 39.3239 70.2918 40.1742 70.2918 41.1818C70.2918 42.1894 70.4585 43.0398 70.7918 43.733C71.1289 44.4261 71.5816 44.9508 72.1498 45.3068C72.7217 45.6629 73.36 45.8409 74.0645 45.8409C74.7691 45.8409 75.4054 45.6629 75.9736 45.3068C76.5456 44.9508 76.9982 44.4261 77.3316 43.733C77.6687 43.0398 77.8373 42.1894 77.8373 41.1818ZM89.8448 39C89.7198 38.6174 89.555 38.2746 89.3504 37.9716C89.1497 37.6648 88.9091 37.4034 88.6288 37.1875C88.3523 36.9716 88.0379 36.8068 87.6857 36.6932C87.3334 36.5795 86.947 36.5227 86.5266 36.5227C85.8372 36.5227 85.2103 36.7008 84.6459 37.0568C84.0815 37.4129 83.6326 37.9375 83.2993 38.6307C82.966 39.3239 82.7993 40.1742 82.7993 41.1818C82.7993 42.1894 82.9679 43.0398 83.305 43.733C83.6421 44.4261 84.0985 44.9508 84.6743 45.3068C85.2501 45.6629 85.8978 45.8409 86.6175 45.8409C87.2841 45.8409 87.8713 45.6989 88.3788 45.4148C88.8902 45.1269 89.2879 44.7216 89.572 44.1989C89.8599 43.6723 90.0038 43.053 90.0038 42.3409L90.4357 42.4318H86.9357V41.1818H91.3675V42.4318C91.3675 43.3902 91.1629 44.2235 90.7538 44.9318C90.3485 45.6402 89.7879 46.1894 89.072 46.5795C88.3599 46.9659 87.5417 47.1591 86.6175 47.1591C85.5872 47.1591 84.6819 46.9167 83.9016 46.4318C83.1251 45.947 82.519 45.2576 82.0834 44.3636C81.6516 43.4697 81.4357 42.4091 81.4357 41.1818C81.4357 40.2614 81.5588 39.4337 81.805 38.6989C82.055 37.9602 82.4073 37.3314 82.8618 36.8125C83.3163 36.2936 83.8542 35.8958 84.4754 35.6193C85.0966 35.3428 85.7804 35.2045 86.5266 35.2045C87.1402 35.2045 87.7122 35.2973 88.2425 35.483C88.7766 35.6648 89.252 35.9242 89.6686 36.2614C90.0891 36.5947 90.4395 36.9943 90.7198 37.4602C91.0001 37.9223 91.1932 38.4356 91.2993 39H89.8448ZM94.2187 47H92.7415L97.0142 35.3636H98.4687L102.741 47H101.264L97.7869 37.2045H97.696L94.2187 47ZM94.7642 42.4545H100.719V43.7045H94.7642V42.4545ZM114.101 35.3636V47H112.738L106.397 37.8636H106.283V47H104.874V35.3636H106.238L112.601 44.5227H112.715V35.3636H114.101ZM130.015 39C129.89 38.6174 129.726 38.2746 129.521 37.9716C129.32 37.6648 129.08 37.4034 128.799 37.1875C128.523 36.9716 128.209 36.8068 127.856 36.6932C127.504 36.5795 127.118 36.5227 126.697 36.5227C126.008 36.5227 125.381 36.7008 124.817 37.0568C124.252 37.4129 123.803 37.9375 123.47 38.6307C123.137 39.3239 122.97 40.1742 122.97 41.1818C122.97 42.1894 123.138 43.0398 123.476 43.733C123.813 44.4261 124.269 44.9508 124.845 45.3068C125.421 45.6629 126.068 45.8409 126.788 45.8409C127.455 45.8409 128.042 45.6989 128.549 45.4148C129.061 45.1269 129.459 44.7216 129.743 44.1989C130.031 43.6723 130.174 43.053 130.174 42.3409L130.606 42.4318H127.106V41.1818H131.538V42.4318C131.538 43.3902 131.334 44.2235 130.924 44.9318C130.519 45.6402 129.959 46.1894 129.243 46.5795C128.531 46.9659 127.712 47.1591 126.788 47.1591C125.758 47.1591 124.852 46.9167 124.072 46.4318C123.296 45.947 122.69 45.2576 122.254 44.3636C121.822 43.4697 121.606 42.4091 121.606 41.1818C121.606 40.2614 121.729 39.4337 121.976 38.6989C122.226 37.9602 122.578 37.3314 123.032 36.8125C123.487 36.2936 124.025 35.8958 124.646 35.6193C125.267 35.3428 125.951 35.2045 126.697 35.2045C127.311 35.2045 127.883 35.2973 128.413 35.483C128.947 35.6648 129.423 35.9242 129.839 36.2614C130.26 36.5947 130.61 36.9943 130.89 37.4602C131.171 37.9223 131.364 38.4356 131.47 39H130.015ZM144.09 41.1818C144.09 42.4091 143.868 43.4697 143.425 44.3636C142.982 45.2576 142.374 45.947 141.601 46.4318C140.828 46.9167 139.946 47.1591 138.953 47.1591C137.961 47.1591 137.078 46.9167 136.306 46.4318C135.533 45.947 134.925 45.2576 134.482 44.3636C134.039 43.4697 133.817 42.4091 133.817 41.1818C133.817 39.9545 134.039 38.8939 134.482 38C134.925 37.1061 135.533 36.4167 136.306 35.9318C137.078 35.447 137.961 35.2045 138.953 35.2045C139.946 35.2045 140.828 35.447 141.601 35.9318C142.374 36.4167 142.982 37.1061 143.425 38C143.868 38.8939 144.09 39.9545 144.09 41.1818ZM142.726 41.1818C142.726 40.1742 142.557 39.3239 142.22 38.6307C141.887 37.9375 141.434 37.4129 140.862 37.0568C140.294 36.7008 139.658 36.5227 138.953 36.5227C138.249 36.5227 137.61 36.7008 137.039 37.0568C136.47 37.4129 136.018 37.9375 135.681 38.6307C135.347 39.3239 135.181 40.1742 135.181 41.1818C135.181 42.1894 135.347 43.0398 135.681 43.733C136.018 44.4261 136.47 44.9508 137.039 45.3068C137.61 45.6629 138.249 45.8409 138.953 45.8409C139.658 45.8409 140.294 45.6629 140.862 45.3068C141.434 44.9508 141.887 44.4261 142.22 43.733C142.557 43.0398 142.726 42.1894 142.726 41.1818ZM146.779 47V35.3636H153.802V36.6136H148.188V40.5455H153.438V41.7955H148.188V45.75H153.893V47H146.779ZM163.025 38.2727C162.957 37.697 162.68 37.25 162.196 36.9318C161.711 36.6136 161.116 36.4545 160.411 36.4545C159.896 36.4545 159.446 36.5379 159.059 36.7045C158.677 36.8712 158.377 37.1004 158.161 37.392C157.949 37.6837 157.843 38.0152 157.843 38.3864C157.843 38.697 157.917 38.964 158.065 39.1875C158.216 39.4072 158.41 39.5909 158.644 39.7386C158.879 39.8826 159.125 40.0019 159.383 40.0966C159.641 40.1875 159.877 40.2614 160.093 40.3182L161.275 40.6364C161.578 40.7159 161.915 40.8258 162.286 40.9659C162.661 41.1061 163.019 41.2973 163.36 41.5398C163.705 41.7784 163.989 42.0852 164.213 42.4602C164.436 42.8352 164.548 43.2955 164.548 43.8409C164.548 44.4697 164.383 45.0379 164.054 45.5455C163.728 46.053 163.25 46.4564 162.622 46.7557C161.997 47.0549 161.237 47.2045 160.343 47.2045C159.51 47.2045 158.788 47.0701 158.179 46.8011C157.572 46.5322 157.095 46.1572 156.747 45.6761C156.402 45.1951 156.207 44.6364 156.161 44H157.616C157.654 44.4394 157.802 44.803 158.059 45.0909C158.321 45.375 158.65 45.5871 159.048 45.7273C159.449 45.8636 159.881 45.9318 160.343 45.9318C160.881 45.9318 161.364 45.8447 161.792 45.6705C162.22 45.4924 162.559 45.2462 162.809 44.9318C163.059 44.6136 163.184 44.2424 163.184 43.8182C163.184 43.4318 163.076 43.1174 162.86 42.875C162.644 42.6326 162.36 42.4356 162.008 42.2841C161.656 42.1326 161.275 42 160.866 41.8864L159.434 41.4773C158.525 41.2159 157.805 40.8428 157.275 40.358C156.745 39.8731 156.48 39.2386 156.48 38.4545C156.48 37.803 156.656 37.2348 157.008 36.75C157.364 36.2614 157.841 35.8826 158.44 35.6136C159.042 35.3409 159.714 35.2045 160.457 35.2045C161.207 35.2045 161.874 35.339 162.457 35.608C163.04 35.8731 163.502 36.2367 163.843 36.6989C164.188 37.161 164.37 37.6856 164.389 38.2727H163.025ZM172.005 47V35.3636H173.414V40.5455H179.618V35.3636H181.027V47H179.618V41.7955H173.414V47H172.005ZM184.168 47V35.3636H191.191V36.6136H185.577V40.5455H190.827V41.7955H185.577V45.75H191.282V47H184.168ZM194.051 47V35.3636H197.983C198.892 35.3636 199.638 35.5189 200.221 35.8295C200.805 36.1364 201.236 36.5587 201.517 37.0966C201.797 37.6345 201.937 38.2462 201.937 38.9318C201.937 39.6174 201.797 40.2254 201.517 40.7557C201.236 41.286 200.807 41.7027 200.227 42.0057C199.647 42.3049 198.907 42.4545 198.005 42.4545H194.824V41.1818H197.96C198.581 41.1818 199.081 41.0909 199.46 40.9091C199.842 40.7273 200.119 40.4697 200.289 40.1364C200.464 39.7992 200.551 39.3977 200.551 38.9318C200.551 38.4659 200.464 38.0587 200.289 37.7102C200.115 37.3617 199.837 37.0928 199.454 36.9034C199.072 36.7102 198.566 36.6136 197.937 36.6136H195.46V47H194.051ZM199.528 41.7727L202.392 47H200.755L197.937 41.7727H199.528ZM204.605 47V35.3636H211.628V36.6136H206.014V40.5455H211.264V41.7955H206.014V45.75H211.719V47H204.605Z" fill="#5C5F71"/>
</svg>
