<svg width="111" height="120" viewBox="0 0 111 120" fill="none" xmlns="http://www.w3.org/2000/svg">
<path d="M30.4013 64.6965V75.0005H28.3713V70.8145H23.7653V75.0005H21.7353V64.6965H23.7653V68.8545H28.3713V64.6965H30.4013ZM33.0556 64.6965H40.0836V66.6565H35.0856V68.8545H39.5096V70.8145H35.0856V73.0405H40.2796V75.0005H33.0556V64.6965ZM41.2178 75.0005L45.8658 64.2905H45.9778L50.6258 75.0005H48.2738L45.3058 67.4685L46.7758 66.4605L43.2198 75.0005H41.2178ZM44.3958 71.2765H47.4898L48.2038 72.9845H43.7658L44.3958 71.2765ZM52.1279 64.6965H54.1579V73.0405H59.0019V75.0005H52.1279V64.6965ZM59.3575 64.6965H66.3015V66.6565H63.7955V75.0005H61.7655V66.6565H59.3575V64.6965ZM76.9267 64.6965V75.0005H74.8967V70.8145H70.2907V75.0005H68.2607V64.6965H70.2907V68.8545H74.8967V64.6965H76.9267ZM82.255 71.7945L78.461 64.6965H80.967L83.627 70.0445L83.025 70.0865L85.643 64.6965H88.149L84.285 71.7945V75.0005H82.255V71.7945Z" fill="#55700B"/>
<path d="M34.1913 79.5344H40.6313V81.4944H36.2213V83.8324H40.0433V85.7924H36.2213V89.8384H34.1913V79.5344ZM41.9559 84.7004C41.9559 83.991 42.0912 83.319 42.3619 82.6844C42.6325 82.0497 43.0059 81.4897 43.4819 81.0044C43.9672 80.5097 44.5272 80.1224 45.1619 79.8424C45.7965 79.5624 46.4779 79.4224 47.2059 79.4224C47.9245 79.4224 48.6012 79.5624 49.2359 79.8424C49.8705 80.1224 50.4305 80.5097 50.9159 81.0044C51.4105 81.4897 51.7932 82.0497 52.0639 82.6844C52.3439 83.319 52.4839 83.991 52.4839 84.7004C52.4839 85.4284 52.3439 86.1097 52.0639 86.7444C51.7932 87.379 51.4105 87.939 50.9159 88.4244C50.4305 88.9004 49.8705 89.2737 49.2359 89.5444C48.6012 89.815 47.9245 89.9504 47.2059 89.9504C46.4779 89.9504 45.7965 89.815 45.1619 89.5444C44.5272 89.2737 43.9672 88.9004 43.4819 88.4244C43.0059 87.939 42.6325 87.379 42.3619 86.7444C42.0912 86.1097 41.9559 85.4284 41.9559 84.7004ZM44.0559 84.7004C44.0559 85.1577 44.1352 85.587 44.2939 85.9884C44.4619 86.3804 44.6905 86.7304 44.9799 87.0384C45.2785 87.337 45.6192 87.5704 46.0019 87.7384C46.3939 87.9064 46.8185 87.9904 47.2759 87.9904C47.7145 87.9904 48.1205 87.9064 48.4939 87.7384C48.8765 87.5704 49.2079 87.337 49.4879 87.0384C49.7679 86.7304 49.9872 86.3804 50.1459 85.9884C50.3045 85.587 50.3839 85.1577 50.3839 84.7004C50.3839 84.2337 50.2999 83.7997 50.1319 83.3984C49.9732 82.997 49.7492 82.647 49.4599 82.3484C49.1799 82.0404 48.8485 81.8024 48.4659 81.6344C48.0832 81.4664 47.6679 81.3824 47.2199 81.3824C46.7719 81.3824 46.3565 81.4664 45.9739 81.6344C45.5912 81.8024 45.2552 82.0404 44.9659 82.3484C44.6765 82.647 44.4525 82.997 44.2939 83.3984C44.1352 83.7997 44.0559 84.2337 44.0559 84.7004ZM53.8777 84.7004C53.8777 83.991 54.0131 83.319 54.2837 82.6844C54.5544 82.0497 54.9277 81.4897 55.4037 81.0044C55.8891 80.5097 56.4491 80.1224 57.0837 79.8424C57.7184 79.5624 58.3997 79.4224 59.1277 79.4224C59.8464 79.4224 60.5231 79.5624 61.1577 79.8424C61.7924 80.1224 62.3524 80.5097 62.8377 81.0044C63.3324 81.4897 63.7151 82.0497 63.9857 82.6844C64.2657 83.319 64.4057 83.991 64.4057 84.7004C64.4057 85.4284 64.2657 86.1097 63.9857 86.7444C63.7151 87.379 63.3324 87.939 62.8377 88.4244C62.3524 88.9004 61.7924 89.2737 61.1577 89.5444C60.5231 89.815 59.8464 89.9504 59.1277 89.9504C58.3997 89.9504 57.7184 89.815 57.0837 89.5444C56.4491 89.2737 55.8891 88.9004 55.4037 88.4244C54.9277 87.939 54.5544 87.379 54.2837 86.7444C54.0131 86.1097 53.8777 85.4284 53.8777 84.7004ZM55.9777 84.7004C55.9777 85.1577 56.0571 85.587 56.2157 85.9884C56.3837 86.3804 56.6124 86.7304 56.9017 87.0384C57.2004 87.337 57.5411 87.5704 57.9237 87.7384C58.3157 87.9064 58.7404 87.9904 59.1977 87.9904C59.6364 87.9904 60.0424 87.9064 60.4157 87.7384C60.7984 87.5704 61.1297 87.337 61.4097 87.0384C61.6897 86.7304 61.9091 86.3804 62.0677 85.9884C62.2264 85.587 62.3057 85.1577 62.3057 84.7004C62.3057 84.2337 62.2217 83.7997 62.0537 83.3984C61.8951 82.997 61.6711 82.647 61.3817 82.3484C61.1017 82.0404 60.7704 81.8024 60.3877 81.6344C60.0051 81.4664 59.5897 81.3824 59.1417 81.3824C58.6937 81.3824 58.2784 81.4664 57.8957 81.6344C57.5131 81.8024 57.1771 82.0404 56.8877 82.3484C56.5984 82.647 56.3744 82.997 56.2157 83.3984C56.0571 83.7997 55.9777 84.2337 55.9777 84.7004ZM66.4296 89.8384V79.5344H69.5096C70.5456 79.5344 71.4276 79.6884 72.1556 79.9964C72.8836 80.3044 73.4669 80.715 73.9056 81.2284C74.3536 81.7417 74.6803 82.3157 74.8856 82.9504C75.0909 83.585 75.1936 84.2244 75.1936 84.8684C75.1936 85.6337 75.0536 86.3244 74.7736 86.9404C74.5029 87.547 74.1296 88.0697 73.6536 88.5084C73.1776 88.9377 72.6269 89.269 72.0016 89.5024C71.3763 89.7264 70.7136 89.8384 70.0136 89.8384H66.4296ZM68.4596 87.8784H69.6636C70.1769 87.8784 70.6436 87.813 71.0636 87.6824C71.4836 87.5424 71.8429 87.3417 72.1416 87.0804C72.4496 86.819 72.6829 86.4924 72.8416 86.1004C73.0096 85.699 73.0936 85.2417 73.0936 84.7284C73.0936 84.0564 72.9816 83.5104 72.7576 83.0904C72.5429 82.661 72.2723 82.3297 71.9456 82.0964C71.6283 81.863 71.3016 81.7044 70.9656 81.6204C70.6296 81.527 70.3449 81.4804 70.1116 81.4804H68.4596V87.8784Z" fill="#879316"/>
<path d="M106.441 52.8787H82.1573C81.4869 52.8787 80.943 53.4218 80.943 54.0922C80.943 54.7627 81.4862 55.3065 82.1573 55.3065H106.442C107.559 55.3065 108.465 56.212 108.465 57.3293V95.5686C108.465 96.6859 107.559 97.5914 106.442 97.5914H4.47231C3.35496 97.5914 2.44945 96.6859 2.44945 95.5686V57.3293C2.44945 56.212 3.35496 55.3065 4.47231 55.3065H28.9694C29.6398 55.3065 30.183 54.7633 30.183 54.0922C30.183 53.4218 29.6398 52.8787 28.9694 52.8787H4.47231C2.01414 52.8787 0.0209961 54.8712 0.0209961 57.33V95.5679C0.0209961 98.0267 2.01414 100.019 4.47231 100.019H106.441C108.899 100.019 110.892 98.0267 110.892 95.5686V57.33C110.893 54.8712 108.9 52.8787 106.441 52.8787Z" fill="#55700B"/>
<path d="M55.4588 58.7228H36.1455C36.1455 58.7228 34.2447 41.9819 55.4588 46.9874V58.7228Z" fill="#D50E2B"/>
<path d="M55.459 58.7228H74.7724C74.7724 58.7228 76.6732 41.9819 55.459 46.9874V58.7228Z" fill="#AD0117"/>
<path d="M55.4555 46.9869C55.4555 46.9869 44.8613 27.6057 47.875 21.353C50.8892 15.101 53.3648 22.6997 53.3648 22.6997C53.3648 22.6997 47.8575 0 55.4555 0V46.9869Z" fill="#879316"/>
<path d="M55.4551 46.9869C55.4551 46.9869 66.0492 27.6057 63.0356 21.353C60.0214 15.101 57.5458 22.6997 57.5458 22.6997C57.5458 22.6997 63.0531 0 55.4551 0V46.9869Z" fill="#55700B"/>
<path d="M55.457 46.9861C55.457 46.9861 58.1684 32.0917 62.4699 30.0605C66.7713 28.0286 64.8144 33.1451 64.8144 33.1451C64.8144 33.1451 71.667 18.6764 75.7147 21.9522L55.457 46.9861Z" fill="#879316"/>
<path d="M55.457 46.9861C55.457 46.9861 69.4575 41.2276 70.5471 36.5967C71.6367 31.9658 67.0413 34.9472 67.0413 34.9472C67.0413 34.9472 79.7623 25.2269 75.7147 21.9517L55.457 46.9861Z" fill="#55700B"/>
<path d="M55.4569 46.9861C55.4569 46.9861 52.7455 32.0917 48.444 30.0605C44.1426 28.0286 46.0995 33.1451 46.0995 33.1451C46.0995 33.1451 39.2469 18.6764 35.1992 21.9522L55.4569 46.9861Z" fill="#55700B"/>
<path d="M55.4569 46.9861C55.4569 46.9861 41.4564 41.2276 40.3662 36.5967C39.2766 31.9658 43.872 34.9472 43.872 34.9472C43.872 34.9472 31.151 25.2269 35.1993 21.9517L55.4569 46.9861Z" fill="#879316"/>
<path d="M39.248 103.876C39.248 103.876 40.4578 110.217 47.3524 112.029C54.247 113.84 55.4567 120 55.4567 120V103.876H39.248Z" fill="#D50E2B"/>
<path d="M71.6657 103.876C71.6657 103.876 70.456 110.217 63.5614 112.029C56.6667 113.84 55.457 120 55.457 120V103.876H71.6657Z" fill="#AD0117"/>
</svg>
