<svg width="136" height="120" viewBox="0 0 136 120" fill="none" xmlns="http://www.w3.org/2000/svg">
<path d="M23.5901 90.3516V76.2916H25.4901L26.3101 79.0116V90.3516H23.5901ZM33.3101 90.3516L24.9701 79.5516L25.4901 76.2916L33.8301 87.0916L33.3101 90.3516ZM33.3101 90.3516L32.5301 87.7116V76.2916H35.2701V90.3516H33.3101ZM37.4813 90.3516L43.1413 76.2916H45.3613L51.0013 90.3516H48.1013L43.7413 78.8116H44.7413L40.3213 90.3516H37.4813ZM40.4813 87.7316V85.4516H48.0413V87.7316H40.4813ZM54.8623 90.3516V76.5916H57.6023V90.3516H54.8623ZM50.3823 78.7116V76.2916H62.0823V78.7116H50.3823ZM69.7637 90.5516C68.657 90.5516 67.6704 90.3116 66.8037 89.8316C65.9504 89.3382 65.277 88.6649 64.7837 87.8116C64.2904 86.9582 64.0437 85.9916 64.0437 84.9116V76.2916H66.7637V84.9916C66.7637 85.6182 66.8904 86.1582 67.1437 86.6116C67.4104 87.0649 67.7704 87.4182 68.2237 87.6716C68.6904 87.9116 69.2037 88.0316 69.7637 88.0316C70.337 88.0316 70.8437 87.9116 71.2837 87.6716C71.7237 87.4182 72.0704 87.0649 72.3237 86.6116C72.5904 86.1582 72.7237 85.6249 72.7237 85.0116V76.2916H75.4637V84.9316C75.4637 86.0116 75.217 86.9782 74.7237 87.8316C74.2304 88.6716 73.557 89.3382 72.7037 89.8316C71.8637 90.3116 70.8837 90.5516 69.7637 90.5516ZM80.5495 84.4716V82.3516H83.8095C84.4761 82.3516 84.9895 82.1849 85.3495 81.8516C85.7228 81.5049 85.9095 81.0316 85.9095 80.4316C85.9095 79.8849 85.7228 79.4316 85.3495 79.0716C84.9895 78.6982 84.4761 78.5116 83.8095 78.5116H80.5495V76.2916H84.0495C84.9561 76.2916 85.7495 76.4716 86.4295 76.8316C87.1228 77.1782 87.6561 77.6582 88.0295 78.2716C88.4161 78.8849 88.6095 79.5916 88.6095 80.3916C88.6095 81.2182 88.4161 81.9382 88.0295 82.5516C87.6561 83.1516 87.1228 83.6249 86.4295 83.9716C85.7361 84.3049 84.9295 84.4716 84.0095 84.4716H80.5495ZM78.5495 90.3516V76.2916H81.2695V90.3516H78.5495ZM86.2295 90.3516L81.5895 84.2716L84.0895 83.4916L89.5295 90.3516H86.2295ZM89.9798 90.3516L95.6398 76.2916H97.8598L103.5 90.3516H100.6L96.2398 78.8116H97.2398L92.8198 90.3516H89.9798ZM92.9798 87.7316V85.4516H100.54V87.7316H92.9798ZM105.56 90.3516V76.2916H108.28V90.3516H105.56ZM107.56 90.3516V87.9316H114.72V90.3516H107.56Z" fill="#55700B"/>
<path d="M47.1896 108.434V97.1856H49.3656V108.434H47.1896ZM48.7896 103.826V101.89H54.4536V103.826H48.7896ZM48.7896 99.1056V97.1856H54.7256V99.1056H48.7896ZM61.883 108.61C61.0616 108.61 60.2936 108.46 59.579 108.162C58.875 107.863 58.2563 107.452 57.723 106.93C57.2003 106.396 56.7896 105.778 56.491 105.074C56.1923 104.359 56.043 103.596 56.043 102.786C56.043 101.975 56.187 101.223 56.475 100.53C56.7736 99.8256 57.1843 99.2123 57.707 98.6896C58.2403 98.1563 58.859 97.7456 59.563 97.4576C60.267 97.1589 61.0296 97.0096 61.851 97.0096C62.683 97.0096 63.451 97.1589 64.155 97.4576C64.859 97.7456 65.4723 98.1563 65.995 98.6896C66.5283 99.2123 66.9443 99.8256 67.243 100.53C67.5416 101.234 67.691 101.991 67.691 102.802C67.691 103.612 67.5416 104.37 67.243 105.074C66.9443 105.778 66.5283 106.396 65.995 106.93C65.4723 107.452 64.859 107.863 64.155 108.162C63.4616 108.46 62.7043 108.61 61.883 108.61ZM61.851 106.578C62.5763 106.578 63.2056 106.418 63.739 106.098C64.2723 105.778 64.6883 105.335 64.987 104.77C65.2963 104.204 65.451 103.543 65.451 102.786C65.451 102.231 65.3656 101.724 65.195 101.266C65.0243 100.807 64.779 100.412 64.459 100.082C64.139 99.7403 63.7603 99.4789 63.323 99.2976C62.8856 99.1163 62.395 99.0256 61.851 99.0256C61.147 99.0256 60.523 99.1856 59.979 99.5056C59.4456 99.8149 59.0243 100.252 58.715 100.818C58.4163 101.383 58.267 102.039 58.267 102.786C58.267 103.351 58.3523 103.868 58.523 104.338C58.7043 104.807 58.9496 105.207 59.259 105.538C59.579 105.868 59.9576 106.124 60.395 106.306C60.843 106.487 61.3283 106.578 61.851 106.578ZM75.1405 108.61C74.3191 108.61 73.5511 108.46 72.8365 108.162C72.1325 107.863 71.5138 107.452 70.9805 106.93C70.4578 106.396 70.0471 105.778 69.7485 105.074C69.4498 104.359 69.3005 103.596 69.3005 102.786C69.3005 101.975 69.4445 101.223 69.7325 100.53C70.0311 99.8256 70.4418 99.2123 70.9645 98.6896C71.4978 98.1563 72.1165 97.7456 72.8205 97.4576C73.5245 97.1589 74.2871 97.0096 75.1085 97.0096C75.9405 97.0096 76.7085 97.1589 77.4125 97.4576C78.1165 97.7456 78.7298 98.1563 79.2525 98.6896C79.7858 99.2123 80.2018 99.8256 80.5005 100.53C80.7991 101.234 80.9485 101.991 80.9485 102.802C80.9485 103.612 80.7991 104.37 80.5005 105.074C80.2018 105.778 79.7858 106.396 79.2525 106.93C78.7298 107.452 78.1165 107.863 77.4125 108.162C76.7191 108.46 75.9618 108.61 75.1405 108.61ZM75.1085 106.578C75.8338 106.578 76.4631 106.418 76.9965 106.098C77.5298 105.778 77.9458 105.335 78.2445 104.77C78.5538 104.204 78.7085 103.543 78.7085 102.786C78.7085 102.231 78.6231 101.724 78.4525 101.266C78.2818 100.807 78.0365 100.412 77.7165 100.082C77.3965 99.7403 77.0178 99.4789 76.5805 99.2976C76.1431 99.1163 75.6525 99.0256 75.1085 99.0256C74.4045 99.0256 73.7805 99.1856 73.2365 99.5056C72.7031 99.8149 72.2818 100.252 71.9725 100.818C71.6738 101.383 71.5245 102.039 71.5245 102.786C71.5245 103.351 71.6098 103.868 71.7805 104.338C71.9618 104.807 72.2071 105.207 72.5165 105.538C72.8365 105.868 73.2151 106.124 73.6525 106.306C74.1005 106.487 74.5858 106.578 75.1085 106.578ZM84.4813 108.434V106.498H87.3453C88.0707 106.498 88.7053 106.348 89.2493 106.05C89.7933 105.74 90.2147 105.308 90.5133 104.754C90.8227 104.199 90.9773 103.543 90.9773 102.786C90.9773 102.05 90.8227 101.41 90.5133 100.866C90.204 100.311 89.7773 99.8843 89.2333 99.5856C88.6893 99.2763 88.06 99.1216 87.3453 99.1216H84.4333V97.1856H87.3773C88.2093 97.1856 88.9773 97.3243 89.6813 97.6016C90.396 97.8789 91.0147 98.2736 91.5373 98.7856C92.0707 99.2869 92.4813 99.8789 92.7693 100.562C93.068 101.244 93.2173 101.991 93.2173 102.802C93.2173 103.612 93.068 104.364 92.7693 105.058C92.4813 105.74 92.076 106.338 91.5533 106.85C91.0307 107.351 90.412 107.74 89.6973 108.018C88.9933 108.295 88.2307 108.434 87.4093 108.434H84.4813ZM82.9933 108.434V97.1856H85.1693V108.434H82.9933Z" fill="#879316"/>
<path d="M129.892 62.6091H100.328C99.5115 62.6091 98.8494 63.2712 98.8494 64.0874C98.8494 64.9036 99.5107 65.5648 100.328 65.5648H129.893C131.253 65.5648 132.355 66.6673 132.355 68.0276V114.581C132.355 115.942 131.253 117.044 129.893 117.044H5.75123C4.39092 117.044 3.28851 115.942 3.28851 114.581V68.0276C3.28851 66.6673 4.39092 65.5648 5.75123 65.5648H35.5749C36.3911 65.5648 37.0523 64.9036 37.0523 64.0874C37.0523 63.2712 36.3911 62.6091 35.5749 62.6091H5.75123C2.75856 62.6091 0.332031 65.0357 0.332031 68.0283V114.581C0.332031 117.573 2.75856 120 5.75123 120H129.892C132.885 120 135.31 117.574 135.31 114.581V68.0283C135.311 65.0357 132.885 62.6091 129.892 62.6091Z" fill="#E07C0E"/>
<path d="M93.6421 25.6973H67.9434V51.3952C82.1361 51.3952 93.6413 39.89 93.6421 25.6973Z" fill="#E07C0E"/>
<path d="M42.2441 25.6973C42.2441 39.89 53.7501 51.3952 67.9429 51.3952V25.6973H42.2441Z" fill="#FF970D"/>
<path d="M43.1992 25.6973C43.1992 39.3624 54.2774 50.4406 67.9426 50.4406V25.6973H43.1992Z" fill="#FFDCB3"/>
<path d="M92.6867 25.6973H67.9434V50.4406C81.6085 50.4398 92.6867 39.3624 92.6867 25.6973Z" fill="#F9C693"/>
<path d="M78.5684 46.5702C79.7668 45.9467 82.0274 44.5942 84.3824 42.2573C86.7366 39.9197 88.1055 37.6693 88.7377 36.4757C88.9893 36.0007 88.7943 35.4228 88.3139 35.2034L68.2812 26.0391L77.2994 46.1377C77.5156 46.619 78.0919 46.8179 78.5684 46.5702Z" fill="#FF970D"/>
<path d="M58.2885 45.9984L67.5999 26.0334L47.4351 34.9045C46.9516 35.1176 46.7479 35.6924 46.9925 36.1705C47.6073 37.3735 48.9425 39.6443 51.2629 42.0158C53.5832 44.3873 55.8234 45.7728 57.0131 46.4136C57.4857 46.6676 58.0644 46.4773 58.2885 45.9984Z" fill="#FFAD4A"/>
<path d="M90.2429 32.8621C90.6447 31.5725 91.2777 29.0155 91.2777 25.6973H68.4238L89.0415 33.4573C89.536 33.6436 90.0825 33.3747 90.2429 32.8621Z" fill="#FF970D"/>
<path d="M46.7352 33.1483L67.444 25.6973H44.6114C44.6066 28.848 45.1728 31.2847 45.5423 32.535C45.6941 33.0508 46.2374 33.3276 46.7352 33.1483Z" fill="#FFAD4A"/>
<path d="M74.9446 48.0496C75.4589 47.8939 75.7317 47.3482 75.5493 46.852L67.9434 26.188V49.0309C71.1774 49.0332 73.6747 48.4348 74.9446 48.0496Z" fill="#FF970D"/>
<path d="M67.9431 26.1877L67.9392 26.1782L60.0282 46.7385C59.8387 47.2315 60.1029 47.7811 60.6148 47.9446C61.9012 48.3559 64.4543 49.0077 67.7717 49.0321C67.8291 49.0329 67.8849 49.0313 67.9423 49.0313L67.9431 26.1877Z" fill="#FFAD4A"/>
<path d="M93.6401 25.6987H67.9414V0C82.1342 0 93.6394 11.506 93.6401 25.6987Z" fill="#E07C0E"/>
<path d="M42.2422 25.6979C42.2422 11.5052 53.7481 0 67.9409 0V25.6979H42.2422Z" fill="#FF970D"/>
<path d="M43.1992 25.6984C43.1992 12.0333 54.2774 0.955078 67.9426 0.955078V25.6984H43.1992Z" fill="#FFDCB3"/>
<path d="M92.6867 25.6984H67.9434V0.955078C81.6085 0.955078 92.6867 12.0333 92.6867 25.6984Z" fill="#F9C693"/>
<path d="M78.567 4.8258C79.7653 5.44934 82.0259 6.80177 84.3809 9.13866C86.7351 11.4763 88.104 13.7267 88.7362 14.9203C88.9878 15.3953 88.7928 15.9732 88.3124 16.1926L68.2798 25.3577L77.2979 5.25905C77.5141 4.77626 78.0905 4.57733 78.567 4.8258Z" fill="#FF970D"/>
<path d="M58.287 5.39715L67.5984 25.3621L47.4337 16.4911C46.9501 16.278 46.7464 15.7032 46.991 15.2251C47.6051 14.0221 48.941 11.7513 51.2614 9.37978C53.5818 7.00829 55.8219 5.62281 57.0116 4.98197C57.4842 4.728 58.0629 4.91829 58.287 5.39715Z" fill="#FFAD4A"/>
<path d="M90.241 18.5331C90.6428 19.8226 91.2758 22.3796 91.2758 25.6978H68.4219L89.0395 17.9378C89.5341 17.7515 90.0806 18.0204 90.241 18.5331Z" fill="#FF970D"/>
<path d="M46.7332 18.246L67.4421 25.697H44.6094C44.6047 22.5463 45.1708 20.1096 45.5404 18.8594C45.6929 18.3435 46.2355 18.0668 46.7332 18.246Z" fill="#FFAD4A"/>
<path d="M74.9427 3.34657C75.4569 3.50304 75.7297 4.04793 75.5473 4.54409L67.9414 25.2081V2.36525C71.1755 2.3621 73.6728 2.96049 74.9427 3.34657Z" fill="#FF970D"/>
<path d="M67.9416 25.2077L67.9377 25.2171L60.0267 4.65689C59.8372 4.16388 60.1014 3.61426 60.6133 3.45071C61.8997 3.03947 64.4528 2.38763 67.7702 2.36326C67.8276 2.36247 67.8835 2.36405 67.9409 2.36405L67.9416 25.2077Z" fill="#FFAD4A"/>
<path d="M91.9852 53.7465C91.8508 52.9799 91.563 52.0033 91.8052 51.2634L91.8154 51.2461C91.8154 51.2461 113.229 22.6774 108.749 20.0605L90.86 50.6878L81.7759 66.2409C83.2117 67.0791 87.254 67.3008 90.2821 62.1167C92.4004 58.4871 92.2604 55.3199 91.9852 53.7465Z" fill="#704311"/>
<path d="M89.9453 50.0318L89.862 50.1741C89.3296 50.7269 88.3617 50.9541 87.6399 51.2097C86.1341 51.7428 83.3065 53.1762 81.1867 56.8058C78.1586 61.9899 80.3375 65.4024 81.7733 66.2406L90.8213 50.7497L90.8574 50.6884L90.9109 50.5971L108.747 20.0611C104.41 17.5268 90.8047 48.0881 89.9453 50.0318Z" fill="#8C5819"/>
<path d="M51.7308 65.48L48.4165 57.201L45.1392 51.4602L45.103 51.3973L27.2138 20.064C22.7343 22.7413 44.1477 51.9682 44.1477 51.9682L44.1579 51.9863C44.3993 52.7435 44.1115 53.7421 43.9778 54.5268C43.7026 56.1364 43.5627 59.3767 45.6825 63.0896C46.634 64.755 47.6837 65.8716 48.7224 66.5957C49.1831 66.9166 49.7689 66.4393 49.5535 65.914L46.4814 58.4324L51.4084 65.6601C51.5334 65.8464 51.8149 65.6892 51.7308 65.48Z" fill="#8C5819"/>
<path d="M45.1036 51.3968L48.4171 57.2005L53.5784 64.1553C53.7128 64.337 53.9888 64.1656 53.8937 63.9596L50.2563 56.0462L55.2894 62.5953C55.6189 63.0239 56.3108 62.773 56.2754 62.2297C56.1905 60.9166 55.7604 59.3841 54.7736 57.6566C52.6537 53.9437 49.8262 52.4772 48.3204 51.9315C47.5994 51.6705 46.6306 51.4377 46.0983 50.8724L46.0149 50.7269C45.1555 48.7391 31.5501 17.4718 27.2129 20.0642L45.0486 51.304L45.1036 51.3968Z" fill="#704311"/>
<path d="M45.1035 51.3965L45.1397 51.4594L48.417 57.2002L45.1035 51.3965Z" fill="#B1BCBB"/>
</svg>
