<svg width="136" height="120" viewBox="0 0 136 120" fill="none" xmlns="http://www.w3.org/2000/svg">
<path d="M29.6696 92.5786C28.6429 92.5786 27.6829 92.392 26.7896 92.0186C25.9096 91.6453 25.1363 91.132 24.4696 90.4786C23.8163 89.812 23.3029 89.0386 22.9296 88.1586C22.5563 87.2653 22.3696 86.312 22.3696 85.2986C22.3696 84.2853 22.5496 83.3453 22.9096 82.4786C23.2829 81.5986 23.7963 80.832 24.4496 80.1786C25.1163 79.512 25.8896 78.9986 26.7696 78.6386C27.6496 78.2653 28.6029 78.0786 29.6296 78.0786C30.6696 78.0786 31.6296 78.2653 32.5096 78.6386C33.3896 78.9986 34.1563 79.512 34.8096 80.1786C35.4763 80.832 35.9963 81.5986 36.3696 82.4786C36.7429 83.3586 36.9296 84.3053 36.9296 85.3186C36.9296 86.332 36.7429 87.2786 36.3696 88.1586C35.9963 89.0386 35.4763 89.812 34.8096 90.4786C34.1563 91.132 33.3896 91.6453 32.5096 92.0186C31.6429 92.392 30.6963 92.5786 29.6696 92.5786ZM29.6296 90.0386C30.5363 90.0386 31.3229 89.8386 31.9896 89.4386C32.6563 89.0386 33.1763 88.4853 33.5496 87.7786C33.9363 87.072 34.1296 86.2453 34.1296 85.2986C34.1296 84.6053 34.0229 83.972 33.8096 83.3986C33.5963 82.8253 33.2896 82.332 32.8896 81.9186C32.4896 81.492 32.0163 81.1653 31.4696 80.9386C30.9229 80.712 30.3096 80.5986 29.6296 80.5986C28.7496 80.5986 27.9696 80.7986 27.2896 81.1986C26.6229 81.5853 26.0963 82.132 25.7096 82.8386C25.3363 83.5453 25.1496 84.3653 25.1496 85.2986C25.1496 86.0053 25.2563 86.652 25.4696 87.2386C25.6963 87.8253 26.0029 88.3253 26.3896 88.7386C26.7896 89.152 27.2629 89.472 27.8096 89.6986C28.3696 89.9253 28.9763 90.0386 29.6296 90.0386ZM41.4857 86.4786V84.3586H44.7457C45.4124 84.3586 45.9257 84.192 46.2857 83.8586C46.659 83.512 46.8457 83.0386 46.8457 82.4386C46.8457 81.892 46.659 81.4386 46.2857 81.0786C45.9257 80.7053 45.4124 80.5186 44.7457 80.5186H41.4857V78.2986H44.9857C45.8924 78.2986 46.6857 78.4786 47.3657 78.8386C48.059 79.1853 48.5924 79.6653 48.9657 80.2786C49.3524 80.892 49.5457 81.5986 49.5457 82.3986C49.5457 83.2253 49.3524 83.9453 48.9657 84.5586C48.5924 85.1586 48.059 85.632 47.3657 85.9786C46.6724 86.312 45.8657 86.4786 44.9457 86.4786H41.4857ZM39.4857 92.3586V78.2986H42.2057V92.3586H39.4857ZM47.1657 92.3586L42.5257 86.2786L45.0257 85.4986L50.4657 92.3586H47.1657ZM58.788 92.5586C57.788 92.5586 56.848 92.3786 55.968 92.0186C55.1014 91.6453 54.3347 91.1253 53.668 90.4586C53.0147 89.792 52.5014 89.0253 52.128 88.1586C51.768 87.2786 51.588 86.332 51.588 85.3186C51.588 84.292 51.7747 83.3453 52.148 82.4786C52.5214 81.5986 53.0414 80.832 53.708 80.1786C54.3747 79.512 55.1547 78.9986 56.048 78.6386C56.9414 78.2653 57.908 78.0786 58.948 78.0786C60.108 78.0786 61.1747 78.2986 62.148 78.7386C63.1214 79.1653 63.928 79.772 64.568 80.5586L62.728 82.3986C62.288 81.8253 61.7414 81.3853 61.088 81.0786C60.4347 80.772 59.7147 80.6186 58.928 80.6186C58.0347 80.6186 57.2414 80.8186 56.548 81.2186C55.868 81.6053 55.3347 82.152 54.948 82.8586C54.5614 83.552 54.368 84.3653 54.368 85.2986C54.368 86.232 54.5547 87.0586 54.928 87.7786C55.3147 88.4853 55.8347 89.0386 56.488 89.4386C57.1547 89.8386 57.9147 90.0386 58.768 90.0386C59.648 90.0386 60.4014 89.8786 61.028 89.5586C61.6547 89.2253 62.1347 88.7453 62.468 88.1186C62.8014 87.4786 62.968 86.6986 62.968 85.7786L64.748 86.9986L58.608 86.9386V84.5786H65.768V84.9586C65.768 86.6386 65.468 88.0453 64.868 89.1786C64.268 90.2986 63.4414 91.1453 62.388 91.7186C61.348 92.2786 60.148 92.5586 58.788 92.5586ZM66.5895 92.3586L72.2495 78.2986H74.4695L80.1095 92.3586H77.2095L72.8495 80.8186H73.8495L69.4295 92.3586H66.5895ZM69.5895 89.7386V87.4586H77.1495V89.7386H69.5895ZM82.1701 92.3586V78.2986H84.0701L84.8901 81.0186V92.3586H82.1701ZM91.8901 92.3586L83.5501 81.5586L84.0701 78.2986L92.4101 89.0986L91.8901 92.3586ZM91.8901 92.3586L91.1101 89.7186V78.2986H93.8501V92.3586H91.8901ZM97.1013 92.3586V78.2986H99.8213V92.3586H97.1013ZM109.627 92.5586C108.6 92.5586 107.647 92.3786 106.767 92.0186C105.887 91.6453 105.113 91.132 104.447 90.4786C103.793 89.812 103.287 89.0386 102.927 88.1586C102.58 87.2786 102.407 86.332 102.407 85.3186C102.407 84.3053 102.58 83.3586 102.927 82.4786C103.287 81.5986 103.793 80.832 104.447 80.1786C105.113 79.5253 105.88 79.012 106.747 78.6386C107.627 78.2653 108.587 78.0786 109.627 78.0786C110.747 78.0786 111.733 78.2653 112.587 78.6386C113.44 78.9986 114.193 79.4986 114.847 80.1386L113.007 81.9786C112.62 81.552 112.147 81.2186 111.587 80.9786C111.027 80.7386 110.373 80.6186 109.627 80.6186C108.973 80.6186 108.373 80.732 107.827 80.9586C107.293 81.172 106.827 81.492 106.427 81.9186C106.027 82.332 105.72 82.832 105.507 83.4186C105.293 83.992 105.187 84.6253 105.187 85.3186C105.187 86.0253 105.293 86.6653 105.507 87.2386C105.72 87.812 106.027 88.312 106.427 88.7386C106.827 89.152 107.293 89.472 107.827 89.6986C108.373 89.9253 108.973 90.0386 109.627 90.0386C110.413 90.0386 111.087 89.9186 111.647 89.6786C112.22 89.4386 112.7 89.0986 113.087 88.6586L114.927 90.4986C114.273 91.152 113.513 91.6586 112.647 92.0186C111.78 92.3786 110.773 92.5586 109.627 92.5586Z" fill="#55700B"/>
<path d="M46.1471 111.394V100.146H48.3231V111.394H46.1471ZM47.7471 106.786V104.85H53.4111V106.786H47.7471ZM47.7471 102.066V100.146H53.6831V102.066H47.7471ZM60.8405 111.57C60.0191 111.57 59.2511 111.42 58.5365 111.122C57.8325 110.823 57.2138 110.412 56.6805 109.89C56.1578 109.356 55.7471 108.738 55.4485 108.034C55.1498 107.319 55.0005 106.556 55.0005 105.746C55.0005 104.935 55.1445 104.183 55.4325 103.49C55.7311 102.786 56.1418 102.172 56.6645 101.65C57.1978 101.116 57.8165 100.706 58.5205 100.418C59.2245 100.119 59.9871 99.9696 60.8085 99.9696C61.6405 99.9696 62.4085 100.119 63.1125 100.418C63.8165 100.706 64.4298 101.116 64.9525 101.65C65.4858 102.172 65.9018 102.786 66.2005 103.49C66.4991 104.194 66.6485 104.951 66.6485 105.762C66.6485 106.572 66.4991 107.33 66.2005 108.034C65.9018 108.738 65.4858 109.356 64.9525 109.89C64.4298 110.412 63.8165 110.823 63.1125 111.122C62.4191 111.42 61.6618 111.57 60.8405 111.57ZM60.8085 109.538C61.5338 109.538 62.1631 109.378 62.6965 109.058C63.2298 108.738 63.6458 108.295 63.9445 107.73C64.2538 107.164 64.4085 106.503 64.4085 105.746C64.4085 105.191 64.3231 104.684 64.1525 104.226C63.9818 103.767 63.7365 103.372 63.4165 103.042C63.0965 102.7 62.7178 102.439 62.2805 102.258C61.8431 102.076 61.3525 101.986 60.8085 101.986C60.1045 101.986 59.4805 102.146 58.9365 102.466C58.4031 102.775 57.9818 103.212 57.6725 103.778C57.3738 104.343 57.2245 104.999 57.2245 105.746C57.2245 106.311 57.3098 106.828 57.4805 107.298C57.6618 107.767 57.9071 108.167 58.2165 108.498C58.5365 108.828 58.9151 109.084 59.3525 109.266C59.8005 109.447 60.2858 109.538 60.8085 109.538ZM74.098 111.57C73.2766 111.57 72.5086 111.42 71.794 111.122C71.09 110.823 70.4713 110.412 69.938 109.89C69.4153 109.356 69.0046 108.738 68.706 108.034C68.4073 107.319 68.258 106.556 68.258 105.746C68.258 104.935 68.402 104.183 68.69 103.49C68.9886 102.786 69.3993 102.172 69.922 101.65C70.4553 101.116 71.074 100.706 71.778 100.418C72.482 100.119 73.2446 99.9696 74.066 99.9696C74.898 99.9696 75.666 100.119 76.37 100.418C77.074 100.706 77.6873 101.116 78.21 101.65C78.7433 102.172 79.1593 102.786 79.458 103.49C79.7566 104.194 79.906 104.951 79.906 105.762C79.906 106.572 79.7566 107.33 79.458 108.034C79.1593 108.738 78.7433 109.356 78.21 109.89C77.6873 110.412 77.074 110.823 76.37 111.122C75.6766 111.42 74.9193 111.57 74.098 111.57ZM74.066 109.538C74.7913 109.538 75.4206 109.378 75.954 109.058C76.4873 108.738 76.9033 108.295 77.202 107.73C77.5113 107.164 77.666 106.503 77.666 105.746C77.666 105.191 77.5806 104.684 77.41 104.226C77.2393 103.767 76.994 103.372 76.674 103.042C76.354 102.7 75.9753 102.439 75.538 102.258C75.1006 102.076 74.61 101.986 74.066 101.986C73.362 101.986 72.738 102.146 72.194 102.466C71.6606 102.775 71.2393 103.212 70.93 103.778C70.6313 104.343 70.482 104.999 70.482 105.746C70.482 106.311 70.5673 106.828 70.738 107.298C70.9193 107.767 71.1646 108.167 71.474 108.498C71.794 108.828 72.1726 109.084 72.61 109.266C73.058 109.447 73.5433 109.538 74.066 109.538ZM83.4388 111.394V109.458H86.3028C87.0282 109.458 87.6628 109.308 88.2068 109.01C88.7508 108.7 89.1722 108.268 89.4708 107.714C89.7802 107.159 89.9348 106.503 89.9348 105.746C89.9348 105.01 89.7802 104.37 89.4708 103.826C89.1615 103.271 88.7348 102.844 88.1908 102.546C87.6468 102.236 87.0175 102.082 86.3028 102.082H83.3908V100.146H86.3348C87.1668 100.146 87.9348 100.284 88.6388 100.562C89.3535 100.839 89.9722 101.234 90.4948 101.746C91.0282 102.247 91.4388 102.839 91.7268 103.522C92.0255 104.204 92.1748 104.951 92.1748 105.762C92.1748 106.572 92.0255 107.324 91.7268 108.018C91.4388 108.7 91.0335 109.298 90.5108 109.81C89.9882 110.311 89.3695 110.7 88.6548 110.978C87.9508 111.255 87.1882 111.394 86.3668 111.394H83.4388ZM81.9508 111.394V100.146H84.1268V111.394H81.9508Z" fill="#879316"/>
<path d="M130.451 62.6096H94.2436C93.4274 62.6096 92.7653 63.2709 92.7653 64.0871C92.7653 64.9032 93.4274 65.5653 94.2436 65.5653H130.452C131.812 65.5653 132.914 66.6677 132.914 68.028V114.581C132.914 115.942 131.812 117.044 130.452 117.044H6.31046C4.95017 117.044 3.84778 115.942 3.84778 114.581V68.028C3.84778 66.6677 4.95017 65.5653 6.31046 65.5653H42.4785C43.2947 65.5653 43.9568 64.904 43.9568 64.0871C43.9568 63.2709 43.2955 62.6096 42.4785 62.6096H6.31125C3.3186 62.6096 0.89209 65.0353 0.89209 68.0288V114.581C0.89209 117.574 3.3186 120 6.31125 120H130.451C133.444 120 135.869 117.574 135.869 114.581V68.0288C135.87 65.0353 133.444 62.6096 130.451 62.6096Z" fill="#CC2F1F"/>
<path d="M68.3474 69.7244V31.3414C68.3474 31.3414 66.6741 31.7259 66.6741 29.9559C66.6741 28.6845 66.3172 10.5816 66.1151 0.477711C66.1072 0.096358 65.545 0.0861367 65.5167 0.465917C64.7107 11.364 62.9778 31.7518 61.2856 31.7518C58.3622 31.7518 59.6281 11.8601 60.5811 0.583075C60.6377 -0.0821304 59.6706 -0.233099 59.5251 0.41874C57.5869 9.10495 54.7437 23.6593 54.7437 34.2656C54.7437 50.3524 64.9042 51.892 64.9042 57.5109C64.9042 63.1297 64.0573 69.7236 64.0573 69.7236L68.3474 69.7244Z" fill="#B1BCBB"/>
<path d="M68.3462 69.7244V31.3414C68.3462 31.3414 70.0194 31.7259 70.0194 29.9559C70.0194 28.6845 70.3764 10.5816 70.5777 0.477711C70.5856 0.096358 71.1478 0.0861367 71.1761 0.465917C71.982 11.364 73.715 31.7518 75.4071 31.7518C78.3306 31.7518 77.0639 11.8601 76.1117 0.583075C76.0558 -0.0821304 77.0222 -0.233099 77.1676 0.41874C79.1059 9.10495 81.9491 23.6593 81.9491 34.2656C81.9491 50.3524 71.7886 51.892 71.7886 57.5109C71.7886 63.1297 72.6354 69.7236 72.6354 69.7236L68.3462 69.7244Z" fill="#9AA5A4"/>
<path d="M86.7094 58.3592L103.888 26.9695C103.888 26.9695 69.6672 44.3152 86.7094 58.3592Z" fill="#879316"/>
<path d="M86.7095 58.3592L103.888 26.9695C103.888 26.9695 107.725 65.1433 86.7095 58.3592Z" fill="#55700B"/>
<path d="M88.5595 30.5055L96.4091 9.65845C96.4091 9.65845 76.8295 23.3368 88.5595 30.5055Z" fill="#879316"/>
<path d="M88.5596 30.5055L96.4092 9.65845C96.4092 9.65845 102.105 32.8534 88.5596 30.5055Z" fill="#55700B"/>
<path d="M100.027 24.5548L106.737 17.968C106.737 17.968 96.809 19.7254 100.027 24.5548Z" fill="#879316"/>
<path d="M100.028 24.5548L106.739 17.968C106.739 17.968 104.797 27.8612 100.028 24.5548Z" fill="#55700B"/>
<path d="M49.9849 58.3592L32.8066 26.9695C32.8066 26.9695 67.0278 44.3152 49.9849 58.3592Z" fill="#879316"/>
<path d="M49.985 58.3592L32.8068 26.9695C32.8068 26.9695 28.9697 65.1433 49.985 58.3592Z" fill="#55700B"/>
<path d="M48.1343 30.5057L40.2847 9.65869C40.2847 9.65869 59.8642 23.3371 48.1343 30.5057Z" fill="#879316"/>
<path d="M48.1352 30.5057L40.2856 9.65869C40.2856 9.65869 34.5897 32.8536 48.1352 30.5057Z" fill="#55700B"/>
<path d="M36.6678 24.5548L29.9575 17.968C29.9575 17.968 39.8845 19.7254 36.6678 24.5548Z" fill="#879316"/>
<path d="M36.6678 24.5548L29.9575 17.968C29.9575 17.968 31.8989 27.8612 36.6678 24.5548Z" fill="#55700B"/>
</svg>
