<svg width="138" height="120" viewBox="0 0 138 120" fill="none" xmlns="http://www.w3.org/2000/svg">
<path d="M23.1897 89.8733V75.8133H25.9097V89.8733H23.1897ZM32.0097 89.8733V75.8133H34.7297V89.8733H32.0097ZM24.9097 83.8133V81.4133H32.7697V83.8133H24.9097ZM38.0038 89.8733V75.8133H40.7238V89.8733H38.0038ZM40.0038 89.8733V87.4733H47.7838V89.8733H40.0038ZM40.0038 83.8533V81.5333H47.0838V83.8533H40.0038ZM40.0038 78.2133V75.8133H47.6838V78.2133H40.0038ZM49.395 89.8733L55.055 75.8133H57.275L62.915 89.8733H60.015L55.655 78.3333H56.655L52.235 89.8733H49.395ZM52.395 87.2533V84.9733H59.955V87.2533H52.395ZM64.9756 89.8733V75.8133H67.6956V89.8733H64.9756ZM66.9756 89.8733V87.4533H74.1356V89.8733H66.9756ZM78.3674 89.8733V76.1133H81.1074V89.8733H78.3674ZM73.8874 78.2333V75.8133H85.5874V78.2333H73.8874ZM87.8655 89.8733V75.8133H90.5855V89.8733H87.8655ZM96.6855 89.8733V75.8133H99.4055V89.8733H96.6855ZM89.5855 83.8133V81.4133H97.4455V83.8133H89.5855ZM107.04 84.4533L101.6 75.8133H104.74L108.96 82.7333H107.16L111.38 75.8133H114.48L108.98 84.4533H107.04ZM106.68 89.8733V82.9933H109.42V89.8733H106.68Z" fill="#55700B"/>
<path d="M48.3956 107.164V97.3221H50.2996V107.164H48.3956ZM49.7956 103.132V101.438H54.7516V103.132H49.7956ZM49.7956 99.0021V97.3221H54.9896V99.0021H49.7956ZM61.2523 107.318C60.5337 107.318 59.8617 107.187 59.2363 106.926C58.6203 106.665 58.079 106.305 57.6123 105.848C57.155 105.381 56.7957 104.84 56.5343 104.224C56.273 103.599 56.1423 102.931 56.1423 102.222C56.1423 101.513 56.2683 100.855 56.5203 100.248C56.7817 99.6321 57.141 99.0954 57.5983 98.6381C58.065 98.1714 58.6063 97.8121 59.2223 97.5601C59.8383 97.2987 60.5057 97.1681 61.2243 97.1681C61.9523 97.1681 62.6243 97.2987 63.2403 97.5601C63.8563 97.8121 64.393 98.1714 64.8503 98.6381C65.317 99.0954 65.681 99.6321 65.9423 100.248C66.2037 100.864 66.3343 101.527 66.3343 102.236C66.3343 102.945 66.2037 103.608 65.9423 104.224C65.681 104.84 65.317 105.381 64.8503 105.848C64.393 106.305 63.8563 106.665 63.2403 106.926C62.6337 107.187 61.971 107.318 61.2523 107.318ZM61.2243 105.54C61.859 105.54 62.4097 105.4 62.8763 105.12C63.343 104.84 63.707 104.453 63.9683 103.958C64.239 103.463 64.3743 102.885 64.3743 102.222C64.3743 101.737 64.2997 101.293 64.1503 100.892C64.001 100.491 63.7863 100.145 63.5063 99.8561C63.2263 99.5574 62.895 99.3287 62.5123 99.1701C62.1297 99.0114 61.7003 98.9321 61.2243 98.9321C60.6083 98.9321 60.0623 99.0721 59.5863 99.3521C59.1197 99.6227 58.751 100.005 58.4803 100.5C58.219 100.995 58.0883 101.569 58.0883 102.222C58.0883 102.717 58.163 103.169 58.3123 103.58C58.471 103.991 58.6857 104.341 58.9563 104.63C59.2363 104.919 59.5677 105.143 59.9503 105.302C60.3423 105.461 60.767 105.54 61.2243 105.54ZM72.8526 107.318C72.134 107.318 71.462 107.187 70.8366 106.926C70.2206 106.665 69.6793 106.305 69.2126 105.848C68.7553 105.381 68.396 104.84 68.1346 104.224C67.8733 103.599 67.7426 102.931 67.7426 102.222C67.7426 101.513 67.8686 100.855 68.1206 100.248C68.382 99.6321 68.7413 99.0954 69.1986 98.6381C69.6653 98.1714 70.2066 97.8121 70.8226 97.5601C71.4386 97.2987 72.106 97.1681 72.8246 97.1681C73.5526 97.1681 74.2246 97.2987 74.8406 97.5601C75.4566 97.8121 75.9933 98.1714 76.4506 98.6381C76.9173 99.0954 77.2813 99.6321 77.5426 100.248C77.804 100.864 77.9346 101.527 77.9346 102.236C77.9346 102.945 77.804 103.608 77.5426 104.224C77.2813 104.84 76.9173 105.381 76.4506 105.848C75.9933 106.305 75.4566 106.665 74.8406 106.926C74.234 107.187 73.5713 107.318 72.8526 107.318ZM72.8246 105.54C73.4593 105.54 74.01 105.4 74.4766 105.12C74.9433 104.84 75.3073 104.453 75.5686 103.958C75.8393 103.463 75.9746 102.885 75.9746 102.222C75.9746 101.737 75.9 101.293 75.7506 100.892C75.6013 100.491 75.3866 100.145 75.1066 99.8561C74.8266 99.5574 74.4953 99.3287 74.1126 99.1701C73.73 99.0114 73.3006 98.9321 72.8246 98.9321C72.2086 98.9321 71.6626 99.0721 71.1866 99.3521C70.72 99.6227 70.3513 100.005 70.0806 100.5C69.8193 100.995 69.6886 101.569 69.6886 102.222C69.6886 102.717 69.7633 103.169 69.9126 103.58C70.0713 103.991 70.286 104.341 70.5566 104.63C70.8366 104.919 71.168 105.143 71.5506 105.302C71.9426 105.461 72.3673 105.54 72.8246 105.54ZM81.0259 107.164V105.47H83.5319C84.1666 105.47 84.7219 105.339 85.1979 105.078C85.6739 104.807 86.0426 104.429 86.3039 103.944C86.5746 103.459 86.7099 102.885 86.7099 102.222C86.7099 101.578 86.5746 101.018 86.3039 100.542C86.0332 100.057 85.6599 99.6834 85.1839 99.4221C84.7079 99.1514 84.1572 99.0161 83.5319 99.0161H80.9839V97.3221H83.5599C84.2879 97.3221 84.9599 97.4434 85.5759 97.6861C86.2012 97.9287 86.7426 98.2741 87.1999 98.7221C87.6666 99.1607 88.0259 99.6787 88.2779 100.276C88.5392 100.873 88.6699 101.527 88.6699 102.236C88.6699 102.945 88.5392 103.603 88.2779 104.21C88.0259 104.807 87.6712 105.33 87.2139 105.778C86.7566 106.217 86.2152 106.557 85.5899 106.8C84.9739 107.043 84.3066 107.164 83.5879 107.164H81.0259ZM79.7239 107.164V97.3221H81.6279V107.164H79.7239Z" fill="#879316"/>
<path d="M88.6776 34.2071C88.5416 33.4321 88.2507 32.4448 88.4955 31.6967L88.5059 31.6792C88.5059 31.6792 110.155 2.79623 105.626 0.150635L87.54 31.1148L78.356 46.8389C79.8075 47.6864 83.8944 47.9105 86.9557 42.6694C89.0973 38.9999 88.9558 35.7978 88.6776 34.2071Z" fill="#9AA5A4"/>
<path d="M86.6165 30.4512L86.5322 30.5951C85.994 31.1539 85.0155 31.3837 84.2857 31.6421C82.7634 32.181 79.9047 33.6302 77.7615 37.2997C74.7002 42.5409 76.903 45.9901 78.3546 46.8384L87.5029 31.177L87.5394 31.115L87.5935 31.0228L105.625 0.150848C101.24 -2.41128 87.4854 28.4861 86.6165 30.4512Z" fill="#B1BCBB"/>
<path d="M51.188 34.2071C51.3231 33.4321 51.6149 32.4448 51.37 31.6967L51.3597 31.6792C51.3597 31.6792 29.7108 2.79623 34.2397 0.150635L52.3256 31.1148L61.5096 46.8389C60.0581 47.6864 55.9712 47.9105 52.9099 42.6694C50.7675 38.9999 50.9098 35.7978 51.188 34.2071Z" fill="#9AA5A4"/>
<path d="M53.2483 30.4512L53.3326 30.5951C53.8707 31.1539 54.8493 31.3837 55.5791 31.6421C57.1014 32.181 59.96 33.6302 62.1032 37.2997C65.1646 42.5409 62.9618 45.9901 61.5102 46.8384L52.3627 31.177L52.3261 31.115L52.2721 31.0228L34.2402 0.150848C38.6252 -2.41128 52.3794 28.4861 53.2483 30.4512Z" fill="#B1BCBB"/>
<path d="M63.0358 40.3155C63.0358 40.3155 57.8066 37.2343 59.1135 34.432C60.4212 31.6306 62.5684 34.432 62.5684 34.432C62.5684 34.432 57.9696 25.6542 60.9697 23.8799C63.9691 22.1055 67.3309 31.3508 67.3309 31.3508C67.3309 31.3508 66.3038 23.8012 69.2921 23.6541C72.2803 23.507 73.588 34.0592 73.588 34.0592C73.588 34.0592 74.8957 30.978 77.6971 31.2578C80.4985 31.5376 78.7766 42.4634 78.7766 42.4634H64.3435L63.0358 40.3155Z" fill="#879316"/>
<path d="M84.4168 47.4127C89.6146 47.4127 93.8282 43.1991 93.8282 38.0013C93.8282 32.8035 89.6146 28.5898 84.4168 28.5898C79.219 28.5898 75.0054 32.8035 75.0054 38.0013C75.0054 43.1991 79.219 47.4127 84.4168 47.4127Z" fill="#CC2F1F"/>
<path d="M65.595 37.0262C70.7928 37.0262 75.0064 32.8126 75.0064 27.6148C75.0064 22.417 70.7928 18.2034 65.595 18.2034C60.3972 18.2034 56.1836 22.417 56.1836 27.6148C56.1836 32.8126 60.3972 37.0262 65.595 37.0262Z" fill="#E24B44"/>
<path d="M47.0312 35.3655C47.0312 35.3655 48.7427 18.6501 53.8638 17.623C58.984 16.5959 54.4083 29.4828 54.4083 29.4828C54.4083 29.4828 59.2639 23.5064 62.0653 24.8133C64.8667 26.121 57.7694 33.0569 57.7694 33.0569C57.7694 33.0569 62.5319 29.3891 64.9597 30.8828C67.3875 32.3773 62.5319 37.2328 62.5319 37.2328C62.5319 37.2328 67.2014 35.1787 66.1736 42.462H47.59C47.5916 42.4628 46.4524 39.4229 47.0312 35.3655Z" fill="#55700B"/>
<path d="M37.6002 40.3155C37.6002 40.3155 32.3711 37.2343 33.678 34.432C34.9849 31.6298 37.1328 34.432 37.1328 34.432C37.1328 34.432 32.534 25.6542 35.5342 23.8799C38.5335 22.1055 41.8954 31.3508 41.8954 31.3508C41.8954 31.3508 40.8683 23.8012 43.8565 23.6541C46.8447 23.507 48.1524 34.0592 48.1524 34.0592C48.1524 34.0592 49.4601 30.978 52.2615 31.2578C55.0629 31.5376 53.341 42.4634 53.341 42.4634H38.9071L37.6002 40.3155Z" fill="#879316"/>
<path d="M99.7837 40.7676C99.7837 40.7676 103.911 38.335 102.879 36.1242C101.847 33.9127 100.152 36.1242 100.152 36.1242C100.152 36.1242 103.782 29.1955 101.414 27.7947C99.046 26.394 96.3925 33.6917 96.3925 33.6917C96.3925 33.6917 97.2033 27.7327 94.8447 27.6167C92.4861 27.5006 91.4543 35.8293 91.4543 35.8293C91.4543 35.8293 90.4224 33.3968 88.2109 33.6178C85.9993 33.8388 87.3587 42.4632 87.3587 42.4632H98.7511L99.7837 40.7676Z" fill="#879316"/>
<path d="M60.4976 35.5461L80.295 23.9668C80.295 23.9668 81.0423 32.0499 72.9179 36.9261C64.7927 41.8023 60.4976 35.5461 60.4976 35.5461Z" fill="#F4C916"/>
<path d="M69.0805 40.3145H37.5997C37.5997 40.3145 37.0615 65.1543 69.0813 65.1543L69.0805 40.3145Z" fill="#EFAE67"/>
<path d="M69.0801 40.3145H100.561C100.561 40.3145 101.099 65.1543 69.0801 65.1543V40.3145Z" fill="#D88F4E"/>
<path d="M69.0811 61.793H50.4872C49.5587 61.793 48.8066 62.5458 48.8066 63.4735C48.8066 64.402 49.5595 65.1548 50.4872 65.1548H69.0811V61.793Z" fill="#EFAE67"/>
<path d="M69.0801 65.1548H87.6748C88.6033 65.1548 89.3553 64.402 89.3553 63.4735C89.3553 62.545 88.6025 61.793 87.6748 61.793H69.0801V65.1548Z" fill="#D88F4E"/>
<path d="M131.854 61.978H95.248C94.4229 61.978 93.7535 62.6474 93.7535 63.4725C93.7535 64.2977 94.4229 64.9663 95.248 64.9663H131.855C133.23 64.9663 134.344 66.0808 134.344 67.4561V114.522C134.344 115.897 133.23 117.012 131.855 117.012H6.34714C4.97188 117.012 3.85736 115.897 3.85736 114.522V67.4561C3.85736 66.0808 4.97188 64.9663 6.34714 64.9663H42.9133C43.7384 64.9663 44.4078 64.2977 44.4078 63.4725C44.4078 62.6474 43.7392 61.978 42.9133 61.978H6.34794C3.32236 61.978 0.869141 64.4312 0.869141 67.4568V114.521C0.869141 117.547 3.32236 120 6.34794 120H131.854C134.879 120 137.332 117.548 137.332 114.522V67.4568C137.333 64.4312 134.879 61.978 131.854 61.978Z" fill="#879316"/>
</svg>
